<?xml version="1.0" encoding="UTF-8" standalone="no"?>
<!-- Uploaded to: SVG Repo, www.svgrepo.com, Generator: SVG Repo Mixer Tools -->

<svg
   fill="#000000"
   version="1.1"
   id="Capa_1"
   width="302.67566"
   height="397.23792"
   viewBox="0 0 11.972714 15.713242"
   xml:space="preserve"
   sodipodi:docname="America.svg"
   inkscape:version="1.1.2 (0a00cf5339, 2022-02-04)"
   xmlns:inkscape="http://www.inkscape.org/namespaces/inkscape"
   xmlns:sodipodi="http://sodipodi.sourceforge.net/DTD/sodipodi-0.dtd"
   xmlns="http://www.w3.org/2000/svg"
   xmlns:svg="http://www.w3.org/2000/svg"><defs
   id="defs25">
		
		
		
		
		
		
		
		
	</defs><sodipodi:namedview
   id="namedview23"
   pagecolor="#ffffff"
   bordercolor="#666666"
   borderopacity="1.0"
   inkscape:pageshadow="2"
   inkscape:pageopacity="0.0"
   inkscape:pagecheckerboard="0"
   showgrid="false"
   fit-margin-top="0"
   fit-margin-left="0"
   fit-margin-right="0"
   fit-margin-bottom="0"
   inkscape:zoom="1.327593"
   inkscape:cx="337.0762"
   inkscape:cy="167.21993"
   inkscape:window-width="2560"
   inkscape:window-height="1016"
   inkscape:window-x="0"
   inkscape:window-y="34"
   inkscape:window-maximized="1"
   inkscape:current-layer="g20" />
<g
   id="g20"
   transform="translate(-4.116458e-5,-15.83475)">
	<path
   d="M 10.768,25.369 C 10.734,25.347 10.166,24.836 10.025,24.654 9.887,24.472 9.621,24.424 9.482,24.351 9.342,24.278 8.418,23.974 8.196,24.132 7.977,24.289 7.675,24.386 7.558,24.132 7.443,23.876 7.385,23.84 7.223,23.804 7.061,23.768 7.142,23.574 7.131,23.404 7.118,23.233 7.026,23.052 6.91,23.174 6.794,23.296 6.4,23.611 6.343,23.451 6.285,23.295 6.006,22.639 6.424,22.517 c 0.416,-0.121 0.764,-0.049 0.869,0.06 0.104,0.109 0.184,0.413 0.313,0.376 0.128,-0.037 0.058,-0.268 0.104,-0.461 0.046,-0.192 0.349,-0.448 0.486,-0.715 0.139,-0.268 0.162,-0.425 0.335,-0.499 0.176,-0.072 0.268,-0.169 0.43,-0.291 0.163,-0.122 0.416,-0.229 0.511,-0.292 0.093,-0.062 0.509,-0.267 0.647,-0.23 0.139,0.037 0.231,-0.013 0.116,-0.219 C 10.119,20.04 9.969,19.421 9.749,19.142 9.529,18.863 9.505,18.788 9.401,18.523 9.297,18.255 9.18,18.025 9.099,18.207 9.018,18.39 8.845,18.633 8.752,18.401 8.66,18.171 8.671,18.182 8.555,18.073 8.44,17.965 8.346,17.939 8.185,17.891 8.023,17.842 7.861,17.903 7.872,18.061 7.883,18.22 7.72,18.5 7.826,18.706 c 0.104,0.207 0.197,0.426 0.057,0.498 -0.138,0.072 0,0.511 -0.138,0.497 -0.139,-0.011 -0.208,0.014 -0.208,-0.146 0,-0.157 0.069,-0.4 -0.187,-0.4 -0.254,0 -0.405,-0.133 -0.59,-0.267 C 6.574,18.755 6.424,18.826 6.47,18.524 6.516,18.22 6.448,18.111 6.655,17.941 6.864,17.772 6.911,17.674 7.061,17.747 7.212,17.82 7.315,17.82 7.41,17.735 7.502,17.65 7.675,17.686 7.675,17.577 c 0,-0.108 -0.197,-0.108 -0.173,-0.29 0.022,-0.184 0.116,-0.086 0.15,-0.39 C 7.686,16.594 7.432,16.133 7.177,16.193 6.921,16.255 6.529,16.606 6.448,16.448 6.366,16.29 6.204,16.363 5.891,16.472 5.578,16.581 4.281,16.363 4.189,16.253 c 0,0 -0.221,-0.157 -0.337,-0.072 C 3.737,16.266 3.273,16.229 3.134,16.205 2.994,16.181 2.867,16.362 2.695,16.303 2.519,16.241 1.906,16.12 1.768,16.023 1.627,15.926 1.418,15.926 1.328,15.878 1.235,15.828 0.898,15.805 0.83,15.901 c -0.069,0.097 -0.324,0.268 -0.452,0.388 -0.127,0.122 -0.276,0.099 -0.15,0.354 0.127,0.254 -0.324,0.413 -0.209,0.691 0.115,0.277 -0.023,1.03 0.44,1.177 0.464,0.146 0.846,0.23 1.112,0.013 0.268,-0.219 0.673,-0.219 0.8,0.024 0.127,0.242 0.197,0.606 0.613,0.812 0.416,0.208 0.776,0.803 0.753,1.07 -0.022,0.267 0.013,1.152 0.439,1.663 0.43,0.51 0.87,1.433 0.903,1.214 0.035,-0.219 0.035,-0.438 0.129,-0.28 0.091,0.159 0.335,0.645 0.729,0.729 0.395,0.085 0.592,0.108 0.741,0.256 0.15,0.145 0.279,0.229 0.44,0.303 0.162,0.073 0.556,0.292 0.637,0.438 0.082,0.146 0.047,0.34 -0.035,0.559 -0.08,0.219 -0.173,0.437 -0.058,0.644 0.117,0.206 0.36,0.802 0.558,0.935 0.197,0.134 0.392,0.352 0.346,0.656 -0.046,0.301 -0.266,1.6 -0.243,1.892 0.024,0.29 -0.265,1.249 -0.034,1.638 0.231,0.389 0.627,0.511 0.8,0.46 0.173,-0.047 0.035,-0.06 -0.047,-0.242 -0.081,-0.183 -0.07,-0.413 0.023,-0.582 0.094,-0.171 0.094,-0.268 0.047,-0.462 -0.047,-0.193 -0.023,-0.304 0.092,-0.448 0.117,-0.146 0.603,-0.534 0.754,-0.704 0.149,-0.17 1.101,-1.336 1.228,-1.434 0.127,-0.097 0.416,-0.327 0.51,-0.69 0.093,-0.364 0.428,-1.08 0.197,-1.264 -0.233,-0.183 -1.09,-0.317 -1.125,-0.342 z"
   id="path2"
   style="fill:#808080" />
</g>
</svg>
