<?xml version="1.0" standalone="no"?>
<!DOCTYPE svg PUBLIC "-//W3C//DTD SVG 20010904//EN"
 "http://www.w3.org/TR/2001/REC-SVG-20010904/DTD/svg10.dtd">
<svg version="1.0" xmlns="http://www.w3.org/2000/svg"
 width="2433.000000pt" height="3306.000000pt" viewBox="0 0 2433.000000 3306.000000"
 preserveAspectRatio="xMidYMid meet">
<metadata>
Created by potrace 1.16, written by Peter Selinger 2001-2019
</metadata>
<g transform="translate(0.000000,3306.000000) scale(0.100000,-0.100000)"
fill="#000000" stroke="none">
<path d="M380 33043 c-112 -6 -286 -25 -325 -35 -84 -21 7 -34 445 -63 1875
-123 2953 -361 3910 -861 1575 -822 2515 -2188 3089 -4489 38 -154 126 -525
196 -823 153 -662 214 -909 310 -1247 277 -977 600 -1723 1149 -2649 26 -43
46 -80 44 -82 -8 -7 -247 -107 -408 -169 -382 -147 -841 -342 -981 -415 -25
-14 -314 309 -768 860 -215 260 -383 450 -448 506 -121 104 -153 117 -153 60
0 -102 185 -392 803 -1254 131 -184 237 -335 235 -337 -2 -1 -88 -49 -193
-105 -104 -57 -202 -111 -216 -121 -14 -10 -154 -92 -311 -182 -157 -91 -387
-233 -511 -316 -123 -83 -228 -151 -232 -151 -9 0 -155 126 -577 497 -556 491
-758 643 -848 643 -44 0 -40 -31 15 -114 95 -144 276 -343 833 -914 l316 -323
-35 -27 c-100 -79 -486 -430 -722 -659 -202 -196 -345 -356 -532 -593 -228
-291 -436 -550 -441 -550 -3 0 -89 47 -193 104 -505 280 -761 379 -761 295 0
-63 228 -250 628 -518 84 -56 152 -105 150 -109 -2 -4 -52 -81 -112 -172 -127
-192 -269 -467 -375 -725 -41 -99 -104 -232 -139 -295 -257 -453 -479 -1036
-586 -1533 -14 -64 -48 -190 -75 -280 -94 -311 -162 -767 -176 -1167 -3 -96 1
-389 10 -650 39 -1215 52 -1341 265 -2660 176 -1087 247 -1451 435 -2251 193
-823 383 -1511 499 -1807 52 -133 110 -233 126 -215 19 21 25 98 18 213 -9
149 -25 287 -84 724 -66 486 -237 1884 -308 2516 -61 543 -81 956 -80 1680 0
397 5 617 18 810 16 257 18 271 64 448 l47 184 35 -6 c137 -23 514 -47 1090
-71 201 -8 588 -24 860 -35 272 -11 621 -27 775 -35 270 -14 816 -55 824 -61
2 -2 -15 -40 -37 -86 -45 -94 -55 -133 -46 -189 13 -77 85 -107 382 -155 90
-15 159 -30 155 -35 -57 -54 -532 -235 -928 -354 -512 -154 -1015 -266 -1795
-400 -427 -74 -585 -105 -708 -140 -158 -46 -211 -95 -129 -122 110 -36 326
-27 1152 47 1024 92 1653 134 1954 128 l165 -3 -205 -93 c-571 -261 -1068
-592 -1124 -751 -20 -58 -20 -58 23 -79 34 -18 45 -18 137 -7 55 7 185 36 289
64 104 28 190 50 193 48 5 -6 -565 -218 -1329 -496 -815 -297 -1046 -390
-1097 -445 -19 -20 -20 -25 -7 -35 8 -7 41 -12 73 -13 111 -1 286 40 813 190
797 227 1255 331 1785 405 339 48 786 84 875 72 l50 -7 -323 -163 c-550 -278
-875 -485 -1025 -654 -88 -98 -104 -159 -51 -187 47 -24 154 -6 471 81 150 42
277 74 281 72 16 -5 -668 -338 -1358 -659 -824 -384 -1008 -483 -974 -524 36
-44 216 9 844 248 209 80 479 179 600 221 675 234 1412 400 1835 414 91 3 163
3 160 0 -3 -3 -116 -54 -250 -113 -453 -197 -664 -296 -850 -398 -305 -167
-495 -319 -525 -420 -14 -45 -14 -46 15 -66 54 -39 126 -29 657 89 101 23 191
41 200 41 21 0 -36 -37 -547 -358 -1009 -633 -1292 -822 -1468 -979 -74 -66
-111 -118 -95 -134 22 -22 179 52 528 251 314 179 569 317 764 415 621 310
1298 540 1721 585 l165 17 60 -24 c33 -14 63 -28 67 -31 4 -4 -23 -32 -60 -63
-73 -62 -193 -124 -637 -334 -749 -353 -986 -500 -1015 -631 -8 -33 -6 -39 18
-58 39 -31 132 -36 292 -15 74 10 151 21 170 25 31 6 33 5 20 -8 -8 -8 -175
-131 -370 -273 -683 -498 -1015 -754 -1177 -909 -147 -140 -188 -206 -121
-192 47 9 128 60 562 349 656 437 1041 662 1473 861 304 140 570 238 754 280
l146 32 56 -19 c31 -10 57 -23 57 -29 0 -5 -17 -42 -37 -82 -29 -57 -67 -102
-192 -229 l-156 -158 -285 -153 c-617 -331 -908 -544 -947 -695 -11 -42 -10
-48 9 -68 16 -18 34 -23 84 -25 l64 -3 -162 -145 c-457 -409 -868 -813 -989
-971 -63 -83 -104 -162 -94 -179 14 -23 74 22 400 305 624 541 1041 844 1494
1084 l194 103 166 28 c91 16 243 38 336 49 94 12 187 23 208 26 28 4 37 2 37
-9 0 -22 -214 -252 -427 -459 l-190 -187 -196 -104 c-309 -165 -459 -282 -474
-369 -7 -47 30 -77 96 -77 l45 0 -50 -52 c-142 -147 -520 -603 -716 -863 -191
-255 -328 -473 -328 -526 0 -60 66 3 330 311 421 493 646 726 930 967 186 157
299 236 350 247 90 18 415 47 594 53 l199 6 -63 -93 c-56 -83 -218 -297 -434
-572 -64 -82 -75 -91 -195 -159 -69 -40 -165 -101 -212 -135 -90 -67 -199
-173 -199 -196 0 -7 -3 -23 -6 -35 -8 -31 27 -46 103 -44 35 1 63 0 63 -4 0
-3 -58 -85 -128 -183 -326 -451 -539 -802 -608 -1006 -24 -69 -32 -146 -15
-146 13 0 22 13 126 179 258 412 565 799 840 1062 181 173 223 208 264 219
125 33 778 96 798 77 4 -4 -5 -31 -19 -61 -26 -53 -314 -538 -349 -587 -10
-14 -94 -74 -186 -133 -188 -118 -293 -201 -353 -277 -90 -115 -24 -137 191
-64 38 13 69 21 69 18 0 -3 -8 -17 -19 -31 -29 -42 -265 -451 -361 -627 -240
-439 -360 -730 -348 -845 1 -19 8 -35 13 -35 6 0 57 90 115 200 132 251 190
353 303 535 203 325 487 689 672 862 75 71 89 79 148 93 131 30 591 94 602 83
7 -7 -66 -202 -106 -283 l-34 -69 -240 -141 c-445 -261 -656 -429 -667 -532
-3 -28 -2 -28 47 -26 37 1 109 24 270 87 197 78 363 132 373 121 2 -2 -12 -38
-31 -82 -192 -438 -415 -1046 -511 -1398 -70 -256 -101 -467 -77 -528 20 -52
23 -45 106 237 54 181 145 443 231 659 l58 147 186 97 c177 91 370 171 558
229 138 43 367 103 372 98 2 -3 -39 -92 -92 -199 l-97 -194 -198 -159 c-295
-239 -443 -392 -443 -461 0 -21 3 -23 29 -18 16 4 107 53 203 110 157 94 218
126 218 114 0 -3 -12 -31 -26 -63 -44 -100 -153 -390 -216 -574 -120 -356
-188 -634 -188 -771 0 -143 18 -145 60 -7 190 629 331 962 537 1270 123 182
262 332 338 361 48 19 276 69 283 62 2 -2 -19 -37 -47 -78 -37 -56 -97 -117
-233 -240 -198 -178 -305 -290 -361 -378 -61 -95 -84 -169 -53 -169 8 0 80 50
161 110 156 118 251 170 541 298 232 103 557 192 649 177 22 -3 123 -26 225
-50 236 -56 312 -65 545 -65 236 0 313 9 545 67 222 55 278 57 435 19 181 -44
295 -82 460 -156 280 -126 366 -174 520 -290 81 -60 153 -110 161 -110 32 0 5
86 -57 177 -59 87 -162 194 -353 367 -139 126 -201 189 -238 244 -27 40 -48
75 -46 77 6 6 234 -43 284 -61 117 -44 362 -361 518 -673 122 -243 256 -600
346 -922 37 -134 44 -149 60 -133 18 18 13 166 -9 281 -23 120 -76 314 -138
508 -50 156 -195 543 -242 648 -17 38 -31 71 -31 74 0 12 59 -18 205 -106 217
-131 245 -142 245 -98 0 69 -144 218 -442 458 l-197 159 -96 197 c-52 108 -94
198 -92 199 1 2 25 -3 52 -11 440 -121 615 -184 869 -314 218 -111 181 -65
301 -376 78 -203 148 -413 215 -640 22 -77 45 -144 50 -149 19 -19 32 48 27
139 -10 160 -57 350 -178 722 -106 326 -292 810 -424 1107 -14 32 -24 60 -23
62 10 9 179 -45 373 -121 298 -117 353 -122 309 -28 -50 104 -265 267 -658
498 l-241 141 -34 70 c-18 38 -51 117 -72 177 -34 93 -36 107 -21 107 72 0
475 -59 591 -86 57 -13 71 -22 148 -94 47 -44 144 -148 215 -232 275 -324 519
-700 775 -1193 48 -93 93 -170 98 -170 17 0 17 80 0 147 -58 229 -283 669
-694 1360 l-23 37 70 -23 c153 -52 232 -57 232 -13 0 68 -140 194 -398 357
-187 118 -154 80 -361 425 -134 224 -196 343 -187 353 19 18 678 -46 797 -78
41 -11 85 -48 264 -219 299 -287 608 -683 907 -1165 26 -42 52 -76 58 -76 19
0 10 88 -16 162 -71 197 -283 544 -614 1003 l-122 170 76 5 c41 3 80 10 86 16
7 7 9 25 5 45 -13 71 -170 203 -403 341 l-141 83 -98 125 c-271 344 -433 563
-450 606 -6 16 9 17 188 11 176 -6 501 -35 589 -53 51 -11 164 -90 350 -247
284 -241 499 -463 902 -933 232 -272 319 -364 342 -364 77 0 -158 367 -533
830 -138 171 -405 482 -490 573 l-54 57 43 0 c25 0 56 8 75 20 30 19 32 23 25
55 -21 92 -166 205 -477 372 l-198 106 -185 180 c-202 197 -430 443 -430 464
0 10 9 12 33 8 17 -3 93 -12 167 -20 155 -18 359 -48 475 -71 162 -32 670
-332 1062 -627 213 -160 403 -315 698 -572 338 -293 389 -332 401 -301 8 20
-30 89 -99 180 -117 153 -496 527 -939 925 l-208 186 64 3 c51 2 68 7 85 26
20 22 21 28 11 67 -7 26 -33 68 -67 108 -125 147 -389 323 -878 584 l-280 149
-153 152 c-127 125 -160 165 -197 233 -25 44 -45 86 -45 91 0 12 84 42 117 42
65 0 306 -66 488 -134 550 -205 1056 -483 1884 -1035 431 -287 512 -338 559
-347 28 -6 32 -4 32 16 0 30 -208 237 -365 362 -186 148 -493 378 -930 697
-220 161 -404 297 -410 303 -7 7 1 9 25 4 19 -4 96 -15 170 -25 224 -31 328
-8 314 70 -4 19 -27 57 -51 86 -98 116 -314 238 -988 558 -469 223 -544 262
-613 321 -34 29 -63 56 -63 60 0 4 28 19 63 34 l63 27 165 -17 c322 -34 831
-187 1295 -388 356 -154 670 -315 1185 -609 354 -201 511 -276 533 -254 18 18
-6 52 -86 125 -178 162 -388 303 -1402 941 -624 392 -632 398 -619 402 6 2
114 -19 240 -47 491 -110 560 -119 614 -80 26 19 27 22 19 62 -22 94 -209 248
-504 411 -190 106 -396 203 -845 399 -151 66 -277 122 -280 125 -3 3 69 3 160
0 433 -14 1206 -191 1900 -436 124 -44 380 -139 570 -211 396 -152 541 -202
658 -230 99 -24 135 -25 151 -6 9 11 4 21 -28 48 -73 62 -249 151 -961 483
-684 319 -1359 647 -1343 652 5 2 132 -30 281 -71 230 -63 379 -96 435 -96 7
0 26 9 44 20 l32 19 -13 46 c-50 165 -441 438 -1110 775 -372 187 -373 181 24
155 685 -44 1348 -175 2370 -467 537 -153 713 -194 824 -190 148 6 59 75 -261
203 -148 59 -212 83 -928 344 -705 257 -1187 437 -1182 441 2 3 89 -19 193
-47 104 -28 234 -57 289 -64 93 -12 103 -11 138 6 42 22 41 18 25 73 -17 60
-146 188 -308 304 -167 120 -555 334 -825 457 l-198 90 164 3 c289 5 942 -37
1839 -118 239 -21 523 -47 630 -56 248 -21 569 -24 628 -6 102 31 47 83 -136
132 -137 36 -250 58 -667 130 -808 139 -1298 249 -1820 405 -322 97 -749 254
-864 317 l-76 42 39 8 c21 5 95 17 165 28 259 41 334 75 346 154 8 54 -7 113
-52 199 -20 37 -34 69 -32 71 9 7 550 47 824 61 160 8 675 31 1145 50 1077 44
1415 63 1580 91 l35 6 48 -184 c46 -175 48 -193 63 -423 8 -132 18 -454 21
-715 4 -397 2 -552 -16 -945 -12 -258 -31 -549 -42 -645 -11 -96 -31 -274 -44
-395 -51 -449 -232 -1921 -279 -2265 -89 -646 -110 -883 -86 -969 l12 -45 34
40 c104 122 342 926 598 2024 186 799 251 1134 426 2215 135 830 180 1151 209
1480 36 398 77 1554 67 1850 -15 401 -82 837 -181 1170 -29 99 -61 218 -70
265 -86 441 -326 1069 -580 1520 -39 69 -86 163 -105 210 -127 321 -266 594
-416 821 -60 90 -110 167 -112 170 -2 4 66 53 150 110 302 203 540 386 596
457 41 53 46 81 16 88 -76 19 -358 -104 -798 -351 -115 -64 -140 -75 -150 -64
-33 36 -170 208 -356 444 -263 335 -382 470 -604 685 -251 242 -625 583 -725
662 l-35 27 325 333 c594 610 739 768 828 909 51 80 53 109 11 109 -91 0 -289
-150 -851 -645 -402 -354 -565 -495 -574 -495 -3 0 -109 68 -233 152 -125 83
-355 226 -511 316 -157 90 -296 171 -310 181 -14 10 -111 64 -216 121 -104 57
-191 104 -193 105 -2 2 89 130 201 286 539 752 760 1086 823 1240 37 92 17
123 -49 77 -104 -72 -256 -235 -512 -548 -237 -290 -492 -588 -633 -741 l-144
-157 -127 60 c-206 98 -457 203 -858 359 -180 70 -411 165 -421 174 -2 2 8 21
22 43 14 23 92 157 172 299 381 669 636 1239 858 1920 157 479 242 803 472
1798 203 879 322 1317 477 1765 464 1337 1109 2295 2002 2968 799 604 1730
975 2940 1172 508 83 951 130 1755 185 353 24 424 30 464 42 18 5 18 6 2 15
-67 38 -824 61 -1249 39 -1747 -92 -3002 -482 -4042 -1254 -1049 -779 -1819
-1972 -2300 -3562 -98 -323 -193 -697 -355 -1388 -160 -688 -221 -929 -315
-1262 -239 -840 -524 -1499 -940 -2170 -139 -225 -294 -455 -306 -455 -5 0
-113 48 -241 106 -263 119 -382 168 -548 226 -65 23 -157 65 -215 98 -146 86
-354 159 -496 175 -35 4 -118 22 -184 41 -66 18 -188 45 -270 61 l-150 27
-515 1 c-580 0 -607 -2 -925 -85 -82 -21 -175 -42 -205 -45 -116 -14 -371 -99
-460 -154 -92 -57 -157 -89 -225 -111 -131 -42 -279 -102 -542 -221 -144 -66
-266 -119 -271 -119 -12 0 -150 205 -294 435 -435 698 -722 1367 -977 2280
-75 271 -174 673 -326 1325 -239 1028 -410 1593 -660 2186 -475 1120 -1131
1995 -1960 2611 -1022 759 -2255 1149 -3945 1248 -214 13 -828 18 -1000 8z
m3960 -18341 c63 -26 237 -116 385 -198 332 -185 451 -233 775 -314 47 -12
128 -34 180 -50 52 -16 128 -34 169 -41 49 -7 69 -14 59 -20 -27 -15 -683 -99
-933 -119 -137 -11 -434 -27 -660 -35 -225 -8 -513 -22 -639 -30 -126 -8 -232
-13 -234 -10 -7 6 48 171 113 341 57 148 140 320 173 360 36 42 165 127 230
151 59 21 78 23 167 19 91 -5 110 -9 215 -54z m16032 34 c67 -24 181 -97 227
-146 13 -14 47 -72 76 -130 78 -156 227 -561 212 -576 -2 -2 -104 3 -228 11
-123 8 -408 22 -634 30 -225 8 -525 24 -665 35 -254 21 -911 104 -938 119 -9
5 21 15 84 26 54 10 124 26 154 37 30 10 109 32 175 49 160 40 332 94 430 135
44 18 200 99 345 180 260 145 436 228 515 244 81 16 177 11 247 -14z m-10118
-11745 l89 -6 -95 -103 c-100 -108 -164 -158 -543 -427 -115 -82 -243 -175
-282 -207 -40 -33 -73 -56 -73 -53 0 4 37 75 82 158 85 158 283 462 362 557
l46 55 103 16 c111 18 175 20 311 10z m4114 -8 l123 -18 53 -65 c96 -119 261
-373 349 -536 48 -89 87 -165 87 -168 0 -4 -33 19 -72 52 -40 32 -167 125
-283 207 -380 269 -440 317 -541 426 l-96 104 73 6 c140 10 184 9 307 -8z"/>
</g>
</svg>
