<?xml version="1.0" standalone="no"?>
<!DOCTYPE svg PUBLIC "-//W3C//DTD SVG 20010904//EN"
 "http://www.w3.org/TR/2001/REC-SVG-20010904/DTD/svg10.dtd">
<svg version="1.0" xmlns="http://www.w3.org/2000/svg"
 width="912.000000pt" height="432.000000pt" viewBox="0 0 912.000000 432.000000"
 preserveAspectRatio="xMidYMid meet">
<metadata>
Created by potrace 1.16, written by Peter Selinger 2001-2019
</metadata>
<g transform="translate(0.000000,432.000000) scale(0.100000,-0.100000)"
fill="#000000" stroke="none">
<path d="M2675 4228 c-10 -31 -56 -192 -80 -283 -15 -55 -31 -110 -36 -122
-10 -26 -27 -30 -35 -8 -4 9 -19 15 -35 15 -33 0 -31 3 -49 -140 -6 -52 -15
-99 -20 -105 -6 -7 -54 -20 -107 -30 -54 -10 -123 -24 -153 -32 -30 -8 -77
-21 -105 -28 -83 -21 -146 -44 -240 -89 -49 -24 -126 -60 -170 -81 -44 -20
-114 -54 -155 -76 -41 -22 -106 -56 -145 -75 -38 -19 -101 -52 -140 -74 -38
-21 -78 -39 -87 -40 -10 0 -18 -6 -18 -13 0 -13 -52 -57 -66 -57 -4 0 -50 -29
-104 -65 -54 -36 -102 -65 -107 -65 -5 0 -21 -13 -36 -28 -15 -16 -48 -39 -72
-51 -25 -12 -45 -26 -45 -31 0 -4 -30 -30 -67 -56 -163 -115 -362 -295 -432
-389 -73 -98 -140 -218 -154 -277 -12 -47 8 -107 51 -152 22 -22 43 -51 47
-64 9 -31 42 -61 93 -84 41 -18 56 -48 32 -63 -12 -8 3 -39 35 -75 13 -14 25
-34 27 -44 5 -29 23 -30 36 -1 11 23 17 25 73 25 34 0 80 -5 102 -12 32 -10
41 -10 45 0 6 19 22 14 47 -12 16 -18 41 -27 96 -36 130 -21 272 -51 339 -71
36 -10 103 -25 150 -34 47 -8 108 -22 135 -30 28 -9 95 -19 150 -22 68 -4 112
-12 137 -24 21 -11 52 -19 70 -19 18 0 74 -7 123 -16 50 -8 131 -22 180 -30
50 -8 113 -19 140 -23 127 -22 175 -35 243 -69 68 -35 74 -41 110 -107 52 -98
72 -141 97 -210 46 -123 77 -200 86 -215 24 -41 38 -84 33 -105 -5 -20 -2 -24
22 -27 30 -3 71 -52 124 -148 65 -117 119 -184 168 -209 26 -13 61 -36 77 -51
39 -36 67 -50 100 -50 29 0 45 31 44 83 -1 39 18 259 30 347 5 36 17 122 27
193 l18 127 -22 28 c-13 15 -32 47 -43 70 -12 26 -34 51 -51 60 -17 10 -64 43
-104 74 -41 32 -76 58 -79 58 -3 0 -23 12 -45 26 -65 43 -54 52 63 52 112 -1
855 10 1062 16 158 4 292 14 364 26 30 6 89 10 130 10 104 1 375 34 480 58 55
13 67 6 128 -79 25 -35 64 -80 86 -101 37 -33 42 -35 53 -20 11 15 15 14 36
-13 52 -68 360 -387 366 -380 3 2 -3 16 -12 29 -18 28 -21 56 -6 56 10 0 47
-16 175 -75 118 -55 247 -105 271 -105 42 0 91 29 119 71 24 38 26 46 17 73
-12 32 -7 95 8 131 23 52 48 159 59 250 7 55 16 114 20 130 15 63 2 84 -74
116 -38 16 -83 29 -100 29 -16 0 -52 11 -79 25 -27 14 -58 25 -68 25 -11 0
-29 5 -41 11 l-21 12 24 10 c100 39 309 87 465 107 50 7 119 16 155 21 307 44
421 41 745 -18 70 -12 436 -136 466 -157 13 -9 32 -16 42 -16 10 0 39 -11 65
-25 26 -14 54 -25 63 -25 9 0 24 -9 34 -20 10 -11 27 -20 38 -20 10 0 31 -8
45 -18 15 -11 53 -31 85 -45 165 -77 204 -93 322 -132 38 -13 102 -35 140 -49
39 -15 90 -27 115 -29 40 -2 45 1 48 21 2 13 -8 36 -27 59 -17 21 -31 43 -31
50 0 6 -8 14 -17 17 -10 3 -29 25 -43 48 -18 33 -24 55 -22 93 2 40 -2 56 -18
75 -18 21 -21 33 -16 80 10 86 10 123 2 147 -4 14 -2 33 8 50 18 33 38 151 29
166 -4 6 -8 63 -9 126 -1 64 -5 132 -9 151 -5 25 -1 54 14 96 13 38 18 74 15
99 -3 22 0 60 6 85 6 25 15 61 20 80 22 90 28 110 44 140 9 18 16 39 16 47 0
18 31 63 101 143 31 36 61 75 68 87 6 12 27 30 47 39 19 9 33 21 31 27 -7 21
-70 29 -127 17 -63 -13 -240 -67 -287 -87 -17 -7 -36 -13 -43 -13 -7 0 -33
-11 -59 -25 -72 -39 -173 -85 -186 -85 -7 0 -74 -31 -151 -69 -218 -108 -331
-161 -344 -161 -7 0 -51 -20 -97 -46 -100 -54 -232 -101 -328 -115 -161 -23
-205 -25 -320 -15 -102 9 -120 14 -123 29 -3 13 9 23 45 38 26 11 65 27 86 36
20 9 37 22 37 29 0 19 -38 41 -82 49 -20 4 -53 22 -75 41 -29 26 -47 34 -75
34 -20 0 -40 5 -44 11 -3 6 -31 22 -61 35 -29 13 -56 31 -59 39 -4 9 -19 15
-36 15 -33 0 -98 27 -98 41 0 14 -62 49 -86 49 -12 0 -27 7 -34 15 -13 16
-147 82 -221 109 -26 9 -66 35 -89 56 -24 22 -49 40 -55 40 -7 0 -22 9 -35 20
-13 11 -34 20 -47 20 -16 0 -44 20 -85 60 -38 38 -68 60 -83 60 -13 0 -29 10
-38 24 -9 13 -38 32 -64 42 -26 10 -99 44 -162 76 -63 32 -126 58 -140 58 -27
0 -122 61 -186 120 -22 20 -55 43 -73 50 -19 7 -41 24 -49 37 -9 13 -34 34
-57 45 -23 11 -47 29 -54 39 -9 13 -25 19 -52 19 -26 0 -48 8 -67 24 -15 13
-39 27 -53 31 -14 4 -36 16 -49 26 -13 11 -35 19 -50 19 -14 0 -57 12 -96 25
-38 14 -95 30 -125 36 -173 32 -213 20 -335 -98 -47 -46 -89 -83 -93 -83 -4 0
-30 -18 -57 -41 -46 -38 -52 -40 -95 -34 -49 8 -70 17 -93 39 -32 32 -90 56
-150 62 -34 3 -70 7 -79 8 -10 1 -28 12 -40 23 -13 12 -44 24 -73 29 -38 5
-56 14 -79 40 -16 19 -36 34 -44 34 -8 0 -33 13 -57 29 -23 16 -54 29 -69 29
-18 0 -44 15 -79 48 -29 27 -67 57 -85 66 -22 12 -39 33 -55 69 -22 50 -23 51
-66 53 -37 2 -50 9 -79 41 -20 22 -37 34 -40 27 -8 -24 -92 -11 -92 14 0 23
-26 16 -38 -11 -6 -14 -16 -25 -21 -25 -5 0 -23 11 -39 25 -34 28 -41 30 -47
13z"/>
</g>
</svg>
