<?xml version="1.0" encoding="UTF-8" standalone="no"?>
<!-- Created with Inkscape (http://www.inkscape.org/) -->

<svg
   version="1.1"
   width="718.32568"
   height="566.87201"
   id="svg8256"
   xmlns="http://www.w3.org/2000/svg"
   xmlns:svg="http://www.w3.org/2000/svg">
  <defs
     id="defs8258" />
  <rect
     width="547.67212"
     height="119.80328"
     rx="9.5081968"
     ry="21.868853"
     x="-133.74097"
     y="380.19632"
     transform="rotate(-35.853926)"
     id="rect8275"
     style="color:#000000;display:inline;overflow:visible;visibility:visible;fill:none;stroke:#000000;stroke-width:5;marker:none;enable-background:accumulate" />
  <path
     d="M 72.658367,564.37199 176.75862,489.14348 c 4.26941,-3.08531 2.00174,-13.44935 -5.09446,-23.26899 l -44.5697,-61.67497 c -7.0962,-9.81964 -16.2248,-15.2256 -20.49421,-12.14029 L 2.5,467.28774"
     id="rect8352"
     style="color:#000000;display:inline;overflow:visible;visibility:visible;fill:none;stroke:#000000;stroke-width:5;stroke-linecap:round;marker:none;enable-background:accumulate" />
  <path
     d="m 645.66732,2.5 -79.75954,57.638586 c -4.26941,3.085308 -2.02707,13.467653 5.06914,23.287292 l 44.56969,61.674962 c 7.09621,9.81964 16.25013,15.2073 20.51954,12.12199 l 79.75953,-57.638581"
     id="path8972"
     style="color:#000000;display:inline;overflow:visible;visibility:visible;fill:none;stroke:#000000;stroke-width:5;stroke-linecap:round;marker:none;enable-background:accumulate" />
  <path
     d="m 297.14557,258.32279 -7.0625,26.1875 -7.78125,-19.125 -0.71875,26.1875 -15.09375,-15.09375 -4.625,3.34375 12.65625,26.625 -17.71875,-8.5 13.46875,20.53125 -29.75,-17.6875 7.09375,13.4375 -24.78125,-6.1875 -4.53125,3.28125 26.46875,12.8125 -21.21875,3.53125 32.5625,3.53125 -9.21875,12.75 21.25,-6.375 -7.09375,33.96875 12.03125,-6.375 3.53125,29.03125 12.75,-33.96875 12.0625,38.84375 3.90625,-2.84375 -0.40625,-21.125 10.03125,14.1875 3.71875,-2.71875 -3.125,-12.1875 10.59375,6.8125 5.40625,-3.90625 -13.875,-26.25 48.3125,1.375 4.90625,-3.53125 -41.90625,-8.46875 2.125,-8.5 23.375,-8.5 h -26.1875 l 26.875,-20.53125 -33.96875,11.34375 1.4375,-17 -13.46875,11.34375 14.875,-41.78125 -25.46875,37.53125 z"
     id="path3060"
     style="fill:#000000;stroke:#000000;stroke-width:1px;stroke-linecap:butt;stroke-linejoin:miter;stroke-opacity:1" />
  <path
     d="m 423.64557,162.91654 -4.4375,3.21875 -13.78125,29.1875 -3.53125,-4.96875 -4.25,20.53125 -11,-21.21875 -10.78125,7.78125 -0.84375,17.6875 -9.6875,-10.0625 -5.3125,3.84375 2.96875,11.1875 -9.21875,-1.4375 3.53125,13.46875 -24.65625,-3.46875 -2.34375,1.71875 19.21875,7.40625 6.375,9.90625 h -46.71875 l 30.4375,10.625 -19.8125,7.0625 19.125,-1.40625 -24.78125,23.34375 25.46875,-13.4375 -5.65625,25.46875 16.28125,-18.40625 1.40625,14.15625 24.0625,-10.59375 -23.34375,24.75 17.6875,-10.59375 -2.125,21.21875 6.375,-11.3125 2.125,24.75 6.375,-27.59375 14.78125,23.84375 6.3125,-4.5625 -7.65625,-20.6875 18.34375,12.96875 2.84375,-2.0625 -16.9375,-20.8125 15.5625,4.25 -8.5,-13.46875 36.21875,11 5.75,-4.15625 -17.1875,-12.5 32.5625,-11.3125 -35.40625,-2.125 30.4375,-15.59375 -29,2.84375 5.65625,-10.625 -25.46875,8.5 13.4375,-30.4375 -14.875,6.375 12.03125,-30.4375 -9.90625,5.65625 z"
     id="path3065"
     style="fill:#000000;stroke:#000000;stroke-width:1px;stroke-linecap:butt;stroke-linejoin:miter;stroke-opacity:1" />
  <path
     d="m 46.208067,435.69779 -6.625,4.78125 -10.65625,20.96875 -8.53125,-7.09375 -7.90625,5.71875 7.9375,26.84375 -6.40625,-3.65625 42.5625,58.90625 0.65625,-10.65625 23.46875,27.0625 4.3125,-3.125 -5.15625,-14.75 17.28125,5.96875 5.656253,-4.09375 -25.062503,-18.15625 28.312503,-6.34375 -18.406253,-9.9375 9.21875,-5.65625 h -31.84375 l 36.093753,-13.4375 -26.187503,-1.40625 4.9375,-15.59375 -25.46875,9.21875 12.03125,-22.65625 -14.15625,6.375 4.25,-13.4375 -14.875,14.15625 z"
     id="path3070"
     style="fill:#000000;stroke:#000000;stroke-width:1px;stroke-linecap:butt;stroke-linejoin:miter;stroke-opacity:1" />
  <path
     d="m 645.67682,2.5102916 -3.5,2.53125 10.375,7.0000004 z m 10.25,14.1875004 -38.0625,5.90625 -2.75,1.96875 49.46875,4.09375 z m 10,13.8125 -31.875,16.875 25.46875,-2.8125 -4.25,10.625 21.25,-2.84375 -17,19.09375 20.53125,-9.1875 -21.9375,32.5625 36.09375,-24.0625 -16.28125,40.343748 21.21875,-26.906248 3.3125,25.031248 5.75,-4.15625 1.40625,-14.124998 z"
     id="path3075"
     style="fill:#000000;stroke:#000000;stroke-width:1px;stroke-linecap:butt;stroke-linejoin:miter;stroke-opacity:1" />
</svg>
