<?xml version="1.0" encoding="UTF-8" standalone="no"?>
<svg
   width="785.28223"
   height="860"
   viewBox="0 0 785.28223 860"
   version="1.1"
   id="svg4"
   xmlns="http://www.w3.org/2000/svg"
   xmlns:svg="http://www.w3.org/2000/svg">
  <defs
     id="defs8" />
  <path
     d="m 676.98068,8.25 c -2.317,4.537 -5.848,12.525 -7.845,17.75 -2.029,5.307 -6.451,13.81 -10.019,19.266 -7.441,11.379 -9.5,15.287 -11.875,22.545 -1.432,4.378 -2.836,6.222 -7.998,10.5 -3.443,2.854 -11.427,9.785 -17.742,15.402 -11.479,10.209 -11.488,10.215 -25.788,15.715 -16.316,6.275 -16.597,6.306 -45.008,4.895 l -17.5,-0.87 -7.25,-4.873 c -3.987,-2.68 -7.25,-5.045 -7.25,-5.255 0,-0.896 6.581,-13.43 10.802,-20.575 2.909,-4.922 5.212,-7.75 6.312,-7.75 2.296,0 7.472,-5.269 9.952,-10.129 1.094,-2.145 3.098,-8.065 4.453,-13.157 1.355,-5.092 3.368,-11.031 4.473,-13.197 1.104,-2.167 2.006,-5.757 2.004,-7.978 -0.008,-8.706 -6.463,-13.835 -25.351,-20.147 -16.479,-5.507 -21.44,-3.926 -27.074,8.628 -6.61,14.73 -8.323,31.682 -4.571,45.223 3.668,13.235 2.176,19.882 -7.8,34.757 l -5.7,8.5 -8,1.303 c -10.129,1.649 -31.576,1.953 -56.144,0.795 l -19.145,-0.902 -4.355,-6.713 c -2.396,-3.692 -5.123,-8.124 -6.06,-9.848 -3.424,-6.303 -8.658,-6.523 -15.967,-0.671 -7.598,6.084 -12.488,8.592 -18.694,9.592 -5.533,0.891 -6.495,1.444 -11.257,6.48 -2.864,3.028 -7.551,6.846 -10.415,8.485 l -5.206,2.979 h -63.52 -63.519 l -4.54,-3.751 c -7.096,-5.864 -25.678,-36.718 -25.678,-42.637 0,-0.9 -0.9,-4.885 -2,-8.855 -1.418,-5.115 -1.999,-10.281 -1.997,-17.737 l 0.004,-10.52 -5.254,-7.69 -5.253,-7.69 -4.5,0.578 c -2.475,0.318 -5.091,1.045 -5.813,1.615 -2.679,2.115 -16.219,21.558 -18.65,26.78 -5.831,12.524 -0.992,33.382 10.641,45.868 1.157,1.241 3.167,2.039 5.138,2.039 4.267,0 7.237,2.204 9.835,7.297 2.689,5.271 7.006,17.879 6.347,18.539 -0.274,0.273 -7.361,-0.046 -15.748,-0.709 -13.988,-1.107 -16.398,-1.038 -29.127,0.843 l -13.877,2.051 -6.623002,-4.278 c -24.571,-15.872 -27.572,-18.301 -41.437,-33.538 -15.811,-17.376 -20.203,-24.199 -22.18,-34.456 -0.768,-3.987 -2.096,-9.218 -2.951,-11.625 -0.855,-2.406 -1.555,-5.14 -1.555,-6.075 0,-0.935 -1.112,-2.745 -2.471,-4.022 l -2.472,-2.322 -7.634,3.329 c -5.755,2.509 -8.2129997,4.207 -9.9849997,6.897 -4.94,7.501 -7.793,27.057 -5.117,35.069 0.827,2.475 2.058,7.2 2.736,10.5 1.544,7.516 3.328,10.5 6.2779997,10.5 3.937,0 19.469,5.735 25.448,9.396 3.145,1.925 8.934,6.347 12.867,9.828 3.932,3.48 10.351,8.566 14.264,11.302 5.659,3.957 7.62,6.032 9.594,10.15 2.503,5.222 5.45,15.982 5.477,19.997 0.023,3.31 -4.27,7.725 -14.861,15.286 -5.293,3.779 -13.272,10.622 -17.731,15.206 l -8.107,8.335 -6.286,28.5 -6.286,28.5 -0.795,26.5 c -0.437,14.575 -2.162,47.875 -3.833,74 -5.006,78.261 -8.209,140.32 -9.576,185.5 -1.0449997,34.562 -2.6309997,59.907 -4.1809997,66.838 -2.594,11.597 -0.062,19.342 11.2359997,34.369 5.168,6.875 43.758,47.434 67.339,70.776 l 11.096,10.983 v 5.858 c 0,5.654 -0.235,6.18 -6.796,15.175 -3.738,5.125 -8.604,10.829 -10.815,12.676 -2.21,1.847 -14.936,9.2 -28.279,16.341 -25.641,13.723 -31.16,17.477 -31.614,21.5 -0.153,1.366 -1.058,5.15 -2.01,8.409 -1.964,6.729 -1.646,18.472 0.573,21.146 0.731,0.88 1.639,4.238 2.019,7.461 0.856,7.255 3.582,13.012 9.163,19.347 l 4.298,4.88 3.19,-2.685 c 7.132,-6 13.46,-17.8 21.232,-39.586 5.82,-16.316 9.024,-22.988 11.041,-22.988 0.95,0 2.865,-0.894 4.255,-1.987 3.119,-2.454 12.378,-7.625 24.243,-13.541 4.950002,-2.467 11.250002,-5.897 14.000002,-7.622 2.75,-1.724 7.25,-3.941 10,-4.925 2.75,-0.984 7.567,-2.93 10.705,-4.325 l 5.704,-2.535 12.061,4.128 c 10.921,3.738 11.941,4.29 10.795,5.844 -6.556,8.894 -17.622,23.067 -19.947,25.548 -2.315,2.471 -3.282,5.029 -4.854,12.847 -2.358,11.722 -2.445,13.69 -0.572,12.971 0.957,-0.367 1.924,0.97 3.094,4.281 2.161,6.116 9.017,20.104 11.327,23.111 1.587,2.065 2.679,2.316 10.896,2.5 12.727,0.286 13.541,-0.412 18.503,-15.857 l 3.836,-11.938 -2.658,-8.208 c -2.244,-6.929 -2.548,-9.179 -1.953,-14.437 1.303,-11.515 3.901,-14.067 22.699,-22.293 l 12.476,-5.46 14.944,-0.996 c 8.219,-0.548 22.918,-1.269 32.664,-1.602 l 17.72,-0.605 -1.534,3.672 c -0.844,2.02 -2.677,5.482 -4.074,7.694 -1.396,2.213 -3.333,6.331 -4.303,9.151 -0.971,2.821 -2.943,7.454 -4.383,10.295 -3.085,6.089 -8.658,25.303 -8.618,29.712 0.045,4.937 4.134,11.75 9.045,15.071 4.151,2.807 5.129,3.017 15.677,3.358 9.622,0.311 11.25,0.141 11.25,-1.177 0,-0.847 0.912,-1.83 2.027,-2.183 4.356,-1.383 4.813,-3.013 13.578,-48.475 2.49,-12.915 4.705,-23.66 4.923,-23.878 0.217,-0.217 11.775,-0.552 25.684,-0.742 31.046,-0.426 63.788,2.681 63.788,6.053 0,0.646 1.36,2.479 3.022,4.071 5.194,4.976 5.648,8.697 2.451,20.103 -1.522,5.432 -3.826,11.716 -5.12,13.964 -2.001,3.476 -2.353,5.455 -2.353,13.229 0,16.351 5.268,26.841 15.3,30.468 10.179,3.68 21.083,6.715 24.122,6.715 3.647,0 9.688,-3.536 13.578,-7.949 3.72,-4.219 8.924,-6.12 12.584,-4.595 6.3,2.624 9.311,2.631 14.438,0.033 11.211,-5.681 15.685,-12.761 14.728,-23.308 -0.643,-7.093 -3.837,-13.633 -12.539,-25.676 -3.579,-4.953 -7.973,-12.155 -9.766,-16.005 -3.169,-6.809 -6.977,-18.306 -6.288,-18.985 0.189,-0.186 23.743,-0.648 52.343,-1.027 l 52,-0.688 6.5,8.35 c 3.575,4.592 12.271,14.486 19.325,21.985 7.054,7.499 13.48,14.569 14.279,15.71 0.799,1.141 2.142,7.606 2.983,14.365 2.632,21.156 8.395,32.758 17.078,34.387 2.01,0.377 8.131,0.115 13.602,-0.582 l 9.947,-1.268 7.001,-6.305 c 8.595,-7.741 9.185,-8.57 11.319,-15.91 3.769,-12.966 0.53,-23.949 -11.159,-37.841 -5.443,-6.469 -7.788,-8.379 -14.312,-11.659 -6.192,-3.114 -9.272,-5.533 -14.929,-11.727 -3.92,-4.293 -7.129,-8.08 -7.131,-8.416 -10e-4,-0.337 3.484,-2.084 7.747,-3.883 l 7.75,-3.272 8.115,1.549 8.114,1.548 33.567,26.603 c 18.461,14.632 34.89,28.283 36.509,30.335 1.618,2.052 3.979,6.206 5.246,9.231 3.249,7.757 8.503,15.543 15.07,22.335 7.237,7.484 9.703,7.519 11.632,0.165 0.721,-2.75 2.847,-9.95 4.725,-16 1.877,-6.05 3.713,-13.303 4.079,-16.118 1.467,-11.277 -3.389,-21.919 -13.873,-30.402 -3.302,-2.671 -15.269,-10.375 -26.594,-17.12 -15.838,-9.432 -23.417,-14.682 -32.84,-22.748 -6.737,-5.767 -12.235,-10.739 -12.216,-11.049 0.018,-0.31 3.204,-4.388 7.079,-9.063 10.466,-12.626 34.718,-44.001 50.244,-65 22.21,-30.039 22.673,-30.585 32.065,-37.721 15.196,-11.545 17.169,-17.07 13.669,-38.279 -1.813,-10.991 -2.183,-19.684 -3.064,-72 -0.551,-32.725 -1.007,-91.788 -1.014,-131.252 -0.012,-68.415 -0.128,-72.995 -2.488,-98.5 -1.361,-14.711 -2.674,-33.948 -2.916,-42.748 -0.702,-25.486 -3.751,-30.623 -19.609,-33.048 -2.475,-0.379 -5.85,-1.377 -7.5,-2.217 -4.597,-2.343 -16.584,-10.618 -20.5,-14.151 -1.925,-1.737 -7,-6.148 -11.278,-9.801 -6.776,-5.787 -8.674,-8.209 -14.736,-18.808 -9.759,-17.06 -9.986,-17.737 -9.986,-29.743 v -10.333 l 5.012,-5.623 c 2.757,-3.093 8.494,-8.531 12.75,-12.084 4.256,-3.553 10.626,-9.857 14.155,-14.008 5.695,-6.698 7.27,-7.903 14,-10.708 5.63,-2.346 27.315,-13.976 30.932,-16.588 0.191,-0.138 -1.08,-5.795 -2.825,-12.57 -2.611,-10.134 -4.329,-14.357 -9.687,-23.818 -3.583,-6.325 -7.937,-13.366 -9.675,-15.646 -3.543,-4.647 -9.068,-8.839 -10.49,-7.961 -1.083,0.67 -11.74,33.36 -12.614,38.695 -0.787,4.804 -7.73,16.302 -13.368,22.137 -4.221,4.368 -16.324,11.775 -19.242,11.775 -2.417,0 -7.719,4.949 -11.467,10.703 -2.077,3.188 -4.948,7.073 -6.379,8.633 -2.684,2.924 -12.145,8.908 -16.04,10.144 -2.197,0.698 -2.199,0.686 -0.482,-2.64 2.808,-5.438 11.302,-14.629 20.92,-22.637 4.95,-4.122 8.89,-7.872 8.755,-8.334 -0.135,-0.462 4.289,-5.232 9.83,-10.599 11.062,-10.713 18.037,-20.086 17.234,-23.156 -0.276,-1.059 0.276,-3.565 1.227,-5.57 1.384,-2.917 1.623,-5.356 1.195,-12.219 -0.462,-7.393 -0.876,-8.915 -3.011,-11.049 C 708.51868,5.358 691.61068,0 685.32168,0 h -4.128 l -4.213,8.25"
     stroke="none"
     fill="#000000"
     fill-rule="evenodd"
     id="path2" />
</svg>
