<?xml version="1.0" encoding="UTF-8" standalone="no"?>
<svg
   width="645.18945"
   height="859.52399"
   viewBox="0 0 645.18945 859.52399"
   version="1.1"
   id="svg4"
   xmlns="http://www.w3.org/2000/svg"
   xmlns:svg="http://www.w3.org/2000/svg">
  <defs
     id="defs8" />
  <path
     d="m 277.36743,13.75 c -8.918,17.615 -29.262,66.043 -32.66,77.75 -3.153,10.858 -4.225,27.088 -4.957,75 -0.268,17.6 -0.786,34.974 -1.15,38.61 -0.433,4.331 -0.063,10.802 1.073,18.768 l 1.734,12.159 -2.632,5.378 c -4.536,9.272 -5.58,9.171 -5.616,-0.543 -0.043,-11.591 -1.483,-21.572 -3.94,-27.305 -1.17,-2.73 -2.325,-8.172 -2.644,-12.457 -0.603,-8.109 -2.025,-14.11 -3.345,-14.11 -0.442,0 -0.202,1.688 0.534,3.75 0.736,2.063 1.358,6.942 1.382,10.843 0.029,4.634 0.784,9.142 2.178,13 1.735,4.804 2.221,8.895 2.597,21.907 l 0.463,16 -4.956,3.75 c -2.726,2.062 -5.36,3.75 -5.854,3.75 -1.874,0 -6.744,-9.877 -10.34,-20.973 -4.742,-14.628 -6.753,-18.503 -13.339,-25.699 -2.934,-3.205 -9.973,-11.228 -15.642,-17.828 -15.979,-18.603 -20.552,-21.879 -35.493,-25.427 -4.87,-1.157 -11.043,-3.294 -13.717,-4.75 -2.675,-1.455 -5.131,-2.378 -5.459,-2.05 -1.106,1.106 11.234,6.584 19.419,8.621 4.468,1.112 9.404,2.684 10.968,3.493 4.456,2.304 12.732,10.167 19.466,18.495 3.389,4.19 10.1,12.215 14.914,17.835 9.874,11.524 10.768,13.006 13.756,22.783 1.177,3.85 2.4,7.844 2.718,8.875 1.109,3.593 -1.527,0.608 -4.668,-5.286 -3.674,-6.894 -9.277,-12.829 -17.22,-18.245 -4.131,-2.817 -6.456,-5.309 -8.244,-8.837 -2.965,-5.853 -7.537,-8.822 -18.503,-12.017 -4.125,-1.202 -8.986,-3.092 -10.803,-4.202 -1.816,-1.109 -3.554,-1.764 -3.862,-1.456 -1.045,1.045 6.13,4.67 14.623,7.387 9.33,2.986 13.719,6.174 17.258,12.534 1.256,2.258 5.659,6.863 9.784,10.232 6.851,5.596 15.404,16.052 14.426,17.635 -0.222,0.36 0.186,1.143 0.907,1.742 1.323,1.098 8.988,16.832 10.112,20.756 0.482,1.684 -0.015,2.375 -2.42,3.372 -3.88,1.607 -3.798,1.676 -16.386,-13.99 -12.671,-15.769 -19.803,-23.283 -31.139,-32.802 -4.95,-4.157 -15.75,-14.145 -24,-22.197 -19.987,-19.505 -26.482,-23.811 -39.005998,-25.859 -3.297,-0.539 -6.894,-1.308 -7.994,-1.708 -1.414,-0.515 -1.707,-0.41 -1,0.359 0.55,0.598 4.213,1.754 8.139,2.57 13.276998,2.758 18.035998,6.102 39.906998,28.043 8.275,8.302 20.493,20.157 27.151,26.346 7.587,7.051 15.596,15.801 21.455,23.439 5.141,6.703 10.817,13.852 12.613,15.886 2.654,3.007 2.974,3.809 1.71,4.294 -2.144,0.823 -8.994,-5.677 -18.832,-17.871 -12.02,-14.898 -18.286,-21.138 -26.101,-25.989 -9.984,-6.198 -16.474,-8.469 -28.857,-10.096 -5.957,-0.783 -12.796,-1.918 -15.198,-2.522 -2.401,-0.605 -4.956,-0.898 -5.677,-0.652 -1.557,0.533 10.084,3.209 22.69,5.217 6.978,1.111 11.134,2.511 18.5,6.229 11.288,5.698 18.713,12.586 30.524,28.313 4.337,5.775 10.069,12.82 12.737,15.656 5.002,5.316 5.011,7.817 0.017,4.684 -1.528,-0.958 -5.55,-3.908 -8.937,-6.555 -8.02,-6.267 -15.303,-9.523 -26.361,-11.789 l -8.983,-1.841 -10.503,-9.067 c -5.803,-5.01 -13.521,-10.592 -17.248,-12.475 -3.71,-1.874 -8.546,-4.858 -10.746,-6.63 -2.2,-1.773 -9.399998,-6.824 -15.999998,-11.226 -6.6,-4.401 -14.137,-10.067 -16.75,-12.592 -2.613,-2.524 -4.75,-4.044 -4.75,-3.376 0,2.009 7.496,8.65 17.277,15.305 5.073,3.451 12.305,8.666 16.071998,11.588 3.767,2.922 9.842,6.902 13.5,8.845 3.658,1.942 10.251,6.923 14.651,11.068 l 8,7.536 -6.859,-0.604 c -7.617,-0.672 -14.151,-4.132 -20.587,-10.902 -1.896,-1.994 -3.992,-3.625 -4.66,-3.625 -1.39,0 6.613,8.463 11.106,11.745 l 3,2.192 -11,0.185 -10.999998,0.185 12.755998,0.715 c 15.41,0.863 15.583,0.958 30.428,16.811 8.559,9.14 11.512,11.578 18.5,15.271 l 8.316,4.396 -3.778,0.312 c -2.403,0.198 -6.587,-0.757 -11.5,-2.626 -12.086,-4.597 -17.014,-5.989 -27.222,-7.686 -12.405,-2.063 -17.937,-3.923 -23.938,-8.051 -2.705998,-1.861 -7.807998,-4.749 -11.337998,-6.417 -6.067,-2.866 -27.14,-19.617 -32.532,-25.86 -1.27,-1.469 -3.82,-5.623 -5.666,-9.23 -1.847,-3.606 -4.07,-7.149 -4.942,-7.872 -2.07,-1.718 -2.012,-0.653 0.144,2.638 0.95,1.45 3.088,5.353 4.75,8.674 2.44,4.875 5.524,8.303 16.022,17.812 8.475,7.676 15.437,13.053 20,15.448 3.85,2.02 8.8,4.888 11,6.375 7.280998,4.919 10.701998,6.178 24.413998,8.988 7.472,1.532 16.498,3.885 20.058,5.23 l 6.471,2.446 -34.471,0.79 c -18.959998,0.435 -54.496998,1.069 -78.971998,1.41 -36.40100045,0.506 -42.4980005,0.776 -33.5000005,1.483 6.05,0.475 43.4000005,0.542 83.0000005,0.149 71.156998,-0.706 72.054998,-0.69 76.708998,1.334 2.591,1.126 6.416,2.355 8.5,2.731 2.085,0.377 4.213,0.93 4.729,1.229 1.178,0.683 -6.82,3.48 -20.438,7.148 -5.775,1.555 -11.847,3.357 -13.494,4.004 -1.646,0.647 -8.396,6.724 -15,13.504 -13.517,13.878 -21.465,19.52 -42.005998,29.822 -13.038,6.539 -31.102,17.662 -28.739,17.697 0.693,0.01 4.957,-2.299 9.475,-5.13 4.518,-2.832 14.292,-8.029 21.718,-11.549 18.839998,-8.931 30.538998,-17.006 42.173998,-29.11 5.296,-5.509 10.978,-10.714 12.627,-11.566 1.649,-0.853 8.177,-2.816 14.506,-4.361 l 11.508,-2.811 -3.959,4.498 c -2.178,2.474 -5.356,6.653 -7.062,9.287 -1.707,2.633 -5.506,6.602 -8.443,8.82 -2.937,2.217 -8.8,8.399 -13.027,13.736 -11.535,14.562 -23.832,27.574 -32.778,34.683 C 94.777432,384.562 77.750432,402 79.746432,402 c 0.706,0 4.581,-3.547 8.613,-7.882 4.032,-4.334 11.156,-10.809 15.830998,-14.388 9.251,-7.081 24.293,-22.15 33.173,-33.23 3.085,-3.85 7.489,-8.8 9.785,-11 l 4.175,-4 -6.576,13.894 c -7.418,15.675 -11.875,23.795 -14.052,25.602 -0.971,0.806 -2.782,0.988 -5.244,0.528 -2.069,-0.386 -3.446,-0.385 -3.062,0.003 0.385,0.388 2.105,0.992 3.823,1.344 l 3.124,0.638 -5.193,6.86 c -10.328,13.643 -19.558,30.024 -22.373,39.708 -0.875,3.01 -2.467998,12.211 -3.538998,20.448 -1.072,8.236 -2.207,16.55 -2.522,18.475 -0.481,2.94 -0.411,3.133 0.438,1.207 0.556,-1.261 1.943,-8.686 3.082,-16.5 2.499998,-17.142 3.342998,-21.065 5.943998,-27.663 2.833,-7.187 11.878,-21.81 20.851,-33.708 6.31,-8.366 8.245,-10.277 10.939,-10.8 1.801,-0.35 8.097,-3.054 13.993,-6.01 5.895,-2.956 10.783,-5.296 10.862,-5.2 0.079,0.096 -0.886,4.227 -2.143,9.18 -3.343,13.162 -4.497,27.754 -4.386,55.418 0.175,43.234 1.43,45.382 2.089,3.576 0.645,-40.803 1.307,-47.233 6.492,-63 2.219,-6.748 3.608,-9.059 8.878,-14.767 7.102,-7.692 13.232,-19.16 16.37,-30.625 1.113,-4.066 2.154,-7.523 2.313,-7.682 0.159,-0.159 1.31,0.481 2.558,1.423 l 2.27,1.712 -4.666,9.969 c -9.066,19.37 -11.323,27.253 -13.302,46.47 -1.4,13.597 -1.811,60.959 -0.547,63.188 0.638,1.127 0.845,-2.029 0.621,-9.5 -0.4,-13.338 2.291,-52.632 3.967,-57.92 0.65,-2.053 2.486,-5.203 4.079,-7 l 2.897,-3.268 -0.809,14 c -1.267,21.928 -1.035,41.603 0.522,44.336 2.025,3.552 2.152,2.275 0.432,-4.336 -1.339,-5.147 -1.395,-7.778 -0.398,-18.5 0.64,-6.875 1.668,-18.125 2.284,-25 1.025,-11.438 1.374,-12.84 4.106,-16.5 l 2.985,-4 -0.628,3.415 c -2.964,16.116 -3.565,86.035 -0.781,90.921 1.789,3.139 2.512,2.157 1.065,-1.447 -0.769,-1.918 -1.108,-9.951 -1.008,-23.889 0.283,-39.219 2.514,-64.341 6.579,-74.073 1.726,-4.134 6.909,-9.901 12.118,-13.486 l 4.275,-2.941 -0.994,3.25 c -1.639,5.355 -2.889,51.135 -2.3,84.25 0.559,31.453 1.687,47.532 3.535,50.41 0.755,1.176 0.835,0.809 0.307,-1.41 -1.236,-5.197 -1.585,-81.036 -0.476,-103.5 1.007,-20.394 2.645,-31.977 4.83,-34.162 0.645,-0.645 2.356,-0.614 4.964,0.088 l 3.98,1.072 0.647,7.652 c 0.356,4.208 0.692,10.846 0.747,14.751 0.166,11.838 1.688,3.628 1.8,-9.715 l 0.1,-11.814 4.25,2.314 c 6.757,3.679 14.478,12.008 17.89,19.3 l 3.057,6.533 0.505,32.24 c 0.439,28.017 0.229,34.947 -1.599,52.894 -2.08,20.424 -2.73,49.166 -1.295,57.245 0.38,2.145 0.727,-5.28 0.771,-16.5 0.06,-15.567 0.711,-25.603 2.75,-42.375 1.695,-13.945 2.707,-27.468 2.771,-37 0.06,-9.08 0.416,-14.034 0.9,-12.523 0.44,1.375 0.859,12.85 0.931,25.5 0.072,12.65 0.54,26.15 1.04,30 0.5,3.85 1.419,16.675 2.042,28.5 1.661,31.48 3.181,41.917 7.118,48.857 1.76,3.104 3.771,7.443 4.468,9.643 1.019,3.216 1.28,3.5 1.334,1.447 0.037,-1.404 -1.698,-6.203 -3.856,-10.664 -4.778,-9.882 -5.622,-16.017 -7.122,-51.783 -0.576,-13.75 -1.404,-29.709 -1.84,-35.463 -0.435,-5.755 -0.579,-15.995 -0.318,-22.755 l 0.473,-12.292 2.462,5.255 c 1.353,2.89 3.115,7.73 3.914,10.755 0.799,3.025 2.72,7.75 4.269,10.5 1.549,2.75 4.492,9.5 6.539,15 2.047,5.5 6.848,17.793 10.668,27.318 8.372,20.874 9.222,25.855 10.859,63.682 0.618,14.3 1.824,34.775 2.679,45.5 0.855,10.725 1.591,26.925 1.637,36 l 0.082,16.5 0.949,-9.5 c 0.641,-6.425 0.573,-15.164 -0.211,-27 -1.467,-22.14 -3.328,-70.689 -2.924,-76.27 0.304,-4.184 5.744,31.948 7.946,52.77 0.985,9.315 0.631,24.739 -0.699,30.5 -0.547,2.368 -0.508,2.394 0.741,0.5 2.436,-3.694 1.665,-34.801 -1.475,-59.5 -3.53,-27.766 -6.378,-44.729 -8.859,-52.76 -1.093,-3.538 -1.759,-6.661 -1.48,-6.94 0.867,-0.867 8.49,15.221 13.161,27.775 5.719,15.37 6.413,21.599 6.62,59.425 l 0.164,30 0.885,-23 c 0.486,-12.65 0.67,-27.884 0.408,-33.853 -0.262,-5.968 -0.315,-10.69 -0.117,-10.492 1.139,1.139 6.826,26.821 8.115,36.647 0.836,6.378 1.971,12.294 2.522,13.147 0.774,1.198 0.885,0.983 0.491,-0.949 -0.281,-1.375 -1.214,-8.125 -2.074,-15 -0.859,-6.875 -3.18,-18.8 -5.157,-26.5 -1.977,-7.7 -4.241,-16.7 -5.03,-20 -7.363,-30.779 -9.635,-40.906 -11.887,-53 -3.452,-18.539 -5.743,-27.456 -10.959,-42.656 -3.842,-11.195 -10.576,-42.3 -10.477,-48.392 0.026,-1.633 0.394,-1.461 2.247,1.048 5.48,7.42 16.428,18.902 27.987,29.35 6.906,6.243 16.084,15.669 20.395,20.947 4.312,5.278 11.456,13.67 15.877,18.65 7.365,8.295 8.431,10.058 12.728,21.053 4.255,10.886 4.921,13.775 7.172,31.122 1.365,10.517 2.785,23.799 3.154,29.516 0.644,9.958 -1.348,51.747 -3.62,75.929 -4.479,47.689 -45.343,136.757 -90.329,196.884 -3.066,4.098 -5.365,7.66 -5.109,7.917 0.571,0.57 -0.554,1.894 10.506,-12.368 5.118,-6.6 9.011,-11.198 8.652,-10.218 -0.36,0.98 -1.322,4.355 -2.138,7.5 -0.816,3.145 -3.247,10.893 -5.401,17.218 -4.174,12.252 -5.671,18.438 -4.251,17.561 0.479,-0.297 1.166,-2.108 1.525,-4.025 0.36,-1.918 2.152,-7.21 3.983,-11.761 1.831,-4.551 4.556,-12.325 6.054,-17.275 3.891,-12.848 12.163,-28.44 19.518,-36.788 0.382,-0.434 0.102,2.041 -0.623,5.5 -4.202,20.053 -7.282,52.719 -5.786,61.363 0.733,4.237 0.945,2.898 1.517,-9.575 0.761,-16.584 3.561,-34.483 8.469,-54.125 2.749,-11.003 4.273,-15.035 7.922,-20.954 2.486,-4.031 4.519,-6.981 4.519,-6.556 0,0.425 -1.11,5.152 -2.467,10.505 -1.357,5.353 -4.526,20.96 -7.042,34.681 -2.517,13.722 -5.469,29.358 -6.562,34.747 -4.935,24.342 -7.149,44.83 -4.988,46.165 0.553,0.342 0.719,-0.78 0.404,-2.724 -0.618,-3.811 1.73,-20.106 5.295,-36.739 1.356,-6.325 5.147,-24.657 8.426,-40.738 3.279,-16.081 7.561,-34.531 9.516,-41 3.88,-12.839 12.559,-34.34 13.148,-32.572 0.202,0.607 -0.329,6.419 -1.181,12.915 -1.844,14.062 -2.11,55.253 -0.445,68.895 1.496,12.254 5.006,25.622 8.88,33.814 4.487,9.49 5.009,7.586 0.688,-2.51 -1.955,-4.567 -4.574,-13.029 -5.82,-18.804 -2.029,-9.405 -2.267,-13.265 -2.284,-37 -0.016,-23.222 0.329,-29.221 2.789,-48.5 2.283,-17.891 3.371,-23.401 5.823,-29.5 1.659,-4.125 4.209,-10.65 5.668,-14.5 l 2.652,-7 0.64,46.5 c 0.752,54.571 1.739,64.859 7.6,79.19 2.029,4.961 3.84,8.569 4.024,8.017 0.184,-0.552 -0.844,-3.862 -2.285,-7.355 -5.708,-13.842 -5.765,-14.557 -6.21,-77.532 l -0.411,-58.18 3.113,-10.82 c 8.327,-28.938 12.023,-55.543 12.883,-92.743 l 0.646,-27.923 4.404,15.423 c 7.787,27.268 14.199,41.833 25.244,57.343 8.157,11.454 23.01,27 37.385,39.129 6.236,5.262 11.558,10.104 11.824,10.759 0.289,0.709 0.517,0.552 0.564,-0.389 0.043,-0.869 -5.974,-6.881 -13.373,-13.358 -27.308,-23.91 -42.873,-45.34 -52.02,-71.62 -5.783,-16.614 -15.417,-53.129 -17.009,-64.466 -1.259,-8.971 -2.326,-14.523 -5.058,-26.309 -0.342,-1.473 -0.158,-2.097 0.499,-1.691 1.506,0.931 1.276,-0.693 -0.445,-3.151 -0.817,-1.166 -3.028,-6.829 -4.913,-12.584 -4.332,-13.223 -7.087,-18.672 -16.045,-31.74 -9.332,-13.612 -9.07,-13.046 -5.107,-11.025 1.886,0.961 7.97,3.016 13.521,4.566 l 10.092,2.819 5.752,8.07 c 3.163,4.438 6.782,9.751 8.041,11.807 2.393,3.903 9.144,28.856 9.144,33.795 0,1.568 0.407,3.102 0.905,3.409 1.244,0.769 0.378,-5.736 -2.589,-19.441 -2.965,-13.702 -4.464,-17.345 -11.296,-27.471 -2.855,-4.23 -5.009,-7.873 -4.787,-8.095 0.222,-0.222 3.298,0.721 6.835,2.097 8.726,3.393 25.787,16.273 34.849,26.309 4.052,4.488 7.755,8.16 8.228,8.16 0.474,0 -2.403,-3.905 -6.392,-8.678 -10.042,-12.015 -27.244,-24.863 -38.97,-29.106 -4.66,-1.686 -10.14,-4.197 -12.177,-5.58 -2.038,-1.382 -5.257,-3.026 -7.155,-3.652 -2.723,-0.899 -3.451,-1.672 -3.451,-3.665 0,-3.709 -6.319,-15.105 -12.594,-22.712 -6.591,-7.99 -12.897,-12.765 -20.779,-15.732 -6.654,-2.505 -11.643,-6.255 -11.594,-8.714 0.019,-0.914 0.907,-2.709 1.974,-3.989 l 1.94,-2.328 32.276,16.711 c 17.753,9.191 35.202,18.389 38.777,20.44 3.575,2.051 11.174,6.114 16.887,9.03 5.713,2.916 12.463,6.883 15,8.816 2.537,1.933 7.495,5.749 11.016,8.478 7.22,5.596 20.035,11.504 32.68,15.065 9.14,2.574 15.672,6.388 26.117,15.249 3.472,2.945 12.722,9.588 20.556,14.762 7.834,5.174 18.294,13.175 23.244,17.779 11.309,10.519 25.5,22.18 25.5,20.954 0,-0.512 -2.812,-3.327 -6.25,-6.256 -3.437,-2.93 -11.03,-9.863 -16.871,-15.407 -6.123,-5.812 -16.324,-13.971 -24.085,-19.264 -7.404,-5.051 -15.913,-11.325 -18.907,-13.942 -2.994,-2.618 -7.128,-6.145 -9.187,-7.838 l -3.742,-3.08 14.771,1.742 c 30.354,3.578 42.456,8.302 61.11,23.854 4.88,4.068 6.607,5.009 7.5,4.089 1.363,-1.403 -2.824,-5.413 -13.646,-13.07 l -6.808,-4.816 4.808,-0.658 c 13.382,-1.83 36.307,-9.116 36.307,-11.54 0,-0.479 -2.138,0.047 -4.75,1.169 -7.525,3.231 -20.854,6.027 -32.25,6.764 -8.839,0.573 -11.185,0.399 -14.832,-1.097 -8.112,-3.328 -20.032,-5.79 -37.864,-7.82 -9.792,-1.115 -19.829,-2.73 -22.304,-3.59 -2.475,-0.859 -10.125,-3.485 -17,-5.834 -13.727,-4.692 -20.031,-8.039 -29.339,-15.576 -3.388,-2.744 -9.761,-6.858 -14.161,-9.143 -4.4,-2.284 -17.225,-9.759 -28.5,-16.611 -11.275,-6.852 -27.691,-16.754 -36.479,-22.005 -16.01,-9.566 -22.195,-14.449 -29.785,-23.514 l -4.066,-4.857 4.915,0.683 c 19.308,2.686 30.29,6.326 41.886,13.885 4.794,3.125 13.614,8.138 19.601,11.14 5.986,3.002 13.706,7.18 17.156,9.283 9.031,5.506 18.733,10.553 19.266,10.021 0.509,-0.51 -25.542,-16.181 -37.994,-22.855 -4.4,-2.358 -11.15,-6.406 -15,-8.995 -3.85,-2.589 -9.367,-5.906 -12.26,-7.371 -6.932,-3.509 -21.888,-7.488 -31.197,-8.298 -12.079,-1.052 -5.439,-2.163 13.957,-2.337 21.502,-0.192 19.098,-1.691 -4.25,-2.65 -8.663,-0.356 -15.75,-1.011 -15.75,-1.455 0,-2.354 5.149,-2.646 33.009,-1.874 25.051,0.695 30.62,1.13 36.991,2.89 11.361,3.137 12.79,2.4 2,-1.032 -8.413,-2.676 -11.616,-3.123 -28,-3.905 -10.175,-0.486 -23.802,-1.193 -30.283,-1.571 l -11.783,-0.687 2.261,-2.407 c 1.243,-1.324 4.521,-3.664 7.283,-5.199 l 5.022,-2.793 40,0.793 c 22,0.437 41.721,1.055 43.824,1.374 2.103,0.318 3.579,0.185 3.281,-0.298 -0.298,-0.482 -6.068,-1.165 -12.823,-1.519 -6.755,-0.353 -15.882,-1.07 -20.282,-1.593 -4.4,-0.522 -15.628,-0.974 -24.95,-1.004 -9.349,-0.03 -16.524,-0.434 -16,-0.901 1.508,-1.345 21.949,-3.996 47.45,-6.154 42.125,-3.564 46.62,-2.948 72.5,9.943 9.9,4.932 20.925,11.195 24.5,13.918 3.575,2.723 11.166,10.281 16.868,16.795 10.218,11.673 21.132,22.332 21.132,20.637 0,-0.477 -2.294,-3.1 -5.098,-5.83 -2.804,-2.729 -9.605,-10.255 -15.114,-16.724 -12.841,-15.077 -21.275,-21.416 -42.895,-32.234 -9.347,-4.677 -16.101,-8.504 -15.009,-8.504 4.246,0 16.143,3.052 26.635,6.832 6.039,2.176 19.272,6.961 29.405,10.634 14.888,5.395 20.853,7.034 31.076,8.534 6.959,1.021 16.38,2.564 20.936,3.428 4.557,0.865 12.623,1.503 17.924,1.418 l 9.64,-0.153 -11,-0.741 c -6.05,-0.408 -13.925,-1.443 -17.5,-2.301 -3.575,-0.858 -11.45,-2.285 -17.5,-3.173 -12.278,-1.8 -20.003,-4.271 -48.851,-15.622 -10.919,-4.296 -23.179,-8.608 -27.245,-9.583 -4.066,-0.975 -7.395,-2.046 -7.398,-2.38 -0.008,-0.812 36.292,-2.048 62.994,-2.145 23.235,-0.085 22.72,-0.167 39.545,6.294 5.525,2.121 17.45,5.654 26.5,7.85 9.05,2.196 19.83,5.177 23.955,6.626 5.391,1.893 10.382,2.793 17.75,3.201 5.777,0.32 10.249,0.178 10.249,-0.325 -10e-4,-0.492 -3.939,-0.935 -8.75,-0.985 -7.375,-0.076 -10.398,-0.669 -19.249,-3.777 -5.775,-2.027 -16.682,-5.28 -24.237,-7.227 -7.556,-1.948 -19.438,-5.808 -26.405,-8.578 -6.968,-2.77 -14.736,-5.351 -17.263,-5.734 l -4.595,-0.697 3.5,-0.687 c 5.835,-1.145 63.886,-4.796 73.278,-4.608 4.829,0.096 9.066,-0.112 9.417,-0.463 1.688,-1.687 -61.881,0.252 -81.695,2.492 -15.08,1.705 -86.045,4.582 -84.905,3.442 0.314,-0.315 7.059,-1.01 14.988,-1.545 25.07,-1.692 49.301,-6.766 62.417,-13.07 3.3,-1.586 10.124,-6.223 15.164,-10.303 5.04,-4.08 12.69,-9.346 17,-11.701 11.617,-6.349 25.034,-15.727 31.41,-21.955 5.229,-5.109 10.718,-13.539 9.566,-14.692 -0.275,-0.275 -1.396,1.255 -2.49,3.401 -4.246,8.323 -19.555,20.506 -39.636,31.544 -5.248,2.884 -13.472,8.352 -18.278,12.152 -4.805,3.799 -11.436,8.137 -14.736,9.639 -13.418,6.108 -35.889,10.482 -61.5,11.971 -23.41,1.36 -23.843,1.315 -15.5,-1.645 19.512,-6.923 41.972,-11.904 60,-13.306 l 10,-0.777 -8.216,-0.143 c -16.164,-0.28 -41.004,4.59 -68.284,13.386 -6.325,2.04 -12.85,4.438 -14.5,5.33 -2.007,1.085 -6.805,1.826 -14.5,2.238 -6.325,0.339 -21.4,1.163 -33.5,1.83 -12.1,0.668 -24.7,1.07 -28,0.894 l -6,-0.32 16,-4.346 c 19.746,-5.364 27.338,-8.811 31.727,-14.406 1.8,-2.294 5.494,-6.317 8.208,-8.941 2.714,-2.623 4.66,-5.045 4.324,-5.381 -0.336,-0.336 -4.837,3.642 -10.002,8.841 -7.583,7.633 -10.487,9.862 -15.084,11.582 -6.766,2.532 -33.726,9.431 -34.363,8.794 -0.244,-0.244 1.049,-0.94 2.873,-1.546 1.824,-0.606 4.667,-2.253 6.317,-3.66 3.381,-2.884 3.159,-2.848 -4.502,0.741 -12.561,5.884 -35.998,7.764 -35.998,2.887 0,-3.206 3.212,-5.849 13.5,-11.112 14.137,-7.231 25.332,-11.847 46,-18.966 9.9,-3.41 21.825,-7.66 26.5,-9.444 l 8.5,-3.244 28,-0.783 c 15.4,-0.431 34.975,-1.06 43.5,-1.4 l 15.5,-0.616 -10,-0.688 c -5.5,-0.379 -18.325,-0.427 -28.5,-0.107 -10.175,0.319 -22.995,0.242 -28.488,-0.173 l -9.988,-0.754 4.836,-2.458 c 5.311,-2.699 13.692,-3.353 67.14,-5.239 23.36,-0.824 22.94,-0.843 -15.732,-0.714 l -39.732,0.133 8.537,-4.288 8.536,-4.289 28.196,-0.427 c 15.507,-0.235 30.445,-0.796 33.195,-1.245 3.46,-0.567 -1.16,-0.825 -15,-0.839 -11,-0.011 -24.046,-0.383 -28.991,-0.826 l -8.991,-0.806 4.991,-2.609 c 4.833,-2.526 5.737,-2.63 28.491,-3.273 22.303,-0.63 30.116,-1.624 32.5,-4.138 0.692,-0.729 0.4,-0.841 -0.946,-0.363 -5.871,2.084 -16.92,2.795 -30.554,1.964 l -14.5,-0.884 12.501,-4.238 12.502,-4.239 20.498,-0.02 c 11.275,-0.011 23.424,-0.453 26.999,-0.981 3.575,-0.529 10.325,-1.434 15,-2.011 11.863,-1.465 15,-2.09 15,-2.993 0,-0.43 -1.687,-0.426 -3.75,0.009 -7.766,1.639 -33.296,3.152 -47.75,2.83 l -15,-0.334 19,-5.693 c 10.45,-3.131 26.083,-7.598 34.741,-9.926 8.658,-2.328 15.56,-4.414 15.338,-4.635 -0.89,-0.891 -41.948,6.059 -54.579,9.238 -10.942,2.753 -27.674,8.032 -41.5,13.093 -1.584,0.579 -1.385,0.071 0.956,-2.443 1.626,-1.745 7.881,-5.693 13.901,-8.772 12.015,-6.146 17.513,-10.622 23.216,-18.904 4.737,-6.878 3.923,-8.264 -0.953,-1.622 -5.904,8.043 -11.145,12.017 -23.463,17.791 -9.648,4.522 -12.863,6.631 -18.657,12.239 -7.358,7.121 -13.409,10.856 -12.018,7.417 5.386,-13.314 23.849,-72.83 23.184,-74.735 -0.201,-0.577 -2.023,4.352 -4.048,10.952 -3.451,11.248 -5.168,16.273 -16.081,47.074 -6.672,18.83 -7.593,20.083 -18.412,25.044 -4.056,1.86 -7.481,3.382 -7.611,3.382 -0.13,0 1.239,-3.937 3.042,-8.75 3.564,-9.517 6.503,-22.236 6.344,-27.458 -0.078,-2.532 -0.41,-1.882 -1.441,2.813 -3.736,17.02 -13.932,38.395 -18.315,38.395 -0.523,0 0.344,-2.392 1.928,-5.317 3.36,-6.203 7.928,-17.975 7.928,-20.43 0,-0.935 -2.452,3.238 -5.448,9.273 -2.997,6.036 -7.283,13.084 -9.526,15.663 -3.782,4.35 -5.391,5.206 -22.301,11.867 -10.024,3.948 -23.175,8.968 -29.225,11.156 -15.486,5.599 -47.572,16.788 -48.142,16.788 -1.555,0 1.955,-2.899 9.542,-7.881 4.765,-3.129 12.699,-7.188 17.632,-9.021 13.119,-4.873 29.25,-11.939 33.907,-14.851 5.745,-3.593 21.962,-19.624 27.057,-26.747 4.145,-5.794 7.535,-12.539 7.475,-14.872 -0.016,-0.62 -1.689,2.022 -3.719,5.872 -2.718,5.158 -6.723,10.058 -15.221,18.624 -6.342,6.393 -13.457,12.82 -15.812,14.282 -4.616,2.866 -20.079,9.308 -35.01,14.585 -10.173,3.596 -19.427,8.749 -28.75,16.01 -4.968,3.869 -6.966,4.793 -11.245,5.204 l -5.203,0.5 3.244,-2.379 c 5.4,-3.959 87.745,-85.46 87.745,-86.844 0,-0.709 -7.087,5.565 -15.75,13.942 -43.982,42.529 -74.449,70.404 -80.447,73.6 l -6.142,3.274 3.825,-6.899 c 5.129,-9.249 6.113,-10.606 8.755,-12.074 l 2.259,-1.254 -2.161,-0.036 c -2.447,-0.04 -4.709,2.414 -11.79,12.784 -4.693,6.875 -5.109,7.218 -8,6.611 -1.677,-0.352 -3.355,-0.931 -3.728,-1.285 -1.191,-1.131 16.222,-16.082 28.154,-24.172 6.579,-4.462 14.585,-10.993 18.656,-15.22 5.414,-5.624 9.144,-8.432 15.5,-11.671 4.603,-2.346 7.019,-3.982 5.369,-3.635 -1.65,0.347 -7.05,2.72 -12,5.272 -8.932,4.607 -34.558,14.556 -35.378,13.736 -0.236,-0.235 1.995,-2.571 4.957,-5.191 2.961,-2.62 8.542,-7.966 12.403,-11.88 3.86,-3.913 9.268,-8.392 12.018,-9.953 2.75,-1.561 10.576,-6.403 17.39,-10.761 15.156,-9.691 20.494,-12.15 39.426,-18.165 8.149,-2.588 14.612,-4.91 14.364,-5.159 -0.704,-0.703 -24.642,6.263 -33.192,9.659 -4.217,1.675 -14.265,7.029 -22.328,11.897 -8.063,4.868 -16.235,9.647 -18.16,10.62 -1.925,0.973 -7.004,5.173 -11.286,9.332 -7.288,7.079 -7.688,7.328 -6.25,3.887 2.922,-6.994 1.523,-7.158 -1.815,-0.213 -2.997,6.233 -4.189,7.569 -11.25,12.603 -4.345,3.098 -11.161,7.707 -15.149,10.244 -6.45,4.103 -7.25,4.387 -7.25,2.576 0,-2.509 6.423,-11.449 13.975,-19.451 3.115,-3.3 8.194,-9.825 11.287,-14.5 3.093,-4.675 8.966,-12.325 13.051,-17 9.236,-10.571 30.7,-44.136 39.85,-62.316 6.422,-12.76 8.944,-21.027 9.361,-30.684 l 0.366,-8.5 -0.879,7.541 c -1.715,14.705 -8.972,30.404 -26.149,56.567 l -9.919,15.109 -9.721,5.314 c -17.982,9.83 -31.475,20.334 -37.664,29.321 -2.04,2.961 -5.656,10.775 -8.036,17.364 -2.379,6.59 -5.321,13.961 -6.537,16.382 -2.198,4.376 -5.746,8.902 -6.979,8.902 -1.17,0 0.96,-13.658 3.534,-22.658 1.39,-4.863 4.313,-12.598 6.494,-17.188 5.088,-10.707 5.068,-12.675 -0.037,-3.654 -6.521,11.523 -12.209,28.242 -13.949,41 -0.862,6.323 -0.915,5.84 -0.546,-5 0.469,-13.805 3.074,-26.328 10.09,-48.5 8.792,-27.788 14.47,-37.132 35.345,-58.167 16.565,-16.692 22.239,-22.833 21.101,-22.833 -1.636,0 -36.682,35.494 -41.471,42 -2.631,3.575 -6.254,9.425 -8.051,13 -7.3,14.528 -18.531,50.414 -20.14,64.357 -1.005,8.704 -2.523,4.685 -3.116,-8.245 -0.37,-8.084 0.01,-13.357 1.595,-22.136 2.828,-15.663 5.975,-24.79 14.641,-42.464 8.487,-17.309 21.153,-51.845 24.42,-66.586 0.557,-2.515 1.497,-9.715 2.087,-16 0.59,-6.284 1.689,-13.788 2.44,-16.676 0.752,-2.888 1.013,-5.25 0.581,-5.25 -1.253,0 -2.802,7.49 -4.445,21.5 -0.839,7.15 -2.646,16.825 -4.015,21.5 -4.571,15.602 -17.463,48.094 -23.953,60.368 -3.528,6.673 -7.82,16.136 -9.537,21.03 -4.034,11.496 -8.074,31.521 -8.074,40.017 0,6.32 -2.293,13.412 -4.847,14.991 -1.198,0.74 -2.092,-52.197 -1.027,-60.794 0.47,-3.789 1.99,-9.37 3.378,-12.402 2.894,-6.321 2.705,-7.903 -0.352,-2.955 -4.72,7.636 -5.394,13.171 -5.895,48.403 l -0.472,33.158 -3.393,3.288 -3.392,3.288 0.003,-10.946 c 0.003,-12.153 3.327,-55.059 5.106,-65.904 1.277,-7.784 4.126,-16.726 6.468,-20.299 0.852,-1.301 1.349,-2.9 1.104,-3.554 -0.63,-1.682 -6.295,10.642 -8.188,17.811 -1.516,5.742 -6.71,50.172 -8.063,68.968 -0.605,8.394 -0.734,8.8 -2.022,6.342 -2.551,-4.87 -3.552,-19.136 -4.092,-58.31 -0.589,-42.792 0.355,-61.422 3.724,-73.468 3.146,-11.252 23.168,-60.537 31.395,-77.282 3.986,-8.112 6.9,-14.75 6.476,-14.75 -0.425,0 -3.905,6.188 -7.734,13.75 m 65.323,151.821 c -8.378,4.771 -24.623,16.659 -28.018,20.503 -1.543,1.747 9.333,-6.016 17.268,-12.325 0.821,-0.652 1.25,-0.654 1.25,-0.005 0,0.544 -4.731,4.887 -10.514,9.651 -5.783,4.764 -11.863,10.523 -13.511,12.798 -3.322,4.586 -6.551,13.992 -7.567,22.046 l -0.665,5.261 4.999,-6.5 c 2.749,-3.575 6.326,-7.466 7.948,-8.647 1.623,-1.181 5.742,-6.223 9.155,-11.205 3.412,-4.983 10.355,-13.771 15.429,-19.531 7.819,-8.875 13.676,-16.637 12.533,-16.61 -0.169,0.005 -3.907,2.058 -8.307,4.564 m -2.724,54.822 c -8.649,3.476 -16.33,6.822 -17.07,7.436 -1.759,1.46 -11.861,15.549 -14.821,20.671 -2.692,4.658 -2.069,4.327 6.847,-3.643 2.878,-2.573 7.924,-6.405 11.214,-8.517 3.29,-2.112 9.332,-5.98 13.428,-8.596 6.459,-4.126 18.058,-13.66 16.626,-13.667 -0.275,-0.001 -7.576,2.841 -16.224,6.316 m -27.83,12.479 c -5.161,3.335 -7.797,5.756 -11.374,10.445 -2.272,2.978 -2.446,3.747 -1.476,6.529 1.357,3.893 2.415,3.995 3.683,0.357 0.537,-1.538 3.929,-6.713 7.539,-11.5 3.611,-4.787 6.454,-8.703 6.319,-8.703 -0.135,0 -2.246,1.293 -4.691,2.872 m -171.209,32.469 c 13.046,12.721 15.343,14.402 27.057,19.81 6.952,3.209 9.491,3.916 12.6,3.51 6.109,-0.799 6.223,-2.65 0.331,-5.38 -5.423,-2.512 -20.849,-13.111 -31.849,-21.882 -5.805,-4.629 -7.412,-5.389 -13,-6.148 l -6.376,-0.867 11.237,10.957 m 9.346,-6.992 c 2.119,1.778 24.437,16.902 27.917,18.919 6.911,4.006 9.728,4.884 10.362,3.231 0.325,-0.848 -1.294,-2.77 -4.165,-4.944 -2.583,-1.957 -7.325,-5.575 -10.537,-8.041 -3.932,-3.019 -8.44,-5.305 -13.801,-6.999 -7.228,-2.283 -10.881,-3.092 -9.776,-2.166 m 188.73,29.334 c 0.721,0.289 1.584,0.253 1.916,-0.079 0.332,-0.332 -0.258,-0.568 -1.312,-0.525 -1.165,0.048 -1.402,0.285 -0.604,0.604 M 172.69043,294 c 1.65,0.42 3.9,0.81 5,0.866 1.646,0.085 1.734,-0.068 0.5,-0.866 -0.825,-0.533 -3.075,-0.923 -5,-0.866 l -3.5,0.103 3,0.763 m 7.822,8.696 c -2.469,0.481 -11.128,8.581 -16.339,15.285 l -3.483,4.48 4.5,-2.583 c 2.475,-1.421 8.55,-4.749 13.5,-7.395 4.95,-2.647 9.129,-4.905 9.287,-5.018 0.159,-0.114 -0.251,-1.39 -0.91,-2.836 -1.166,-2.558 -2.031,-2.813 -6.555,-1.933 m -12.12,19.489 -11.297,6.027 -8.527,17.033 c -4.691,9.368 -9.625,18.77 -10.966,20.894 -1.34,2.123 -2.019,3.861 -1.507,3.861 1.964,0 10.805,-4.295 18.874,-9.168 9.306,-5.622 9.437,-5.818 17.197,-25.832 1.812,-4.675 4.335,-10.863 5.604,-13.75 1.27,-2.887 2.222,-5.214 2.115,-5.171 -0.107,0.043 -5.279,2.791 -11.493,6.106 m 14.872,-2.805 c -1.876,3.036 -4.064,8.008 -11.492,26.12 l -1.64,4 2.527,-3 c 3.737,-4.435 9.044,-15.053 11.447,-22.902 1.162,-3.796 1.933,-7.083 1.713,-7.303 -0.221,-0.22 -1.37,1.168 -2.555,3.085 m 15.827,1.37 c -1.417,3.712 -4.569,17.583 -5.398,23.75 l -0.671,5 4.074,-5.66 c 4.448,-6.177 5.408,-8.252 8.112,-17.523 l 1.803,-6.184 -3.06,-1.066 c -3.96,-1.381 -3.65,-1.488 -4.86,1.683 m 11.201,2.519 c -2.606,6.966 -2.571,7.004 2.776,3.031 2.763,-2.053 4.933,-3.796 4.822,-3.873 -0.11,-0.077 -1.677,-0.421 -3.482,-0.765 -2.78,-0.529 -3.409,-0.283 -4.116,1.607 m -22.023,18.535 c -3.06,7.592 -6.306,18.302 -5.724,18.885 0.155,0.154 1.826,-1.31 3.713,-3.255 3.181,-3.278 3.516,-4.246 4.58,-13.235 0.632,-5.335 1.027,-9.829 0.878,-9.988 -0.148,-0.158 -1.7,3.258 -3.447,7.593 m 106.505,21.061 c -0.765,1.237 5.618,11.437 12.167,19.442 3.119,3.812 12.047,13.065 19.841,20.562 7.793,7.497 18.677,19.256 24.186,26.131 5.508,6.875 11.406,14.075 13.106,16 l 3.09,3.5 -4.137,-9.5 c -4.312,-9.9 -21.911,-36 -24.275,-36 -0.683,0 -3.979,-1.368 -7.324,-3.039 -7.863,-3.929 -16.114,-12.781 -23.134,-24.817 -4.225,-7.245 -6.22,-9.673 -9.195,-11.191 -2.09,-1.066 -4.037,-1.556 -4.325,-1.088 m -16.002,4.617 c -2.365,3.101 -2.586,4.057 -2.017,8.75 1.914,15.775 4.742,29.352 7.973,38.268 1.993,5.5 5.414,16.252 7.604,23.894 2.19,7.642 5.265,16.642 6.834,20 l 2.852,6.106 0.083,-5.5 c 0.213,-14.223 -3.569,-41.637 -8.485,-61.5 -2.898,-11.707 -10.334,-33.5 -11.43,-33.5 -0.417,0 -1.954,1.567 -3.414,3.482 m 48.418,-0.884 c 0,1.88 19.369,28.081 24.006,32.475 5.05,4.785 6.68,5.717 11.532,6.596 l 5.651,1.025 -0.593,-2.964 c -1.407,-7.036 -14.402,-23.79 -22.953,-29.592 -3.842,-2.607 -17.643,-8.505 -17.643,-7.54 m -13.384,10.334 c 3.884,7.007 12.581,16.513 18.027,19.704 2.446,1.434 4.656,2.398 4.912,2.142 0.837,-0.837 -19.258,-23.231 -22.581,-25.164 l -3.242,-1.885 2.884,5.203 M 303.75543,433 c 0.258,2.475 0.91,12.25 1.447,21.722 l 0.977,17.222 3.651,5.707 c 2.008,3.139 5.187,8.889 7.065,12.778 1.878,3.889 3.167,5.946 2.866,4.571 -3.218,-14.665 -5.816,-26.587 -8.061,-37 -3.237,-15.009 -8.698,-32.193 -7.945,-25 m 7.63,77.5 c 0.02,1.65 0.244,2.204 0.498,1.231 0.254,-0.973 0.237,-2.323 -0.037,-3 -0.274,-0.677 -0.481,0.119 -0.461,1.769"
     stroke="none"
     fill="#000000"
     fill-rule="evenodd"
     id="path2" />
</svg>
