<?xml version="1.0" encoding="utf-8"?><!-- Uploaded to: SVG Repo, www.svgrepo.com, Generator: SVG Repo Mixer Tools -->
<svg width="800px" height="800px" viewBox="0 0 400 400" fill="none" xmlns="http://www.w3.org/2000/svg">
<path d="M370.732 127.596C370.732 121.008 366.366 116.186 357.634 113.13C332.31 98.0075 290.958 104.658 262.649 111.791C249.262 115.165 238.295 125.222 224.159 127.596C189.922 133.347 154.672 115.821 120.094 119.694C43.6493 128.255 42.4005 181.193 42.4005 242.541C42.4005 262.207 17.6169 272.013 38.1237 289.239" stroke="#000000" stroke-opacity="0.9" stroke-width="16" stroke-linecap="round" stroke-linejoin="round"/>
<path d="M365.684 132.395C368.819 141.39 364.816 145.671 349.711 150.712C329.455 157.472 300.115 157.311 285.37 175.761C278.898 183.86 238.498 282.613 241.047 290.274C242.789 295.504 252.706 295.49 256.775 296" stroke="#000000" stroke-opacity="0.9" stroke-width="16" stroke-linecap="round" stroke-linejoin="round"/>
<path d="M220.032 187.831C144.5 254.552 258.839 242.166 220.759 291.944" stroke="#000000" stroke-opacity="0.9" stroke-width="16" stroke-linecap="round" stroke-linejoin="round"/>
<path d="M194.959 216.225C172.202 235.032 141.788 235.155 113.832 235.155" stroke="#000000" stroke-opacity="0.9" stroke-width="16" stroke-linecap="round" stroke-linejoin="round"/>
<path d="M94.9033 206.76C105.021 226.538 117.584 246.779 120.365 269.436C120.89 273.716 116.921 290.454 118.95 293.21C121.238 296.317 136.754 293.33 140.875 293.93" stroke="#000000" stroke-opacity="0.9" stroke-width="16" stroke-linecap="round" stroke-linejoin="round"/>
<path opacity="0.503384" d="M336.254 120.024C336.254 119.707 336.254 119.391 336.254 119.074" stroke="#000000" stroke-opacity="0.9" stroke-width="12" stroke-linecap="round" stroke-linejoin="round"/>
<path opacity="0.503384" d="M300.423 124.281C302.147 125.966 303.604 125.6 305.831 125.6" stroke="#000000" stroke-opacity="0.9" stroke-width="12" stroke-linecap="round" stroke-linejoin="round"/>
<path d="M52.9879 159.437C44.9222 169.679 42.8817 181.924 39.4668 193.239" stroke="#000000" stroke-opacity="0.9" stroke-width="16" stroke-linecap="round" stroke-linejoin="round"/>
</svg>