<?xml version="1.0" encoding="UTF-8" standalone="no"?>
<svg
   width="300.05423"
   height="862"
   viewBox="0 0 300.05423 862"
   version="1.1"
   id="svg4"
   xmlns="http://www.w3.org/2000/svg"
   xmlns:svg="http://www.w3.org/2000/svg">
  <defs
     id="defs8" />
  <path
     d="m 164,9.063 v 9.064 l -3.25,-0.314 c -3.21,-0.309 -3.259,-0.391 -3.957,-6.72 -0.647,-5.873 -2.012,-9.207 -3.259,-7.96 -0.275,0.275 -0.057,2.042 0.483,3.927 0.541,1.885 0.983,5.329 0.983,7.655 0,3.929 -0.229,4.288 -3.25,5.075 -3.242,0.845 -3.253,0.835 -4.342,-3.906 C 146.128,10.314 143.553,6 141.507,6 c -1.088,0 -0.864,0.859 0.906,3.466 1.293,1.907 2.669,5.156 3.056,7.221 0.592,3.155 0.354,4.038 -1.493,5.534 -3.777,3.058 -5.553,2.267 -7.792,-3.471 -1.126,-2.888 -2.333,-6.263 -2.683,-7.5 -0.35,-1.237 -1.112,-2.25 -1.693,-2.25 -1.479,0 -0.295,5.256 2.615,11.613 2.271,4.96 2.306,5.322 0.659,6.813 -0.957,0.866 -2.005,1.574 -2.329,1.574 -0.325,0 -1.562,-2.92 -2.749,-6.489 -1.941,-5.832 -3.486,-8.362 -4.491,-7.357 -0.195,0.195 0.831,3.79 2.28,7.99 2.232,6.466 2.431,7.881 1.299,9.245 C 126.9,35.03 125.441,34.287 121.456,28.5 118.14,23.685 116,21.75 116,23.566 c 0,1.111 2.337,4.995 5.217,8.669 2.973,3.793 3.105,6.423 0.433,8.641 -0.961,0.797 -2.185,-0.164 -4.986,-3.917 -2.042,-2.735 -4.218,-6.081 -4.835,-7.435 C 110.798,27.262 109,26.926 109,28.996 c 0,0.483 1.937,3.719 4.304,7.191 2.367,3.472 4.577,6.768 4.911,7.324 0.334,0.556 0.052,1.771 -0.627,2.7 -1.101,1.506 -1.638,1.151 -4.936,-3.268 -2.036,-2.726 -4.212,-6.079 -4.837,-7.45 C 107.19,34.122 106.301,33 105.839,33 c -1.867,0 -0.601,3.221 3.785,9.628 3.505,5.119 4.386,7.132 3.641,8.313 -1.33,2.108 -2.068,1.52 -6.742,-5.375 -3.967,-5.851 -6.876,-8.547 -8.004,-7.418 -0.318,0.318 0.76,2.01 2.395,3.76 4.765,5.101 9.144,13.317 7.898,14.818 -1.567,1.888 -3.595,1.548 -4.859,-0.814 C 102.002,52.267 95.828,46 94.187,46 c -1.153,0 -0.776,0.877 1.396,3.25 7.07,7.721 9.374,11.43 8.116,13.067 -1.047,1.362 -2.146,0.87 -8.659,-3.879 C 90.936,55.447 87.224,53 86.79,53 c -2.226,0 -0.07,2.359 6.46,7.065 3.988,2.874 7.394,5.342 7.57,5.484 0.176,0.141 -0.629,2.117 -1.789,4.389 -1.35,2.648 -2.543,3.879 -3.319,3.427 -0.667,-0.388 -3.022,-1.93 -5.235,-3.427 -5.145,-3.481 -12.152,-5.663 -13.584,-4.231 -0.723,0.723 0.015,1.241 2.413,1.691 2.572,0.482 13.527,6.514 16.449,9.056 0.707,0.616 -2.112,6.543 -3.103,6.524 -1.309,-0.025 -7.822,-3.169 -11.845,-5.718 -3.154,-1.998 -5.063,-0.934 -2.234,1.245 1.06,0.816 4.492,2.723 7.627,4.239 3.135,1.516 5.722,3.007 5.75,3.315 0.027,0.307 -0.55,1.38 -1.284,2.383 -1.26,1.724 -1.711,1.597 -8.187,-2.309 C 76.694,82.644 72,80.953 72,82.357 c 0,0.197 3.712,2.524 8.25,5.171 4.538,2.647 8.399,4.923 8.581,5.057 0.182,0.134 -0.176,1.191 -0.796,2.35 -1.11,2.074 -1.258,2.037 -9.717,-2.389 -4.725,-2.473 -9.019,-4.231 -9.542,-3.908 -1.36,0.841 -0.273,1.616 8.974,6.395 4.538,2.345 8.25,4.401 8.25,4.568 0,0.168 -0.519,1.445 -1.154,2.838 l -1.154,2.533 -3.096,-1.91 c -3.635,-2.243 -15.414,-5.165 -16.133,-4.002 -0.684,1.106 0.398,1.639 5.045,2.486 4.315,0.786 13.502,5.026 13.477,6.221 -0.009,0.403 -0.445,1.408 -0.97,2.233 -0.825,1.298 -2.206,1.073 -10.235,-1.662 -5.104,-1.74 -9.438,-3.007 -9.63,-2.817 -1.065,1.052 1.763,2.616 9.11,5.036 4.532,1.494 8.369,2.821 8.527,2.95 0.497,0.405 -2.074,5.493 -2.775,5.493 -0.367,0 -3.436,-1.125 -6.82,-2.5 C 63.726,113.872 60,113.324 60,115 c 0,0.55 0.666,1 1.48,1 0.814,0 4.414,1.205 8,2.677 4.662,1.915 6.52,3.197 6.52,4.5 0,2.361 -0.94,2.296 -10.386,-0.721 -7.336,-2.343 -10.273,-2.562 -8.047,-0.6 0.513,0.452 4.643,1.907 9.178,3.233 7.873,2.302 8.245,2.542 8.25,5.309 l 0.005,2.898 -8.75,-0.62 c -4.812,-0.341 -9.762,-0.91 -11,-1.264 -2.647,-0.759 -3.086,1.049 -0.5,2.054 0.962,0.375 5.688,0.939 10.5,1.255 7.643,0.502 8.75,0.809 8.75,2.427 0,2.318 -0.242,2.311 -10.571,-0.28 -4.675,-1.172 -8.783,-1.847 -9.131,-1.5 -1.064,1.065 -0.018,1.49 9.491,3.851 7.76,1.927 9.185,2.591 9.183,4.281 -0.002,1.1 -0.413,2.649 -0.915,3.442 -0.933,1.474 -0.946,1.472 -18.807,-2.655 -1.255,-0.29 -2.25,-0.047 -2.25,0.549 0,1.25 4.791,2.724 14.25,4.385 7.038,1.237 7.282,1.39 5.832,3.681 -0.694,1.096 -2.488,1.26 -8.235,0.754 -4.041,-0.357 -8.585,-0.927 -10.097,-1.269 C 51.123,152.02 50,152.189 50,152.801 50,154.173 58.778,156 65.376,156 h 5.278 l -0.441,3 c -0.518,3.53 -1.162,3.614 -11.324,1.477 -4.408,-0.928 -7.602,-1.164 -8.162,-0.604 -0.916,0.916 5.294,2.604 14.023,3.811 2.811,0.389 4.25,1.087 4.25,2.061 0,1.253 -1.664,1.365 -11.132,0.746 -7.617,-0.497 -10.929,-0.399 -10.49,0.312 0.353,0.571 5.137,1.357 10.632,1.746 5.494,0.39 9.99,1.064 9.99,1.498 0,4.222 -3.071,4.85 -12,2.453 -6.15,-1.651 -10.921,-1.973 -9.45,-0.638 1.316,1.194 13.698,4.138 17.406,4.138 2.346,0 3.044,0.445 3.044,1.941 0,2.975 -1.241,3.191 -8.978,1.564 C 50.137,177.846 46,177.593 46,178.768 c 0,0.423 4.5,1.586 10,2.584 14.831,2.693 12.888,6.558 -2.568,5.109 -4.536,-0.425 -7.415,-0.297 -7.814,0.347 -0.779,1.261 13.098,2.699 17.515,1.815 2.953,-0.59 3.053,-0.501 2.393,2.128 -0.379,1.51 -0.917,2.971 -1.195,3.247 -0.279,0.276 -5.755,0.359 -12.169,0.184 -7.927,-0.216 -11.341,0.009 -10.659,0.703 0.552,0.562 6.062,1.155 12.245,1.318 9.715,0.257 11.243,0.524 11.247,1.968 0.007,2.342 -4.777,3.178 -13.511,2.36 -4.48,-0.42 -7.508,-0.302 -7.884,0.308 -0.701,1.134 12.426,2.61 17.717,1.993 3.206,-0.375 3.356,-0.256 2.718,2.136 -0.66,2.475 -0.906,2.538 -10.892,2.817 -13.251,0.371 -12.488,2.215 0.916,2.215 9.692,0 11.998,0.829 8.103,2.913 -1.159,0.62 -4.947,0.669 -10.25,0.13 -4.627,-0.469 -8.607,-0.664 -8.845,-0.432 -1.388,1.351 2.559,2.304 10.675,2.578 7.413,0.249 9.24,0.608 9.234,1.811 -0.018,3.935 -1.37,4.334 -12.304,3.627 -5.879,-0.38 -10.763,-0.289 -11.069,0.207 -0.607,0.981 8.719,2.166 17.044,2.166 4.302,0 5.353,0.323 5.353,1.645 0,1.455 -1.162,1.582 -10,1.095 -5.5,-0.303 -10,-0.2 -10,0.229 0,1.188 5.474,2.031 13.191,2.031 6.922,0 6.941,0.008 6.625,2.649 L 61.5,233.298 52,233.094 c -5.225,-0.112 -10.512,-0.453 -11.75,-0.757 -2.54,-0.625 -3.107,1.12 -0.668,2.056 0.87,0.334 5.333,0.607 9.918,0.607 4.585,0 9.048,0.273 9.918,0.607 2.171,0.833 2.037,4.379 -0.168,4.447 -0.962,0.029 -5.35,0.142 -9.75,0.25 -11.731,0.288 -10.73,1.838 1.25,1.936 9.636,0.079 12.33,0.748 8.668,2.153 -0.87,0.334 -3.548,0.607 -5.951,0.607 -5.611,0 -14.256,1.85 -15.111,3.233 -0.459,0.743 0.69,0.835 3.741,0.301 2.422,-0.424 7.679,-1.068 11.684,-1.432 l 7.281,-0.66 -0.648,3.029 c -0.356,1.666 -0.826,3.222 -1.043,3.458 -0.217,0.236 -5.115,0.883 -10.883,1.438 -13.675,1.315 -13.861,3.094 -0.238,2.273 11.444,-0.689 10.62,0.865 -1.016,1.916 -7.888,0.712 -9.544,1.133 -8.853,2.252 0.492,0.795 12.006,-0.075 17.783,-1.344 2.367,-0.52 2.836,-0.296 2.836,1.35 0,2.638 -1.809,3.186 -10.517,3.186 -7.779,0 -13.021,1.32 -11.974,3.014 0.346,0.56 1.127,0.711 1.737,0.334 C 39.834,266.366 59,265.352 59,266.25 c 0,2.059 -4.662,4.884 -11.209,6.792 -4.01,1.169 -7.882,2.309 -8.604,2.534 -0.723,0.226 -1.053,0.832 -0.734,1.349 0.542,0.875 10.258,-1.344 16.841,-3.847 1.66,-0.631 2.706,-0.66 2.706,-0.076 0,1.73 -4.391,3.852 -12.5,6.041 -8.083,2.182 -11.639,3.957 -7.93,3.957 1.865,0 13.914,-3.095 17.68,-4.542 1.33,-0.511 1.75,-0.16 1.75,1.46 0,2.512 -3.381,4.079 -8.815,4.088 -3.189,0.004 -8.523,1.047 -12.998,2.541 -0.723,0.242 -1.054,0.859 -0.737,1.372 0.355,0.575 1.821,0.556 3.813,-0.048 1.781,-0.54 6.499,-1.315 10.487,-1.723 6.415,-0.657 7.25,-0.549 7.25,0.936 0,2.016 -6.248,3.8 -16.25,4.639 -3.712,0.312 -6.75,0.952 -6.75,1.422 0,1.269 8.621,0.998 15.75,-0.496 5.849,-1.226 6.25,-1.194 6.25,0.501 0,1.965 -0.364,2.092 -12.397,4.337 -4.343,0.81 -8.13,1.707 -8.416,1.993 -1.523,1.523 1.621,1.442 10.756,-0.279 l 10.162,-1.914 -0.302,3.106 -0.303,3.107 -9,0.804 c -13.193,1.178 -13.717,3.085 -0.598,2.178 l 10.402,-0.72 -0.652,4.759 c -0.359,2.617 -0.652,5.788 -0.652,7.047 0,4.053 -2.294,5.141 -12.447,5.902 -5.253,0.394 -9.802,1.124 -10.111,1.623 -0.65,1.053 7.47,1.061 15.841,0.016 4.725,-0.59 5.685,-0.468 5.25,0.666 -0.293,0.764 -0.533,1.577 -0.533,1.807 0,0.23 -3.563,0.418 -7.918,0.418 -4.355,0 -8.63,0.273 -9.5,0.607 -3.698,1.419 -0.975,1.959 7.918,1.57 14.164,-0.62 12.49,1.656 -5.75,7.814 -3.712,1.253 -6.75,2.668 -6.75,3.144 0,0.476 0.378,0.865 0.841,0.865 1.349,0 9.218,-2.563 14.909,-4.856 4.907,-1.977 5.25,-1.999 5.25,-0.336 0,1.349 -2.051,2.448 -8.474,4.539 -7.712,2.512 -10.46,4.052 -9.299,5.213 0.234,0.235 4.104,-0.916 8.6,-2.556 L 50,341.021 v 2.47 c 0,1.756 -0.651,2.608 -2.25,2.944 -1.238,0.26 -4.635,0.944 -7.55,1.519 -6.029,1.19 -11.2,3.581 -11.2,5.179 0,0.645 0.705,0.782 1.75,0.339 5.074,-2.15 9.944,-3.605 13.866,-4.143 3.558,-0.488 4.384,-0.308 4.384,0.956 0,0.945 -1.276,1.832 -3.25,2.258 -8.354,1.804 -15.75,4.62 -15.75,5.997 0,1.664 1.152,1.901 2.55,0.525 0.523,-0.515 4.179,-1.827 8.125,-2.916 6.142,-1.695 7.256,-1.771 7.734,-0.527 0.323,0.843 -0.171,1.703 -1.176,2.047 -3.804,1.304 -17.792,7.634 -18.683,8.455 -3.117,2.874 10.614,-1.626 17.7,-5.8 0.413,-0.243 0.75,0.682 0.75,2.056 0,2.22 -0.528,2.571 -4.75,3.161 -4.863,0.68 -16.182,5.36 -16.226,6.709 -0.045,1.395 3.021,0.761 7.759,-1.606 2.594,-1.296 6.432,-2.622 8.528,-2.947 3.634,-0.564 3.797,-0.472 3.5,1.982 -0.274,2.269 -1.286,2.888 -8.582,5.253 -7.801,2.529 -12.359,5.272 -11.006,6.624 0.332,0.332 1.738,-0.139 3.124,-1.048 2.154,-1.411 13.841,-5.477 15.809,-5.5 0.361,-0.005 0.444,0.805 0.184,1.799 -0.339,1.297 -2.415,2.263 -7.36,3.423 -8.048,1.889 -12.149,3.71 -12.793,5.679 -0.342,1.048 0.025,1.201 1.427,0.597 3.72,-1.603 11.946,-4.31 15.136,-4.981 2.828,-0.595 3.25,-0.419 3.25,1.357 0,1.55 -1.007,2.312 -4.185,3.168 -2.301,0.62 -7.003,2.774 -10.447,4.788 -5.109,2.987 -6.158,4.031 -5.691,5.662 0.314,1.1 0.655,2.102 0.757,2.226 0.102,0.125 2.408,-0.6 5.126,-1.611 2.717,-1.01 6.45,-2.123 8.295,-2.472 2.792,-0.528 3.254,-0.37 2.75,0.943 -0.333,0.868 -0.605,1.933 -0.605,2.367 0,0.434 -3.199,1.104 -7.11,1.489 -7.894,0.778 -11.89,2.196 -11.89,4.219 0,1.689 0.529,1.68 3.285,-0.057 1.218,-0.768 5.219,-1.7 8.89,-2.071 6.426,-0.651 6.655,-0.598 6.129,1.411 -0.376,1.44 -3.451,3.481 -9.925,6.588 -5.599,2.688 -9.379,5.1 -9.379,5.985 0,1.945 0.645,1.872 3.89,-0.439 3.533,-2.515 13.809,-7.046 14.474,-6.381 0.285,0.285 0.128,1.258 -0.35,2.161 -0.477,0.903 -1.074,2.331 -1.325,3.172 -0.252,0.842 -4.095,3.317 -8.54,5.5 -4.445,2.184 -8.098,4.307 -8.116,4.72 -0.066,1.493 2.853,0.686 9.347,-2.582 C 34.021,419.835 37,418.74 37,419.234 37,420.969 34.916,424 33.723,424 32.112,424 22,431.006 22,432.122 c 0,1.636 2.198,0.889 5.856,-1.988 4.437,-3.491 8.151,-4.839 8.129,-2.951 -0.029,2.449 -1.469,3.606 -5.985,4.804 C 23.445,433.727 11.627,443 15.965,443 c 0.531,0 2.444,-1.288 4.25,-2.861 3.746,-3.263 7.985,-5.546 12.161,-6.549 2.4,-0.577 2.773,-0.421 2.25,0.941 -0.344,0.898 -0.626,2.394 -0.626,3.325 0,1.188 -2.19,2.506 -7.352,4.426 -6.909,2.569 -11.724,5.975 -10.366,7.333 0.332,0.332 1.866,-0.271 3.41,-1.34 3.151,-2.181 10.62,-5.275 12.735,-5.275 0.934,0 1.206,0.734 0.835,2.25 -0.818,3.342 -1.738,4.211 -9.069,8.566 -6.587,3.913 -10.986,7.724 -10.025,8.685 0.268,0.269 4.272,-2.001 8.897,-5.044 5.392,-3.547 8.557,-5.09 8.821,-4.3 0.526,1.58 -4.33,5.623 -11.944,9.943 -8.228,4.668 -9.545,5.631 -8.766,6.409 0.37,0.37 3.069,-0.49 5.998,-1.912 l 5.326,-2.584 -3.429,2.743 c -1.885,1.509 -4.36,3.493 -5.5,4.408 -3.734,3 -0.712,3.199 3.523,0.232 6.812,-4.771 11.321,-7.362 12.843,-7.38 2.222,-0.025 -3.419,5.399 -12.187,11.719 -4.262,3.073 -7.75,6.216 -7.75,6.985 0,0.844 0.495,1.107 1.25,0.662 2.394,-1.408 13.269,-9.721 16,-12.23 L 30,469.626 v 2.52 c 0,2.751 -4.086,6.504 -14.244,13.082 -5.146,3.334 -7.231,5.772 -4.934,5.772 0.772,0 13.286,-8.323 17.678,-11.757 1.1,-0.86 -2.387,2.81 -7.75,8.157 -5.363,5.346 -9.75,9.919 -9.75,10.16 0,1.748 3.341,-0.641 10.115,-7.233 L 29,482.653 v 3.567 c 0,2.45 -0.538,3.773 -1.72,4.226 C 24.272,491.6 8,502.362 8,503.198 c 0,1.63 2.13,0.673 10.456,-4.698 4.689,-3.025 8.755,-5.5 9.035,-5.5 0.28,0 0.509,0.892 0.509,1.983 0,1.394 -1.561,2.761 -5.25,4.6 C 17.239,502.329 7,511.518 7,513.716 c 0,2.14 1.002,1.498 5.536,-3.544 4.195,-4.666 12.754,-10.216 13.934,-9.035 1.331,1.33 -1.035,3.764 -10.454,10.754 -5.478,4.066 -9.724,7.773 -9.436,8.239 0.63,1.018 3.823,-0.908 12.149,-7.327 3.425,-2.642 6.493,-4.803 6.817,-4.803 0.324,0 0.283,1.012 -0.091,2.25 -1.021,3.379 -5.401,7.654 -10.518,10.265 -4.79,2.445 -7.648,5.107 -6.604,6.152 0.34,0.34 1.417,0.011 2.393,-0.731 0.976,-0.742 0.23,0.312 -1.658,2.343 -4.873,5.242 -3.006,5.84 2.472,0.791 3.828,-3.529 9.803,-7.07 11.928,-7.07 0.293,0 0.532,0.871 0.532,1.936 0,1.192 -2.797,4.221 -7.285,7.888 -8.056,6.584 -10.298,8.926 -9.401,9.823 0.329,0.329 4.218,-2.42 8.642,-6.11 l 8.044,-6.71 -0.013,4.337 c -0.013,4.283 -0.103,4.395 -7.343,9.105 -7.836,5.097 -12.408,9.3 -11.311,10.398 0.371,0.371 1.686,-0.238 2.921,-1.353 C 10.809,549.007 22.603,541 23.445,541 c 1.95,0 -0.611,2.758 -8.945,9.63 -9.002,7.424 -11.591,10.386 -7.806,8.934 1.592,-0.611 1.592,-0.537 0,1.222 C 5.21,562.425 4.381,565 5.337,565 c 0.186,0 2.197,-1.769 4.47,-3.931 4.971,-4.729 13.13,-10.465 13.855,-9.741 1.218,1.219 -1.043,4.818 -3.982,6.337 -3.823,1.977 -13.546,9.531 -13.624,10.585 -0.12,1.609 3.734,0.637 5.539,-1.396 C 13.897,564.26 20.966,559 22.15,559 c 0.468,0 0.85,1.342 0.85,2.983 0,2.552 -0.687,3.334 -4.75,5.407 -6.021,3.073 -13.25,8.319 -13.25,9.616 0,1.61 1.923,1.144 4.26,-1.034 2.05,-1.909 12.107,-7.972 13.225,-7.972 0.283,0 0.515,0.642 0.515,1.427 0,0.784 -2.362,2.78 -5.25,4.434 C 11.107,577.667 4,583.723 4,585.578 c 0,2.128 0.805,1.775 4.984,-2.184 3.909,-3.705 11.931,-9.382 13.266,-9.39 0.413,-0.002 0.75,0.806 0.75,1.795 0,1.155 -1.277,2.261 -3.567,3.089 -3.238,1.171 -13.459,9.249 -14.266,11.275 -0.866,2.173 2.804,0.458 5.887,-2.751 C 13.99,584.355 20.692,580 22.46,580 c 0.297,0 0.54,1.079 0.54,2.398 0,1.726 -1.103,3.058 -3.932,4.75 C 14.734,589.741 2,601.629 2,603.083 c 0,1.892 1.724,0.76 7.034,-4.619 5.628,-5.701 12.663,-11.1 13.444,-10.319 1.29,1.29 -1.126,4.851 -4.626,6.818 -2.205,1.239 -3.776,2.792 -3.515,3.473 0.276,0.718 -0.993,1.761 -3.047,2.504 C 7.207,602.416 0,608.593 0,610.616 c 0,2.149 1.012,1.679 4.818,-2.241 3.427,-3.528 10.188,-7.309 13.151,-7.353 0.807,-0.012 -1.105,2.579 -4.25,5.757 -5.182,5.236 -6.986,8.222 -4.969,8.221 0.413,-10e-4 2.684,-2.246 5.047,-4.99 2.363,-2.744 5.175,-5.46 6.25,-6.035 1.687,-0.903 1.953,-0.716 1.953,1.373 0,1.75 -1.865,4.009 -6.75,8.176 -7.03,5.997 -9.845,9.214 -8.896,10.163 0.307,0.307 3.84,-2.413 7.852,-6.044 l 7.294,-6.603 0.544,2.73 c 0.479,2.408 -0.494,3.714 -8.25,11.074 C 5.68,632.543 3.743,635 5.789,635 c 0.434,0 4.372,-3.439 8.75,-7.642 7.115,-6.83 7.997,-7.4 8.298,-5.363 0.253,1.702 -1.327,3.957 -6.25,8.917 C 10.417,637.13 8.652,640 11,640 c 0.55,0 1,-0.37 1,-0.822 0,-0.453 2.84,-3.332 6.312,-6.399 l 6.312,-5.576 -0.452,3.081 c -0.317,2.157 -2.21,4.708 -6.312,8.506 -3.223,2.984 -5.86,6.052 -5.86,6.818 0,0.765 0.135,1.392 0.3,1.392 0.166,0 2.978,-2.587 6.25,-5.75 5.5,-5.315 5.975,-5.573 6.281,-3.414 0.248,1.754 -1.309,4.035 -6.25,9.153 -5.986,6.2 -7.813,9.011 -5.858,9.011 0.398,0 3.521,-2.773 6.94,-6.162 l 6.218,-6.162 0.678,2.703 c 0.59,2.351 -0.12,3.535 -5.44,9.076 -5.627,5.86 -7.287,8.509 -5.369,8.568 0.413,0.013 3.323,-2.8 6.467,-6.25 4.721,-5.18 5.722,-5.887 5.75,-4.056 0.018,1.243 -1.942,4.44 -4.467,7.283 -3.999,4.502 -6.167,9.148 -3.5,7.5 0.55,-0.34 1,-0.168 1,0.382 0,0.55 -0.45,1.278 -1,1.618 -1.17,0.723 -1.361,4.5 -0.227,4.5 0.425,0 1.602,-1.541 2.617,-3.425 1.014,-1.884 3.128,-4.655 4.698,-6.159 2.38,-2.281 2.953,-2.472 3.459,-1.154 0.381,0.993 -1.094,3.745 -3.97,7.409 -4.251,5.415 -5.629,8.396 -3.827,8.281 0.413,-0.027 2.64,-2.557 4.95,-5.623 3.998,-5.306 4.23,-5.456 4.821,-3.103 0.519,2.069 -0.372,3.465 -5.45,8.543 C 21.565,685.275 19.223,690 22,690 c 0.55,0 1,-0.65 1,-1.445 C 23,687.027 32.663,677 34.136,677 c 2.277,0 0.339,3.799 -4.729,9.274 -5.858,6.327 -8.237,10.229 -6.994,11.472 0.405,0.405 1.235,-0.159 1.843,-1.254 0.608,-1.096 3.601,-4.614 6.651,-7.819 5.121,-5.382 5.615,-5.671 6.457,-3.782 0.721,1.614 0.051,3.369 -3.176,8.327 -2.248,3.455 -4.792,7.97 -5.652,10.032 -1.386,3.326 -1.392,3.75 -0.049,3.75 0.832,0 1.513,-0.595 1.513,-1.323 0,-2.38 9.237,-15.911 10.009,-14.662 0.848,1.372 -3.447,12.007 -7.109,17.604 -3.162,4.832 -4.053,7.168 -2.986,7.828 1.062,0.656 7.273,-9.518 9.582,-15.697 0.977,-2.612 2.075,-4.75 2.441,-4.75 0.365,0 1.617,1.961 2.781,4.357 l 2.117,4.357 -7.417,7.368 c -6.223,6.18 -8.868,9.918 -7.021,9.918 0.218,0 3.546,-3.15 7.396,-7 3.85,-3.85 7.478,-7 8.062,-7 1.431,0 -3.897,11.695 -7.755,17.021 -2.962,4.088 -3.957,7.027 -2.35,6.937 0.997,-0.057 4.801,-5.902 9.268,-14.24 3.555,-6.636 3.657,-6.727 4.784,-4.254 0.989,2.171 0.67,3.585 -2.26,10.012 -1.876,4.117 -4.565,8.999 -5.976,10.849 -2.595,3.402 -3.279,5.675 -1.708,5.675 1.355,0 7.546,-9.925 10.164,-16.293 l 2.382,-5.794 1.656,3.204 c 1.64,3.171 1.617,3.275 -2.321,10.293 -2.188,3.9 -5.095,8.582 -6.459,10.406 -1.365,1.823 -2.214,3.583 -1.887,3.91 1.14,1.14 4.852,-3.276 8.804,-10.471 2.188,-3.985 4.323,-7.458 4.745,-7.719 0.421,-0.26 1.265,0.623 1.875,1.962 0.936,2.055 0.745,2.871 -1.224,5.219 -3.89,4.64 -8.593,12.564 -8.593,14.479 0,3.103 1.425,1.988 3.764,-2.946 3.192,-6.734 8.036,-12.184 9.183,-10.332 1.003,1.619 -2.262,9.742 -7.018,17.46 -1.653,2.683 -2.766,5.118 -2.474,5.411 1.184,1.183 4.459,-3.277 8.123,-11.06 4.638,-9.853 5.452,-8.312 1.964,3.722 C 61.908,760.542 61.267,767 63,767 c 0.55,0 1,-1.207 1,-2.682 0,-1.475 0.97,-6.275 2.155,-10.668 2.104,-7.797 2.195,-7.936 3.863,-5.876 1.568,1.936 1.591,2.784 0.286,10.339 -0.781,4.527 -2.043,9.719 -2.802,11.537 -0.847,2.026 -1.01,3.536 -0.421,3.9 1.436,0.887 3.796,-5.588 5.104,-14.004 l 1.159,-7.455 1.896,2.186 c 2.276,2.624 1.802,6.616 -1.707,14.372 -2.822,6.236 -4.052,11.351 -2.731,11.351 0.529,0 1.655,-1.913 2.504,-4.25 6.316,-17.399 6.265,-17.306 7.288,-13.232 0.439,1.751 -0.276,6.622 -1.963,13.368 -1.46,5.838 -2.65,11.402 -2.643,12.364 0.019,2.78 1.734,2.029 2.284,-1 1.591,-8.757 5.129,-20.25 6.235,-20.25 2.275,0 2.27,3.601 -0.021,12.617 -3.155,12.421 -3.772,16.383 -2.55,16.383 0.564,0 1.261,-1.013 1.548,-2.25 5.011,-21.603 5.104,-21.888 6.372,-19.52 1.021,1.908 0.799,4.066 -1.313,12.783 -2.62,10.815 -3.112,14.987 -1.768,14.987 0.426,0 1.547,-3.713 2.492,-8.25 0.944,-4.538 2.208,-9.996 2.808,-12.131 1.003,-3.567 1.222,-3.751 2.701,-2.272 1.479,1.48 1.477,2.628 -0.028,14.194 -0.901,6.921 -1.389,13.231 -1.086,14.021 0.79,2.059 2.661,1.782 2.114,-0.312 -0.251,-0.962 0.117,-5.8 0.818,-10.75 0.701,-4.95 1.318,-9.9 1.372,-11 0.088,-1.804 0.339,-1.725 2.566,0.806 2.215,2.517 2.459,3.647 2.384,11 -0.047,4.507 -0.433,10.894 -0.86,14.194 -0.819,6.343 -0.634,7.478 0.958,5.886 0.54,-0.54 1.278,-6.504 1.641,-13.253 l 0.66,-12.273 2.255,2.32 c 2.189,2.251 2.227,2.633 1.296,12.82 -0.528,5.775 -1.351,11.959 -1.83,13.742 -0.814,3.034 0.147,5.389 1.383,3.39 0.857,-1.388 2.539,-14.073 2.561,-19.323 0.024,-5.672 1.01,-6.513 3.957,-3.376 2.182,2.322 2.212,2.702 1.499,18.618 -0.496,11.084 -0.4,16.045 0.304,15.61 0.587,-0.363 1.355,-7.647 1.782,-16.899 0.567,-12.296 0.998,-15.713 1.767,-14.012 0.559,1.238 1.398,2.25 1.864,2.25 0.466,0 0.847,8.298 0.847,18.441 0,11.215 0.392,18.683 1,19.059 0.653,0.403 1,-5.656 1,-17.441 0,-14.47 0.268,-18.059 1.346,-18.059 1.438,0 2.654,15.224 2.654,33.216 0,6.467 0.315,8.707 1.153,8.19 0.844,-0.522 0.976,-6.004 0.493,-20.468 l -0.661,-19.755 3.486,1.07 c 2.821,0.865 3.391,1.468 2.987,3.158 -1.388,5.809 -0.905,46.589 0.551,46.589 0.466,0 0.798,-9.563 0.736,-21.25 -0.132,-25.148 0.262,-27.75 4.2,-27.75 2.744,0 2.794,0.111 3.312,7.25 0.289,3.987 0.282,15.238 -0.016,25 -0.397,13.025 -0.235,17.75 0.609,17.75 1.16,0 1.65,-11.402 1.65,-38.379 0,-10.094 0.256,-12.042 1.702,-12.965 0.936,-0.597 1.926,-0.862 2.199,-0.588 0.273,0.273 0.608,11.845 0.743,25.714 0.134,13.87 0.607,25.218 1.05,25.218 1.082,0 1.165,-2.834 0.841,-28.596 -0.256,-20.341 -0.138,-22.15 1.487,-22.774 0.97,-0.372 1.973,-0.469 2.228,-0.214 0.255,0.255 0.528,8.813 0.607,19.017 0.091,11.867 0.503,18.432 1.143,18.216 0.634,-0.215 0.911,-7.857 0.756,-20.879 -0.234,-19.591 -0.155,-20.563 1.694,-21.047 2.542,-0.664 3.149,2.137 3.939,18.197 0.773,15.718 2.744,17.586 2.467,2.339 -0.114,-6.269 0.084,-9.09 0.474,-6.759 0.437,2.606 0.956,3.558 1.49,2.733 0.451,-0.698 0.291,-6.391 -0.354,-12.653 -0.745,-7.222 -0.83,-12.001 -0.233,-13.067 1.208,-2.159 3.27,11.87 3.268,22.237 0,4.168 0.424,7.25 0.999,7.25 1.436,0 1.156,-15.937 -0.448,-25.5 -1.248,-7.437 -1.21,-8.211 0.536,-11 1.033,-1.65 1.894,-2.55 1.913,-2 0.019,0.55 0.694,5.275 1.499,10.5 0.805,5.225 1.472,12.286 1.482,15.691 0.01,3.405 0.468,6.469 1.018,6.809 1.494,0.923 1.211,-12.4 -0.5,-23.5 -1.713,-11.112 -1.784,-13.003 -0.561,-14.936 0.79,-1.247 1.136,-1.247 2.643,0 3.313,2.742 5.373,9.089 5.396,16.627 0.012,3.955 0.472,7.469 1.022,7.809 0.635,0.393 1,-2.334 1,-7.473 0,-8.903 -1.551,-13.903 -5.635,-18.167 -1.517,-1.584 -2.116,-2.896 -1.497,-3.279 1.514,-0.935 9.103,13.306 9.119,17.11 0.007,1.755 0.463,3.469 1.013,3.809 0.605,0.374 1,-1.008 1,-3.498 0,-2.84 -1.24,-6.523 -4,-11.884 -2.2,-4.273 -4,-8.613 -4,-9.644 0,-3.299 1.926,-0.224 5.914,9.445 2.088,5.061 4.199,9.144 4.691,9.075 1.332,-0.186 0.653,-2.518 -3.763,-12.921 -3.345,-7.882 -3.824,-9.818 -2.917,-11.807 1.279,-2.807 2.597,-2.306 3.51,1.332 1.001,3.988 9.019,16.955 9.37,15.155 0.168,-0.861 -1.744,-5.452 -4.25,-10.202 -4.707,-8.925 -5.511,-12.512 -3.23,-14.405 1.05,-0.872 1.693,0.085 3.105,4.627 2.858,9.187 5.711,15.227 7.193,15.227 1.732,0 1.726,-0.523 -0.036,-3.285 -2.212,-3.466 -7.718,-19.932 -7.155,-21.398 0.851,-2.219 2.437,-1.477 4.132,1.933 2.858,5.75 7.899,12.746 9.186,12.748 1.798,0.003 1.625,-0.465 -2.127,-5.746 -1.857,-2.613 -4.169,-6.327 -5.139,-8.252 -0.97,-1.925 -2.172,-3.765 -2.671,-4.088 -0.499,-0.324 -0.226,-1.154 0.606,-1.845 1.909,-1.584 4.808,1.442 10.716,11.183 3.754,6.191 5.865,8.266 5.865,5.765 0,-1.568 -5.964,-11.089 -10.11,-16.138 -3.297,-4.016 -3.625,-4.858 -2.495,-6.402 1.191,-1.629 1.552,-1.408 4.289,2.623 1.644,2.421 4.259,6.765 5.811,9.652 2.63,4.892 4.505,6.644 4.505,4.21 0,-1.646 -3.926,-8.935 -8.244,-15.307 -5.831,-8.604 -3.173,-8.686 3.244,-0.099 3.025,4.048 5.837,7.379 6.25,7.403 1.803,0.104 0.379,-2.718 -4.75,-9.414 -5.839,-7.623 -6.277,-8.932 -3.999,-11.941 1.854,-2.45 2.856,-1.598 7.999,6.797 2.2,3.592 4.563,6.546 5.25,6.565 1.994,0.057 1.584,-0.829 -4.631,-10.028 -3.88,-5.742 -5.602,-9.155 -5.061,-10.03 1.216,-1.967 4.07,0.982 7.891,8.15 1.743,3.269 3.592,5.944 4.11,5.944 0.517,0 0.941,-0.24 0.941,-0.533 0,-1.553 -5.409,-10.863 -8.077,-13.902 -1.694,-1.93 -2.933,-4.274 -2.752,-5.209 0.219,-1.13 1.723,0.453 4.488,4.722 4.323,6.674 8.931,11.666 9.886,10.71 0.304,-0.304 -1.769,-3.621 -4.608,-7.371 -7.085,-9.36 -8.348,-12.205 -6.999,-15.754 l 1.075,-2.827 3.848,4.832 c 4.611,5.789 7.939,8.865 8.733,8.072 0.319,-0.32 -1.934,-3.63 -5.007,-7.355 -5.381,-6.524 -6.497,-9.402 -4.727,-12.193 0.922,-1.453 5.901,3.593 9.403,9.53 2.054,3.48 4.164,3.606 2.893,0.172 -0.415,-1.124 -2.904,-4.698 -5.531,-7.942 -6.323,-7.812 -5.074,-9.405 2.339,-2.983 5.53,4.791 8.036,6.086 8.036,4.153 0,-0.484 -2.49,-2.799 -5.532,-5.147 -6.981,-5.385 -7.692,-6.64 -5.819,-10.263 l 1.473,-2.849 6.343,5.569 c 6.77,5.943 7.535,6.365 7.535,4.153 0,-0.778 -2.334,-3.274 -5.188,-5.545 -6.424,-5.116 -7.866,-7.119 -7.134,-9.918 0.525,-2.006 1.083,-1.681 6.608,3.844 5.133,5.133 8.714,7.415 8.714,5.553 0,-0.265 -2.925,-3.407 -6.5,-6.982 -6.645,-6.645 -8.022,-9.537 -4.542,-9.537 1.86,0 13.042,10.44 13.042,12.177 0,0.452 0.45,0.823 1,0.823 2.174,0 0.767,-2.862 -4.081,-8.302 -2.795,-3.135 -6.17,-5.974 -7.5,-6.308 -2.789,-0.7 -2.744,-0.582 -1.37,-3.598 1.042,-2.286 1.082,-2.271 5.848,2.203 5.309,4.984 9.732,7.71 10.791,6.65 0.38,-0.38 -0.407,-1.447 -1.748,-2.372 -1.342,-0.924 -4.632,-3.755 -7.31,-6.29 -4.425,-4.188 -4.807,-4.903 -4.169,-7.803 l 0.701,-3.193 6.666,6.016 c 3.666,3.309 6.833,5.515 7.037,4.903 0.204,-0.613 -2.382,-3.892 -5.747,-7.287 -5.907,-5.96 -6.788,-7.71 -5.53,-10.989 0.883,-2.301 6.64,1.793 10.012,7.12 1.48,2.337 3.075,4.25 3.545,4.25 2.975,0 -2.629,-8.678 -8.015,-12.41 -3.868,-2.68 -5.233,-4.59 -3.28,-4.59 1.558,0 9.055,5.925 10.729,8.48 1.521,2.322 4.475,3.515 4.38,1.77 -0.079,-1.462 -5.524,-6.931 -10.149,-10.194 -4.539,-3.202 -4.641,-3.385 -3.156,-5.65 l 1.534,-2.341 4.809,5.217 c 2.646,2.87 5.16,4.874 5.588,4.453 0.428,-0.421 -0.578,-2.221 -2.236,-4 -5.356,-5.75 -7.173,-8.692 -6.636,-10.747 0.286,-1.093 0.83,-1.988 1.207,-1.988 0.905,0 6.059,5.535 9.545,10.25 1.525,2.063 3.169,3.75 3.654,3.75 2.194,0 0.387,-3.12 -5.619,-9.701 -4.01,-4.393 -6.5,-7.993 -6.5,-9.397 0,-2.233 0.057,-2.221 3.014,0.612 1.658,1.588 4.47,5.035 6.25,7.661 3.311,4.884 4.736,5.912 4.736,3.415 0,-1.253 -1.527,-3.316 -10.847,-14.654 -4.516,-5.494 -1.596,-4.83 4.797,1.09 3.548,3.286 6.585,5.974 6.75,5.974 0.165,0 0.3,-0.575 0.3,-1.279 0,-0.703 -2.943,-4.191 -6.54,-7.75 -5.52,-5.462 -6.445,-6.861 -5.929,-8.971 0.336,-1.375 0.965,-2.864 1.398,-3.308 0.433,-0.445 3.491,2.143 6.797,5.75 3.305,3.607 6.294,6.558 6.641,6.558 1.86,0 -0.047,-2.978 -5.84,-9.118 -4.103,-4.349 -6.263,-7.408 -5.9,-8.353 0.431,-1.121 1.037,-1.244 2.441,-0.493 1.858,0.995 8.42,9.008 9.232,11.276 0.235,0.653 0.806,0.833 1.269,0.399 1.3,-1.218 -2.455,-7.351 -7.148,-11.677 -2.324,-2.143 -3.97,-4.151 -3.658,-4.464 0.313,-0.313 3.38,2.131 6.816,5.431 5.3,5.088 8.421,7.176 8.421,5.632 0,-0.202 -3.07,-3.493 -6.821,-7.312 -6.326,-6.44 -6.79,-7.209 -6.394,-10.601 l 0.427,-3.658 5.485,4.469 c 5.261,4.286 7.318,5.335 7.29,3.719 -0.007,-0.413 -2.482,-2.916 -5.5,-5.563 -3.762,-3.3 -5.487,-5.56 -5.487,-7.191 0,-4.258 2.143,-3.987 6.711,0.848 4.809,5.09 5.289,5.378 5.289,3.168 0,-0.818 -2.25,-3.611 -5,-6.206 -2.75,-2.596 -5,-5.494 -5,-6.44 0,-1.427 0.97,-1.136 5.691,1.707 3.13,1.885 6.093,3.427 6.584,3.427 2.07,0 -0.147,-2.244 -5.279,-5.344 -5.141,-3.106 -5.474,-3.541 -5.153,-6.738 0.188,-1.88 0.469,-3.549 0.625,-3.71 0.155,-0.16 3.072,1.344 6.482,3.342 5.794,3.396 8.09,3.942 6.629,1.578 -0.342,-0.553 -3.077,-2.411 -6.079,-4.128 -6.304,-3.607 -6.865,-4.274 -5.97,-7.094 0.652,-2.054 0.683,-2.056 2.815,-0.153 2.839,2.534 9.094,6.247 10.523,6.247 2.219,0 1.074,-1.665 -2.618,-3.81 -5.626,-3.267 -9.25,-6.849 -9.25,-9.142 0,-1.126 0.373,-2.048 0.829,-2.048 1.266,0 9.588,5.698 11.652,7.979 1.784,1.971 4.584,2.77 4.454,1.271 -0.137,-1.575 -11.555,-10.424 -14.11,-10.935 -2.401,-0.48 -2.57,-0.78 -1.617,-2.873 l 1.065,-2.336 3.113,2.333 c 4.803,3.598 11.431,6.665 12.092,5.596 0.323,-0.522 -0.89,-1.707 -2.695,-2.633 C 280.846,540.333 277,536.976 277,534.119 c 0,-1.532 0.26,-3.046 0.578,-3.364 0.318,-0.318 3.492,1.458 7.053,3.947 3.561,2.49 6.721,4.28 7.022,3.979 0.974,-0.975 -0.66,-2.611 -6.715,-6.723 -5.797,-3.937 -6.766,-5.636 -5.338,-9.358 0.802,-2.089 3.535,-0.68 9.129,4.704 2.326,2.239 4.526,3.774 4.889,3.411 1.173,-1.172 -4.615,-7.673 -8.676,-9.745 -2.168,-1.106 -3.942,-2.686 -3.942,-3.511 0,-1.258 0.605,-1.19 3.75,0.423 2.063,1.058 4.841,3.092 6.174,4.521 2.394,2.565 5.076,3.456 5.076,1.686 0,-1.416 -5.977,-6.104 -10.718,-8.407 -3.296,-1.602 -4.282,-2.64 -4.282,-4.509 v -2.429 l 3.25,2.666 c 4.434,3.637 9.773,5.967 10.957,4.783 0.593,-0.593 -0.182,-1.337 -2.076,-1.998 C 289.009,512.758 281,505.202 281,502.75 c 0,-1.458 0.336,-1.728 1.25,-1.003 0.688,0.546 2.907,1.526 4.932,2.178 2.025,0.652 5.389,2.542 7.476,4.201 2.156,1.713 3.954,2.539 4.162,1.913 0.512,-1.534 -4.035,-4.99 -11.234,-8.539 -4.991,-2.46 -6.143,-3.495 -6.402,-5.75 -0.174,-1.513 -0.075,-2.75 0.221,-2.75 1.615,0 11.299,4.923 12.467,6.338 1.369,1.657 5.161,2.336 5.091,0.912 -0.05,-1.036 -7.481,-5.574 -13.213,-8.07 -4.409,-1.919 -4.75,-2.327 -4.75,-5.68 v -3.613 l 4.25,2.622 c 3.852,2.377 12.302,6.491 13.333,6.491 0.229,0 0.417,-0.442 0.417,-0.983 0,-0.541 -2.34,-2.169 -5.2,-3.618 -2.86,-1.45 -6.91,-3.767 -9,-5.15 -3.682,-2.437 -3.8,-2.696 -3.8,-8.382 0,-3.227 0.264,-5.867 0.588,-5.867 0.323,0 3.403,1.575 6.846,3.5 6.139,3.434 10.566,4.481 10.566,2.5 0,-0.55 -0.533,-1 -1.183,-1 -2.746,0 -16.717,-7.583 -16.766,-9.1 -0.045,-1.402 0.951,-1.31 8.062,0.75 4.463,1.293 8.738,2.35 9.5,2.35 2.698,0 1.341,-1.851 -1.863,-2.543 -9.302,-2.008 -15.537,-4.534 -16.052,-6.503 -0.407,-1.556 -0.139,-1.919 1.135,-1.538 8.346,2.495 16.62,4.464 17.031,4.054 0.954,-0.955 -1.383,-2.137 -7.413,-3.749 C 280.978,453.92 280,453.364 280,450.2 v -2.849 l 7.131,2.324 c 7.626,2.486 9.869,2.823 9.869,1.483 0,-0.463 -1.913,-1.392 -4.25,-2.065 -10.285,-2.961 -12.75,-4.267 -12.75,-6.755 0,-2.36 0.039,-2.369 3.162,-0.754 3.962,2.048 14.838,3.188 14.838,1.555 0,-0.633 -1.539,-1.139 -3.462,-1.139 -1.905,0 -5.907,-0.915 -8.895,-2.032 -4.963,-1.857 -5.467,-2.332 -5.837,-5.5 -0.481,-4.124 -0.256,-4.16 8.685,-1.398 3.686,1.139 6.983,1.789 7.327,1.446 0.99,-0.991 -1.771,-2.286 -8.798,-4.125 -3.586,-0.939 -6.799,-1.974 -7.14,-2.299 -0.341,-0.326 -0.866,-2.224 -1.167,-4.218 l -0.547,-3.626 3.167,0.717 c 1.742,0.395 4.67,1.497 6.507,2.449 1.837,0.952 4.087,1.43 5,1.063 1.222,-0.491 0.241,-1.301 -3.718,-3.072 -2.958,-1.323 -6.108,-2.412 -7,-2.42 -2.537,-0.024 -3.905,-1.273 -4.651,-4.245 L 276.783,412 h 9.109 c 5.405,0 9.108,-0.407 9.108,-1 0,-0.585 -3.427,-1.006 -8.25,-1.015 -4.538,-0.009 -8.745,-0.346 -9.351,-0.75 -0.606,-0.404 -1.336,-1.999 -1.622,-3.543 -0.426,-2.291 -0.223,-2.693 1.101,-2.181 2.578,0.997 11.126,2.489 14.258,2.489 5.208,0 2.973,-1.729 -3.126,-2.419 -9.866,-1.117 -13.956,-3.005 -13.995,-6.459 -0.012,-1.097 1.629,-1.284 8.014,-0.914 5.517,0.319 7.916,0.125 7.669,-0.622 -0.208,-0.628 -3.756,-1.208 -8.421,-1.375 -8.019,-0.287 -8.064,-0.303 -8.48,-3.142 l -0.419,-2.854 7.811,0.535 c 4.891,0.336 7.811,0.162 7.811,-0.463 0,-0.549 -3.443,-1.259 -7.65,-1.577 -7.296,-0.552 -9.295,-1.475 -9.335,-4.31 -0.01,-0.745 2.401,-0.945 7.485,-0.618 5.198,0.333 7.5,0.134 7.5,-0.65 0,-0.663 -1.761,-1.137 -4.25,-1.143 -7.791,-0.02 -11.75,-1.071 -11.75,-3.12 0,-1.659 0.842,-1.869 7.5,-1.869 4.333,0 7.5,-0.422 7.5,-1 0,-0.583 -3.307,-1 -7.922,-1 h -7.923 l -1.158,-3.509 c -0.637,-1.93 -1.009,-3.88 -0.827,-4.334 0.181,-0.454 3.693,-0.251 7.804,0.451 4.111,0.702 7.698,1.053 7.971,0.78 0.909,-0.909 -2.22,-2.203 -6.86,-2.837 -8.169,-1.117 -9.908,-1.647 -10.505,-3.204 -0.485,-1.263 0.247,-1.486 4.166,-1.275 8.214,0.443 14.404,-0.021 13.778,-1.033 -0.326,-0.528 -4.458,-0.928 -9.181,-0.889 -9.344,0.078 -10.301,-0.433 -10.328,-5.517 -0.013,-2.489 0.281,-2.786 2.235,-2.255 1.237,0.336 5.4,0.896 9.25,1.244 9.907,0.896 7.183,-1.014 -3.657,-2.564 -8.69,-1.242 -9.749,-1.922 -9.829,-6.308 -0.024,-1.306 8.564,-0.81 12.986,0.75 5.288,1.866 6.864,1.907 4.964,0.131 -2.227,-2.082 -7.737,-3.631 -12.913,-3.631 -4.209,0 -7.051,-1.247 -7.051,-3.095 0,-1.424 8.651,-1.554 12.813,-0.193 6.081,1.988 8.707,1.237 4.187,-1.198 -2.649,-1.426 -5.362,-1.851 -11.153,-1.745 -7.435,0.135 -7.672,0.065 -8.299,-2.433 -0.355,-1.415 -0.396,-2.821 -0.091,-3.126 0.305,-0.305 4.039,-0.024 8.299,0.624 9.196,1.4 13.014,1.5 11.694,0.307 -1.078,-0.975 -13.764,-3.141 -18.393,-3.141 -2.39,0 -3.057,-0.436 -3.057,-2 0,-1.861 0.667,-2 9.559,-2 6.118,0 9.337,-0.36 8.941,-1 -0.341,-0.552 -4.844,-1 -10.059,-1 -8.64,0 -9.441,-0.163 -9.441,-1.918 0,-1.055 -0.273,-2.63 -0.607,-3.5 -0.526,-1.371 0.601,-1.582 8.441,-1.582 4.976,0 9.326,-0.45 9.666,-1 0.396,-0.64 -2.823,-1 -8.941,-1 -9.443,0 -9.559,-0.029 -9.559,-2.418 0,-1.33 -0.273,-3.13 -0.607,-4 -0.526,-1.372 0.612,-1.582 8.559,-1.582 5.856,0 8.943,-0.361 8.548,-1 -0.34,-0.55 -4.416,-1 -9.059,-1 H 253 v -2.643 -2.643 l 8,0.549 c 4.4,0.301 8,0.193 8,-0.241 0,-1.243 -3.973,-1.994 -10.625,-2.008 -6.056,-0.014 -6.132,-0.049 -6.75,-3.139 -1.129,-5.643 -1.121,-5.65 5.005,-4.689 3.096,0.485 6.441,1.317 7.434,1.848 2.257,1.208 3.936,1.24 3.936,0.075 0,-1.246 -7.474,-4.106 -10.77,-4.123 -3.811,-0.019 -7.23,-1.042 -7.23,-2.164 0,-0.536 3.683,-0.857 8.497,-0.741 4.673,0.112 8.501,-0.198 8.506,-0.688 0.006,-0.491 -3.705,-1.018 -8.246,-1.171 -6.3,-0.213 -8.553,-0.673 -9.507,-1.941 -2.392,-3.183 -1.415,-3.569 7.25,-2.866 5.19,0.421 8.5,0.319 8.5,-0.261 0,-0.523 -3.263,-1.273 -7.25,-1.667 -8.374,-0.827 -10.288,-1.613 -11.053,-4.539 -0.527,-2.016 -0.308,-2.082 4.625,-1.408 2.848,0.39 6.22,1.103 7.493,1.584 2.98,1.127 6.185,1.124 6.185,-0.005 0,-1.024 -6.261,-2.709 -13.664,-3.678 -4.979,-0.652 -6.251,-1.797 -6.322,-5.691 -0.008,-0.413 4.486,-0.75 9.986,-0.75 6,0 10,-0.4 10,-1 0,-0.599 -3.961,-1 -9.883,-1 -9.404,0 -9.913,-0.109 -10.487,-2.25 -1.953,-7.29 -0.235,-8.176 8.219,-4.24 5.872,2.733 7.508,3.06 6.95,1.388 -0.473,-1.421 -10.614,-5.805 -13.549,-5.858 -1.237,-0.022 -2.25,-0.453 -2.25,-0.958 0,-0.505 -0.293,-1.681 -0.65,-2.613 -0.563,-1.465 -0.192,-1.595 2.75,-0.959 1.87,0.404 5.07,1.579 7.11,2.612 3.687,1.866 10.079,2.668 8.24,1.034 -1.383,-1.229 -11.412,-5.039 -15.2,-5.775 -2.767,-0.537 -3.25,-1.059 -3.25,-3.506 0,-1.581 0.194,-2.875 0.432,-2.875 0.237,0 4.093,1.35 8.568,3 9.158,3.377 9.303,3.408 8.81,1.931 C 260.379,234.637 246.651,229 243.933,229 242.452,229 242,228.299 242,226 c 0,-1.769 0.525,-3 1.278,-3 0.703,0 4.565,1.575 8.582,3.5 7.649,3.666 9.14,4.089 9.14,2.594 0,-1.083 -12.346,-7.001 -16.25,-7.789 -1.825,-0.368 -2.75,-1.186 -2.75,-2.43 0,-2.915 5.816,-2.391 12.5,1.125 6.039,3.177 7.5,3.579 7.5,2.063 0,-1.591 -12.627,-7.25 -16.417,-7.358 -2.98,-0.084 -3.583,-0.467 -3.583,-2.274 0,-2.015 0.309,-2.115 4.25,-1.376 2.337,0.439 5.517,1.281 7.065,1.871 3.353,1.279 5.685,1.384 5.685,0.257 0,-0.904 -8.396,-3.634 -14.25,-4.633 -2.836,-0.485 -3.75,-1.117 -3.75,-2.595 0,-2.38 2.12,-2.484 10.492,-0.514 3.295,0.775 6.19,1.21 6.433,0.967 1.174,-1.174 -2.233,-2.521 -9.165,-3.624 -7.727,-1.23 -8.696,-1.953 -8.746,-6.534 -0.019,-1.711 5.528,-1.596 11.577,0.239 5.81,1.763 6.409,1.814 6.409,0.55 0,-1.326 -9.527,-4.039 -14.182,-4.039 -3.406,0 -3.818,-0.27 -3.818,-2.5 0,-2.234 0.41,-2.5 3.851,-2.5 2.118,0 5.291,0.502 7.051,1.116 1.76,0.613 3.485,0.831 3.832,0.483 1.448,-1.447 -1.962,-2.848 -8.142,-3.344 L 240,185.726 v -3.951 -3.951 l 4.25,0.654 c 2.337,0.36 5.712,0.899 7.5,1.199 1.869,0.314 3.25,0.119 3.25,-0.457 0,-1.179 -2.375,-1.817 -10.304,-2.768 -5.775,-0.692 -5.803,-0.712 -5.5,-3.824 0.293,-3.014 0.468,-3.124 4.804,-3.022 2.475,0.058 6.3,0.427 8.5,0.82 3.696,0.66 3.857,0.598 2.115,-0.815 -2.195,-1.781 -9.297,-3.031 -13.615,-2.398 -2.84,0.417 -3,0.256 -3,-3.016 v -3.457 l 4.75,0.668 c 11.815,1.663 14.25,1.808 14.25,0.849 0,-0.963 -3.824,-1.725 -14.648,-2.92 -4.766,-0.526 -5.193,-0.794 -5.757,-3.612 -0.335,-1.674 -0.395,-3.259 -0.133,-3.521 0.262,-0.261 4.653,0.22 9.757,1.071 5.105,0.85 9.476,1.354 9.714,1.119 1.132,-1.116 -2.198,-2.208 -10.433,-3.422 -9.362,-1.379 -10.459,-1.978 -10.485,-5.722 -0.018,-2.741 2.699,-2.968 8.985,-0.75 4.277,1.509 11.926,2.093 10.646,0.813 -1.002,-1.002 -13.674,-4.188 -16.927,-4.255 -3.17,-0.066 -4.535,-2.37 -2.708,-4.571 1.58,-1.904 6.571,-1.899 11.989,0.013 4.71,1.662 8.96,2.017 7.45,0.623 -2.256,-2.083 -11.863,-4.338 -16.559,-3.887 -4.542,0.437 -4.891,0.31 -4.891,-1.774 0,-2.942 3.409,-3.792 11.669,-2.907 4.14,0.443 6.331,0.319 6.331,-0.359 0,-1.008 -10.65,-2.6 -14.556,-2.177 -3.514,0.382 -4.205,0.01 -4.689,-2.519 -0.516,-2.701 -0.719,-2.648 11.745,-3.061 2.2,-0.073 4.098,-0.539 4.217,-1.036 0.12,-0.498 -3.56,-0.791 -8.205,-0.654 l -8.422,0.249 -0.677,-3.608 c -0.909,-4.848 0.445,-5.584 9.371,-5.09 5.021,0.279 7.168,0.062 6.91,-0.698 -0.234,-0.689 -3.613,-1.102 -9.011,-1.102 -8.59,0 -8.639,-0.015 -9.234,-2.726 -0.832,-3.795 -0.122,-4.523 6.202,-6.361 3.543,-1.03 5.202,-1.96 4.59,-2.572 -0.613,-0.613 -3.028,-0.262 -6.681,0.972 -5.899,1.991 -6.134,1.91 -6.762,-2.313 -0.263,-1.767 0.536,-2.116 6.876,-3 3.945,-0.55 7.508,-1.338 7.916,-1.75 0.972,-0.981 -6.934,-0.887 -12.269,0.146 -3.922,0.76 -4.217,0.655 -4.808,-1.699 -0.925,-3.685 1.338,-5.282 8.384,-5.921 3.388,-0.308 6.432,-0.999 6.765,-1.538 0.541,-0.876 -8.932,-0.608 -15.162,0.429 -1.547,0.258 -2,-0.223 -2,-2.122 0,-2.829 2.34,-3.788 9.628,-3.945 2.784,-0.06 5.122,-0.696 5.87,-1.597 1.083,-1.306 0.618,-1.429 -3.628,-0.96 -9.036,0.998 -10.864,1.285 -12.62,1.979 -1.192,0.471 -1.75,0.218 -1.75,-0.793 0,-0.816 -0.67,-2.04 -1.489,-2.72 -2.213,-1.836 -1.013,-2.823 4.262,-3.504 C 232.403,67.131 234,66.78 234,65.818 c 0,-0.952 -1.967,-0.839 -14.733,0.845 -3.919,0.517 -4.31,0.355 -5.278,-2.191 -0.575,-1.512 -0.785,-3.009 -0.468,-3.327 0.318,-0.317 4.268,-0.818 8.778,-1.111 4.511,-0.294 7.976,-0.945 7.701,-1.448 -0.513,-0.938 -10.107,-0.919 -15.555,0.031 -2.539,0.443 -3.244,0.118 -4.172,-1.917 -0.986,-2.165 -0.829,-2.581 1.352,-3.575 1.358,-0.619 5.598,-1.125 9.422,-1.125 3.969,0 6.953,-0.429 6.953,-1 0,-1.341 -14.097,-1.294 -17.655,0.059 -2.302,0.875 -3.01,0.752 -4.081,-0.712 -1.156,-1.581 -0.838,-1.957 2.971,-3.503 2.346,-0.953 5.416,-1.757 6.824,-1.788 1.407,-0.031 3.432,-0.743 4.5,-1.583 1.789,-1.407 1.549,-1.476 -3.059,-0.877 -2.75,0.358 -6.517,1.27 -8.372,2.027 -4.544,1.855 -5.864,1.738 -7.133,-0.632 -1.174,-2.194 -1.25,-2.145 9.476,-6.021 2.734,-0.988 5.15,-2.333 5.368,-2.988 0.482,-1.444 -1.701,-0.909 -11.055,2.71 l -6.717,2.599 -4.783,-5.289 c -2.631,-2.908 -4.927,-5.652 -5.101,-6.097 -0.424,-1.079 8.645,-9.716 10.979,-10.457 2.088,-0.662 2.497,-2.448 0.561,-2.448 -1.784,0 -5.495,2.6 -10.408,7.292 l -4.184,3.996 -2.996,-2.521 c -2.856,-2.403 -2.922,-2.632 -1.422,-4.894 0.866,-1.305 4.297,-5.173 7.625,-8.596 3.327,-3.422 5.725,-6.547 5.328,-6.945 -0.874,-0.873 -14.443,12.391 -15.238,14.896 -0.621,1.954 -1.289,2.147 -3.214,0.926 -0.991,-0.63 -0.592,-2.134 1.75,-6.587 1.67,-3.173 3.036,-6.399 3.036,-7.169 0,-2.775 -1.818,-1.311 -3.457,2.785 -2.525,6.313 -5.519,9.377 -8.793,9.001 L 166,17.867 V 8.934 C 166,3.645 165.592,0 165,0 c -0.593,0 -1,3.688 -1,9.063 m 43.132,17.015 C 201.287,27.226 194,30.84 194,32.589 c 0,1.867 0.566,1.784 3.79,-0.553 1.491,-1.08 4.96,-2.492 7.71,-3.137 7.496,-1.757 7.5,-1.759 7.5,-2.868 0,-0.567 -0.337,-0.982 -0.75,-0.921 -0.413,0.06 -2.716,0.495 -5.118,0.968 M 39,388.704 c -2.548,0.927 -8.128,4.501 -7.699,4.931 0.755,0.755 11.193,-1.88 11.934,-3.012 1.63,-2.491 -0.283,-3.358 -4.235,-1.919 m -11.797,72.782 c -4.781,3.299 -4.955,3.667 -1.129,2.387 4.012,-1.342 5.289,-2.324 4.789,-3.68 -0.2,-0.54 -1.847,0.042 -3.66,1.293 m -5.147,56.954 -2.285,2.433 2.199,-0.575 c 1.21,-0.317 2.442,-1.207 2.738,-1.98 0.94,-2.45 -0.288,-2.394 -2.652,0.122 m -0.651,29.706 c -1.895,2.134 -1.893,2.139 0.345,0.964 1.238,-0.649 2.25,-1.615 2.25,-2.145 0,-1.421 -0.479,-1.203 -2.595,1.181 M 18,597.551 l -2.5,1.479 2.923,-0.265 c 1.607,-0.146 3.107,-0.827 3.333,-1.515 0.535,-1.628 -0.66,-1.532 -3.756,0.301 M 166.688,806.5 c 0.307,3.85 0.728,7.188 0.935,7.417 0.693,0.765 0.151,-8.377 -0.676,-11.417 -0.515,-1.892 -0.61,-0.415 -0.259,4"
     stroke="none"
     fill="#000000"
     fill-rule="evenodd"
     id="path2" />
</svg>
