<?xml version="1.0" encoding="UTF-8" standalone="no"?>
<!-- Uploaded to: SVG Repo, www.svgrepo.com, Generator: SVG Repo Mixer Tools -->

<svg
   fill="#000000"
   version="1.1"
   id="Capa_1"
   width="800.01031"
   height="443.42545"
   viewBox="0 0 31.645408 17.540248"
   xml:space="preserve"
   sodipodi:docname="world-map-with-a-placeholder-svgrepo-com.svg"
   inkscape:version="1.1.2 (0a00cf5339, 2022-02-04)"
   xmlns:inkscape="http://www.inkscape.org/namespaces/inkscape"
   xmlns:sodipodi="http://sodipodi.sourceforge.net/DTD/sodipodi-0.dtd"
   xmlns="http://www.w3.org/2000/svg"
   xmlns:svg="http://www.w3.org/2000/svg"><defs
   id="defs25">
	

		
		
		
		
		
		
		
		
	</defs><sodipodi:namedview
   id="namedview23"
   pagecolor="#ffffff"
   bordercolor="#666666"
   borderopacity="1.0"
   inkscape:pageshadow="2"
   inkscape:pageopacity="0.0"
   inkscape:pagecheckerboard="0"
   showgrid="false"
   fit-margin-top="0"
   fit-margin-left="0"
   fit-margin-right="0"
   fit-margin-bottom="0"
   inkscape:zoom="0.93875"
   inkscape:cx="400"
   inkscape:cy="46.870839"
   inkscape:window-width="2560"
   inkscape:window-height="1016"
   inkscape:window-x="0"
   inkscape:window-y="34"
   inkscape:window-maximized="1"
   inkscape:current-layer="Capa_1" />
<path
   d="m 10.767959,11.361256 c -0.034,-0.022 -0.602,-0.533 -0.743,-0.715 -0.1380002,-0.182 -0.4040002,-0.23 -0.5430002,-0.303 -0.14,-0.073 -1.064,-0.3769996 -1.286,-0.219 -0.219,0.157 -0.521,0.254 -0.638,0 -0.115,-0.2559996 -0.173,-0.2919996 -0.335,-0.3279996 -0.162,-0.036 -0.081,-0.23 -0.092,-0.4 -0.013,-0.171 -0.105,-0.352 -0.221,-0.23 -0.116,0.122 -0.51,0.437 -0.567,0.277 -0.058,-0.156 -0.337,-0.812 0.081,-0.934 0.416,-0.121 0.764,-0.049 0.869,0.06 0.104,0.109 0.184,0.413 0.313,0.376 0.128,-0.037 0.058,-0.268 0.104,-0.461 0.046,-0.192 0.349,-0.448 0.486,-0.715 0.139,-0.268 0.162,-0.425 0.335,-0.499 0.176,-0.072 0.268,-0.169 0.43,-0.291 0.163,-0.122 0.416,-0.229 0.511,-0.292 0.093,-0.062 0.509,-0.267 0.6470002,-0.23 0.139,0.037 0.231,-0.013 0.116,-0.219 -0.116,-0.206 -0.2660002,-0.825 -0.4860002,-1.104 -0.22,-0.279 -0.244,-0.354 -0.348,-0.619 -0.104,-0.268 -0.221,-0.498 -0.302,-0.316 -0.081,0.183 -0.254,0.426 -0.347,0.194 -0.092,-0.23 -0.081,-0.219 -0.197,-0.328 -0.115,-0.108 -0.209,-0.134 -0.37,-0.182 -0.162,-0.049 -0.324,0.012 -0.313,0.17 0.011,0.159 -0.152,0.439 -0.046,0.645 0.104,0.207 0.197,0.426 0.057,0.498 -0.138,0.072 0,0.511 -0.138,0.497 -0.139,-0.011 -0.208,0.014 -0.208,-0.146 0,-0.157 0.069,-0.4 -0.187,-0.4 -0.254,0 -0.405,-0.133 -0.59,-0.267 -0.186,-0.133 -0.336,-0.062 -0.29,-0.364 0.046,-0.304 -0.022,-0.413 0.185,-0.583 0.209,-0.169 0.256,-0.267 0.406,-0.194 0.151,0.073 0.254,0.073 0.349,-0.012 0.092,-0.085 0.265,-0.049 0.265,-0.158 0,-0.108 -0.197,-0.108 -0.173,-0.29 0.022,-0.184 0.116,-0.086 0.15,-0.39 0.034,-0.303 -0.22,-0.764 -0.475,-0.704 -0.256,0.062 -0.648,0.413 -0.729,0.255 -0.082,-0.158 -0.244,-0.085 -0.557,0.024 -0.313,0.109 -1.61,-0.109 -1.702,-0.219 0,0 -0.221,-0.157 -0.337,-0.072 -0.115,0.085 -0.579,0.048 -0.718,0.024 -0.14,-0.024 -0.267,0.157 -0.439,0.098 -0.176,-0.062 -0.789,-0.183 -0.927,-0.28 -0.141,-0.097 -0.35,-0.097 -0.44,-0.145 -0.093,-0.05 -0.42999996,-0.073 -0.49799996,0.023 -0.069,0.097 -0.324,0.268 -0.452,0.388 -0.127,0.122 -0.276,0.099 -0.15,0.354 0.127,0.254 -0.324,0.413 -0.209,0.691 0.115,0.277 -0.023,1.03 0.44,1.177 0.464,0.146 0.84599996,0.23 1.11199996,0.013 0.268,-0.219 0.673,-0.219 0.8,0.024 0.127,0.242 0.197,0.606 0.613,0.812 0.416,0.208 0.776,0.803 0.753,1.07 -0.022,0.267 0.013,1.152 0.439,1.663 0.43,0.51 0.87,1.433 0.903,1.214 0.035,-0.219 0.035,-0.438 0.129,-0.28 0.091,0.159 0.335,0.645 0.729,0.729 0.395,0.085 0.592,0.108 0.741,0.2559996 0.15,0.145 0.279,0.229 0.44,0.303 0.162,0.073 0.556,0.292 0.637,0.438 0.082,0.146 0.047,0.34 -0.035,0.559 -0.08,0.219 -0.173,0.437 -0.058,0.644 0.117,0.206 0.36,0.802 0.558,0.935 0.197,0.134 0.392,0.352 0.346,0.656 -0.046,0.301 -0.266,1.6 -0.243,1.892 0.024,0.29 -0.265,1.249 -0.034,1.638 0.231,0.389 0.627,0.511 0.8,0.46 0.173,-0.047 0.035,-0.06 -0.047,-0.242 -0.081,-0.183 -0.07,-0.413 0.023,-0.582 0.094,-0.171 0.094,-0.268 0.047,-0.462 -0.047,-0.193 -0.023,-0.304 0.092,-0.448 0.117,-0.146 0.603,-0.534 0.754,-0.704 0.1490002,-0.17 1.1010002,-1.336 1.2280002,-1.434 0.127,-0.097 0.416,-0.327 0.51,-0.69 0.093,-0.364 0.428,-1.08 0.197,-1.264 -0.233,-0.183 -1.09,-0.317 -1.125,-0.342 z"
   id="path2"
   style="fill:#666666" /><path
   d="m 13.083959,1.1172564 c 0.066,-0.12799996 0.226,-0.45099996 0.312,-0.62799996 H 9.7259588 c 0.044,0.195 0.203,0.91799996 0.173,1.21099996 -0.035,0.341 0.07,0.22 0.1620002,0.354 0.093,0.133 0.07,0.34 0.012,0.497 -0.059,0.158 -0.093,0.51 0.094,0.923 0.184,0.413 0.404,0.934 0.589,0.959 0.187,0.024 0.14,0.291 0.268,0.194 0.127,-0.099 0.149,-0.315 0.255,-0.631 0.104,-0.315 0.104,-0.547 0.371,-0.704 0.267,-0.158 1.007,-0.667 1.169,-0.851 0.163,-0.182 0.348,-0.255 0.29,-0.569 -0.06,-0.317 -0.117,-0.572 -0.025,-0.755 z"
   id="path4"
   style="fill:#666666" /><path
   d="m 31.152959,2.5502564 c -0.139,-0.097 -0.972,-0.764 -1.332,-0.679 -0.357,0.085 -0.996,-0.195 -1.1,-0.256 -0.104,-0.061 -0.96,-0.323 -1.412,-0.34 -0.225,-0.008 -1.17,-0.218 -1.565,-0.38699996 -0.394,-0.17 -0.729,-1.007 -1.481,-0.874 -0.097,0.018 -1.007,0.146 -1.239,0.353 -0.23,0.207 -0.336,0.448 -0.463,0.497 -0.127,0.049 -0.498,0.024 -0.498,0.20699996 0,0.182 0.128,0.741 -0.022,0.631 -0.151,-0.109 -0.302,-0.364 -0.37,-0.17 -0.069,0.195 -0.188,0.304 -0.256,0.23 -0.068,-0.072 -0.419,0 -0.464,0.122 -0.046,0.122 -0.498,0.399 -0.693,0.438 -0.197,0.036 -0.279,0.134 -0.383,0.183 -0.104,0.048 -0.893,0.413 -1.042,0.278 -0.151,-0.133 -0.197,-0.048 -0.29,-0.023 0,0 -0.278,-0.049 -0.451,-0.268 -0.175,-0.218 -0.209,-0.146 -0.406,-0.352 -0.196,-0.206 -0.243,-0.412 -0.44,-0.327 -0.195,0.084 -1.029,0.946 -1.354,1.334 -0.323,0.39 -0.903,0.789 -0.614,1.068 0.291,0.279 0.44,0.243 0.476,0.399 0.036,0.157 0.07,0.328 0.116,0.39 0.046,0.061 0.324,0.278 0.463,-0.013 0.141,-0.292 0.162,-0.497 0.325,-0.448 0.162,0.048 0.196,0.158 0.114,0.376 -0.081,0.219 -0.138,0.558 -0.416,0.546 -0.278,-0.012 -0.578,-0.183 -0.673,-0.146 -0.092,0.036 -0.148,0.121 -0.254,0.206 -0.104,0.085 -0.429,0.485 -0.649,0.546 -0.219,0.062 -0.485,0.012 -0.335,0.193 0.15,0.181 0.37,0.583 0.162,0.571 -0.208,-0.013 -0.556,-0.048 -0.579,0.158 -0.023,0.205 -0.115,0.327 -0.069,0.473 0.046,0.146 0.197,0.425 0.381,0.328 0.188,-0.099 0.546,-0.194 0.638,-0.413 0.093,-0.219 0.198,-0.46 0.429,-0.449 0.231,0.012 0.788,0.316 0.753,0.425 -0.035,0.109 -0.15,0.364 -0.011,0.279 0.138,-0.085 0.254,-0.182 0.335,-0.218 0.081,-0.037 0.187,0.122 0.22,0.182 0.035,0.062 0.267,0.182 0.313,-0.013 0.047,-0.194 0.093,-0.047 0.23,0.013 0.141,0.062 0.557,0.109 0.613,0.158 0.06,0.048 0.187,0.194 0.024,0.388 -0.162,0.194 -0.349,0.269 -0.614,0.122 -0.267,-0.146 -0.557,0.122 -0.856,-0.024 -0.302,-0.146 -0.163,-0.352 -0.522,-0.497 -0.357,-0.146 -1.169,0.035 -1.425,0.108 -0.255,0.072 -0.266,0.098 -0.37,0.218 -0.104,0.122 -0.787,0.91 -0.787,1.359 0,0.449 0.254,1.6639996 1.076,1.5419996 0.823,-0.122 1.321,-0.049 1.229,0.193 -0.094,0.244 -0.046,0.304 0.104,0.583 0.15,0.278 0.499,2.136 0.556,2.438 0.059,0.305 -0.045,0.692 0.337,0.631 0.383,-0.06 0.788,-0.156 0.949,-0.509 0.163,-0.352 0.187,-0.752 0.395,-0.958 0.209,-0.207 0.464,-0.207 0.486,-0.498 0.022,-0.292 -0.058,-0.982 0.081,-1.142 0.139,-0.157 0.787,-0.886 0.856,-1.177 0.07,-0.291 0.162,-0.364 -0.104,-0.364 -0.266,0 -0.718,-0.036 -0.847,-0.2789996 -0.126,-0.243 -0.428,-0.704 -0.428,-0.812 0,-0.109 0.186,-0.098 0.277,0.133 0.093,0.229 0.416,0.9229996 0.787,0.775 0.371,-0.146 0.893,-0.314 0.904,-0.546 0.011,-0.229 -0.162,-0.497 -0.349,-0.483 -0.186,0.012 -0.382,-0.122 -0.382,-0.255 0,-0.134 0.034,-0.084 0.254,0 0.222,0.085 0.29,0.229 0.626,0.255 0.336,0.023 0.719,0.351 0.903,0.498 0.186,0.146 0.509,1.1409996 0.591,1.2369996 0.08,0.099 0.175,0.099 0.255,-0.097 0.082,-0.195 0.429,-0.8119996 0.626,-0.9839996 0.197,-0.17 0.208,-0.399 0.323,-0.254 0.116,0.146 0.614,0.51 0.649,0.7289996 0.035,0.218 -0.023,0.691 0.081,0.546 0.104,-0.146 0.186,-0.449 0.276,-0.315 0.094,0.135 0.094,0.341 0.313,0.183 0.221,-0.157 0.603,-0.219 0.395,-0.5589996 -0.208,-0.34 -0.069,-0.546 0.06,-0.558 0.127,-0.013 0.996,-0.17 1.019,-0.645 0.023,-0.473 -0.302,-0.728 -0.148,-0.971 0.148,-0.243 0.368,-0.461 0.416,-0.315 0.046,0.146 -0.116,0.618 0.092,0.546 0.209,-0.073 0.452,-0.073 0.452,-0.22 0,-0.146 -0.047,-0.511 0.047,-0.606 0.093,-0.097 0.774,-0.74 0.856,-0.995 0.081,-0.255 0.232,-0.473 0.104,-0.667 -0.128,-0.194 -0.347,-0.134 -0.174,-0.376 0.174,-0.243 0.464,-0.467 0.684,-0.486 0.703,-0.061 0.505,0.809 0.516,1.002 0.014,0.194 0.014,0.681 0.117,0.438 0.104,-0.243 0.225,-0.541 0.434,-0.747 0.209,-0.206 0.323,-0.34 0.337,-0.522 0.012,-0.182 0.021,-0.242 0.22,-0.34 0.197,-0.097 1.065,-0.437 1.146,-0.667 0.08,-0.229 -0.104,-0.438 0.104,-0.424 0.208,0.011 0.405,0.242 0.51,0.121 0.105,-0.121 0.336,-0.339 0.324,-0.461 -0.014,-0.123 -0.351,-0.403 -0.492,-0.5 z"
   id="path6"
   style="fill:#666666" /><path
   d="m 27.413959,6.6282564 c -0.07,0.159 -0.104,0.183 -0.208,0.511 -0.106,0.327 -0.071,0.242 -0.176,0.448 -0.104,0.207 -0.276,0.229 -0.451,0.365 -0.175,0.134 -0.221,0.399 -0.221,0.399 -0.15,0.206 0.614,-0.292 0.88,-0.449 0.267,-0.157 0.198,-0.34 0.221,-0.595 0.023,-0.255 0.095,-0.292 0.208,-0.401 0.115,-0.108 0.023,-0.327 -0.032,-0.484 -0.061,-0.159 -0.153,0.049 -0.221,0.206 z"
   id="path8"
   style="fill:#666666" /><path
   d="m 25.038959,12.138256 c 0.08,-0.061 0.022,-0.194 0.149,-0.17 0.128,0.023 0.243,0.098 0.396,0.013 0.149,-0.086 0.277,-0.05 0.254,-0.194 -0.022,-0.146 0,-0.34 -0.034,-0.46 -0.035,-0.122 -0.243,-0.159 -0.395,-0.024 -0.149,0.134 -0.357,0.34 -0.357,0.266 0,-0.071 0.091,-0.266 0.045,-0.388 -0.045,-0.121 0.022,-0.23 -0.208,-0.133 -0.232,0.097 -0.359,0.073 -0.44,0.207 -0.081,0.134 -0.174,0.364 -0.312,0.218 -0.14,-0.145 -0.545,-0.448 -0.545,-0.448 -0.033,-0.037 -0.496,-0.414 -0.334,-0.158 0.161,0.256 0.404,0.692 0.521,0.85 0.114,0.158 0.242,0.34 0.381,0.255 0.14,-0.085 0.163,-0.109 0.349,0 0.181,0.106 0.449,0.227 0.53,0.166 z"
   id="path10"
   style="fill:#666666" /><path
   d="m 27.877959,11.799256 c -0.222,-0.097 -0.129,-0.183 -0.396,-0.23 -0.267,-0.047 -0.486,0 -0.557,-0.048 -0.07,-0.049 -0.416,-0.17 -0.37,0 0.047,0.171 0.359,0.218 0.439,0.267 0.081,0.049 -0.115,0.158 0.034,0.242 0.15,0.084 0.255,0.243 0.452,0.194 0.197,-0.049 0.267,0.061 0.427,0.085 0.163,0.024 0.325,-0.024 0.258,-0.098 -0.07,-0.072 -0.115,-0.17 -0.104,-0.254 0.011,-0.085 0.035,-0.062 -0.183,-0.158 z"
   id="path12"
   style="fill:#666666" /><path
   d="m 27.760959,12.879256 c -0.081,-0.243 -0.278,-0.691 -0.323,-0.474 -0.047,0.219 -0.36,0.375 -0.477,0.363 -0.106,-0.011 -0.046,-0.121 -0.046,-0.219 0,-0.097 -0.061,-0.194 -0.325,-0.121 -0.268,0.073 -0.323,0.328 -0.395,0.304 -0.068,-0.023 -0.255,-0.073 -0.37,0.062 -0.115,0.134 -0.221,0.388 -0.358,0.437 -0.141,0.049 -0.604,0.109 -0.604,0.305 0,0.193 0.117,0.484 0.105,0.643 -0.012,0.159 -0.224,0.521 0.058,0.631 0.162,0.064 0.277,0.073 0.465,-0.023 0.185,-0.098 0.983,-0.353 1.088,-0.269 0.104,0.085 0.273,0.285 0.348,0.328 0.147,0.087 0.187,0.291 0.384,0.339 0.194,0.049 0.347,0.073 0.427,0.073 0.082,0 0.37,-0.097 0.44,-0.268 0.069,-0.171 0.197,-0.57 0.255,-0.765 0.06,-0.194 0.115,-0.412 -0.058,-0.583 -0.174,-0.168 -0.533,-0.52 -0.614,-0.763 z"
   id="path14"
   style="fill:#666666" />
</svg>
