<?xml version="1.0" encoding="iso-8859-1"?>
<!-- Uploaded to: SVG Repo, www.svgrepo.com, Generator: SVG Repo Mixer Tools -->
<svg height="800px" width="800px" version="1.1" id="Layer_1" xmlns="http://www.w3.org/2000/svg" xmlns:xlink="http://www.w3.org/1999/xlink" 
	 viewBox="0 0 512 512" xml:space="preserve">
<path style="fill:#DBE1F1;" d="M479.96,344.753H32.041c-8.571-3.451-12.69-13.135-9.239-21.706l72.019-180.103
	c4.785-12.133,14.804-21.149,27.494-24.711c21.038-5.788,33.171,4.452,44.302,12.912l51.871-106.859
	C225.501,9.816,239.86,0.799,256,0.799s30.499,9.016,37.512,23.487l51.871,106.859c11.131-8.46,23.375-18.701,44.302-12.912
	c12.69,3.562,22.708,12.578,27.494,24.711l72.019,180.103C492.649,331.618,488.531,341.302,479.96,344.753z"/>
<path style="fill:#D0D5E5;" d="M479.96,344.753H256V0.799c16.14,0,30.499,9.016,37.512,23.487l51.871,106.859
	c11.131-8.46,23.375-18.701,44.302-12.912c12.69,3.562,22.708,12.578,27.494,24.711l72.019,180.103
	C492.649,331.618,488.531,341.302,479.96,344.753z"/>
<g>
	<path style="fill:#7C84E8;" d="M89.033,511.201c-27.621,0-50.09-22.469-50.09-50.09c0-16.233,1.653-15.084,35.556-75.011
		c6.382-11.273,22.602-11.294,29.023-0.07c32.012,55.929,35.6,58.757,35.6,75.081C139.123,488.732,116.654,511.201,89.033,511.201z"
		/>
	<path style="fill:#7C84E8;" d="M270.471,386.05c-3.228-5.677-8.905-8.46-14.471-8.46c-5.677,0-11.354,2.783-14.583,8.46
		c-31.834,56.546-35.507,58.105-35.507,75.024c0,27.605,22.485,50.09,50.09,50.09s50.09-22.485,50.09-50.09
		C306.091,443.488,301.861,440.926,270.471,386.05z"/>
</g>
<path style="fill:#515BE0;" d="M422.968,511.201c-27.621,0-50.09-22.469-50.09-50.09c0-17.733,3.731-18.758,35.556-75.011
	c6.382-11.273,22.602-11.294,29.023-0.07c31.404,54.867,35.6,57.414,35.6,75.081C473.058,488.732,450.589,511.201,422.968,511.201z"
	/>
<path style="fill:#9DF1FD;" d="M510.238,345.422c-4.12,8.237-14.248,11.465-22.374,7.347c-23.154-11.576-50.647-9.462-72.02,5.454
	c-36.288,25.379-83.039,25.379-119.326,0c-12.244-8.571-26.381-12.912-40.518-12.912c-14.137,0-28.273,4.341-40.518,12.912
	c-36.288,25.379-83.039,25.379-119.326,0c-21.372-14.916-48.866-17.031-72.02-5.454c-8.237,4.119-18.254,0.89-22.374-7.347
	c-4.117-8.238-0.777-18.366,7.46-22.485c33.949-17.142,74.69-14.137,106.079,7.903c24.601,17.253,56.434,17.253,81.035,0
	c18.144-12.69,38.959-19.034,59.663-19.034c20.704,0,41.519,6.345,59.663,19.034c24.601,17.253,56.434,17.253,81.035,0
	c31.389-22.04,72.13-24.934,106.079-7.903C511.015,327.056,514.354,337.184,510.238,345.422z"/>
<path style="fill:#87D7E4;" d="M510.238,345.422c-4.12,8.237-14.248,11.465-22.374,7.347c-23.154-11.576-50.647-9.462-72.02,5.454
	c-36.288,25.379-83.039,25.379-119.326,0c-12.244-8.571-26.381-12.912-40.518-12.912v-33.505c20.704,0,41.519,6.345,59.663,19.034
	c24.601,17.253,56.434,17.253,81.035,0c31.389-22.04,72.13-24.934,106.079-7.903C511.015,327.056,514.354,337.184,510.238,345.422z"
	/>
<path style="fill:#515BE0;" d="M306.091,461.074c0,27.605-22.485,50.09-50.09,50.09V377.59c5.566,0,11.243,2.783,14.471,8.46
	C301.861,440.926,306.091,443.488,306.091,461.074z"/>
</svg>