<?xml version="1.0" encoding="UTF-8" standalone="no"?>
<svg
   width="967.01556"
   height="1155.5409"
   viewBox="0 0 967.01556 1155.5409"
   version="1.1"
   id="svg4"
   xmlns="http://www.w3.org/2000/svg"
   xmlns:svg="http://www.w3.org/2000/svg">
  <defs
     id="defs8" />
  <path
     d="m 523.51556,1.0579561 c -7.103,0.8 -24.389,4.114 -43.5,8.339 -3.575,0.7909999 -15.275,1.9239999 -26,2.5199999 -20.068,1.113 -24.993,1.87 -28.574,4.388 -2.181,1.533 -11.739,16.58 -12.836,20.209 -1.113,3.68 1.269,7.633 9.872,16.382 9.792,9.958 15.304,18.178 19.519,29.108 5.128,13.296 6.019,18.191004 6.019,33.065004 0,15.641 -0.844,18.751 -8.632,31.827 -7.175,12.044 -14.687,21.466 -34.218,42.912 -12.111,13.299 -19.744,20.861 -22.452,22.242 -7.146,3.646 -14.676,5.814 -34.198,9.848 -29.529,6.101 -44.663,9.697 -50.504,12 -6.299,2.482 -20.106,3.916 -38.177,3.964 -12.5,0.034 -12.902,-0.037 -28,-4.899 -26.063,-8.394 -26.479,-8.472 -44.819,-8.409 -14.363,0.049 -17.342,0.345 -23,2.286 -15.841,5.433 -27.408,13.606 -37.924,26.798 -7.905,9.917 -9.448,11.283 -30.992004,27.456 -26.785,20.106 -36.887,25.048 -55.084,26.949 -13.642,1.425 -21.256,3.569 -27.779,7.819 -6.9610003,4.536 -9.0030003,6.758 -10.7720003,11.718 -3.375,9.463 -0.78700001,20.897 6.425,28.379 2.6170003,2.715 5.3010003,4.937 5.9640003,4.937 0.663,0 1.717,-1.125 2.344,-2.5 0.626,-1.375 1.872,-2.5 2.768,-2.5 3.111,0 13.349,-3.059 19.98,-5.969 9.42,-4.135 23.75,-8.073 52.57,-14.45 32.341004,-7.155 41.384004,-8.268 54.370004,-6.694 17.33,2.1 43.358,9.72 57.63,16.872 9.949,4.985 28.701,17.026 41.258,26.492 22.52,16.975 33.979,23.169 57.742,31.209 12.82,4.337 31.688,12.818 45.5,20.451 3.025,1.672 13.558,6.763 23.407,11.314 12.727,5.881 18.513,9.093 20,11.102 1.98,2.673 2.088,3.999 2.005,24.5 -0.074,18.107 -0.44,23.318 -2.223,31.673 -4.029,18.869 -13.995,45.972 -24.084,65.5 -2.7,5.225 -6.794,14 -9.098,19.5 -2.305,5.5 -6.57,13.6 -9.479,18 -2.908,4.4 -8.78,14.075 -13.049,21.5 -4.268,7.425 -9.715,16.458 -12.105,20.073 -4.776,7.226 -19.969,26.4 -27.517,34.729 -6.034,6.659 -10.432,15.776 -11.83,24.529 -0.595,3.725 -2.43,12.446 -4.077,19.38 -4.879,20.538 -5.893,28.267 -7.437,56.722 -1.82,33.536 -1.858,33.858 -6.025,51.567 -5.74,24.395 -12.488,60.533 -12.488,66.88 0,12.85 3.116,42.396 6.393,60.62 0.792,4.4 2.172,16.775 3.068,27.5 1.962,23.48304 4.736,43.49204 8.179,59.00004 2.86,12.878 16.802,57.465 21.577,69 3.922,9.476 16.173,33.736 18.614,36.86 1.652,2.115 2.071,2.219 4.03,1 3.231,-2.009 11.502,-12.597 14.512,-18.576 1.445,-2.869 4.643,-7.487 7.107,-10.261 5.824,-6.558 6.529,-8.017 12.921,-26.729 2.967,-8.687 5.902,-17.09 6.521,-18.673 l 1.127,-2.879 5.816,5.548 c 7.227,6.893 17.901,13.888 20.603,13.501 1.825,-0.261 2.099,-1.26 2.689,-9.791 0.362,-5.225 1.139,-15.125 1.728,-22 1.845,-21.558 1.408,-63.445 -0.819,-78.35904 -1.055,-7.073 -1.714,-13.373 -1.462,-14 0.251,-0.628 2.748,-2.491 5.548,-4.141 7.3,-4.301 8.226,-6.089 7.386,-14.252 -1.08,-10.493 -2.389,-14.869 -8.167,-27.309 -2.954,-6.359 -5.371,-12.114 -5.371,-12.79 0,-2.857 4.358,-9.428 7.471,-11.264 3.793,-2.238 3.62,-1.333 5.379,-28.213 0.903,-13.798 1.827,-16.971 4.358,-14.96 0.71,0.565 2.954,1.327 4.985,1.692 2.677,0.482 4.559,1.757 6.834,4.631 1.728,2.181 3.695,3.965 4.373,3.965 0.678,0 2.246,-2.445 3.484,-5.434 2.723,-6.568 4.07,-7.789 9.39,-8.51 3.526,-0.478 4.211,-0.977 4.881,-3.556 0.449,-1.73 3.757,-5.953 7.812,-9.973 3.868,-3.835 7.033,-7.513 7.033,-8.173 0,-2.069 4.785,-7.005 11.906,-12.284 6.614,-4.904 8.164,-7.089 9.578,-13.503 0.355,-1.613 1.781,-4.281 3.168,-5.93 1.976,-2.349 2.385,-3.662 1.887,-6.067 -1.168,-5.643 -1.051,-7.811 0.461,-8.532 0.825,-0.393 2.844,-1.364 4.486,-2.157 1.643,-0.793 5.637,-4.97 8.876,-9.28 3.24,-4.311 7.184,-8.573 8.767,-9.47 1.582,-0.897 3.149,-2.531 3.482,-3.631 0.334,-1.1 2.062,-3.575 3.841,-5.5 1.78,-1.925 4.227,-5.467 5.438,-7.87 2.263,-4.489 12.12,-17.906 17.728,-24.13 1.734,-1.925 3.877,-5.236 4.761,-7.357 0.885,-2.121 3.798,-6.396 6.475,-9.5 2.677,-3.104 5.61,-7.092 6.517,-8.863 0.907,-1.772 2.509,-3.681 3.559,-4.243 1.051,-0.562 2.465,-2.704 3.144,-4.761 1.554,-4.708 8.124,-15.847 14.236,-24.136 2.58,-3.498 4.69,-7.212 4.69,-8.254 0,-1.041 0.9,-3.572 2,-5.625 1.1,-2.052 2,-4.36 2,-5.128 0,-0.768 0.845,-2.8 1.878,-4.515 1.033,-1.715 2.196,-4.897 2.584,-7.071 0.714,-4.007 3.737,-10.807 6.022,-13.547 0.687,-0.825 1.546,-3.449 1.908,-5.831 0.361,-2.382 1.784,-7.102 3.16,-10.49 1.377,-3.388 3.347,-10.94 4.379,-16.782 1.892,-10.714 3.038,-13.816 7.58,-20.509 2.486,-3.662 2.489,-3.7 2.481,-28.278 -0.008,-27.205 -0.917,-35.575 -4.538,-41.768 -1.899,-3.248 -2.362,-5.281 -2.118,-9.289 0.546,-8.938 -1.008,-8.636 34.365,-6.678 16.939,0.938 38.899,2.151 48.799,2.697 9.9,0.546 26.1,1.86 36,2.92 20.774,2.225 40.49,3.649 62.5,4.515 22.937,0.902 50.728,3.178 85,6.961 16.775,1.851 33.875,3.673 38,4.049 4.125,0.376 10.363,1.335 13.862,2.131 4.816,1.096 7.609,1.204 11.5,0.444 2.826,-0.551 8.288,-1.308 12.138,-1.681 3.85,-0.373 8.979,-1.269 11.397,-1.991 4.414,-1.318 11.103,-6.756 11.103,-9.027 0,-1.747 -5.811,-6.386 -10.492,-8.375 -2.205,-0.937 -6.238,-2.003 -8.963,-2.369 -3.31,-0.446 -5.837,-1.512 -7.614,-3.215 -3.528,-3.38 -10.713,-5.434 -19.008,-5.434 -8.315,0 -9.923,-0.572 -9.923,-3.53 0,-3.146 -3.939,-7.592 -10.253,-11.573 -29.917,-18.864 -31.105,-19.8 -32.716,-25.782 -2.005,-7.445 -6.173,-9.423 -42.531,-20.182 -6.05,-1.791 -16.175,-4.454 -22.5,-5.919 -6.325,-1.465 -13.3,-3.247 -15.5,-3.961 -5.939,-1.928 -33.043,-15.646 -51.656,-26.146 -8.989,-5.071 -26.919,-14.523 -39.844,-21.005 -12.925,-6.482 -28.45,-14.879 -34.5,-18.66 -6.05,-3.782 -17.408,-10.22 -25.24,-14.309 l -14.24,-7.433 -0.01,-4.711 c -0.007,-3.424 0.534,-5.217 1.979,-6.565 1.986,-1.849 1.986,-1.865 -0.066,-7.703 -1.131,-3.218 -2.304,-7.946 -2.608,-10.507 -0.543,-4.591 -0.503,-4.671 2.817,-5.645 2.904,-0.852 3.326,-1.372 3.065,-3.774 -0.166,-1.532 0.416,-3.882 1.294,-5.222 1.37,-2.091 1.431,-3.283 0.424,-8.398 -1.348,-6.856 -0.42,-8.965 3.957,-8.99 1.446,-0.009 3.199,-0.378 3.896,-0.821 1.553,-0.985 3.232,-6.563 3.232,-10.736 0,-3.525 3.616,-9.393 10.964,-17.789 2.77,-3.166 5.036,-6.539 5.036,-7.497 0,-0.958 0.512,-2.254 1.138,-2.88 1.17,-1.17 1.974,-6.971 1.859,-13.406 -0.036,-2.004 0.587,-5.379 1.384,-7.5 0.797,-2.121 1.718,-5.774 2.048,-8.118 0.543,-3.865 0.238,-4.718 -3.271,-9.157 -4.569,-5.78 -11.816,-20.349 -15.709,-31.581 -3.348,-9.659 -3.94,-10.398 -13.449,-16.798 -9.152,-6.16 -21.271,-18.021 -23.248,-22.754 -1.805,-4.319 -6.332,-7.826004 -17.903,-13.870004 -10.128,-5.289 -17.778,-11.421 -21.393,-17.147 -1.345,-2.131 -3.91,-4.634 -5.701,-5.564 -2.273,-1.18 -2.803,-1.837 -1.755,-2.18 0.825,-0.27 2.491,-1.548 3.702,-2.839 1.319,-1.406 3.353,-2.348 5.069,-2.348 6.271,0 12.868,-2.885 17.103,-7.479 8.919,-9.676 3.237,-15.299 -17.218,-17.041 -8.849,-0.754 -11.75,-2.537 -10.949,-6.73 0.261,-1.365 -0.753,-6.183 -2.253,-10.707 -2.231,-6.726 -3.726,-9.303 -8.199,-14.1339999 -5.372,-5.80300002 -5.563,-5.90700002 -10.613,-5.77800002 -2.828,0.072 -8.742,0.536 -13.142,1.03100002"
     stroke="none"
     fill="#000000"
     fill-rule="evenodd"
     id="path2" />
</svg>
