<?xml version="1.0" standalone="no"?>
<!DOCTYPE svg PUBLIC "-//W3C//DTD SVG 20010904//EN"
 "http://www.w3.org/TR/2001/REC-SVG-20010904/DTD/svg10.dtd">
<svg version="1.0" xmlns="http://www.w3.org/2000/svg"
 width="1344.000000pt" height="1536.000000pt" viewBox="0 0 1344.000000 1536.000000"
 preserveAspectRatio="xMidYMid meet">
<metadata>
Created by potrace 1.16, written by Peter Selinger 2001-2019
</metadata>
<g transform="translate(0.000000,1536.000000) scale(0.100000,-0.100000)"
fill="#000000" stroke="none">
<path d="M2675 15287 c-84 -181 -103 -335 -115 -897 -11 -517 -24 -661 -76
-835 l-18 -60 -8 40 c-4 22 -17 98 -29 169 -86 520 -308 1003 -603 1313 l-65
68 -16 -38 c-23 -55 -63 -228 -75 -327 -13 -109 -13 -422 1 -570 5 -63 30
-275 54 -470 25 -195 47 -400 51 -455 l7 -100 -43 40 c-69 66 -155 206 -269
439 -184 374 -345 588 -556 738 -68 48 -153 90 -167 82 -8 -5 -9 -55 -4 -173
18 -472 92 -783 353 -1491 58 -157 130 -357 159 -444 l54 -160 -33 -28 c-48
-41 -99 -75 -124 -83 -30 -8 -30 6 2 97 43 122 51 99 -153 418 -272 426 -436
625 -694 841 -136 113 -195 151 -242 152 -54 1 -66 -15 -66 -93 0 -144 144
-548 322 -904 91 -181 203 -380 418 -741 331 -556 465 -807 570 -1076 18 -46
19 -49 2 -40 -41 22 -121 103 -212 215 -54 67 -113 135 -131 152 -37 34 -109
84 -121 84 -4 0 -12 -19 -19 -42 -11 -42 -34 -78 -51 -78 -4 0 -8 22 -8 48 0
111 -50 199 -144 252 -28 17 -54 30 -58 30 -5 0 -8 -25 -8 -56 0 -47 -3 -55
-17 -52 -14 2 -19 15 -21 48 -4 76 -10 90 -37 90 -13 0 -26 -3 -28 -7 -3 -5 3
-41 14 -81 60 -235 218 -512 421 -736 40 -44 92 -104 115 -134 23 -29 135
-144 249 -255 358 -348 388 -403 429 -762 30 -256 57 -350 136 -466 175 -258
471 -408 904 -459 151 -18 168 -22 175 -48 10 -40 37 -62 78 -62 47 0 106 -36
110 -68 5 -30 -49 -143 -98 -208 -21 -28 -80 -95 -131 -150 -159 -170 -188
-217 -329 -525 -58 -127 -167 -315 -177 -305 -7 6 19 151 44 251 55 223 146
408 349 712 78 116 145 217 150 224 17 28 -56 -34 -111 -93 -132 -142 -237
-333 -410 -743 -54 -126 -110 -255 -126 -285 -24 -47 -28 -51 -29 -28 0 49
-53 178 -67 164 -2 -2 -8 -46 -14 -97 -19 -186 -73 -338 -212 -597 -147 -274
-193 -400 -204 -556 l-6 -89 34 6 c19 4 95 37 169 74 l134 68 86 -1 c76 -1 94
-5 170 -39 115 -51 194 -57 264 -22 l49 26 106 -72 c551 -369 700 -513 919
-882 129 -218 220 -335 351 -453 301 -270 657 -449 1322 -668 145 -48 269 -92
276 -98 6 -6 50 -110 98 -231 143 -364 238 -539 384 -712 62 -73 131 -124 345
-254 114 -69 214 -166 249 -241 59 -125 46 -227 -63 -489 -154 -373 -159 -441
-56 -819 25 -90 51 -199 57 -241 10 -72 9 -86 -16 -190 -40 -166 -24 -209 78
-209 l49 0 -26 31 c-37 44 -35 129 3 129 32 0 59 -42 71 -110 16 -91 30 -110
83 -110 23 0 62 -6 87 -13 45 -13 80 -12 80 2 0 4 -20 26 -44 49 -84 80 -81
144 18 322 72 130 79 155 74 264 -6 117 -24 163 -141 358 -110 183 -131 240
-130 358 1 191 87 388 254 580 65 75 88 87 131 70 106 -43 168 -123 188 -243
15 -87 9 -161 -37 -442 -29 -176 -36 -249 -37 -365 -1 -177 11 -236 99 -480
100 -274 108 -307 110 -452 2 -110 5 -131 24 -161 12 -19 33 -84 48 -143 31
-128 62 -171 128 -180 23 -3 35 -2 28 3 -22 16 -33 64 -33 149 0 93 10 108 52
80 32 -21 39 -12 32 43 -4 31 1 71 14 121 35 138 9 279 -118 630 -141 392
-161 511 -124 757 21 147 53 263 142 523 l77 225 -1 175 c0 123 -7 230 -24
360 -27 206 -33 509 -12 590 11 44 10 47 -28 105 -54 84 -87 161 -95 224 -7
50 -6 53 11 47 39 -16 249 -66 300 -72 45 -6 54 -4 54 9 0 26 63 72 128 92 97
29 114 60 90 165 -10 44 -9 53 5 67 16 16 19 16 54 -6 86 -51 283 -141 353
-161 108 -30 246 -37 349 -16 l83 17 137 -90 c267 -176 373 -201 423 -101 11
21 18 58 18 93 l0 58 48 -6 c592 -70 763 -85 943 -85 129 0 148 -2 163 -18 23
-27 111 -69 179 -86 32 -8 115 -20 185 -26 195 -17 255 -33 347 -89 44 -26 90
-54 103 -60 56 -29 165 -42 442 -51 281 -9 285 -9 303 12 9 11 17 28 17 39 0
28 11 30 101 14 208 -36 824 -105 938 -105 22 0 41 4 41 8 0 13 -109 79 -215
131 -163 80 -317 131 -745 246 -338 91 -540 157 -681 222 l-103 48 39 9 c45
10 247 -6 363 -30 110 -22 236 -64 482 -159 241 -93 348 -127 465 -150 44 -9
91 -18 105 -21 l25 -6 -27 29 c-31 33 -36 76 -13 107 26 35 18 50 -37 70 -83
28 -211 91 -235 115 -29 27 -23 39 35 76 26 17 48 38 50 47 7 36 -224 169
-393 227 -198 67 -355 75 -788 40 -400 -32 -486 -25 -1212 106 -468 85 -583
101 -850 120 -761 54 -1211 148 -1615 336 -79 37 -88 45 -130 106 -44 66 -109
123 -139 123 -9 0 -69 18 -134 40 -225 76 -463 207 -672 370 -95 75 -251 210
-241 210 2 0 61 -16 131 -35 439 -120 755 -124 921 -12 32 21 66 59 102 112
69 104 106 141 156 158 l41 14 -40 12 c-22 6 -50 11 -63 11 -35 0 -62 18 -62
42 0 19 4 20 58 14 156 -17 182 -18 204 -13 16 4 43 36 82 98 83 128 108 196
111 294 l2 80 104 90 c190 164 286 266 322 342 29 61 32 77 32 160 l0 91 95
81 c152 130 200 202 208 311 6 85 -6 111 -105 235 -44 55 -88 115 -97 133 -17
33 -17 33 13 61 93 87 19 390 -104 431 -19 6 -35 15 -35 18 1 33 88 142 230
288 145 148 173 181 204 246 44 92 59 189 45 298 -8 63 -14 79 -41 108 -54 55
-154 94 -325 127 l-31 6 29 71 c16 38 57 122 93 186 114 208 146 307 146 452
-1 100 -14 168 -38 187 -9 8 -39 25 -67 38 -92 45 -218 33 -449 -41 -60 -19
-110 -34 -111 -32 -2 2 26 55 62 118 83 148 153 294 190 401 28 81 29 90 28
264 0 172 -1 182 -25 230 -19 38 -36 55 -70 73 -64 33 -107 25 -178 -32 -88
-72 -125 -95 -160 -102 -32 -6 -32 -6 -32 32 0 22 14 122 30 224 59 362 61
517 9 655 -19 52 -21 54 -47 44 -99 -37 -191 -129 -266 -266 -99 -177 -132
-228 -185 -285 -51 -56 -111 -99 -157 -112 l-22 -7 15 78 c13 73 150 620 208
832 17 65 25 118 25 175 0 96 -19 146 -74 194 l-38 33 -17 -23 c-52 -66 -74
-145 -101 -353 -12 -88 -25 -177 -31 -198 l-10 -38 -31 22 c-82 59 -91 178
-33 439 45 206 54 305 31 382 -9 30 -25 66 -35 79 l-19 24 -6 -25 c-3 -14 -19
-106 -36 -205 -54 -318 -102 -502 -162 -619 l-25 -49 -11 45 c-13 51 -27 201
-42 453 -5 94 -16 193 -23 220 -22 78 -46 130 -57 119 -5 -5 -14 -76 -19 -159
-12 -165 -22 -218 -50 -273 -34 -66 -104 -112 -169 -112 l-29 0 -6 218 c-8
297 -42 512 -113 710 -15 40 -28 71 -31 69 -2 -3 9 -74 26 -158 55 -281 88
-629 74 -791 l-6 -78 -91 -88 c-50 -49 -112 -100 -136 -115 -45 -26 -100 -44
-100 -33 0 3 12 41 26 83 20 57 28 106 32 178 7 157 -24 231 -178 420 -92 113
-106 146 -115 265 -4 52 -14 107 -21 122 -15 28 -51 54 -61 44 -13 -12 -2
-109 17 -159 11 -29 20 -52 20 -53 0 -1 -30 -21 -67 -44 -127 -81 -220 -187
-444 -504 -78 -112 -256 -312 -267 -302 -2 3 25 75 62 161 94 223 133 340 166
505 58 289 61 466 10 601 -22 60 -87 139 -113 139 -20 0 -116 -88 -190 -175
-97 -114 -189 -206 -229 -226 -46 -24 -56 -24 -35 -1 28 30 77 146 93 218 35
161 27 523 -16 690 -11 43 -32 96 -46 117 l-25 38 -59 -32 c-176 -94 -303
-249 -513 -626 -138 -247 -177 -328 -284 -587 -52 -127 -116 -276 -143 -331
-47 -96 -119 -219 -125 -213 -2 2 8 50 21 108 33 148 61 316 81 493 24 216 24
701 -1 882 -32 239 -83 435 -152 585 -37 80 -104 190 -116 190 -17 0 -100
-121 -151 -219 -99 -191 -153 -381 -252 -881 -76 -389 -144 -641 -205 -759
-17 -33 -17 -29 -17 195 -1 321 -35 567 -120 859 -68 235 -213 566 -342 783
-40 67 -46 72 -78 72 -33 0 -36 -3 -68 -73z m442 -7181 c-61 -114 -155 -238
-331 -435 -81 -90 -161 -184 -178 -208 -17 -23 -33 -41 -36 -39 -7 8 105 214
172 316 35 52 90 130 125 172 63 79 267 278 283 278 5 0 -11 -38 -35 -84z
m288 -316 c53 -95 159 -320 196 -415 11 -27 42 -133 70 -235 76 -280 84 -302
167 -423 91 -134 111 -178 118 -259 7 -89 2 -94 -84 -79 -93 17 -167 53 -294
145 -58 42 -112 76 -122 76 -9 0 -39 -11 -66 -25 -27 -14 -58 -25 -69 -25 -10
0 -43 16 -72 36 -30 20 -92 54 -139 76 -47 21 -129 60 -183 86 l-99 46 6 38
c7 44 -9 88 -49 136 l-28 34 29 23 c16 13 74 47 129 76 120 62 218 120 212
125 -12 12 -141 -37 -263 -101 -78 -41 -145 -75 -148 -75 -12 0 26 65 58 98
17 19 74 65 128 103 89 64 138 110 138 130 0 5 -7 6 -16 2 -14 -5 -16 -2 -10
20 4 16 2 27 -4 27 -5 0 -60 -36 -122 -81 -105 -76 -225 -145 -234 -136 -7 7
113 180 236 337 66 85 175 226 242 312 l121 158 49 -67 c27 -37 73 -110 103
-163z m-406 22 c-24 -26 -71 -79 -103 -116 -54 -63 -107 -106 -130 -106 -5 0
18 28 50 63 33 34 77 84 99 111 37 46 99 96 119 96 5 0 -11 -22 -35 -48z
m4021 -6782 c0 -67 -57 -121 -95 -90 -15 12 -35 71 -35 103 0 14 10 17 65 17
l65 0 0 -30z"/>
</g>
</svg>
