<?xml version="1.0" standalone="no"?>
<!DOCTYPE svg PUBLIC "-//W3C//DTD SVG 20010904//EN"
 "http://www.w3.org/TR/2001/REC-SVG-20010904/DTD/svg10.dtd">
<svg version="1.0" xmlns="http://www.w3.org/2000/svg"
 width="1284.000000pt" height="1536.000000pt" viewBox="0 0 1284.000000 1536.000000"
 preserveAspectRatio="xMidYMid meet">
<metadata>
Created by potrace 1.16, written by Peter Selinger 2001-2019
</metadata>
<g transform="translate(0.000000,1536.000000) scale(0.100000,-0.100000)"
fill="#000000" stroke="none">
<path d="M12741 15305 c-38 -33 -85 -61 -115 -71 -63 -21 -162 -84 -426 -274
-383 -275 -881 -581 -1545 -949 -620 -344 -848 -491 -1144 -739 -225 -190
-468 -428 -571 -562 -47 -61 -42 -57 -235 -154 -101 -50 -195 -106 -232 -135
-34 -28 -97 -67 -141 -86 -107 -47 -191 -95 -287 -164 -44 -32 -114 -75 -155
-95 -41 -20 -118 -68 -170 -107 -52 -39 -145 -104 -207 -145 -85 -56 -158
-118 -295 -252 -200 -194 -255 -241 -523 -447 -259 -199 -269 -208 -610 -545
-273 -269 -507 -480 -550 -497 -13 -4 -13 -1 -1 29 67 161 122 621 83 697 -22
43 -42 48 -90 24 -36 -20 -47 -21 -79 -13 -47 13 -74 1 -150 -69 -67 -62 -128
-140 -174 -223 -19 -35 -32 -52 -29 -40 9 32 -2 88 -21 107 -9 8 -28 15 -44
15 -58 0 -221 -215 -251 -331 -14 -54 -15 -55 -43 -34 -33 25 -55 17 -105 -34
-67 -68 -129 -194 -155 -312 -4 -19 -14 -28 -35 -32 -75 -15 -150 -128 -219
-330 -22 -63 -48 -112 -91 -171 -73 -102 -134 -212 -156 -286 -26 -85 -33
-100 -50 -100 -39 0 -235 -227 -266 -306 -5 -15 -57 -72 -114 -126 -57 -54
-121 -122 -141 -151 -21 -29 -106 -123 -190 -209 -156 -162 -180 -196 -190
-271 -5 -33 -18 -59 -51 -99 -24 -29 -66 -84 -92 -123 -90 -131 -99 -163 -53
-192 15 -9 29 -18 31 -20 2 -1 -30 -38 -72 -82 -122 -128 -142 -187 -86 -257
51 -64 56 -65 202 -17 43 14 81 23 84 19 3 -3 -15 -28 -39 -55 -25 -27 -55
-75 -67 -107 -12 -32 -39 -81 -61 -109 -48 -63 -90 -141 -90 -169 0 -23 -14
-46 -80 -135 -105 -140 -135 -187 -155 -245 -12 -33 -42 -92 -68 -129 -26 -37
-54 -93 -63 -125 -8 -31 -42 -111 -75 -177 -34 -69 -68 -156 -80 -205 -12 -46
-32 -100 -45 -120 -45 -69 -173 -367 -198 -460 -13 -52 -33 -115 -44 -140 -26
-61 -52 -178 -52 -235 0 -26 -11 -71 -25 -104 -13 -32 -29 -95 -34 -141 -13
-99 -20 -112 -192 -356 -147 -207 -246 -364 -347 -549 -77 -139 -466 -945
-562 -1161 -68 -153 -150 -388 -210 -599 -23 -82 -62 -213 -86 -290 -55 -176
-73 -247 -89 -358 -11 -68 -26 -114 -64 -195 -58 -122 -81 -209 -81 -303 0
-59 -4 -72 -40 -130 -86 -137 -140 -262 -140 -321 0 -22 4 -28 23 -28 12 1 33
7 47 15 40 23 42 18 16 -27 -13 -24 -32 -69 -42 -100 -14 -47 -15 -60 -4 -72
21 -27 44 -18 117 44 64 54 72 58 78 40 9 -27 17 -26 93 17 227 127 607 584
1158 1393 271 398 333 503 426 720 68 159 109 233 262 469 339 523 503 809
629 1093 20 45 34 61 64 77 79 40 203 142 272 223 120 140 177 272 240 552
105 466 168 591 679 1326 55 80 175 262 266 405 181 284 265 401 400 554 139
159 364 352 507 436 l60 35 112 -44 c62 -25 210 -85 330 -135 308 -128 473
-157 767 -132 180 16 234 29 512 127 130 46 254 86 275 89 32 5 55 -2 143 -43
135 -64 187 -79 208 -59 19 20 6 59 -49 141 -46 66 -154 200 -188 230 -20 18
-21 28 -21 202 l0 182 -49 99 c-43 84 -62 110 -138 183 -48 47 -150 136 -225
197 -156 128 -243 229 -309 359 -36 71 -41 88 -37 129 13 109 225 457 504 825
192 254 319 396 653 734 457 463 549 537 1120 892 306 190 383 244 515 360
113 100 192 191 289 335 69 102 77 109 177 175 426 279 629 445 883 724 228
250 303 324 477 475 91 78 206 179 255 224 162 150 565 553 653 655 48 56 164
189 257 296 94 107 199 233 235 280 35 47 91 118 123 159 62 78 71 113 30 119
-13 2 -23 8 -23 13 0 5 17 41 38 79 31 60 35 72 22 80 -21 13 -18 15 -89 -45z
m-862 -682 c-97 -124 -272 -282 -483 -438 -116 -85 -285 -228 -506 -427 -193
-175 -255 -220 -148 -110 159 165 265 300 254 327 -8 23 -22 18 -63 -22 -82
-81 -549 -576 -557 -591 -6 -11 -2 -20 18 -35 l27 -20 -28 -29 c-15 -17 -50
-49 -78 -71 l-49 -42 22 36 c28 46 29 79 3 79 -25 0 -165 -132 -277 -263 -117
-135 -194 -211 -235 -232 -33 -18 -33 -17 -19 2 87 119 120 168 120 178 0 17
-28 27 -46 17 -15 -9 -158 -197 -210 -279 -19 -28 -43 -58 -54 -66 -12 -8 -34
-35 -50 -61 -26 -40 -60 -62 -60 -38 0 5 45 77 100 162 55 84 100 159 100 166
0 30 -44 12 -93 -39 -71 -72 -233 -315 -247 -369 -39 -149 -81 -220 -175 -298
-63 -52 -111 -100 -225 -226 -19 -22 -68 -56 -108 -77 l-73 -39 -51 22 c-56
24 -81 23 -185 -11 -81 -27 -134 -66 -158 -118 -18 -41 -20 -42 -56 -36 -54 9
-72 1 -98 -46 -24 -41 -59 -63 -86 -53 -26 11 -102 -14 -259 -85 -83 -38 -193
-83 -244 -100 -217 -73 -409 -189 -735 -444 -54 -41 -133 -84 -313 -168 -22
-11 -59 -35 -82 -54 -34 -29 -42 -44 -48 -83 -8 -61 -25 -79 -93 -98 -73 -21
-199 -82 -281 -134 -77 -50 -78 -51 119 158 163 172 282 277 591 517 265 206
302 238 517 446 105 102 204 188 255 221 46 30 135 92 198 138 63 45 149 99
190 120 41 21 95 53 119 72 135 104 226 164 307 203 50 24 112 60 137 79 66
50 136 89 251 136 129 54 183 90 225 151 47 69 293 313 491 487 345 303 576
456 1240 822 351 193 530 296 703 402 71 43 133 78 138 78 6 0 9 -21 7 -47 -3
-43 -1 -48 18 -51 17 -2 30 10 60 60 54 88 98 134 183 190 77 50 103 60 80 31z
m-6319 -3913 c0 -142 -48 -412 -105 -590 -53 -163 -55 -179 -32 -194 15 -9 23
-6 45 21 15 18 52 49 82 69 30 21 91 67 135 103 108 88 113 91 92 61 -26 -38
-31 -50 -20 -61 6 -6 78 -6 199 1 334 20 300 12 474 102 169 87 229 104 271
74 33 -23 56 -20 75 9 16 24 20 25 130 25 l115 0 -20 -27 c-25 -36 -36 -100
-20 -119 24 -29 51 -11 176 117 88 90 129 126 131 115 6 -28 -57 -227 -90
-286 -34 -61 -65 -104 -149 -202 l-58 -67 6 -74 6 -73 -115 -170 c-208 -306
-338 -553 -338 -641 0 -13 14 -56 30 -95 17 -39 28 -73 26 -75 -2 -3 -31 1
-63 8 -38 9 -132 14 -268 14 -249 0 -301 -12 -431 -96 -111 -73 -186 -154
-235 -255 -60 -124 -71 -192 -67 -429 l3 -200 34 -85 c23 -57 47 -97 73 -123
21 -21 53 -64 70 -95 39 -71 170 -202 231 -230 25 -12 73 -29 106 -38 49 -14
63 -15 76 -4 23 19 19 37 -39 198 -30 82 -62 189 -72 238 -29 157 -5 403 52
521 32 67 149 192 238 255 100 70 179 92 310 86 136 -6 188 -31 373 -177 174
-138 217 -184 278 -303 l48 -92 -7 -138 c-6 -124 -9 -141 -31 -174 -14 -20
-25 -47 -25 -59 0 -28 -29 -35 -146 -35 -64 0 -86 -4 -99 -17 -16 -16 -16 -18
5 -35 12 -10 28 -18 35 -18 7 0 31 -15 53 -32 22 -18 48 -38 58 -44 11 -7 17
-14 14 -16 -6 -7 -365 -134 -450 -161 -57 -18 -99 -21 -337 -24 -316 -5 -343
-1 -562 88 -177 73 -382 155 -406 163 -17 6 -10 13 43 43 105 59 68 83 -68 44
-191 -54 -334 -146 -570 -366 -99 -92 -129 -115 -145 -110 -59 20 -70 17 -148
-35 -43 -29 -117 -83 -164 -120 -85 -67 -88 -68 -113 -53 -24 14 -30 14 -68
-6 -46 -24 -49 -20 -27 32 20 48 19 64 -4 76 -14 8 -30 5 -65 -14 -25 -13 -46
-23 -46 -21 0 2 12 27 26 55 30 58 27 81 -13 81 -23 0 -33 9 -56 51 -22 41
-34 88 -58 233 -59 364 -70 407 -131 501 -27 41 -39 51 -67 53 -29 3 -40 -3
-80 -45 -50 -51 -126 -191 -181 -328 -74 -186 -282 -762 -325 -900 -99 -319
-123 -464 -145 -885 -11 -202 -14 -219 -41 -282 -23 -53 -29 -81 -29 -140 0
-48 -6 -83 -16 -103 -51 -95 -64 -126 -64 -159 0 -39 19 -56 67 -56 34 0 46
-8 62 -38 16 -31 6 -48 -102 -165 -50 -54 -120 -139 -156 -189 -59 -82 -75
-96 -153 -143 -120 -71 -118 -69 -118 -130 0 -49 -4 -59 -61 -135 -64 -86
-245 -273 -463 -476 -94 -88 -127 -125 -125 -139 12 -59 85 -14 281 173 230
219 247 231 127 92 -30 -36 -135 -159 -231 -275 -97 -115 -219 -259 -272 -320
-95 -110 -118 -147 -98 -167 17 -17 51 9 201 156 80 77 136 128 126 111 -48
-79 -196 -266 -264 -333 -76 -74 -76 -74 -85 -49 -11 31 -31 41 -55 27 -75
-40 -389 -458 -480 -637 -36 -73 -38 -89 -11 -103 27 -14 42 1 227 235 177
223 210 261 218 253 13 -13 -8 -49 -145 -244 -76 -110 -196 -291 -267 -404
-245 -394 -487 -752 -563 -833 -67 -72 -125 -116 -137 -103 -20 20 54 157 147
272 84 103 86 108 51 133 -34 25 -75 114 -67 147 4 13 44 63 91 112 47 49 85
98 85 108 0 11 -9 39 -20 63 -50 110 -23 183 375 1016 275 576 364 736 580
1045 227 324 245 355 245 414 0 52 14 113 45 195 14 38 14 49 3 69 -10 20 -9
37 10 109 12 46 35 110 51 142 15 31 32 77 35 101 11 66 34 135 78 224 21 44
38 93 38 108 0 32 17 68 66 143 18 27 42 84 53 125 25 95 42 135 97 229 24 42
51 103 59 136 10 37 38 94 74 150 32 50 62 104 65 120 4 17 22 55 40 85 18 30
38 71 45 90 6 19 38 66 71 105 34 38 63 81 66 95 11 51 40 106 87 164 26 33
55 82 65 109 9 27 38 73 63 104 26 30 56 80 68 111 23 63 193 298 305 420 59
65 80 102 59 102 -5 0 -39 -24 -78 -53 -49 -36 -92 -82 -145 -154 -41 -56
-100 -135 -131 -175 l-57 -73 -116 -39 c-64 -21 -119 -36 -122 -33 -16 15 51
109 128 179 47 42 95 96 108 122 24 45 24 46 7 76 -21 36 -27 23 111 232 83
127 84 128 68 153 -17 26 -16 27 32 93 27 37 74 105 104 152 53 81 120 163
280 339 115 125 153 172 188 231 53 87 66 101 158 170 82 62 86 67 87 105 1
30 18 69 68 156 37 64 67 121 67 127 0 5 21 28 48 50 33 28 56 60 76 103 102
223 119 254 174 307 30 30 76 86 102 126 25 39 78 107 116 151 82 94 321 329
339 333 7 2 15 -6 18 -18 3 -13 13 -20 30 -20 20 0 31 10 49 43 16 29 31 43
48 45 34 5 43 13 129 127 92 122 144 179 195 217 46 33 56 27 56 -42z"/>
<path d="M10066 13449 c-96 -101 -220 -256 -244 -306 -20 -43 -7 -55 23 -21
28 32 261 329 295 375 47 65 11 41 -74 -48z"/>
<path d="M6316 8243 c-44 -44 -118 -191 -141 -277 -39 -154 -28 -305 26 -351
36 -29 60 -32 81 -7 26 30 30 53 38 262 10 228 20 293 56 345 13 20 24 42 24
50 0 28 -46 16 -84 -22z"/>
<path d="M6570 7893 c-51 -26 -52 -66 -4 -160 44 -87 63 -103 123 -103 37 0
49 5 77 36 19 19 34 42 34 50 0 48 -105 184 -143 184 -6 0 -21 3 -32 5 -11 3
-36 -2 -55 -12z"/>
</g>
</svg>
