<?xml version="1.0" encoding="UTF-8" standalone="no"?>
<svg
   width="1654.5554"
   height="1765.9862"
   viewBox="0 0 1654.5554 1765.9862"
   version="1.1"
   id="svg4"
   xmlns="http://www.w3.org/2000/svg"
   xmlns:svg="http://www.w3.org/2000/svg">
  <defs
     id="defs8" />
  <path
     d="m 831.77645,1.107256 c -1.115,0.542 -3.271,3.199 -4.792,5.905 -2.227,3.96 -3.488,5.106 -6.473,5.878 -7.494,1.938 -47.024,3.217 -93.305,3.02 -32.606,-0.139 -48.149,0.137 -49.54,0.882 -1.115,0.596 -3.099,3.106 -4.41,5.577 -1.311,2.471 -3.514,5.007 -4.897,5.637 -3.846,1.753 -33.551,2.918 -75.235,2.95 -41.79,0.033 -38.578,-0.483 -43.273,6.954 -3.968,6.285 -4.29,6.39 -21.874,7.099 -9.392,0.379 -17.243,1.168 -18.723,1.883 -1.402,0.678 -3.742,3.207 -5.2,5.621 -1.793,2.969 -4.203,5.187 -7.451,6.857 -3.483,1.79 -5.747,3.97 -8.252,7.944 -3.901,6.189 -6.997,7.662 -16.164,7.687 -7.255,0.02 -9.778,1.527 -13.389,8.001 -3.64,6.526 -6.492,7.844 -17.163,7.928 -3.943,0.031 -7.901,0.337 -8.797,0.681 -0.895,0.343 -2.683,2.706 -3.973,5.25 -1.29,2.544 -3.216,5.411004 -4.28,6.373004 -2.353,2.126 -10.174,3.706 -15.138,3.058 -5.583,-0.729 -8.628,0.975 -11.645,6.518 -2.124,3.902 -3.786,5.482 -7.879,7.486 -3.309,1.62 -6.081,3.913 -7.654,6.332 -1.356,2.085 -4.716,5.487 -7.466,7.56 -3.074,2.316 -5.643,5.279 -6.67,7.691 -1.14,2.678 -3.273,4.973 -6.717,7.227 -2.775,1.817 -5.487,4.446 -6.026,5.842 -0.539,1.396 -1.436,9.163 -1.994,17.26 -0.62,9.016 -1.574,15.807 -2.46,17.522 -0.797,1.54 -3.771,4.305 -6.61,6.144 -3.524,2.284 -5.829,4.718 -7.264,7.671 -1.391,2.863 -3.727,5.379 -6.907,7.44 -5.938,3.848 -6.565,5.8 -7.714,24.025 -1.023,16.222 -2.043,18.709 -9.297,22.657 -2.848,1.551 -5.665,3.717 -6.26,4.815 -2.637,4.868 -6.951,9.531 -11.031,11.922 -2.43,1.424 -4.689,3.446 -5.022,4.494 -0.792,2.494 -5.071,7.109 -9.857,10.629 -2.106,1.549 -4.746,4.767 -5.867,7.152 -1.502,3.195 -3.446,5.177 -7.4,7.542 -6.059,3.624 -7.404,6.215 -7.404,14.265 0,8.232 -1.488,11.078 -8.164,15.611 -3.464,2.353 -6.336,5.151 -6.888,6.712 -1.633,4.618 -2.468,5.571 -8.535,9.739 l -5.913,4.062 -0.567,9.584 c -0.674,11.393 -1.785,13.514 -9.154,17.463 l -5.279,2.829 -0.644,9.142 c -0.772,10.973 -2.086,13.996 -7.356,16.928 -6.931,3.857 -7.342,5.024 -8.07,22.93 -0.758,18.633 -1.472,20.598 -8.975,24.727 l -4.955,2.726 4,0.136 c 2.2,0.074 12.325,0.25 22.5,0.391 15.172,0.211 19.923,0.64 26.41,2.388 4.35,1.173 8.727,2.132 9.725,2.132 0.999,0 6.027,-2.25 11.174,-5 5.338,-2.852 10.664,-5 12.398,-5 1.673,0 4.801,-0.621 6.95,-1.379 4.687,-1.654 11.539,-1.876 15.189,-0.493 4.603,1.744 7.157,5.071 9.296,12.113 2.353,7.747 3.08,8.306 17.743,13.658 4.411,1.609 9.546,4.091 11.412,5.514 1.865,1.423 3.993,2.587 4.727,2.587 0.735,0 6.186,1.16 12.115,2.577 9.246,2.211 11.341,3.1 14.729,6.25 2.173,2.02 5.471,5.023 7.331,6.673 1.86,1.65 5.838,5.744 8.841,9.098 15.483,17.295 13.148,15.549 28.96,21.656 7.975,3.08 16.075,5.916 18,6.301 1.925,0.385 4.388,1.318 5.473,2.073 1.468,1.021 5.998,1.372 17.715,1.372 h 15.743 l 6.785,-3.668 c 3.731,-2.018 10.247,-6.757 14.479,-10.531 8.504,-7.586 13.522,-9.747 22.805,-9.826 6.849,-0.058 15.642,-2.11 20.67,-4.825 4.232,-2.285 19.679,-5.803 31.389,-7.15 4.199,-0.482 10.989,-2.232 15.276,-3.934 5.362,-2.131 9.417,-3.066 13.287,-3.066 3.77,0 6.427,-0.593 8.224,-1.834 3.63,-2.509 10.667,-5.166 13.682,-5.166 2.89,0 24.01,-5.139 33.423,-8.133 8.939,-2.842 14.451,-3.783 30.049,-5.128 17.882,-1.541 76.577,-1.465 89.5,0.116 8.469,1.037 19.551,1.456 31.75,1.202 1.83,-0.038 2.75,-0.592 2.75,-1.657 0,-0.88 1.552,-3.152 3.448,-5.048 1.897,-1.897 4.443,-5.114 5.659,-7.15 2.716,-4.547 6.726,-9.012 9.393,-10.459 2.113,-1.146 18.516,-3.851 19.535,-3.221 0.329,0.203 2.367,-0.262 4.531,-1.033 2.164,-0.771 5.284,-1.438 6.934,-1.483 3.986,-0.108 9.025,-4.716 14.771,-13.506 4.827,-7.383 11.42,-14.128 18.467,-18.891 3.053,-2.063 6.001,-3.047 10.537,-3.517 3.953,-0.409 7.401,-1.437 9.262,-2.762 3.191,-2.272 13.177,-6.614 20.463,-8.898 2.747,-0.861 8.897,-1.415 15.787,-1.421 l 11.288,-0.011 7.626,-6.25 c 4.195,-3.437 9.69,-8.305 12.213,-10.818 5.487,-5.465 11.954,-9.875 18.086,-12.333 2.475,-0.992 5.4,-2.291 6.5,-2.886 7.51605,-4.063 8.01905,-4.153 25.50005,-4.546 14.717,-0.332 18.096,-0.698 21.25,-2.301 2.856,-1.452 3.75,-2.515 3.75,-4.46 0,-1.824 2.243,-4.895 7.864,-10.764 4.326,-4.517 8.152,-9.097 8.503,-10.177 0.351,-1.081 2.512,-3.54 4.803,-5.465 2.291,-1.925 5.327,-4.65 6.747,-6.057 1.421,-1.406 5.109,-4.412 8.197,-6.681 4.735,-3.478 5.796,-4.847 6.776,-8.738 0.639,-2.538 3.034,-8.082 5.323,-12.319 3.55,-6.573 4.126,-8.462 3.922,-12.861 -0.21,-4.517 0.145,-5.593 2.867,-8.693 2.832,-3.227 3.025,-3.872 2.185,-7.344 -0.506,-2.094 -0.862,-16.21 -0.791,-31.37 0.11,-23.52 0.366,-27.925 1.741,-30.024 1.171,-1.787 1.781,-6.01 2.228,-15.437 1.816,-38.262 2.489,-46.225 4.571,-54.11 1.944,-7.364 2.103,-9.964 1.673,-27.5 -0.261,-10.651 -0.961,-26.791004 -1.556,-35.866004 -0.594,-9.075 -1.257,-20.36 -1.472,-25.078 -0.216,-4.718 -0.868,-10.301 -1.449,-12.406 -0.581,-2.106 -0.856,-4.153 -0.611,-4.55 0.245,-0.397 -1.281,-1.865 -3.392,-3.262 -6.145,-4.066 -21.422,-21.088 -23.262,-25.917 l -1.633,-4.28700003 -22.263,-0.27 c -25.183,-0.304 -25.069,-0.332 -29.511,7.24800003 -3.393,5.79 -4.653,6.099 -30.46005,7.47 -25.926,1.377 -45.074,1.377 -71,0 -25.763,-1.369 -27.071,-1.688 -30.428,-7.416 -4.532,-7.73300003 -3.653,-7.54000003 -34.045,-7.46400003 -15.566,0.039 -27.887,0.485 -29.054,1.05300003 M 1108.3045,0.73625597 c 10e-4,1.28100003 7.935,8.52100003 12.833,11.71100003 7.791,5.074 11.76,16.375 12.832,36.539 0.19,3.575 0.838,13.7 1.441,22.5 0.602,8.8 1.291,25.972 1.53,38.159004 0.393,20.023 0.226,23.108 -1.733,32 -2.088,9.474 -3.029,20.899 -4.684,56.841 -0.481,10.439 -1.212,16.841 -2.104,18.419 -2.181,3.859 -1.957,43.684 0.29,51.408 0.932,3.205 1.643,8.605 1.58,12 -0.105,5.644 1.857,13.565 4.003,16.165 0.458,0.554 1.143,2.808 1.524,5.008 0.38,2.2 2.14,6.25 3.911,9 1.77,2.75 4.696,8.57 6.502,12.932 1.806,4.363 4.083,9.088 5.061,10.5 2.187,3.16 10.286,16.118 15.047,24.074 1.944,3.248 4.481,6.938 5.637,8.2 1.157,1.262 3.111,4.319 4.343,6.794 2.454,4.931 20.68,23.363 30.486,30.832 3.3,2.514 11.159,9.47 17.464,15.458 6.305,5.988 13.068,11.706 15.029,12.707 1.962,1 6.408,4.582 9.88,7.959 3.473,3.376 8.184,7.34 10.47,8.807 2.287,1.467 6.244,4.37 8.796,6.452 2.551,2.082 5.357,3.785 6.235,3.785 2.756,0 18.332,4.809 22.556,6.965 7.116,3.63 7.547,5.047 7.745,25.491 0.096,9.924 0.209,19.025 0.25,20.223 0.06,1.753 1.101,2.469 5.325,3.661 2.888,0.816 7.168,1.788 9.513,2.162 2.587,0.411 5.93,2.006 8.5,4.055 12.73,10.145 17.133,14.264 18.382,17.198 0.762,1.789 2.987,5.757 4.944,8.817 1.957,3.059 3.81,7.113 4.118,9.008 0.36,2.22 1.77,4.51 3.961,6.433 3.073,2.699 4.068,2.987 10.302,2.987 3.795,0 8.033,0.431 9.418,0.957 1.385,0.527 4.587,1.206 7.117,1.51 7.745,0.93 14.099,4.819 16.899,10.344 1.884,3.718 3.767,5.584 8.424,8.348 3.299,1.958 8,4.064 10.447,4.68 2.447,0.616 6.424,2.249 8.837,3.629 2.413,1.379 5.816,2.513 7.561,2.52 3.845,0.015 8.654,3.798 11.296,8.888 1.035,1.993 6.35,7.587 11.81,12.43 9.789,8.682 9.967,8.92 12.695,17 4.326,12.81 7.891,19.148 12.237,21.756 2.084,1.25 5.643,3.754 7.908,5.565 4.848,3.875 11.297,6.321 16.881,6.402 6.217,0.091 11.33,2.412 15.153,6.879 3.304,3.859 3.813,4.092 8.946,4.092 4.108,0 6.359,-0.604 9.172,-2.462 4.736,-3.127 21.795,-6.532 32.729,-6.532 5.838,0 9.081,-0.52 12,-1.923 2.2,-1.057 5.931,-2.71 8.291,-3.673 2.359,-0.963 5.867,-3.237 7.794,-5.054 2.93,-2.764 11.221,-6.356 14.67,-6.356 0.491,0 4.886,-3.038 9.767,-6.75 7.489,-5.696 9.332,-7.687 11.808,-12.75 3.765,-7.703 8.17,-20.577 8.17,-23.879 0,-1.41 1.128,-5.115 2.507,-8.232 2.764,-6.25 2.474,-7.326 -2.534,-9.4 -2.163,-0.896 -3.202,-2.204 -3.86,-4.858 -1.296,-5.224 -3.213,-46.68 -3.428,-74.131 l -0.185,-23.5 -4.668,-3 c -2.947,-1.894 -5.651,-4.767 -7.335,-7.792 -1.467,-2.636 -4.414,-5.948 -6.547,-7.36 -3.967,-2.625 -8.95,-8.356 -8.95,-10.294 0,-0.593 -2.362,-2.594 -5.25,-4.447 -5.904,-3.787 -7.804,-5.714 -10.096,-10.243 -0.971,-1.918 -3.719,-4.338 -7.077,-6.233 -3.019,-1.704 -5.998,-4.049 -6.62,-5.212 -0.622,-1.162 -1.505,-6.103 -1.963,-10.98 -0.457,-4.877 -1.081,-9.271 -1.386,-9.765 -0.306,-0.494 -2.997,-2.378 -5.981,-4.186 -4.177,-2.532 -5.943,-4.393 -7.673,-8.086 -1.564,-3.339 -3.588,-5.645 -6.661,-7.587 -2.428,-1.535 -5.987,-5.16 -7.909,-8.056 -1.922,-2.896 -4.932,-5.99 -6.689,-6.876 -4.631,-2.336 -8.516,-6.274 -9.147,-9.274 -0.301,-1.435 -0.74,-5.673 -0.975,-9.418 -0.234,-3.745 -0.962,-7.454 -1.616,-8.243 -0.655,-0.79 -3.573,-2.798 -6.484,-4.463 -6.314,-3.613 -7.473,-6.18 -7.473,-16.552 0,-3.998 -0.27,-7.974 -0.601,-8.836 -0.331,-0.861 -3.06,-2.973 -6.065,-4.692 -4.396,-2.515 -5.945,-4.132 -7.922,-8.266 -1.915,-4.006 -3.584,-5.801 -7.57,-8.139 -6.705,-3.934 -7.811,-6.78 -8.907,-22.931 -0.488,-7.188 -1.135,-14.487 -1.438,-16.221 -0.532,-3.044 -4.677,-7.14 -8.741,-8.638 -0.959,-0.353 -2.759,-2.762 -4,-5.353 -1.452,-3.033 -3.859,-5.829 -6.756,-7.849 -2.475,-1.726 -5.955,-5.342 -7.734,-8.036 -1.778,-2.695 -4.478,-5.53 -6,-6.302 -4,-2.029 -8.943,-6.976 -10.34,-10.348 -0.664,-1.604 -2.488,-3.579 -4.053,-4.388 -4.493,-2.323 -9.513,-7.15 -10.887,-10.468 -0.739,-1.784 -3.048,-4.09 -5.582,-5.575 -4.839,-2.836 -10.404,-8.687 -10.404,-10.938 0,-0.813 -2.362,-2.992 -5.25,-4.842 -2.888,-1.85 -6.748,-5.455 -8.579,-8.01 -2.097,-2.928 -5.154,-5.572 -8.263,-7.148 -3.763,-1.906 -5.585,-3.681 -7.672,-7.471 -1.505,-2.733 -3.636,-5.265 -4.736,-5.627 -1.1,-0.361 -5.4,-0.747 -9.556,-0.858 -9.695,-0.258 -12.773,-1.78 -16.118,-7.967 -1.47,-2.72 -3.38,-5.462 -4.245,-6.094 -0.864,-0.632 -5.061,-1.393 -9.326,-1.69 -10.221,-0.712 -12.666,-1.991 -16.889,-8.831 -2.355,-3.816 -5.148,-6.724 -8.402,-8.747 -2.84,-1.765 -6.052,-4.923 -7.697,-7.565 -1.553,-2.495 -5.01,-5.984 -7.681,-7.754 -2.672,-1.77 -6.009,-5.124004 -7.416,-7.453004 -1.777,-2.942 -3.998,-4.91 -7.27,-6.443 -4.796,-2.246 -8.031,-5.64 -9.356,-9.814 -1.016,-3.201 -6.365,-5.262 -11.746,-4.525 -2.375,0.326 -6.224,0.079 -8.552,-0.548 -4.122,-1.11 -9.246,-5.377 -9.246,-7.7 0,-0.635 -1.306,-2.552 -2.901,-4.26 -2.758,-2.952 -3.281,-3.106 -10.566,-3.106 -4.215,0 -8.462,-0.427 -9.438,-0.949 -0.975,-0.522 -3.671,-3.409 -5.99,-6.414 -2.319,-3.006 -4.979,-5.775 -5.91,-6.154 -0.932,-0.379 -8.523,-1.063 -16.869,-1.521 -17.548,-0.962 -19.685,-1.728 -24.2,-8.677 -2.006,-3.088 -4.965,-5.857 -8.343,-7.807 -2.878,-1.662 -6.216,-4.587 -7.417,-6.5 -4.685,-7.463 -5.58,-7.978 -13.862,-7.978 -9.875,0 -13.477,-1.572 -16.87,-7.361 -1.483,-2.531 -3.553,-5.06 -4.6,-5.621 -2.19,-1.17200003 -12.034,-1.39100003 -12.033,-0.26800003 m 5.249,321.91200403 c -0.687,0.278 -1.25,1.152 -1.25,1.943 0,1.799 -9.634,11.359 -15.543,15.424 -2.435,1.676 -4.903,3.936 -5.485,5.023 -0.582,1.088 -2.826,3.093 -4.987,4.457 -2.16,1.364 -4.572,3.72 -5.358,5.236 -0.787,1.515 -3.497,4.78 -6.022,7.255 -2.842,2.785 -4.826,5.732 -5.206,7.732 -1.021,5.37 -7.375,11.497 -16.976,16.368 l -8.67,4.4 -17.727,0.5 c -12.099,0.341 -18.207,0.899 -19.236,1.755 -0.829,0.691 -3.551,1.871 -6.047,2.622 -4.91205,1.478 -10.80705,5.479 -14.59305,9.904 -1.309,1.53 -4.241,4.076 -6.515,5.659 -2.274,1.583 -5.539,4.381 -7.255,6.219 -1.715,1.837 -4.708,5.029 -6.65,7.091 l -3.53,3.75 h -16.254 c -17.961,0 -19.35,0.364 -33.196,8.688 -4.062,2.442 -7.437,3.627 -11.5,4.039 -4.509,0.457 -6.554,1.267 -9.476,3.754 -4.143,3.525 -7.66,8.347 -9.687,13.282 -0.737,1.795 -3.646,5.166 -6.464,7.492 -2.818,2.326 -5.713,5.023 -6.434,5.993 -2.02,2.718 -6.345,4.579 -12.283,5.284 -2.973,0.353 -6.842,1.079 -8.597,1.613 -1.756,0.534 -5.356,1.167 -8,1.406 -8.744,0.79 -10.08,1.352 -11.262,4.744 -0.608,1.743 -2.367,4.527 -3.91,6.187 -1.543,1.66 -3.322,4.845 -3.954,7.078 -1.7,6.005 -5.094,8.687 -11.944,9.441 -8.83,0.971 -36.583,0.348 -47.739,-1.071 -11.361,-1.446 -62.588,-1.829 -80.5,-0.602 -11.958,0.819 -15.781,1.474 -27.5,4.711 -10.272,2.837 -27.188,7.04 -33.539,8.333 -3.047,0.62 -6.82,2.141 -8.385,3.378 -1.565,1.237 -3.354,2.25 -3.976,2.25 -0.621,0 -2.698,0.84 -4.615,1.867 -1.917,1.026 -4.903,2.177 -6.637,2.558 -2.569,0.563 -3.539,1.592 -5.25,5.568 -1.154,2.683 -2.098,5.143 -2.098,5.467 0,0.324 -1.786,3.416 -3.968,6.872 -3.955,6.262 -16.131,17.66 -23.806,22.284 -2.049,1.235 -5.526,4.592 -7.726,7.459 -2.2,2.867 -5.222,6.652 -6.715,8.411 -3.238,3.814 -4.785,7.571 -4.785,11.619 0,3.201 -2.896,9.556 -6.56,14.395 -1.249,1.65 -2.578,4.651 -2.952,6.669 -0.374,2.017 -2.214,5.998 -4.09,8.846 -3.462,5.257 -4.664,10.271 -5.869,24.485 -0.28,3.3 -1.169,7.8 -1.975,10 -0.806,2.2 -1.486,5.708 -1.51,7.794 -0.054,4.643 -2.927,16.686 -4.44,18.61 -1.624,2.065 -1.687,74.545 -0.067,78.596 0.659,1.65 1.478,8.477 1.818,15.171 0.469,9.214 1.077,12.981 2.5,15.5 1.034,1.831 2.466,5.579 3.182,8.329 0.716,2.75 2.126,6.073 3.133,7.385 1.035,1.349 1.83,4.038 1.83,6.191 0,2.093 0.4,4.053 0.889,4.356 0.489,0.302 1.17,1.667 1.513,3.033 0.343,1.366 1.681,4.042 2.974,5.948 1.477,2.176 2.607,5.719 3.037,9.522 0.727,6.423 2.808,12.466 4.696,13.632 2.083,1.288 7.12,13.805 9.428,23.433 1.253,5.225 3.156,11.975 4.23,15 1.074,3.025 2.27,8.2 2.657,11.5 0.496,4.222 1.736,7.695 4.183,11.72 4.69,7.712 12.373,25.231 13.499,30.78 1.264,6.23 4.911,17.191 6.323,19 0.643,0.825 2.048,3.272 3.121,5.438 1.072,2.165 3.975,6.736 6.45,10.157 10.624,14.685 13.329,19.04104 15.647,25.20004 2.942,7.815 13.795,24.442 19.247,29.487 2.153,1.992 6.095,7.067 8.76,11.278 2.665,4.211 6.401,9.745 8.301,12.298 3.848,5.17 10.002,18.718 12.602,27.742 2.128,7.39 5.832,14.856 9.622,19.4 8.75,10.489 11.407,13.929 14.642,18.961 1.96,3.046 5.459,7.564 7.776,10.039 2.318,2.475 5.339,6.187 6.714,8.25 1.375,2.062 4.268,5.228 6.431,7.034 2.162,1.807 6.651,6.419 9.977,10.25 11.379,13.112 15.412,16.332 22.96,18.332 3.752,0.994 8.846,2.847 11.321,4.119 2.475,1.271 6.699,3.416 9.387,4.767 2.905,1.46 9.358,6.899 15.908,13.409 6.062,6.023 12.413,11.665 14.114,12.536 1.7,0.871 4.363,2.646 5.918,3.944 1.554,1.297 3.804,2.364 5,2.37 3.781,0.019 11.305,2.727 15.723,5.659 2.345,1.557 6.78,4.506 9.857,6.555 3.076,2.049 7.608,4.974 10.07,6.5 6.167,3.823 16.09,13.315 23.286,22.275 5.175,6.443 8.789,10.362 21.237,23.026 5.711,5.811 19.642,17.673 24.237,20.639 5.746,3.708 49.635,47.274 51.791,51.41 4.025,7.72 31.377,26.472 40.692,27.897 2.904,0.444 7.755,1.282 10.78005,1.861 3.025,0.579 9.55,1.598 14.5,2.265 4.95,0.667 9.86,1.647 10.911,2.179 3.024,1.529 14.642,3.723 19.713,3.723 2.543,0 6.538,0.675 8.876,1.5 2.338,0.825 6.597,1.5 9.463,1.5 6.091,0 24.019,2.556 25.807,3.679 0.677,0.425 9.555,1.042 19.73,1.371 14.03,0.454 19.346,0.992 22,2.23 1.925,0.897 7.55,2.333 12.5,3.189 l 9,1.558 6,-3.157 c 5.328,-2.803 7.292,-3.238 17.532,-3.881 13.378,-0.842 18.888,-2.949 21.562,-8.249 2.302,-4.563 6.27,-8.596 10.696,-10.872 2.161,-1.112 4.231,-3.114 4.814,-4.659 1.349,-3.57 5.498,-7.848 10.158,-10.472 2.399,-1.351 4.842,-4.032 6.742,-7.398 3.725,-6.6 7.362,-8.604 16.222,-8.936 8.77,-0.33 10.49,-0.954 12.304,-4.46 2.561,-4.953 7.407,-9.767 11.037,-10.965 1.958,-0.646 4.103,-2.306 4.927,-3.811 2.204,-4.028 5.792,-7.691 10.357,-10.573 2.259,-1.426 4.986,-4.281 6.06,-6.344 1.092,-2.098 4.402,-5.497 7.514,-7.715 3.646,-2.6 5.923,-5.061 6.612,-7.147 1.346,-4.078 3.628,-6.662 7.766,-8.793 5.325,-2.743 7.197,-5.187 7.197,-9.399 0,-2.46 1.002,-5.384 2.835,-8.275 1.559,-2.458 3.133,-5.657 3.497,-7.109 0.364,-1.451 2.445,-4.327 4.623,-6.391 2.179,-2.064 4.642,-5.457 5.476,-7.539 1.08,-2.701 3.065,-4.778 6.931,-7.251 2.98,-1.906 5.743,-3.992 6.141,-4.636 0.398,-0.644 0.85,-4.844 1.004,-9.333 0.375,-10.93 1.276,-12.819 7.932,-16.627 6.567,-3.757 7.559,-5.294 7.567,-11.719 0.01,-8.835 1.486,-11.85 8.587,-17.541 3.571,-2.862 7.493,-7.019 8.714,-9.239 1.293,-2.35 4.401,-5.498 7.439,-7.536 3.298,-2.211 6.502,-5.552 8.704,-9.075 1.917,-3.066 4.737,-6.153 6.267,-6.861 1.531,-0.708 6.383,-1.432 10.783,-1.61 8.687,-0.351 8.717,-0.369 13.844,-8.454 1.221,-1.925 4.431,-4.7 7.133,-6.167 2.702,-1.467 6.081,-4.386 7.509,-6.489 1.427,-2.102 4.753,-5.452 7.39,-7.445 7.598,-5.743 10.676,-12.764 11.579,-26.414 0.425,-6.432 1.389,-12.465 2.317,-14.5 2.546,-5.584 4.728,-18.488 4.728,-27.958 0,-8.037 0.293,-9.344 3.557,-15.869 1.957,-3.911 3.982,-7.373 4.5,-7.693 0.553,-0.342 0.947,-12.028 0.953,-28.274 0.01,-27.59704 0.018,-27.71004 2.568,-33.18804 1.407,-3.023 3.153,-6.173 3.879,-7 0.806,-0.918 1.506,-5.198 1.8,-11.003 0.425,-8.411 0.91,-10.384 4.229,-17.212 2.191,-4.509 4.842,-8.406 6.381,-9.383 5.022,-3.188 12.336,-12.033 17.49,-21.153 3.24,-5.732 3.385,-6.419 3.144,-14.881 -0.14,-4.879 -1.012,-11.346 -1.939,-14.371 -0.926,-3.025 -2.069,-7.525 -2.539,-10 -0.47,-2.475 -1.562,-6.975 -2.427,-10 -1.813,-6.343 -2.146,-23.424 -0.538,-27.653 0.582,-1.53 2.578,-4.637 4.435,-6.904 l 3.377,-4.121 -3.357,-6.911 c -2.302,-4.738 -3.566,-9.048 -4.02,-13.709 -0.603,-6.192 -1.196,-7.573 -6.653,-15.5 l -5.991,-8.702 0.468,-9 c 0.327,-6.293 1.119,-10.435 2.632,-13.773 2.199,-4.849 11.26,-14.65 20.843,-22.548 l 5.243,-4.32 -2.176,-3.058 c -1.213,-1.702 -2.38,-5.171 -2.636,-7.827 -0.416,-4.33 -0.728,-4.825 -3.383,-5.356 -1.609,-0.322 -5.268,-2.79 -8.132,-5.486 -3.982,-3.747 -6.15,-5.013 -9.208,-5.381 -9.372,-1.126 -21.794,-3.898 -24.028,-5.361 -1.326,-0.869 -3.148,-3.251 -4.049,-5.293 -1.15,-2.607 -3.112,-4.541 -6.59,-6.496 -4.78,-2.687 -10.071,-8.632 -11.926,-13.4 -0.492,-1.264 -1.966,-4.639 -3.275,-7.5 -1.309,-2.861 -3.225,-7.393 -4.256,-10.072 -1.39,-3.609 -3.674,-6.459 -8.814,-11 -3.816,-3.371 -8.502,-7.816 -10.414,-9.879 -1.912,-2.062 -3.846,-3.75 -4.297,-3.75 -0.452,0 -2.965,-1.313 -5.586,-2.918 -2.621,-1.605 -6.565,-3.206 -8.765,-3.558 -7.585,-1.212 -8.476,-1.564 -12.13,-4.788 -2.017,-1.78 -5.738,-4.361 -8.269,-5.737 -2.894,-1.572 -5.714,-4.232 -7.601,-7.169 -3.413,-5.312 -3.629,-5.382 -20.618,-6.689 -11.267,-0.866 -12.405,-1.33 -21.033,-8.575 -2.008,-1.686 -4.858,-3.902 -6.332,-4.925 -3.019,-2.092 -6.517,-9.385 -6.517,-13.586 0,-1.583 -1.292,-4.405 -3,-6.555 -1.65,-2.076 -3,-4.281 -3,-4.898 0,-0.618 -1.237,-2.126 -2.75,-3.35 -7.114,-5.758 -12.228,-8.226 -22.121,-10.673 -19.504,-4.824 -20.376,-6.219 -20.605,-32.925 l -0.161,-18.882 -3.296,-1.386 c -1.813,-0.762 -4.513,-1.386 -6,-1.386 -6.082,0 -12.847,-2.934 -16.029,-6.952 -1.705,-2.153 -5.445,-5.358 -8.311,-7.121 -2.866,-1.763 -8.139,-5.976 -11.719,-9.362 -3.579,-3.387 -8.355,-7.337 -10.613,-8.779 -2.258,-1.443 -9.233,-7.513 -15.5,-13.49 -6.267,-5.977 -12.58,-11.615 -14.027,-12.528 -1.448,-0.913 -5.989,-4.722 -10.091,-8.464 -4.102,-3.742 -9.653,-8.76 -12.337,-11.151 -5.472,-4.876 -14.769,-16.09 -17.122,-20.653 -0.85,-1.65 -2.582,-4.125 -3.848,-5.5 -1.266,-1.375 -3.4,-4.582 -4.742,-7.128 -1.342,-2.545 -3.629,-6.187 -5.084,-8.094 -1.454,-1.907 -2.644,-3.716 -2.644,-4.02 0,-0.784 -7.981,-13.952 -9.551,-15.758 -0.717,-0.825 -2.655,-4.864 -4.307,-8.976 -2.828,-7.042 -7.364,-14.12 -8.935,-13.945 -0.389,0.043 -1.269,0.306 -1.957,0.583 m -847.53705,163.085 c -10.094,5.185 -10.318,5.246 -19.24,5.25 -6.041,0.002 -9.681,-0.452 -11,-1.372 -1.085,-0.756 -3.867,-1.692 -6.183,-2.081 -3.338,-0.56 -32.261,-0.975 -42.982,-0.617 l -2.192,0.073 -0.308,27.797 c -0.352,31.728 -0.264,31.374 -8.79,35.694 -5.96,3.02 -7.011,4.765 -7.042,11.693 -0.038,8.483 -1.484,12.96 -5.173,16.022 -1.817,1.507 -3.796,2.752 -4.398,2.767 -1.632,0.04 -4.648,3.695 -6.905,8.368 -1.104,2.286 -3.568,5.125 -5.5,6.338 -7.999,5.02 -8.067,5.131 -8.921,14.527 -0.915,10.066 -2.139,12.405 -8.594,16.412 -3.141,1.95 -5.422,4.401 -7.053,7.577 -2.365,4.608 -3.39,5.603 -10.432,10.127 l -3.5,2.248 -0.567,9.611 c -0.667,11.315 -1.773,13.49 -8.896997,17.494 -2.756,1.549 -5.273,3.494 -5.593,4.321 -0.32,0.827 -0.761,5.149 -0.98,9.604 -0.539,10.954 -1.411,12.833 -7.355,15.845 -6.923,3.509 -8.108,5.573 -8.108,14.128 0,9.531 -1.344,13.051 -5.86,15.357 -7.621,3.889 -7.518,3.525 -8.73,30.942 -0.666,15.065 -1.553,25.527 -2.28,26.885 -0.654,1.222 -2.638,2.955 -4.41,3.85 -1.771,0.895 -4.233,2.553 -5.47,3.684 -2.233,2.042 -2.25,2.274 -2.278,31.133 -0.033,33.56 -1.368,63.619 -3.037,68.362 -0.808,2.297 -2.402,3.911 -5.295,5.363 -7.759,3.892 -8.631,5.271 -8.716,13.775 -0.107,10.679 -1.521,14.002 -7.303,17.168 -7.468,4.089 -7.805,4.677 -8.092,14.131 -0.272,8.932 -1.751,13.396 -5.0289997,15.182 -1.1,0.6 -3.421,2.095 -5.158,3.323 l -3.158,2.233 -0.67499998,60.77004 c -1.056,95.111 -1.068,106.827 -0.121,121.974 0.97599998,15.618 1.09899998,15.903 8.61199998,20.025 4.5959997,2.522 5.8139997,7.158 5.9199997,22.52 0.044,6.463 0.445,11.75 0.892,11.75 0.447,0 1.762,-1.285 2.923,-2.856 2.599,-3.515 20.439,-14.609 29.301,-18.222 3.595,-1.465 9.156,-4.142 12.357,-5.948 l 5.819,-3.285 21.474,0.622 c 23.467997,0.679 29.240997,1.786 40.313997,7.729 3.025,1.624 11.455,5.852 18.733,9.396 7.278,3.545 15.153,7.745 17.5,9.336 6.585,4.462 7.767,4.672 7.767,1.378 0,-4.606 2.754,-12.313 6.485,-18.15 1.934,-3.025 4.657,-7.975 6.052,-11 1.395,-3.025 3.572,-7.439 4.839,-9.809 2.751,-5.15 19.185,-22.108 26.744,-27.598 9.67,-7.023 11.396,-7.288 46.38,-7.115 34.291,0.17 32.685,-0.103 44,7.474 2.2,1.474 6.185,3.492 8.855,4.486 4.572,1.702 21.928,15.997 22.943,18.897 0.252,0.72 1.896,-0.012 4.305,-1.916 2.143,-1.694 6.018,-4.693 8.611,-6.664 4.425,-3.363 9.167,-7.741 24.109,-22.255 15.078,-14.646 21.698,-18.478 31.976,-18.51 3.459,-0.01 12.989,-4.028 14.199,-5.987 1.287,-2.082 12.439,-6.807 17.81,-7.545 5.65,-0.777 7.968,-2.53 19.118,-14.454 17.148,-18.34 31.614,-31.228 36.756,-32.747 2.315,-0.684 5.583,-2.525 7.263,-4.092 3.218,-3.001 14.529,-9.165 16.817,-9.165 1.887,0 17.05,-7.434 20.812,-10.203 1.716,-1.263 4.941,-5.355 7.165,-9.093 2.224,-3.738 6.169,-8.688 8.767,-11 2.597,-2.312 5.462,-5.367 6.365,-6.789 0.903,-1.42104 2.747,-3.17504 4.098,-3.89804 l 2.455,-1.314 -2.212,-3.102 c -1.217,-1.705 -3.222,-5.278 -4.457,-7.94 -1.235,-2.661 -3.084,-6.036 -4.108,-7.5 -1.775,-2.536 -6.25,-15.275 -7.609,-21.661 -1.116,-5.243 -7.812,-20.849 -10.742,-25.033 -3.797,-5.424 -6.689,-13.325 -8.365,-22.858 -0.763,-4.342 -2.013,-8.849 -2.778,-10.016 -0.765,-1.167 -1.702,-3.691 -2.083,-5.608 -3.094,-15.583 -3.96,-18.359 -6.695,-21.474 -3.345,-3.811 -7.315,-13.837 -8.318,-21.011 -0.384,-2.75 -2.411,-8.6 -4.504,-13 -3.867,-8.128 -6.381,-14.884 -8.144,-21.881 -0.538,-2.134 -2.114,-5.819 -3.503,-8.189 -2.155,-3.677 -2.67,-6.259 -3.512,-17.619 -0.543,-7.321 -1.636,-15.561 -2.43,-18.311 -1.154,-3.998 -1.44,-13.215 -1.427,-46 l 0.016,-41 2.841,-6 c 1.89,-3.99 3.054,-8.408 3.475,-13.188 0.348,-3.954 1.145,-8.454 1.77,-10 0.624,-1.547 1.468,-6.187 1.873,-10.312 0.641,-6.519 1.989,-15.132 3.557,-22.732 0.253,-1.227 1.739,-3.702 3.303,-5.5 1.563,-1.797 3.143,-4.906 3.51,-6.907 0.367,-2.001 2.666,-6.682 5.108,-10.401 2.443,-3.719 4.218,-7.123 3.945,-7.565 -0.273,-0.442 0.123,-3.483 0.88,-6.759 1.381,-5.979 3.504,-9.171 15.435,-23.204 2.338,-2.749 4.25,-5.422 4.25,-5.94 0,-0.517 3.938,-3.607 8.75,-6.865 9.615,-6.511 18.748,-15.127 16.034,-15.127 -3.481,0 -20.51,4.268 -24.784,6.211 -6.225,2.83 -19.09,5.784 -25.313,5.812 -4.95,0.022 -5.53,0.324 -12.687,6.595 -4.125,3.615 -10.425,8.081 -14,9.924 -3.575,1.844 -7.85,4.273 -9.5,5.398 -2.79,1.904 -4.467,2.045 -24,2.027 l -21,-0.02 -11,-3.904 c -17.94,-6.366 -23.82,-8.608 -27.2,-10.373 -1.761,-0.918 -4.145,-1.67 -5.3,-1.67 -3.675,0 -7.303,-2.603 -15,-10.762 -24.981,-26.482 -24.911,-26.425 -35.5,-28.749 -9.929,-2.179 -15.059,-4.096 -19.256,-7.196 -1.792,-1.322 -5.617,-3.099 -8.5,-3.948 -7.82,-2.3 -22.375,-10.117 -25.29,-13.582 -1.408,-1.673 -2.795,-4.217 -3.082,-5.653 -0.782,-3.91 -3.957,-3.375 -15.659,2.637 m 1343.28705,203.339 c -3.025,1.645 -7.029,4.098 -8.898,5.452 -1.958,1.419 -4.781,2.462 -6.661,2.462 -2.848,0 -3.525,0.54 -5.327,4.25 -1.135,2.337 -4.03,6.5 -6.432,9.25 -2.402,2.75 -4.891,5.988 -5.531,7.197 -0.981,1.85 -15.886,13.889 -27.316,22.063 -1.739,1.243 -3.79,3.158 -4.559,4.256 -0.768,1.097 -2.825,2.734 -4.569,3.636 -4.649,2.404 -12.669,11.396 -12.689,14.229 -0.01,1.309 1.527,4.531 3.416,7.16 5.375,7.481 7.659,12.678 8.719,19.839 0.917,6.189 2.145,9.402 6.925,18.12 3.62,6.602 1.469,19.777 -4.181,25.606 -2.654,2.739 -3.251,4.202 -3.471,8.518 -0.156,3.06 0.521,7.721 1.641,11.293 1.049,3.346 1.919,7.208 1.933,8.583 0.014,1.375 0.956,5.425 2.093,9 1.137,3.575 2.207,9.875 2.377,14 0.171,4.125 0.64,10.475 1.044,14.11 0.885,7.972 -0.482,12.908 -4.464,16.124 -1.543,1.246 -4,4.193 -5.46,6.547 -4.44,7.161 -11.168,15.575 -16.055,20.08 -5.712,5.265 -6.535,7.346 -6.535,16.526 0,8.083 -2.164,15.896 -5.385,19.441 -2.021,2.224 -2.139,3.598 -2.649,31.00004 -0.575,30.873 -0.146,28.222 -6.493,40.172 -2.156,4.059 -3.522,14 -1.923,14 0.302,0 1.87,-0.683 3.485,-1.518 3.286,-1.7 3.645,-2.821 4.309,-13.482 0.608,-9.768 1.858,-12.248 7.801,-15.482 6.427,-3.498 7.516,-5.476 8.167,-14.833 0.641,-9.209 1.772,-11.247 8.721,-15.706 3.765,-2.41604 5.689,-4.49804 7.015,-7.59004 1.004,-2.343 3.092,-5.046 4.639,-6.007 1.547,-0.96 4.05,-2.874 5.563,-4.251 l 2.75,-2.505 0.025,-15.063 c 0.034,-21.05 1.632,-49.054 2.938,-51.494 0.602,-1.124 3.532,-3.603 6.511,-5.509 6.375,-4.078 6.203,-3.492 7.394,-25.277 0.902,-16.489 1.163,-17.237 7.065,-20.25 6.939,-3.541 7.177,-4.202 8.025,-22.217 0.422,-8.974 1.263,-17.541 1.869,-19.038 0.625,-1.543 2.525,-3.328 4.388,-4.121 1.807,-0.77 4.396,-2.604 5.755,-4.076 2.337,-2.534 2.508,-3.542 3.188,-18.773 0.787,-17.627 1.654,-21.073 5.731,-22.762 3.779,-1.565 7.999,-5.676 8.547,-8.326 0.252,-1.221 0.693,-17.295 0.979,-35.72 0.286,-18.425 0.925,-35.413 1.418,-37.75 0.494,-2.337 0.621,-4.228 0.283,-4.202 -0.339,0.027 -3.091,1.394 -6.116,3.038 M 575.24445,1024.3553 c -1.951,1.722 -5.687,6.381 -8.302,10.353 -2.615,3.972 -6.867,9.062 -9.447,11.311 -4.292,3.741 -25.348,14.967 -28.072,14.967 -2.073,0 -10.938,5.083 -11.523,6.607 -0.313,0.817 -3.613,2.907 -7.333,4.644 -7.586,3.542 -22.001,15.577 -29.447,24.584 -13.821,16.72 -26.573,26.136 -35.419,26.156 -2.787,0.01 -5.191,0.808 -7.5,2.503 -7.291,5.35 -19.198,10.478 -25.898,11.153 -7.637,0.77 -7.065,0.362 -26.693,19.047 -7.805,7.431 -16.018,14.854 -18.25,16.495 -2.231,1.641 -4.057,3.745 -4.057,4.675 0,2.792 -2.641,5.715 -9.224,10.209 -7.301,4.984 -12.896,5.693 -17.58,2.23 -1.51,-1.117 -5.283,-2.768 -8.385,-3.669 -5.484,-1.595 -10.811,-6.028 -10.811,-8.998 0,-2.068 -9.292,-10.458 -13.5,-12.19 -2.2,-0.905 -6.581,-3.205 -9.735,-5.11 l -5.736,-3.463 h -27.093 c -23.692,0 -27.415,0.211 -29.658,1.68 -3.133,2.053 -20.278,18.547 -20.278,19.508 0,1.372 -7.16,15.567 -10.539,20.895 l -3.461,5.456 v 15.66 c 0,17.03 1.005,21.372 7.04,30.428 1.466,2.2 3.613,6.554 4.771,9.675 2.429,6.55 4.693,10.938 8.108,15.72 2.023,2.833 2.544,5.123 3.187,13.996 0.999,13.772 2.717,26.833 4.028,30.609 0.573,1.65 1.415,4.506 1.87,6.347 0.456,1.842 1.769,4.006 2.918,4.811 1.149,0.805 2.826,2.887 3.726,4.628 0.9,1.74 3.844,5.149 6.544,7.576 5.499,4.945 7.833,8.935 10.334,17.668 1.311,4.578 2.851,7.136 6.606,10.97 2.693,2.75 6.176,6.936 7.74,9.301 3.587,5.426 13.352,14.199 15.804,14.199 1.02,0 3.423,0.883 5.34,1.962 1.916,1.079 6.704,3.55 10.639,5.492 6.444,3.179 7.577,4.202 11.392,10.288 2.33,3.717 6.357,9.477 8.948,12.8 2.592,3.324 5.261,7.067 5.931,8.319 0.67,1.253 3.42,4.709 6.112,7.681 2.692,2.972 5.776,7.134 6.855,9.248 1.078,2.114 2.705,4.462 3.616,5.217 0.91,0.755 2.965,3.97 4.567,7.143 2.97,5.884 6.848,10.677 19.151,23.674 6.194,6.543 11.736,15.467 11.763,18.941 0.006,0.696 1.764,5.69 3.907,11.098 2.144,5.407 4.44,12.488 5.102,15.734 0.662,3.247 2.144,7.445 3.293,9.33 1.353,2.218 2.338,6.097 2.795,11 0.802,8.615 3.653,19.5 6.073,23.194 0.9,1.374 6.211,7.421 11.801,13.439 5.634,6.064 11.314,13.262 12.744,16.149 3.224,6.51 15.632,18.008 20.48,18.978 1.823,0.365 5.87,1.931 8.994,3.48 10.483,5.202 21.171,7.077 41.821,7.338 10.175,0.128 20.525,0.731 23,1.34 2.475,0.608 7.65,1.128 11.5,1.154 3.85,0.027 8.8,0.532 11,1.122 2.2,0.591 8.5,1.489 14,1.997 9.859,0.911 18.933,3.155 20.047,4.958 0.314,0.508 3.691,0.924 7.504,0.924 7.997,0 32.387,4.508 35.664,6.592 1.218,0.774 4.049,1.408 6.292,1.408 2.243,0 7.321,0.652 11.285,1.448 3.964,0.797 9.008,1.33 11.208,1.186 5.027,-0.33 12.795,1.416 18,4.046 2.2,1.112 7.127,2.792 10.95,3.732 8.264,2.034 13.435,5.576 23.298,15.96 4.909,5.168 8.055,7.645 10.346,8.149 1.81,0.397 8.042,3.534 13.849,6.97 19.479,11.528 22.998,12.741 29.049,10.012 2.57,-1.158 4.996,-3.557 7.592,-7.504 3.074,-4.675 4.601,-6.04 7.865,-7.028 2.258,-0.684 13.566,-1.529 25.551,-1.909 13.014,-0.414 22.334,-1.138 23.613,-1.835 2.149,-1.171 7.073,-6.514 8.887,-9.644 1.41,-2.433 12.998,-4.704 24.5,-4.802 5.225,-0.045 10.46,-0.433 11.634,-0.862 1.174,-0.43 3.646,-3.115 5.495,-5.968 1.848,-2.853 4.488,-5.634 5.866,-6.181 1.378,-0.547 9.881,-1.308 18.897,-1.691 l 16.391,-0.696 2.424,-2.942 c 1.333,-1.617 2.824,-3.93 3.313,-5.139 1.559,-3.848 5.534,-5.581 13.79,-6.01 11.464,-0.596 11.655,-0.682 15.14,-6.858 3.827,-6.78 7.148,-8.434 16.936,-8.434 3.823,0 7.683,-0.281 8.579,-0.625 0.895,-0.343 2.736,-2.811 4.09,-5.484 1.703,-3.361 3.616,-5.448 6.204,-6.769 5.886,-3.004 7.155,-5.054 8.192,-13.237 0.52,-4.097 1.26,-8.335 1.645,-9.417 0.826,-2.32 5.788,-6.986 9.592,-9.019 1.514,-0.809 4.084,-4.056 5.88405,-7.434 2.712,-5.087 3.976,-6.366 8.332,-8.426 3.657,-1.73 5.998,-3.749 8.133,-7.013 1.649,-2.521 5.202,-6.044 7.897,-7.83 2.695,-1.785 5.386,-4.146 5.98,-5.246 4.828,-8.934 9.03,-11.5 18.831,-11.5 7.432,0 9.492,-1.169 13.196,-7.49 1.898,-3.238 4.068,-5.241 7.639,-7.051 3.624,-1.836 5.909,-3.966 8.353,-7.786 3.957,-6.187 6.597,-7.601 15.48,-8.29 10.339,-0.802 10.747,-0.987 13.564,-6.163 1.887,-3.468 4.221,-5.787 8.54,-8.487 3.29,-2.057 7.124,-5.5 8.591,-7.717 1.457,-2.201 4.821,-5.339 7.476,-6.973 2.655,-1.633 5.57,-4.406 6.478,-6.162 2.108,-4.077 3.976,-6.017 8.938,-9.283 2.2,-1.448 5.146,-4.537 6.546,-6.865 1.4,-2.328 4.775,-5.721 7.5,-7.539 3.351,-2.236 5.634,-4.74 7.056,-7.739 2.145,-4.525 4.568,-6.916 9.898,-9.769 l 3,-1.606 -3.691,-0.04 c -2.03,-0.022 -3.945,0.371 -4.255,0.873 -0.31,0.502 -4.34,2.089 -8.955,3.528 l -8.391,2.615 -11.707,-1.535 c -13.289,-1.742 -15.826,-2.286 -19.434,-4.169 -1.794,-0.936 -6.932,-1.346 -17.067,-1.361 -9.956,-0.015 -16.38,-0.517 -20.5,-1.603 -3.3,-0.869 -12.144,-2.163 -19.653,-2.874 -7.509,-0.712 -15.159,-1.762 -17,-2.333 -1.841,-0.571 -6.272,-1.275 -9.847,-1.565 -3.575,-0.29 -8.072,-0.997 -9.993,-1.571 -1.922,-0.575 -4.75,-1.045 -6.286,-1.045 -1.535,0 -3.788,-0.629 -5.006,-1.398 -1.218,-0.768 -6.715,-1.91 -12.215,-2.536 -5.5,-0.627 -11.57505,-1.534 -13.50005,-2.015 -1.925,-0.481 -6.349,-1.39 -9.832,-2.019 -4.751,-0.859 -9.121,-2.785 -17.5,-7.716 -6.142,-3.614 -13.193,-8.208 -15.668,-10.21 -2.475,-2.002 -6.211,-4.91 -8.302,-6.463 -4.598,-3.415 -12.698,-11.742 -12.698,-13.053 0,-1.659 -39.294,-40.967 -44.118,-44.134 -6.516,-4.278 -11.359,-8.215 -16.74,-13.607 -2.553,-2.558 -6.028,-5.343 -7.723,-6.188 -1.694,-0.845 -5.038,-4.075 -7.43,-7.176 -2.393,-3.101 -6.232,-7.291 -8.53,-9.312 -2.299,-2.02 -6.019,-6.209 -8.267,-9.31 -6.511,-8.978 -14.939,-17.56 -20.527,-20.902 -5.41,-3.235 -8.989,-5.637 -16.97,-11.391 -3.035,-2.188 -6.534,-3.716 -9.5,-4.15 -9.48,-1.384 -24.219,-10.837 -36.176,-23.202 -5.297,-5.478 -10.731,-10.304 -12.075,-10.724 -1.344,-0.419 -4.244,-2.017 -6.444,-3.549 -2.2,-1.532 -6.7,-3.347 -10,-4.033 -10.368,-2.154 -14.243,-4.817 -28.588,-19.647 -7.376,-7.627 -15.054,-14.865 -17.061,-16.085 -2.343,-1.424 -4.44,-3.91 -5.86,-6.949 -1.216,-2.602 -4.169,-6.671 -6.562,-9.042 -2.394,-2.371 -5.699,-6.665 -7.346,-9.543 -1.646,-2.878 -4.926,-7.337 -7.288,-9.908 -2.362,-2.571 -5.942,-6.631 -7.954,-9.022 -4.046,-4.806 -12.23,-20.642 -13.37,-25.872 -1.144,-5.245 -7.364,-20.09 -9.354,-22.325 -0.99,-1.11 -4.141,-5.89 -7.002,-10.621 -2.862,-4.731 -7.096,-10.363 -9.409,-12.515 -2.313,-2.153 -7.756,-9.195 -12.095,-15.649 -4.339,-6.454 -8.44,-11.734 -9.115,-11.734 -0.674,0 -2.302,-0.846 -3.617,-1.881 -2.378,-1.87 -2.409,-1.864 -5.938,1.25 m -506.940997,178.949 c -1.925,1.305 -5.771,3.123 -8.546,4.04 -7.099,2.346 -19.115,9.991 -24.569,15.632 l -4.614,4.773 0.436,44.369 c 0.239,24.402 0.863,45.497 1.385,46.876 0.523,1.38 2.986,3.796 5.473,5.37 2.979,1.884 5.326,4.441 6.878,7.491 1.692,3.325 3.779,5.477 7.398,7.631 6.192,3.684 7.204,5.714 8.225,16.5 0.866,9.159 0.97,9.325 8.934,14.32 2.099,1.317 4.397,4.07 5.742,6.879 1.625,3.396 3.763,5.693 7.776,8.357 3.044,2.02 5.987,4.519 6.54,5.553 0.554,1.034 1.383,5.964 1.844,10.955 0.46,4.991 1.274,9.512 1.807,10.045 0.534,0.534 2.955,2.031 5.381,3.328 6.994997,3.74 8.227997,6.116 8.717997,16.808 0.233,5.09 0.906,9.853 1.495,10.583 0.589,0.73 3.27,2.442 5.958,3.804 6.621,3.355 7.558,5.976 8.23,23.02 0.301,7.616 0.796,15.073 1.101,16.571 0.573,2.81 3.913,6.057 9.176,8.92 3.836,2.086 5.209,7.838 5.29,22.156 0.091,16.195 0.529,17.572 6.952,21.874 6.643,4.45 7.886,7.088 7.945,16.854 0.044,7.315 1.648,11.973 4.123,11.973 2.125,0 8.807,5.309 9.846,7.822 0.608,1.473 1.222,6.333 1.363,10.801 0.154,4.865 0.783,8.756 1.567,9.701 0.72,0.867 3.686,2.918 6.591,4.558 4.648,2.623 5.42,3.524 6.419,7.493 0.625,2.481 1.136,7.375 1.136,10.877 0,7.301 0.648,8.377 7.341,12.185 3.142,1.787 5.292,3.861 6.128,5.908 0.719,1.765 1.591,9.986 1.977,18.655 0.769,17.259 1.225,18.604 7.533,22.223 2.498,1.434 4.913,4.012 6.52,6.959 1.404,2.576 4.34,5.997 6.525,7.604 2.185,1.607 5.582,5.029 7.549,7.606 2.182,2.857 5.09,5.289 7.455,6.236 2.724,1.09 4.833,3.039 7.084,6.547 1.763,2.747 4.289,5.407 5.612,5.91 1.323,0.503 10.139,0.94 19.591,0.97 26.423,0.083 45.18,1.384 48.164,3.34 1.378,0.902 3.65,3.9 5.05,6.662 2.861,5.646 5.901,7.383 11.615,6.637 6.222,-0.812 12.98,0.996 15.972,4.272 3.09,3.383 4.2,3.694 16.183,4.531 4.84,0.339 12.715,1.294 17.5,2.123 11.326,1.963 34.784,4.287 43.802,4.339 8.564,0.049 13.085,1.463 13.993,4.375 1.03,3.301 2.154,3.633 12.406,3.663 12.957,0.038 40.172,2.535 48.389,4.441 4.995,1.159 12.285,1.562 28.221,1.562 h 21.485 l 2.265,-2.443 c 1.245,-1.344 3.12,-4.032 4.166,-5.975 1.046,-1.943 2.593,-3.825 3.438,-4.182 3.308,-1.4 28.15,-2.553 62.255,-2.89 19.645,-0.195 36.158,-0.625 36.694,-0.956 0.537,-0.332 2.461,-2.895 4.276,-5.697 1.815,-2.801 4.428,-5.54 5.806,-6.087 1.378,-0.547 9.871,-1.308 18.874,-1.69 l 16.369,-0.695 2.854,-3.443 c 1.57,-1.893 2.866,-3.949 2.881,-4.57 0.015,-0.62 0.702,-1.687 1.527,-2.372 0.825,-0.685 1.5,-1.599 1.5,-2.033 0,-1.574 -13.009,-8.967 -15.78,-8.967 -3.365,0 -11.761,-5.096 -14.567,-8.84 -1.096,-1.463 -4.729,-5.382 -8.073,-8.708 -5.448,-5.42 -6.805,-6.227 -13.053,-7.766 -3.836,-0.944 -8.687,-2.61 -10.781,-3.701 -2.725,-1.421 -5.771,-1.985 -10.712,-1.985 -3.797,0 -8.171,-0.495 -9.719,-1.1 -1.548,-0.606 -7.158,-1.454 -12.466,-1.885 -5.377,-0.438 -10.913,-1.473 -12.5,-2.337 -4.458,-2.428 -16.756,-4.787 -29.571,-5.671 -9.472,-0.654 -12.418,-1.239 -15.351,-3.052 -2.915,-1.802 -5.517,-2.327 -13.222,-2.667 -5.275,-0.232 -11.135,-1.067 -13.02,-1.855 -1.886,-0.788 -6.463,-1.433 -10.171,-1.433 -3.707,0 -9.165,-0.466 -12.128,-1.035 -2.962,-0.569 -13.261,-1.062 -22.886,-1.096 -16.428,-0.059 -18.307,-0.267 -30.669,-3.398 -7.244,-1.835 -15.612,-4.491 -18.597,-5.904 -2.985,-1.412 -6.059,-2.571 -6.83,-2.576 -2.983,-0.02 -10.83,-4.748 -17.412,-10.491 -10.183,-8.886 -13.308,-12.404 -16.452,-18.522 -1.562,-3.038 -6.097,-8.888 -10.08,-13 -11.613,-11.993 -19.96,-24.233 -19.96,-29.271 0,-0.914 -1.125,-4.65 -2.5,-8.303 -1.375,-3.653 -2.5,-8.643 -2.5,-11.089 0,-2.445 -0.533,-5.429 -1.185,-6.631 -0.652,-1.201 -2.202,-6.009 -3.444,-10.684 -1.243,-4.675 -4.329,-14.125 -6.86,-21 -4.212,-11.446 -5.098,-13.006 -10.513,-18.5 -10.723,-10.88 -16.866,-18.306 -19.59,-23.681 -1.478,-2.916 -3.264,-5.756 -3.971,-6.311 -0.706,-0.554 -2.498,-3.258 -3.982,-6.008 -1.483,-2.75 -3.948,-6.35 -5.477,-8 -1.528,-1.65 -3.912,-4.696 -5.297,-6.769 -1.385,-2.074 -3.726,-5.224 -5.203,-7 -2.795,-3.363 -12.089,-16.237 -12.654,-17.528 -0.375,-0.856 -11.097,-6.067 -18.149,-8.819 -2.654,-1.036 -6.704,-3.601 -9,-5.701 -2.296,-2.099 -5.797,-4.928 -7.78,-6.287 -2.147,-1.471 -4.735,-4.703 -6.397,-7.988 -1.825,-3.606 -5.176,-7.637 -9.672,-11.632 -3.783,-3.363 -7.43,-7.26 -8.103,-8.661 -0.695,-1.448 -3.48,-3.673 -6.454,-5.159 -2.877,-1.436 -6.129,-3.424 -7.225,-4.416 -3.546,-3.209 -6.4,-10.627 -7.12,-18.506 -0.621,-6.794 -2.627,-14.359 -5.139,-19.381 -1.246,-2.492 -4.439,-22.144 -5.306,-32.653 -0.385,-4.675 -1.061,-8.95 -1.5,-9.5 -0.44,-0.55 -2.665,-5.629 -4.944,-11.286 -2.279,-5.657 -5.196,-11.836 -6.481,-13.73 -2.604,-3.837 -9.554,-19.902 -9.554,-22.084 0,-0.77 -0.445,-1.4 -0.989,-1.4 -0.545,0 -3.474,-2.25 -6.511,-5 -3.037,-2.75 -6.11,-5 -6.83,-5 -0.72,0 -3.753,-1.841 -6.739,-4.091 -2.987,-2.25 -6.332,-4.446 -7.433,-4.881 -4.833,-1.907 -23.271,-11.102 -25.998,-12.965 -1.65,-1.127 -4.125,-2.056 -5.5,-2.063 -1.375,-0.01 -3.835,-0.708 -5.467,-1.559 -2.194,-1.145 -7.269,-1.671 -19.499997,-2.021 -16.131,-0.462 -16.618,-0.416 -20.033,1.898"
     stroke="none"
     fill="#000000"
     fill-rule="evenodd"
     id="path2" />
</svg>
