<?xml version="1.0" standalone="no"?>
<!DOCTYPE svg PUBLIC "-//W3C//DTD SVG 20010904//EN"
 "http://www.w3.org/TR/2001/REC-SVG-20010904/DTD/svg10.dtd">
<svg version="1.0" xmlns="http://www.w3.org/2000/svg"
 width="5116.000000pt" height="4633.000000pt" viewBox="0 0 5116.000000 4633.000000"
 preserveAspectRatio="xMidYMid meet">
<metadata>
Created by potrace 1.16, written by Peter Selinger 2001-2019
</metadata>
<g transform="translate(0.000000,4633.000000) scale(0.100000,-0.100000)"
fill="#000000" stroke="none">
<path d="M47620 46265 c0 -9 5 -15 11 -13 6 2 11 8 11 13 0 5 -5 11 -11 13 -6
2 -11 -4 -11 -13z"/>
<path d="M29198 44649 c-23 -13 -23 -42 0 -62 25 -23 59 -21 72 2 14 27 13 37
-6 55 -18 18 -41 20 -66 5z"/>
<path d="M37044 44599 c-10 -17 13 -36 27 -22 12 12 4 33 -11 33 -5 0 -12 -5
-16 -11z"/>
<path d="M46108 39988 c-36 -30 -58 -85 -58 -147 0 -41 4 -63 13 -65 72 -22
147 -55 174 -79 39 -34 43 -71 12 -88 -21 -11 -21 -12 11 -32 28 -18 31 -24
25 -51 -4 -17 -9 -64 -12 -104 -5 -83 5 -103 67 -129 73 -31 243 -184 279
-251 7 -13 10 -36 6 -52 -9 -39 35 -147 86 -215 22 -29 46 -74 55 -101 15 -45
29 -81 58 -143 6 -15 41 -41 84 -64 69 -37 73 -41 67 -67 -4 -17 0 -40 8 -57
8 -15 18 -48 21 -73 6 -36 15 -51 46 -75 49 -38 60 -68 60 -168 0 -117 50
-287 84 -287 44 0 96 -84 96 -154 0 -33 -39 -111 -74 -149 -35 -37 -33 -53 12
-98 42 -42 88 -96 102 -119 5 -8 10 -54 10 -102 0 -48 4 -89 9 -93 5 -3 17
-27 25 -53 15 -43 95 -142 116 -142 13 0 18 -23 30 -131 6 -57 17 -117 24
-134 7 -16 19 -61 26 -99 9 -49 21 -78 41 -101 16 -18 29 -42 29 -54 0 -12 7
-35 15 -51 9 -17 12 -40 9 -58 -4 -18 0 -43 11 -65 13 -27 14 -40 6 -56 -15
-28 -14 -74 4 -97 8 -11 14 -41 15 -71 0 -59 34 -140 61 -148 24 -8 81 -74 74
-86 -13 -21 -24 -181 -14 -207 23 -59 37 -176 25 -203 -12 -29 -161 -163 -191
-173 -42 -13 -104 -86 -119 -140 -9 -30 -23 -60 -32 -67 -9 -8 -28 -32 -42
-54 -30 -48 -72 -90 -129 -129 -24 -16 -58 -48 -78 -72 -19 -23 -43 -45 -53
-49 -9 -3 -28 -21 -42 -41 -14 -19 -41 -44 -62 -54 -42 -23 -78 -65 -78 -92 0
-10 -16 -34 -35 -54 -19 -19 -60 -68 -91 -109 -31 -41 -70 -83 -88 -93 -20
-12 -42 -39 -56 -68 -13 -27 -52 -76 -86 -110 -54 -52 -66 -71 -89 -140 -19
-54 -40 -92 -66 -121 -22 -24 -39 -48 -39 -54 0 -20 -51 -143 -66 -160 -8 -8
-14 -25 -14 -37 0 -12 -13 -41 -30 -64 -16 -22 -30 -47 -30 -53 0 -7 -7 -26
-15 -41 -8 -16 -15 -38 -15 -49 0 -11 -11 -36 -24 -56 -39 -58 -103 -184 -126
-250 -11 -34 -32 -76 -46 -92 -14 -17 -24 -42 -24 -60 -1 -18 -14 -57 -30 -87
-17 -30 -30 -65 -30 -77 0 -12 -12 -54 -26 -93 -22 -59 -34 -76 -65 -96 -30
-18 -39 -32 -44 -61 -4 -21 -14 -69 -23 -107 -14 -58 -23 -74 -54 -99 -43 -34
-82 -123 -72 -162 4 -16 -4 -37 -29 -73 -19 -27 -42 -74 -51 -103 -10 -30 -28
-76 -41 -104 -23 -52 -56 -131 -82 -200 -9 -22 -19 -49 -23 -60 -27 -69 -40
-114 -40 -136 0 -14 -5 -30 -12 -37 -6 -6 -15 -30 -19 -54 -15 -86 -29 -175
-38 -253 -13 -107 -40 -271 -53 -320 -5 -22 -19 -94 -30 -160 -11 -66 -24
-134 -29 -150 -11 -40 -36 -183 -44 -265 -4 -36 -16 -105 -27 -155 -10 -49
-23 -121 -28 -160 -5 -38 -16 -110 -24 -160 -8 -49 -20 -130 -26 -180 -22
-179 -41 -321 -50 -370 -5 -27 -17 -90 -26 -140 -9 -51 -15 -125 -13 -170 9
-231 6 -264 -34 -378 -56 -164 -65 -209 -72 -377 -4 -85 -13 -189 -20 -230 -8
-41 -19 -140 -25 -220 -6 -80 -17 -179 -24 -220 -7 -41 -14 -113 -15 -160 -3
-89 -30 -241 -51 -280 -7 -12 -10 -35 -6 -50 3 -17 -2 -42 -14 -66 -18 -34
-18 -40 -5 -61 16 -23 20 -65 8 -77 -4 -4 -7 -40 -8 -80 0 -112 -8 -116 -145
-87 -62 14 -157 13 -182 0 -12 -6 -78 -16 -147 -21 -69 -5 -157 -18 -196 -29
-38 -12 -83 -24 -100 -29 -60 -16 -104 -40 -124 -68 -12 -18 -36 -33 -63 -41
-24 -7 -52 -21 -63 -30 -11 -10 -45 -28 -75 -40 -108 -44 -139 -59 -236 -115
-33 -20 -74 -36 -90 -36 -16 0 -42 -7 -58 -15 -15 -8 -40 -15 -55 -15 -14 0
-58 -19 -96 -42 -39 -22 -90 -44 -115 -48 -25 -4 -70 -18 -100 -30 -68 -27
-287 -100 -301 -100 -5 0 -31 -9 -57 -21 -48 -22 -79 -37 -307 -151 -71 -35
-146 -71 -165 -78 -19 -8 -53 -24 -75 -35 -81 -44 -102 -54 -182 -93 -45 -22
-95 -43 -112 -47 -17 -4 -33 -11 -36 -16 -3 -4 -21 -16 -41 -25 -20 -10 -37
-26 -40 -41 -4 -14 -37 -48 -78 -81 -39 -31 -96 -82 -127 -113 -68 -69 -97
-85 -189 -104 -38 -8 -87 -26 -109 -40 -33 -22 -48 -26 -102 -23 l-64 3 0 35
c0 26 5 35 20 40 11 3 35 18 53 34 30 28 32 33 32 100 0 59 5 80 29 122 41 75
109 150 166 185 65 40 105 78 105 100 0 10 20 37 45 60 25 24 55 63 65 87 11
24 32 56 47 71 66 64 153 181 183 245 18 38 41 81 51 95 36 49 111 277 102
311 -3 11 0 27 7 35 9 11 11 38 7 96 -6 68 -3 87 13 118 10 21 24 74 30 119 6
45 17 103 25 129 7 26 16 71 20 98 6 48 5 51 -24 68 -46 27 -54 49 -35 97 15
37 15 42 0 65 -11 17 -16 47 -16 98 0 85 -21 166 -50 192 -16 14 -20 31 -20
81 0 65 -9 96 -46 151 -12 18 -25 49 -29 70 -3 21 -17 58 -31 82 -13 24 -24
55 -24 70 0 14 -7 44 -14 66 -8 22 -12 52 -9 66 3 16 -1 32 -11 42 -9 8 -16
27 -16 41 0 16 -14 40 -41 66 -40 39 -41 42 -34 89 6 41 3 55 -17 87 -14 22
-32 59 -42 84 -10 24 -28 55 -42 69 -14 14 -24 35 -24 53 0 16 -6 41 -14 56
-7 15 -17 46 -21 69 -4 29 -13 44 -25 48 -27 9 -78 76 -96 127 -16 47 -72 110
-146 165 -26 19 -66 62 -89 96 -22 34 -61 78 -86 97 -25 19 -52 49 -59 66 -8
18 -26 42 -41 53 -47 35 -90 74 -130 115 -21 21 -73 63 -116 94 -43 30 -81 61
-84 68 -3 8 -9 14 -13 14 -17 0 -77 46 -86 65 -5 11 -23 22 -42 26 -19 4 -51
23 -72 44 -29 28 -49 38 -82 42 -50 6 -63 14 -102 65 -16 22 -52 50 -87 67
-33 16 -73 41 -90 55 -17 14 -37 26 -44 26 -8 0 -24 14 -37 30 -12 17 -27 30
-34 30 -6 0 -17 7 -24 15 -7 8 -21 15 -31 15 -11 0 -36 11 -57 24 -20 14 -50
28 -66 32 -38 9 -62 22 -107 57 -22 16 -48 27 -68 27 -23 0 -34 6 -42 23 -15
33 -138 87 -196 87 -12 0 -32 4 -45 9 -13 5 -46 19 -75 30 -28 12 -68 21 -89
21 -24 0 -49 9 -70 25 -21 16 -46 25 -71 25 -21 0 -47 7 -57 15 -11 8 -36 15
-55 15 -37 0 -117 23 -163 46 -14 8 -34 14 -45 14 -10 0 -40 12 -68 25 -27 14
-57 25 -65 25 -9 0 -24 6 -35 14 -11 7 -44 21 -74 31 -30 10 -65 28 -77 40
-12 12 -39 26 -60 30 -26 4 -55 23 -98 64 -34 32 -81 67 -106 79 -29 14 -54
35 -70 61 -16 26 -34 43 -52 46 -17 4 -46 28 -73 60 -25 29 -60 59 -78 66 -40
16 -165 143 -183 186 -8 18 -24 38 -36 44 -13 7 -37 27 -55 44 -18 18 -46 38
-63 45 -18 7 -30 20 -30 30 0 17 -65 80 -82 80 -4 0 -35 21 -69 48 -33 26 -79
57 -101 70 -22 12 -52 31 -66 42 -13 11 -30 20 -37 20 -12 0 -48 26 -122 90
-16 12 -23 30 -23 53 0 33 -32 77 -56 77 -6 0 -26 14 -45 31 -19 17 -54 41
-79 52 -25 11 -60 33 -78 48 -18 16 -43 29 -56 29 -13 0 -31 9 -40 19 -10 11
-32 25 -49 32 -54 22 -147 90 -162 118 -7 15 -32 40 -54 54 -23 15 -41 31 -41
36 0 10 -89 66 -120 76 -32 10 -136 72 -188 112 -24 18 -52 33 -63 33 -11 0
-42 11 -69 25 -27 14 -60 25 -72 25 -13 1 -41 12 -63 25 -22 14 -56 32 -75 41
-19 9 -45 25 -57 36 -13 12 -46 25 -75 29 -29 5 -58 15 -64 24 -6 8 -32 19
-58 24 -26 5 -55 16 -65 25 -10 9 -28 16 -40 16 -32 0 -60 16 -111 65 -37 35
-54 43 -96 48 -32 4 -71 18 -111 42 -48 28 -74 37 -129 41 -38 3 -83 12 -101
20 -17 8 -42 14 -55 14 -13 0 -48 11 -76 25 -29 14 -66 25 -82 25 -17 0 -43 6
-58 14 -15 7 -47 16 -72 19 -35 5 -52 14 -80 43 -26 29 -45 40 -80 46 -100 16
-137 26 -190 52 -30 14 -72 26 -92 26 -20 0 -54 10 -75 23 -32 19 -53 22 -138
23 -55 0 -149 6 -210 13 -60 7 -151 15 -202 18 -63 3 -95 9 -104 19 -13 16
-81 19 -108 4 -10 -5 -53 -12 -96 -15 -43 -3 -86 -10 -97 -16 -12 -7 -39 -8
-67 -4 -51 8 -225 9 -458 2 -146 -4 -155 -6 -194 -31 -22 -15 -48 -27 -57 -27
-9 1 -92 4 -183 7 l-167 5 -35 -31 c-29 -25 -48 -33 -94 -37 -35 -4 -82 -18
-118 -36 -59 -30 -62 -30 -206 -28 -130 2 -152 0 -192 -18 -27 -12 -67 -21
-95 -21 -34 0 -67 -9 -113 -31 -35 -18 -89 -42 -119 -55 -53 -21 -55 -24 -63
-69 -6 -35 -16 -54 -39 -73 -42 -36 -57 -41 -94 -29 -27 8 -37 6 -70 -17 -21
-14 -48 -26 -59 -26 -11 0 -42 -11 -70 -25 -27 -13 -60 -25 -73 -25 -13 0 -40
-13 -60 -29 -54 -43 -151 -80 -202 -78 -59 2 -76 -22 -85 -117 -11 -110 14
-139 91 -108 38 15 73 18 164 14 25 -1 189 -2 365 -2 231 -1 327 -4 345 -13
17 -8 43 -10 80 -5 30 4 62 5 70 2 8 -3 69 -5 135 -5 88 1 140 -4 195 -18 41
-10 89 -16 106 -14 19 3 45 -2 64 -12 24 -12 64 -18 134 -20 196 -6 321 -33
386 -82 40 -31 50 -34 88 -28 34 5 50 2 78 -16 23 -14 58 -23 102 -26 37 -3
77 -11 89 -19 24 -15 115 -33 213 -43 46 -4 74 -13 94 -28 22 -18 42 -23 86
-23 45 0 72 -7 120 -31 45 -22 69 -29 91 -24 16 4 50 0 77 -8 26 -9 59 -18 74
-21 16 -4 32 -17 40 -33 9 -20 23 -30 48 -34 122 -23 160 -33 205 -54 28 -13
75 -27 107 -30 32 -4 86 -21 128 -41 39 -19 84 -34 98 -34 53 0 103 -20 112
-45 8 -22 15 -24 54 -23 33 2 51 -3 68 -18 13 -12 39 -27 58 -34 19 -8 48 -27
63 -42 16 -15 35 -28 42 -28 7 0 32 -16 56 -36 24 -20 68 -48 98 -64 70 -35
171 -137 171 -172 0 -39 -75 -87 -155 -100 -108 -16 -273 -56 -294 -70 -14
-10 -36 -14 -69 -10 -33 3 -59 -1 -80 -12 -22 -11 -58 -16 -124 -16 -81 0 -98
-3 -128 -23 -78 -53 -204 -77 -270 -52 -25 9 -63 20 -86 24 -22 4 -57 17 -76
29 -19 12 -42 22 -51 22 -9 0 -32 9 -51 21 -30 18 -36 27 -36 55 0 25 -12 51
-41 91 l-41 55 -49 -6 c-42 -6 -49 -4 -59 14 -12 23 -59 27 -78 8 -11 -11
-107 -27 -162 -28 -44 -1 -144 20 -151 32 -36 64 -56 83 -85 80 -60 -5 -69 -2
-87 23 l-19 26 -112 -7 c-107 -7 -184 -27 -200 -53 -13 -20 -45 -11 -66 19
-17 24 -29 30 -57 30 -25 0 -45 9 -70 30 -38 34 -53 36 -113 15 -23 -8 -62
-15 -87 -15 -24 0 -54 -5 -66 -12 -12 -6 -56 -15 -97 -19 -41 -4 -102 -12
-135 -18 -87 -16 -225 -13 -255 4 -14 8 -37 14 -51 15 -14 0 -43 13 -63 29
l-36 29 -56 -15 c-46 -12 -65 -12 -104 -2 -58 15 -75 9 -84 -28 -19 -79 -39
-114 -77 -134 -59 -29 -133 -23 -144 12 -9 29 -52 46 -133 54 -74 7 -74 7
-107 -25 -42 -41 -102 -50 -174 -26 -48 16 -52 15 -98 -5 -95 -42 -97 -43
-104 -78 -4 -18 -23 -50 -43 -70 -20 -20 -36 -40 -36 -44 0 -16 -83 -117 -101
-122 -10 -3 -27 -16 -37 -28 -9 -12 -32 -32 -49 -45 l-32 -22 -37 32 c-68 60
-198 100 -367 114 -73 6 -94 4 -126 -11 -37 -16 -42 -16 -90 0 -34 11 -64 14
-91 10 -37 -6 -41 -5 -60 27 -11 18 -20 49 -20 68 0 56 -18 104 -49 134 -17
16 -33 41 -36 56 -3 16 -15 36 -26 46 -10 9 -19 21 -19 25 0 5 -14 30 -30 56
-17 26 -30 58 -30 72 0 15 -4 33 -10 41 -10 18 -104 117 -252 270 l-107 110
-54 0 c-135 0 -128 -124 14 -230 74 -55 99 -90 99 -140 0 -17 11 -53 25 -80
14 -28 28 -71 31 -98 7 -67 25 -134 39 -152 7 -8 15 -40 19 -70 3 -30 9 -76
12 -102 6 -46 5 -49 -33 -85 -22 -21 -66 -74 -98 -118 -32 -44 -62 -83 -67
-86 -5 -3 -12 -19 -17 -35 -7 -28 -10 -29 -67 -31 -32 -1 -66 -4 -74 -5 -8 -1
-73 1 -145 5 -184 12 -203 21 -276 140 -16 26 -43 56 -60 65 -55 30 -156 120
-168 150 -10 25 -10 38 3 76 9 26 16 53 16 60 0 8 16 37 35 66 19 29 35 55 35
60 0 4 8 18 19 31 10 13 22 40 26 59 4 19 16 41 26 48 11 7 19 24 19 36 0 29
36 76 59 76 9 0 26 6 37 14 20 15 22 30 15 158 -2 45 -32 52 -87 23 -26 -14
-56 -25 -68 -25 -21 0 -76 -43 -76 -59 0 -5 -18 -21 -39 -36 -28 -19 -44 -40
-55 -73 -9 -25 -22 -52 -29 -61 -15 -18 -74 -163 -89 -220 -5 -20 -23 -50 -39
-67 -21 -22 -32 -46 -38 -85 -11 -67 -44 -125 -75 -133 -12 -3 -37 -1 -56 4
-40 11 -103 4 -194 -22 -52 -15 -83 -18 -127 -13 -78 9 -188 63 -223 110 -39
51 -80 49 -133 -7 -22 -24 -61 -63 -86 -87 l-46 -44 -76 5 c-42 3 -81 10 -88
17 -6 6 -34 11 -62 11 -83 0 -121 16 -153 63 -16 23 -35 41 -43 40 -8 -2 -41
-8 -73 -14 l-59 -12 -38 42 c-44 47 -54 49 -86 20 -27 -26 -109 -37 -142 -20
-17 9 -21 21 -21 59 0 26 -4 52 -8 58 -14 22 -53 26 -100 11 -26 -9 -69 -20
-96 -26 l-49 -12 -39 40 c-52 51 -79 57 -132 31 -62 -29 -98 -27 -119 9 -14
24 -16 38 -8 73 8 35 7 46 -7 61 -20 22 -45 17 -124 -24 -70 -36 -97 -36 -128
-4 -30 32 -44 31 -109 -8 -30 -17 -75 -43 -100 -57 -26 -14 -60 -35 -75 -47
-35 -28 -36 -28 -90 -2 -39 18 -49 19 -88 9 -23 -7 -73 -32 -109 -56 -71 -47
-117 -56 -140 -28 -21 26 -70 46 -98 41 -25 -5 -124 -29 -186 -45 -25 -7 -34
-4 -52 15 -27 28 -54 29 -107 4 -23 -10 -66 -26 -97 -35 -51 -15 -60 -16 -92
-2 -22 9 -42 27 -53 48 -9 18 -22 36 -28 40 -24 17 -75 6 -150 -32 -108 -54
-156 -52 -156 8 0 35 -36 89 -63 94 -69 13 -149 8 -185 -11 -89 -49 -251 -65
-315 -31 -20 11 -49 20 -63 20 -31 0 -105 43 -148 86 -17 17 -48 41 -69 53
-39 24 -67 56 -67 78 0 29 222 213 256 213 6 0 17 7 24 15 19 23 218 118 234
112 8 -3 34 5 59 19 26 13 61 24 79 24 31 0 90 24 121 48 22 17 110 42 148 42
31 0 38 4 41 23 2 17 11 23 43 28 22 3 65 16 95 28 30 12 86 25 123 28 50 4
70 10 74 22 11 31 36 51 65 51 16 0 41 9 56 20 22 16 49 21 142 26 75 4 145
15 200 30 46 13 103 24 125 24 23 0 46 5 53 12 21 21 106 31 243 28 131 -2
204 8 308 41 18 6 52 13 75 14 131 11 167 18 176 35 7 13 30 19 107 25 54 4
114 7 133 6 19 -1 62 -3 95 -4 36 -2 79 -11 109 -25 27 -12 67 -27 88 -31 22
-5 47 -16 56 -24 33 -28 67 -28 148 1 76 26 87 27 274 27 170 0 198 2 220 18
18 12 44 17 96 17 71 0 96 7 202 56 29 13 66 24 83 24 22 0 39 10 61 33 16 17
43 46 58 62 34 35 47 105 27 147 -13 29 -139 118 -168 118 -10 0 -21 4 -24 10
-10 16 -95 50 -125 50 -15 0 -33 6 -39 14 -6 7 -69 39 -139 70 -70 32 -136 62
-147 68 -11 6 -65 15 -120 19 -125 10 -212 24 -228 37 -7 5 -46 12 -87 15 -41
3 -109 12 -150 21 -41 9 -114 16 -161 16 -72 0 -91 3 -112 20 -24 19 -44 21
-203 26 -113 3 -196 10 -228 19 -35 10 -121 17 -271 20 -270 7 -224 7 -395 1
-134 -5 -180 -11 -360 -52 -36 -8 -79 -14 -97 -14 -17 0 -44 -5 -59 -10 -15
-6 -43 -12 -63 -14 -20 -2 -49 -11 -64 -19 -21 -11 -37 -13 -59 -6 -23 6 -39
4 -67 -10 -20 -11 -53 -19 -74 -19 -21 0 -48 -7 -62 -16 -17 -11 -48 -16 -109
-16 -74 0 -88 -3 -113 -24 -26 -22 -38 -24 -188 -28 -112 -4 -170 -10 -195
-21 -40 -17 -132 -33 -300 -51 -63 -7 -126 -18 -139 -25 -47 -26 -88 -33 -226
-40 -99 -6 -149 -13 -172 -24 -18 -10 -45 -17 -60 -17 -21 0 -41 -12 -68 -40
-37 -38 -42 -40 -100 -40 -34 0 -75 -6 -91 -14 -17 -8 -82 -17 -158 -21 -147
-8 -173 -15 -186 -50 -7 -19 -17 -25 -39 -25 -32 0 -54 26 -65 77 -11 48 -36
65 -92 61 -42 -3 -49 -6 -54 -28 -7 -32 -54 -38 -91 -13 -15 10 -45 31 -67 46
-22 16 -60 33 -83 38 -27 7 -55 23 -76 44 -19 19 -51 43 -71 54 -93 47 -158
84 -173 97 -8 8 -22 14 -30 14 -8 0 -32 7 -54 15 -64 23 -117 19 -145 -10 -32
-34 -124 -75 -182 -82 -27 -3 -53 -12 -59 -19 -7 -9 -32 -14 -63 -14 -28 0
-61 -6 -72 -14 -11 -8 -49 -26 -84 -40 -35 -15 -77 -38 -92 -53 -38 -37 -110
-58 -208 -62 -51 -2 -92 -8 -104 -17 -11 -8 -27 -14 -35 -14 -7 0 -59 -18
-113 -40 -55 -22 -111 -40 -123 -40 -13 0 -36 -11 -52 -24 -48 -40 -154 -82
-253 -101 -94 -18 -139 -43 -140 -77 -1 -13 -39 -41 -138 -102 -26 -15 -62
-41 -80 -57 -18 -16 -45 -31 -60 -34 -27 -6 -61 -21 -136 -62 -23 -12 -53 -22
-67 -22 -14 -1 -47 -12 -72 -26 -26 -14 -67 -37 -92 -50 -26 -14 -50 -25 -56
-25 -8 0 -53 -27 -160 -97 -21 -14 -50 -23 -73 -23 -27 0 -49 -9 -83 -35 -25
-19 -53 -35 -63 -35 -9 0 -27 -12 -41 -26 -13 -15 -41 -38 -63 -51 -21 -14
-55 -41 -76 -61 -53 -53 -92 -80 -126 -88 -16 -4 -54 -21 -84 -39 -30 -18 -77
-40 -104 -49 -66 -22 -77 -29 -131 -79 -54 -48 -82 -66 -108 -67 -20 0 -125
-104 -167 -166 -25 -36 -35 -42 -74 -46 -32 -4 -56 -15 -81 -37 -20 -17 -40
-31 -44 -31 -5 0 -31 -18 -57 -40 -27 -22 -53 -40 -59 -40 -40 0 -306 -164
-325 -200 -6 -11 -23 -23 -38 -26 -15 -4 -34 -12 -42 -19 -8 -7 -32 -18 -52
-24 -20 -7 -42 -19 -49 -27 -7 -9 -26 -22 -43 -31 -37 -19 -64 -39 -159 -118
-86 -72 -148 -115 -166 -115 -7 0 -35 -23 -63 -50 -28 -28 -61 -53 -74 -56
-13 -3 -34 -24 -48 -48 -20 -35 -91 -96 -111 -96 -3 0 -32 -20 -66 -45 -34
-25 -67 -45 -75 -45 -8 0 -14 -3 -14 -8 0 -4 -20 -18 -45 -31 -27 -14 -66 -50
-95 -85 -27 -34 -63 -70 -80 -81 -17 -11 -41 -42 -56 -72 -18 -39 -31 -54 -52
-59 -36 -9 -158 -87 -204 -132 -20 -19 -40 -49 -44 -66 -4 -17 -15 -42 -25
-55 -11 -13 -19 -28 -19 -33 0 -5 -22 -35 -50 -67 -38 -44 -59 -59 -94 -69
-25 -6 -50 -17 -55 -24 -6 -7 -30 -37 -54 -67 l-44 -54 20 -36 20 -37 -26 -40
c-15 -21 -44 -50 -65 -64 -32 -22 -37 -32 -40 -70 -2 -28 -12 -54 -27 -72 -13
-16 -27 -44 -31 -63 -3 -19 -12 -39 -20 -46 -8 -7 -14 -30 -14 -55 0 -35 -5
-47 -25 -60 -18 -11 -25 -25 -25 -47 0 -16 -14 -59 -30 -94 -19 -40 -30 -79
-30 -106 0 -35 -6 -49 -30 -72 -16 -15 -32 -40 -35 -56 -4 -15 -14 -38 -24
-51 -23 -30 -51 -113 -51 -153 0 -18 -9 -43 -20 -57 -28 -37 -51 -105 -59
-175 -5 -46 -13 -68 -31 -88 -23 -24 -25 -34 -23 -105 2 -61 -1 -79 -12 -84
-8 -3 -15 -13 -15 -22 0 -9 -13 -46 -30 -81 -16 -34 -30 -68 -30 -73 0 -6 -6
-21 -14 -33 -8 -12 -19 -47 -26 -77 -7 -30 -19 -67 -26 -82 -8 -15 -14 -53
-14 -86 0 -32 -5 -63 -11 -69 -6 -6 -14 -35 -19 -64 -18 -114 -39 -199 -56
-224 -13 -20 -15 -39 -11 -87 3 -38 0 -77 -8 -106 -15 -49 -19 -191 -10 -342
6 -90 21 -143 51 -180 7 -8 25 -60 39 -115 30 -111 35 -122 64 -149 11 -10 23
-31 26 -47 4 -16 26 -46 51 -68 42 -37 54 -59 68 -123 3 -15 15 -30 27 -33 12
-4 29 -26 40 -52 19 -45 64 -105 129 -172 19 -20 46 -55 60 -77 42 -70 297
-348 329 -359 27 -10 120 -161 127 -207 4 -24 18 -60 31 -80 12 -21 23 -47 23
-58 0 -21 4 -24 53 -34 23 -6 27 -11 27 -41 0 -19 11 -55 25 -81 27 -51 32
-101 13 -125 -54 -65 -148 -63 -230 6 -37 31 -49 31 -78 0 -28 -30 -51 -32
-74 -6 -9 10 -34 21 -55 24 -22 2 -64 23 -100 47 -56 38 -82 64 -139 139 -16
20 -32 25 -127 35 -61 7 -120 17 -132 24 -12 7 -32 12 -45 12 -13 0 -32 7 -42
15 -11 8 -28 15 -38 15 -10 0 -36 11 -58 25 -22 14 -43 25 -47 25 -5 0 -28 14
-53 30 -25 16 -54 30 -66 30 -12 0 -32 10 -46 23 -33 30 -154 73 -318 112 -30
7 -82 22 -115 33 -33 11 -77 24 -98 27 -20 4 -40 11 -43 16 -3 5 -21 9 -40 9
-19 0 -51 7 -71 15 -22 9 -67 15 -118 15 -78 0 -85 2 -104 27 -18 22 -25 25
-44 15 -12 -6 -44 -13 -72 -16 -108 -13 -149 -40 -168 -109 -10 -35 -25 -55
-77 -99 -77 -65 -105 -103 -114 -157 -7 -45 -44 -81 -83 -81 -14 0 -37 13 -54
29 -23 24 -29 38 -29 74 0 33 -6 51 -25 73 -17 19 -24 36 -20 49 3 11 11 50
17 88 10 59 9 72 -7 105 -13 27 -18 65 -20 139 -2 56 -9 117 -16 137 -10 28
-10 40 0 59 11 20 10 29 -7 58 -11 19 -23 52 -27 74 -3 22 -12 49 -19 60 -13
20 -22 68 -35 185 -3 36 -12 75 -19 87 -7 12 -12 36 -12 53 0 17 -9 43 -20 58
-11 15 -24 54 -30 87 -6 33 -17 74 -25 90 -8 17 -19 55 -25 85 -28 149 -49
231 -70 274 -13 28 -24 74 -27 114 -3 37 -12 74 -19 82 -17 20 -79 191 -88
245 -4 22 -17 55 -28 73 -17 28 -19 41 -12 90 11 79 5 139 -17 182 -17 33 -41
179 -40 240 0 14 1 42 2 63 1 21 -6 55 -14 75 -9 21 -21 94 -27 172 -20 247
-35 336 -63 367 -13 15 -19 33 -17 55 5 61 2 123 -9 183 -7 33 -16 87 -21 120
-13 86 -28 177 -46 275 -19 106 -34 211 -38 271 -1 25 -6 51 -10 58 -5 7 -10
45 -13 84 -2 40 -7 106 -9 147 -3 41 -7 102 -8 135 -2 41 -11 74 -27 105 -46
85 -60 149 -61 284 -1 93 -5 129 -15 137 -7 6 -13 28 -13 48 0 20 -11 60 -25
89 -18 39 -25 71 -25 115 0 57 -2 62 -40 97 -22 20 -40 45 -40 55 0 10 -6 26
-14 34 -32 36 -68 192 -73 316 -5 118 -6 121 -39 164 -19 24 -43 50 -54 58
-11 8 -29 31 -39 51 -11 20 -31 48 -45 61 -30 28 -32 44 -11 85 22 42 19 60
-17 86 -18 13 -39 32 -46 42 -8 11 -26 18 -46 18 -39 0 -63 23 -72 71 -4 19
-17 48 -30 66 -15 20 -24 45 -24 68 0 27 -8 45 -31 68 -67 69 -119 139 -119
160 0 12 -7 35 -15 51 -8 15 -15 47 -15 71 0 23 -6 47 -12 53 -7 5 -56 12
-109 14 l-96 3 -40 40 c-22 22 -47 54 -56 72 -9 17 -42 53 -72 80 -31 26 -67
69 -80 94 -13 26 -49 68 -79 94 -32 27 -61 62 -68 81 -8 24 -27 44 -59 64 -25
15 -65 50 -88 78 -23 27 -58 58 -77 68 -19 11 -37 29 -41 42 -6 27 20 70 51
82 23 8 56 50 56 71 0 7 12 28 27 47 40 52 92 149 122 225 6 15 19 30 28 33
98 31 185 138 181 222 -1 26 6 48 20 68 12 16 33 62 47 101 21 60 25 91 25
177 0 58 5 116 11 129 6 14 29 34 50 46 36 21 39 25 39 67 0 61 23 92 76 105
63 16 68 26 61 123 -8 93 -2 105 62 127 41 14 52 44 52 132 l0 67 44 33 c35
25 44 38 44 62 0 17 -6 39 -14 49 -35 46 3 113 77 135 67 21 84 55 48 101 -38
49 -23 72 74 111 40 16 65 34 77 53 17 28 17 31 -2 67 -24 49 -24 71 1 94 12
10 30 34 42 53 21 34 21 35 3 88 -17 51 -17 55 -1 73 9 10 46 33 82 52 39 19
71 43 79 58 7 14 25 37 39 50 34 32 33 43 -9 85 -19 20 -35 39 -35 44 0 14 29
36 64 47 34 11 36 20 21 121 -7 47 -5 53 19 77 15 15 30 27 35 27 4 0 27 31
49 70 33 55 42 79 42 116 0 50 20 87 76 141 18 17 36 44 39 60 20 93 29 110
86 171 69 74 77 87 104 166 17 50 28 65 65 91 33 23 49 43 60 76 8 24 18 49
21 54 3 6 14 44 24 85 19 76 38 110 61 110 6 0 27 17 45 38 18 20 45 42 59 48
21 9 29 21 34 50 8 43 17 68 67 167 46 94 170 221 222 230 26 4 46 16 65 38
15 18 42 47 60 64 39 38 42 79 10 120 -25 33 -18 52 30 76 47 24 62 39 62 61
0 33 112 195 148 215 25 14 32 24 32 48 0 47 24 68 113 104 23 9 27 16 27 50
0 47 26 76 80 91 19 5 54 27 77 49 47 45 59 90 36 135 -13 25 -13 37 -2 84 12
50 11 56 -5 68 -30 21 -76 5 -146 -51 -73 -58 -120 -85 -148 -85 -11 0 -48
-27 -83 -60 -35 -33 -73 -60 -84 -60 -23 0 -46 -15 -94 -59 -34 -31 -117 -91
-128 -91 -3 0 -21 -13 -40 -30 -18 -16 -39 -30 -45 -30 -5 0 -26 -14 -46 -31
-20 -18 -52 -39 -71 -48 -32 -14 -136 -79 -213 -132 -15 -11 -33 -19 -40 -19
-21 -1 -65 -43 -73 -70 -12 -41 -65 -90 -98 -90 -21 0 -41 -12 -72 -43 -23
-24 -44 -48 -46 -53 -2 -6 -52 -43 -110 -82 -59 -40 -112 -79 -119 -87 -28
-33 -171 -135 -190 -135 -13 0 -26 -13 -39 -37 -17 -33 -59 -78 -246 -259 -22
-22 -57 -57 -77 -79 -21 -22 -44 -47 -52 -55 -8 -8 -33 -33 -54 -55 -22 -22
-54 -51 -72 -64 -17 -13 -43 -42 -58 -65 -15 -23 -49 -66 -76 -96 -27 -30 -54
-68 -61 -83 -11 -27 -134 -164 -261 -291 -33 -34 -82 -90 -108 -126 -32 -45
-60 -71 -89 -85 -34 -16 -43 -26 -45 -50 -5 -56 -12 -73 -48 -116 -20 -24 -41
-55 -47 -69 -6 -14 -43 -56 -82 -95 -38 -38 -83 -91 -100 -117 -56 -90 -106
-158 -115 -158 -4 0 -18 -15 -29 -34 -12 -19 -39 -52 -61 -74 -24 -24 -40 -49
-40 -63 0 -33 -11 -46 -43 -54 -30 -8 -47 -31 -47 -67 0 -13 -41 -78 -100
-157 -55 -73 -100 -137 -100 -142 0 -4 -8 -10 -18 -13 -18 -6 -82 -88 -82
-106 0 -5 -22 -39 -50 -75 -27 -36 -50 -70 -50 -75 0 -5 -19 -32 -43 -59 -85
-100 -167 -235 -167 -275 0 -9 -11 -22 -23 -31 -13 -8 -29 -33 -36 -54 -6 -22
-27 -58 -46 -81 -19 -23 -35 -52 -35 -63 -1 -12 -14 -47 -30 -77 -35 -64 -35
-63 -11 -114 23 -49 16 -78 -29 -108 -35 -24 -35 -24 -38 -108 -2 -72 1 -89
18 -112 24 -33 25 -37 3 -68 -25 -36 -52 -119 -53 -161 0 -20 -7 -42 -15 -49
-10 -8 -15 -30 -15 -64 0 -29 -4 -56 -8 -61 -24 -27 -44 -108 -38 -153 4 -26
8 -66 9 -89 1 -23 8 -48 15 -55 20 -20 13 -52 -14 -72 -22 -16 -37 -18 -91
-13 -78 8 -89 3 -166 -74 -32 -32 -72 -66 -88 -76 -16 -10 -32 -28 -35 -40 -4
-13 -18 -26 -38 -33 -17 -5 -56 -28 -85 -50 -29 -22 -61 -40 -70 -40 -10 0
-31 -12 -49 -27 -17 -16 -38 -33 -48 -39 -13 -8 -18 -26 -19 -80 -2 -76 -22
-156 -61 -241 -20 -44 -27 -81 -35 -186 -6 -73 -16 -157 -24 -187 -8 -33 -14
-106 -14 -184 0 -106 -3 -131 -17 -147 -11 -13 -14 -27 -10 -46 22 -91 28
-123 30 -168 2 -54 24 -152 38 -172 5 -6 8 -38 7 -71 -2 -46 3 -67 19 -94 12
-20 22 -51 22 -69 0 -19 10 -50 22 -69 14 -21 25 -60 29 -100 13 -116 26 -197
38 -218 6 -11 11 -34 11 -49 0 -16 7 -38 15 -49 8 -10 15 -38 15 -60 0 -24 6
-47 15 -54 11 -9 15 -33 15 -87 0 -82 22 -173 51 -215 11 -14 22 -41 26 -60 3
-18 13 -43 21 -56 10 -15 12 -35 8 -62 -10 -61 38 -223 103 -350 10 -19 24
-60 30 -90 7 -30 19 -75 28 -100 8 -25 18 -66 22 -91 4 -26 15 -58 24 -72 11
-17 17 -47 17 -83 0 -48 4 -61 30 -91 18 -20 30 -45 30 -62 0 -15 11 -43 25
-62 34 -48 56 -98 62 -144 3 -22 15 -53 25 -68 11 -15 23 -51 27 -80 7 -55 54
-148 102 -204 16 -18 31 -50 34 -70 11 -71 14 -79 45 -124 16 -24 37 -70 46
-102 9 -32 25 -63 34 -70 9 -7 26 -30 38 -53 11 -22 28 -46 36 -54 12 -9 15
-22 10 -45 -4 -22 -1 -41 10 -57 9 -13 31 -69 50 -124 19 -56 53 -128 75 -161
21 -32 45 -79 51 -104 18 -65 38 -99 65 -109 15 -6 27 -20 30 -37 13 -65 59
-194 96 -268 28 -58 42 -102 50 -160 6 -44 21 -102 33 -130 32 -69 78 -254 86
-347 8 -76 29 -126 109 -258 11 -19 26 -46 32 -60 6 -14 15 -33 20 -42 5 -10
9 -35 9 -55 0 -29 11 -55 45 -105 27 -40 45 -79 45 -96 0 -35 16 -52 49 -52
36 0 83 -31 101 -66 8 -16 19 -36 25 -44 6 -8 19 -35 29 -60 10 -25 29 -69 42
-98 13 -29 24 -59 24 -66 0 -20 83 -205 113 -253 15 -24 27 -46 27 -49 0 -4
13 -28 29 -53 28 -44 40 -75 76 -206 9 -33 27 -87 41 -120 13 -33 24 -72 24
-86 0 -15 7 -32 15 -39 8 -7 15 -19 15 -28 0 -8 6 -23 14 -31 23 -26 76 -130
76 -149 0 -21 68 -128 98 -156 12 -10 24 -32 28 -50 12 -55 41 -101 83 -130
23 -16 42 -36 43 -45 0 -9 2 -20 3 -26 2 -5 3 -18 4 -27 0 -10 16 -24 35 -32
34 -14 76 -63 76 -88 0 -8 27 -57 59 -110 33 -53 64 -113 70 -133 5 -20 32
-61 58 -90 57 -62 109 -133 119 -160 4 -11 27 -41 53 -66 55 -56 101 -113 101
-126 0 -9 46 -70 131 -176 17 -21 43 -73 59 -116 36 -98 70 -148 120 -178 29
-18 42 -34 50 -62 6 -23 19 -42 32 -48 32 -14 128 -104 128 -119 0 -15 52 -54
73 -54 8 0 20 -7 27 -15 7 -8 39 -29 71 -46 32 -17 60 -37 63 -45 3 -8 20 -14
41 -14 20 0 47 -7 60 -16 16 -11 34 -14 54 -9 46 10 65 -1 100 -56 23 -34 46
-56 77 -71 38 -17 44 -25 44 -50 0 -22 10 -40 36 -64 31 -30 40 -33 74 -28 31
5 44 2 72 -19 18 -14 49 -28 68 -32 19 -4 53 -15 75 -25 22 -9 69 -30 105 -46
35 -16 84 -46 108 -66 24 -21 49 -38 56 -38 7 0 34 -16 59 -35 25 -19 52 -35
60 -35 8 0 30 -11 49 -24 20 -13 51 -29 71 -35 19 -7 41 -19 48 -27 13 -16 90
-54 110 -54 6 0 28 -14 49 -30 21 -17 53 -33 72 -36 18 -4 44 -14 58 -22 14
-9 45 -27 70 -39 25 -13 63 -37 85 -53 46 -35 179 -100 244 -120 24 -8 46 -21
49 -29 3 -9 14 -28 25 -43 13 -18 18 -35 13 -52 -6 -25 -8 -25 -64 -20 -41 5
-68 2 -96 -10 -27 -11 -69 -16 -137 -16 -55 0 -125 -6 -157 -14 -89 -23 -382
-39 -657 -37 -155 1 -269 -2 -300 -9 -27 -6 -88 -18 -135 -25 -47 -8 -110 -22
-140 -31 -30 -9 -116 -20 -190 -25 -74 -5 -187 -16 -250 -24 -63 -9 -155 -19
-205 -23 -49 -4 -99 -12 -110 -19 -22 -12 -196 -17 -282 -7 -29 3 -57 12 -63
19 -9 11 -19 10 -54 -6 -38 -16 -50 -17 -102 -7 -53 11 -127 12 -299 7 -83 -3
-128 26 -182 118 -22 37 -45 83 -51 101 -7 19 -25 49 -42 68 -16 19 -30 41
-30 48 0 7 -12 23 -26 37 -14 13 -41 49 -59 79 -18 30 -47 65 -64 78 -20 15
-32 34 -37 59 -9 47 -39 118 -53 127 -6 4 -11 16 -11 26 0 10 -14 29 -31 41
-17 12 -46 46 -65 75 -19 29 -43 58 -54 64 -29 16 -92 111 -149 225 -34 70
-69 121 -115 172 -36 39 -66 77 -66 85 0 7 -19 51 -42 98 -34 68 -55 96 -105
139 -53 46 -63 60 -63 86 0 27 -7 37 -47 62 -45 28 -50 35 -73 109 -31 98 -56
144 -81 144 -22 0 -44 32 -54 78 -5 25 -20 43 -56 69 -31 22 -51 45 -55 61 -9
44 -24 66 -57 87 -17 11 -45 45 -62 76 -16 30 -38 66 -47 79 -10 14 -18 31
-18 38 0 7 -27 40 -60 71 -38 37 -60 66 -60 80 0 15 -9 25 -28 32 -21 7 -32
22 -45 59 -10 28 -21 50 -26 50 -4 0 -25 25 -46 55 -20 30 -41 55 -45 55 -20
0 -90 86 -90 111 0 14 -14 44 -30 65 -17 21 -46 59 -64 84 -19 25 -44 51 -55
58 -12 7 -21 23 -21 37 0 54 -27 95 -77 117 -54 24 -56 26 -80 88 -10 25 -37
63 -60 85 -24 22 -43 45 -43 51 0 11 -50 88 -120 184 -22 30 -40 63 -40 73 0
10 -11 29 -25 43 -26 26 -55 75 -55 93 0 5 -13 30 -30 54 -16 25 -30 52 -30
61 0 9 -20 35 -44 59 -24 23 -48 55 -51 70 -4 16 -30 50 -58 75 -87 81 -97 92
-97 112 0 10 -4 21 -9 25 -5 3 -12 19 -16 35 -7 30 -56 80 -80 80 -22 0 -39
31 -37 65 3 27 -6 43 -53 96 -30 35 -66 87 -80 115 -13 28 -31 57 -40 64 -8 7
-15 19 -15 27 0 8 -19 34 -43 58 -55 55 -107 121 -107 134 0 6 -6 11 -13 11
-17 0 -124 106 -142 141 -8 15 -24 30 -35 34 -11 3 -20 10 -20 15 0 5 -26 35
-58 68 -31 32 -63 66 -70 75 -7 9 -25 19 -40 22 -128 27 -188 56 -209 100 -10
21 -28 38 -45 44 -16 6 -43 22 -60 36 -16 14 -38 25 -48 25 -10 0 -29 13 -42
29 -13 15 -49 47 -80 70 -32 23 -58 46 -58 50 0 8 -66 48 -176 109 -13 7 -36
29 -52 48 -24 30 -32 34 -74 34 -39 0 -50 4 -67 28 -11 15 -45 43 -76 62 -31
19 -74 50 -95 68 -46 40 -199 142 -212 142 -6 0 -21 9 -35 20 -14 11 -36 20
-49 20 -43 0 -149 46 -181 78 -29 29 -36 31 -90 29 -52 -2 -63 1 -92 26 -18
15 -41 27 -51 27 -11 0 -61 13 -112 30 -103 33 -158 75 -158 119 0 47 -12 71
-46 91 -38 24 -42 34 -48 116 -6 70 -17 100 -66 169 -25 35 -41 74 -54 130
-10 44 -24 92 -32 107 -8 14 -14 35 -14 46 0 11 -8 37 -17 58 -13 30 -16 65
-15 149 1 100 -1 114 -24 152 -18 31 -24 56 -24 100 0 48 -5 66 -30 103 -21
32 -30 57 -30 87 0 23 -4 45 -10 48 -5 3 -12 28 -16 56 -4 28 -17 66 -30 85
-25 37 -34 127 -14 139 16 10 12 61 -6 76 -33 27 -35 56 -8 114 22 45 25 63
20 112 -3 32 -9 103 -14 158 -8 92 -25 164 -44 191 -5 6 -15 35 -24 63 -16 54
-73 159 -97 179 -10 9 -13 27 -9 63 2 28 0 60 -6 72 -30 60 -39 97 -37 164 1
42 7 78 14 87 10 12 11 40 6 118 -6 88 -12 114 -42 176 -19 41 -32 81 -28 89
3 9 -2 38 -11 64 -15 40 -16 54 -6 86 11 35 10 40 -10 56 -12 10 -30 16 -39
14 -34 -9 -52 16 -50 69 1 27 3 74 4 104 2 30 6 67 11 82 7 23 3 32 -27 62
-46 45 -51 63 -32 116 21 59 20 68 -19 110 -28 31 -35 49 -41 98 -4 34 -4 66
-1 71 4 6 0 24 -9 41 -13 24 -14 48 -9 119 l7 88 -32 24 c-29 21 -31 26 -25
69 5 40 3 48 -21 73 -28 27 -59 35 -70 17 -3 -6 -15 -10 -25 -10 -24 0 -53
-41 -44 -63 6 -16 -1 -23 -85 -94 -24 -21 -46 -46 -50 -56 -4 -11 -1 -57 6
-103 12 -76 12 -89 -3 -119 -11 -23 -14 -46 -10 -67 17 -81 18 -109 4 -126
-27 -33 -41 -71 -35 -100 7 -32 -17 -148 -35 -169 -6 -8 -8 -31 -5 -55 6 -45
-24 -193 -43 -212 -15 -15 -12 -39 10 -87 26 -57 25 -101 -2 -166 -21 -51 -21
-57 -8 -131 17 -98 15 -113 -15 -174 -23 -45 -24 -52 -11 -82 12 -29 12 -43
-5 -112 -17 -70 -19 -104 -14 -290 4 -171 3 -222 -10 -270 -8 -32 -15 -90 -15
-130 0 -41 -6 -87 -15 -108 -13 -32 -13 -40 0 -74 12 -30 14 -49 6 -81 -6 -27
-6 -55 1 -78 7 -25 6 -49 -2 -78 -7 -24 -9 -52 -6 -63 4 -10 2 -32 -4 -47 -8
-22 -7 -31 6 -46 13 -15 14 -24 5 -49 -7 -23 -7 -54 0 -112 8 -53 8 -93 2
-117 -6 -20 -8 -94 -7 -166 5 -185 8 -225 23 -268 12 -36 11 -40 -18 -86 -30
-46 -32 -55 -37 -175 -4 -105 -2 -132 10 -152 9 -13 16 -43 17 -66 1 -78 24
-245 35 -259 16 -19 25 -108 29 -274 2 -77 4 -147 6 -155 1 -8 -1 -29 -5 -46
-6 -26 -1 -38 29 -74 24 -29 34 -48 29 -59 -4 -9 -8 -41 -9 -71 -1 -30 -9 -72
-18 -92 -15 -36 -18 -38 -63 -38 -28 0 -54 6 -64 15 -15 13 -20 11 -54 -24
-25 -25 -37 -45 -33 -55 7 -17 37 -22 37 -6 0 17 77 12 84 -5 7 -19 30 -19 46
0 25 31 49 17 81 -47 23 -45 30 -70 26 -94 -4 -24 0 -42 17 -66 12 -18 35 -74
51 -123 27 -87 52 -141 88 -196 13 -19 16 -37 11 -65 -4 -31 -1 -45 16 -67 40
-50 70 -118 70 -156 0 -20 7 -46 15 -57 8 -10 15 -40 15 -66 0 -26 5 -50 11
-54 7 -4 9 -24 5 -54 -5 -40 -2 -57 20 -101 15 -29 29 -72 32 -97 4 -37 10
-47 43 -68 43 -27 59 -51 59 -88 0 -27 65 -172 81 -182 12 -7 60 -99 77 -149
8 -22 32 -60 54 -85 85 -97 138 -164 138 -174 1 -6 14 -27 30 -46 20 -23 30
-45 30 -68 0 -18 6 -45 14 -60 8 -15 17 -44 21 -65 6 -28 16 -42 44 -58 61
-37 81 -61 117 -136 19 -39 34 -74 34 -79 0 -4 15 -26 34 -48 23 -28 38 -60
46 -99 12 -58 23 -75 138 -195 18 -19 40 -57 49 -86 9 -28 26 -60 38 -71 28
-26 69 -92 99 -158 13 -29 35 -66 50 -82 72 -80 113 -133 128 -165 23 -52 125
-162 173 -187 47 -24 93 -77 122 -138 20 -45 88 -136 109 -148 8 -4 29 -32 48
-62 19 -29 57 -79 85 -109 28 -31 51 -63 51 -71 0 -8 13 -24 30 -37 16 -12 30
-30 30 -41 0 -20 18 -46 90 -131 25 -29 56 -67 70 -84 52 -66 66 -81 108 -116
23 -19 64 -61 90 -93 25 -32 51 -62 58 -68 6 -5 22 -30 36 -55 15 -25 61 -81
103 -125 42 -44 89 -94 105 -112 15 -17 41 -38 57 -47 15 -8 39 -32 53 -51 62
-90 309 -350 362 -383 17 -10 36 -37 49 -69 20 -50 23 -53 57 -53 19 0 42 -7
51 -15 50 -47 145 -125 150 -125 4 0 17 -17 29 -37 11 -21 66 -78 122 -128 56
-49 116 -102 133 -117 16 -16 36 -28 43 -28 8 0 14 -4 14 -9 0 -11 135 -111
185 -136 25 -13 46 -34 60 -60 17 -33 28 -42 68 -53 32 -9 56 -24 75 -48 15
-19 32 -34 38 -34 6 0 21 -11 34 -25 14 -14 54 -40 90 -58 70 -34 80 -41 149
-102 25 -22 63 -48 84 -58 25 -11 43 -28 52 -50 11 -27 24 -36 78 -55 49 -18
76 -36 118 -78 44 -44 82 -69 197 -125 79 -38 160 -85 181 -104 21 -19 43 -35
49 -35 15 0 60 -28 108 -66 71 -58 198 -144 244 -165 123 -57 160 -81 234
-151 39 -37 75 -68 80 -68 5 0 24 -11 42 -25 18 -14 38 -25 44 -25 6 0 26 -11
43 -24 18 -14 55 -34 82 -46 31 -13 66 -40 92 -69 23 -26 80 -73 127 -105 47
-31 87 -65 90 -74 11 -34 64 -81 103 -91 23 -6 66 -34 103 -66 35 -30 69 -55
76 -55 7 0 34 -11 60 -25 26 -14 53 -25 61 -25 8 0 29 -11 46 -24 18 -14 43
-29 57 -35 14 -6 32 -15 40 -20 8 -4 33 -16 55 -26 22 -9 48 -21 58 -27 10 -5
32 -6 48 -3 21 5 39 0 65 -16 32 -19 41 -21 68 -11 47 17 66 15 107 -14 31
-22 50 -26 119 -28 l81 -3 52 -56 c49 -52 55 -56 112 -62 33 -3 79 -15 103
-25 23 -11 48 -20 55 -20 7 0 30 -12 51 -26 22 -15 53 -30 70 -35 17 -4 57
-15 89 -23 32 -8 69 -22 82 -30 13 -9 31 -16 40 -16 9 0 33 -9 55 -20 22 -11
55 -20 75 -20 20 0 45 -5 57 -11 11 -6 59 -17 107 -25 139 -22 166 -29 197
-52 16 -12 52 -25 79 -28 28 -4 58 -14 69 -23 12 -11 39 -16 85 -17 36 -1 78
-2 93 -3 16 -1 49 -19 80 -44 72 -58 129 -83 217 -96 128 -20 310 -74 381
-115 39 -22 57 -26 136 -26 50 0 110 -6 135 -14 24 -8 79 -22 122 -32 42 -9
82 -23 88 -30 6 -8 18 -14 27 -14 8 0 46 -11 84 -25 38 -14 83 -25 99 -25 39
0 119 -47 119 -69 0 -10 -15 -31 -34 -48 -27 -23 -47 -31 -94 -36 -32 -4 -83
-18 -113 -32 -30 -13 -65 -25 -79 -25 -14 0 -45 -10 -70 -22 -35 -17 -65 -22
-140 -24 -81 -1 -103 -5 -147 -28 -29 -14 -60 -26 -68 -26 -9 0 -20 -11 -26
-24 -15 -32 -54 -59 -108 -75 -47 -14 -96 -56 -121 -106 -10 -19 -29 -35 -55
-44 -22 -8 -42 -18 -45 -21 -11 -14 -50 -30 -74 -30 -30 0 -116 -75 -116 -101
0 -9 16 -33 35 -53 57 -61 42 -111 -40 -132 -36 -9 -52 -38 -59 -113 -5 -51
-2 -72 14 -108 26 -60 25 -97 -6 -185 -40 -111 -57 -124 -116 -88 -38 23 -85
26 -113 6 -11 -8 -39 -19 -62 -26 -24 -7 -50 -21 -59 -32 -10 -10 -31 -18 -48
-18 -17 -1 -42 -7 -56 -15 -14 -8 -37 -14 -51 -15 -15 0 -32 -7 -39 -15 -7 -8
-25 -15 -40 -15 -15 0 -62 -9 -105 -20 -43 -11 -100 -20 -127 -20 -28 0 -65
-8 -86 -19 -21 -11 -66 -24 -99 -30 -84 -16 -160 -39 -214 -66 -80 -41 -161
-65 -195 -59 -21 4 -46 -1 -75 -14 -24 -11 -71 -25 -104 -32 -33 -6 -78 -17
-100 -25 -22 -7 -67 -21 -100 -30 -33 -10 -71 -28 -86 -41 -14 -13 -33 -24
-43 -24 -10 0 -73 -27 -139 -61 -114 -56 -178 -80 -269 -99 -21 -4 -45 -13
-53 -20 -15 -12 -102 -46 -185 -71 -19 -6 -47 -20 -61 -30 -38 -27 -125 -59
-162 -60 -18 0 -44 -8 -58 -17 -111 -71 -169 -102 -192 -102 -31 0 -110 -35
-128 -56 -6 -8 -18 -14 -26 -14 -23 0 -88 -37 -114 -65 -13 -14 -60 -44 -104
-66 -44 -22 -89 -49 -100 -59 -27 -26 -88 -50 -124 -50 -25 0 -32 -5 -36 -27
-10 -48 -31 -77 -69 -96 -20 -11 -55 -41 -78 -68 -23 -27 -47 -49 -54 -49 -7
0 -36 -23 -64 -51 -33 -33 -61 -52 -83 -56 -23 -3 -38 -14 -50 -34 -9 -16 -31
-37 -48 -47 -18 -9 -49 -33 -70 -52 -123 -115 -177 -158 -247 -195 -66 -35
-81 -48 -104 -90 -17 -31 -28 -65 -28 -91 0 -25 -6 -47 -15 -54 -8 -7 -15 -17
-15 -23 0 -15 51 -67 66 -67 22 0 64 -42 64 -64 0 -27 -46 -72 -125 -120 -36
-21 -68 -49 -78 -69 -10 -18 -37 -42 -61 -56 -28 -14 -47 -32 -50 -47 -7 -26
-102 -128 -148 -158 -18 -12 -29 -29 -33 -56 -4 -21 -15 -46 -26 -56 -10 -9
-19 -30 -19 -45 0 -22 -16 -45 -62 -93 -35 -35 -76 -88 -91 -117 -50 -94 -78
-128 -125 -151 -25 -13 -57 -38 -71 -56 -14 -18 -40 -41 -58 -52 -19 -11 -35
-31 -39 -46 -9 -36 -45 -88 -90 -132 -20 -20 -43 -51 -51 -70 -8 -20 -53 -74
-100 -122 -46 -48 -93 -104 -102 -126 -10 -21 -28 -48 -41 -59 -12 -11 -30
-36 -40 -56 -10 -19 -33 -52 -52 -73 -18 -20 -39 -55 -48 -77 -11 -30 -25 -44
-60 -62 -33 -16 -46 -29 -48 -47 -2 -14 -10 -32 -18 -41 -28 -31 -84 -173 -84
-212 0 -30 -7 -45 -32 -70 -18 -18 -42 -50 -54 -72 -12 -22 -31 -58 -43 -80
-18 -34 -21 -49 -15 -98 6 -53 4 -60 -20 -84 -23 -23 -26 -34 -26 -95 l0 -70
-47 -44 c-27 -25 -56 -51 -65 -59 -15 -12 -17 -25 -12 -72 10 -89 -11 -202
-43 -235 -24 -25 -25 -30 -17 -80 9 -47 7 -57 -13 -90 -21 -34 -23 -49 -23
-185 0 -172 0 -180 -23 -253 -20 -68 -48 -100 -87 -100 -20 0 -30 -5 -30 -15
0 -8 5 -15 10 -15 6 0 10 -20 10 -45 0 -43 -8 -68 -56 -170 -12 -27 -32 -71
-43 -97 -11 -27 -24 -48 -28 -48 -4 0 -19 -16 -31 -35 -17 -24 -22 -42 -18
-62 7 -33 -3 -47 -69 -97 -44 -34 -85 -96 -85 -129 0 -16 -49 -115 -60 -122
-15 -9 -56 -94 -64 -132 -4 -18 -16 -43 -27 -57 -11 -14 -27 -54 -35 -88 -9
-35 -22 -77 -30 -95 -8 -17 -14 -46 -14 -65 0 -19 -4 -38 -10 -44 -5 -5 -12
-27 -14 -48 -6 -39 -18 -61 -48 -84 -35 -26 -41 -50 -22 -101 15 -43 15 -50 1
-78 -9 -17 -21 -53 -27 -79 -9 -43 -21 -74 -51 -136 -5 -10 -9 -36 -9 -58 0
-33 -6 -47 -31 -70 -28 -25 -31 -33 -26 -67 3 -21 8 -45 12 -54 4 -11 -6 -29
-29 -54 -33 -35 -36 -43 -36 -99 -1 -34 -7 -79 -15 -101 -8 -22 -15 -61 -15
-87 0 -55 -25 -169 -46 -209 -16 -32 -18 -77 -5 -112 7 -18 5 -32 -10 -56 -38
-63 -48 -105 -32 -143 11 -25 12 -42 4 -75 -6 -23 -11 -119 -11 -213 0 -134 3
-177 15 -201 11 -20 14 -41 9 -64 -4 -23 -1 -46 10 -69 14 -30 14 -38 0 -86
-14 -47 -14 -55 0 -85 9 -18 16 -49 16 -69 0 -20 7 -70 15 -110 11 -54 13 -81
5 -101 -17 -45 -11 -86 26 -190 33 -92 36 -108 36 -207 -1 -81 2 -109 13 -118
10 -9 15 -33 15 -79 1 -49 7 -78 25 -116 14 -27 25 -64 25 -81 0 -44 38 -162
54 -171 8 -4 24 -27 36 -51 19 -37 22 -53 17 -107 -6 -66 -6 -69 56 -176 23
-40 25 -50 16 -83 -15 -53 2 -98 43 -114 l31 -11 -6 -95 c-3 -52 -10 -104 -17
-115 -14 -27 -6 -52 27 -85 25 -25 31 -26 82 -20 41 5 64 14 86 34 17 15 40
33 53 39 19 10 22 19 22 76 0 61 14 95 41 95 12 0 149 130 149 142 0 5 13 40
30 78 25 58 30 82 30 152 1 82 14 153 38 195 6 12 12 42 12 67 0 24 5 57 11
73 6 15 13 59 14 97 3 50 10 82 29 118 17 33 26 66 26 97 0 26 9 72 20 104 11
31 20 78 20 104 0 27 7 66 15 88 8 22 14 60 15 85 0 25 7 56 15 70 8 14 14 33
15 42 0 10 20 37 44 62 28 27 49 60 56 85 6 22 15 43 20 46 6 3 10 22 10 41 0
19 14 76 30 126 17 50 30 98 30 107 0 9 4 21 9 27 17 18 71 123 71 137 0 8 6
20 14 26 8 7 19 52 26 113 7 56 21 120 31 142 10 23 19 53 19 68 0 15 5 30 10
33 6 3 10 16 10 28 0 12 6 34 14 48 22 42 39 157 33 222 -3 36 -1 70 5 82 19
35 128 154 149 160 10 4 19 15 19 25 0 10 30 51 68 91 42 47 80 100 101 146
31 66 33 75 24 120 -5 27 -6 58 -3 69 24 64 30 97 30 148 0 43 5 65 20 83 11
14 20 34 20 45 0 26 17 56 56 101 19 20 34 47 34 60 0 26 77 107 101 107 38 0
53 27 70 128 9 55 31 135 49 178 39 94 50 113 72 120 9 3 33 31 54 62 21 31
55 76 76 99 21 24 38 47 38 52 0 6 20 33 45 61 25 28 45 55 45 59 0 5 25 45
55 90 30 45 55 84 55 87 0 9 214 216 245 238 15 10 33 34 41 53 8 18 20 36 27
39 7 2 24 25 37 49 28 51 45 60 84 45 18 -7 33 -7 46 0 10 5 27 10 38 10 10 0
33 7 51 16 27 14 38 14 81 3 39 -10 53 -10 62 -1 7 7 23 12 36 12 16 0 43 17
73 45 30 28 57 45 73 45 14 0 28 4 31 10 3 5 24 14 47 21 55 14 229 129 295
193 86 84 112 110 136 134 44 46 63 62 73 62 16 0 144 140 144 158 0 18 41 62
58 62 6 0 27 20 48 45 20 25 48 51 62 58 14 6 35 30 47 52 45 85 54 96 154
205 48 52 58 70 54 90 -4 21 4 34 36 65 31 30 46 56 61 106 11 37 33 83 49
103 17 21 40 57 51 82 14 28 30 46 46 50 17 5 25 15 30 42 4 20 17 45 30 55
15 12 25 33 30 65 8 56 30 92 55 92 23 0 35 18 20 33 -21 21 -12 75 17 109 45
53 79 109 107 174 21 48 34 64 61 77 19 10 37 25 40 34 3 10 12 30 20 45 8 14
14 34 14 45 1 22 28 56 58 72 15 8 22 21 22 40 0 16 12 49 26 75 21 38 31 46
54 46 47 0 60 10 60 44 0 22 9 41 29 60 16 16 27 35 24 44 -7 27 23 97 65 154
21 29 47 67 56 83 16 29 70 102 100 137 8 9 22 30 30 47 19 36 62 71 87 71 13
0 26 16 41 46 12 26 45 72 73 103 29 31 55 69 59 86 4 16 24 48 44 70 20 23
46 57 57 75 11 19 30 50 42 70 12 19 27 44 33 55 6 11 24 28 41 37 18 11 29
25 29 39 0 29 34 83 66 104 14 9 32 31 39 48 18 41 234 263 270 277 14 5 40
10 56 10 17 0 47 11 67 25 20 14 48 25 62 25 14 0 59 13 100 29 41 16 104 35
138 42 44 8 82 24 120 51 32 21 73 41 93 44 26 4 40 14 48 30 10 22 27 30 81
36 15 2 33 16 47 38 12 19 27 40 34 45 6 6 68 67 137 136 96 96 138 130 174
144 29 11 58 32 78 56 36 46 56 48 110 14 22 -14 42 -25 46 -25 3 0 19 -9 34
-20 15 -11 44 -22 64 -24 19 -3 46 -11 58 -17 13 -7 60 -14 106 -16 46 -2 102
-10 126 -18 41 -14 102 -12 281 11 22 3 69 0 105 -8 77 -16 236 -15 340 2 41
7 107 12 145 11 42 -1 93 5 127 15 48 14 64 15 100 5 24 -7 131 -14 243 -16
110 -3 273 -7 362 -11 121 -5 174 -4 209 6 45 13 48 12 66 -9 10 -13 18 -36
18 -52 0 -24 4 -29 24 -29 25 0 36 -16 36 -54 0 -12 11 -33 25 -46 21 -20 25
-33 25 -82 0 -57 0 -58 36 -73 52 -22 94 -20 94 4 0 17 11 19 132 23 119 3
139 7 192 31 32 15 66 27 76 27 20 0 81 23 123 46 20 11 41 14 67 10 40 -6 90
6 90 23 0 22 47 81 68 87 17 5 31 -1 52 -21 52 -50 147 -42 165 14 8 26 30 30
84 14 61 -18 116 -17 132 3 11 14 27 16 86 11 41 -3 82 -12 95 -21 30 -21 51
-20 73 4 12 13 31 20 56 20 21 0 56 7 76 15 35 13 98 24 268 44 33 4 71 13 84
20 22 12 52 11 127 -4 26 -6 37 -1 68 25 32 29 41 32 76 26 21 -3 49 -1 62 4
15 7 53 8 113 2 50 -5 95 -6 100 -2 6 3 38 15 72 25 49 14 79 17 143 11 56 -5
87 -3 103 6 27 15 169 18 179 4 32 -47 -24 -140 -90 -151 -56 -10 -91 -25 -97
-44 -2 -9 -27 -31 -54 -50 -27 -18 -55 -46 -61 -62 -15 -35 -74 -89 -97 -89
-30 0 -138 -59 -173 -95 -19 -19 -38 -35 -44 -35 -27 0 -179 -85 -188 -106
-11 -23 -88 -84 -107 -84 -6 0 -18 -11 -27 -24 -8 -14 -31 -30 -50 -36 -19 -7
-47 -27 -62 -47 -15 -19 -44 -43 -66 -55 -21 -11 -57 -33 -79 -49 -22 -16 -47
-29 -56 -29 -26 -1 -47 -22 -68 -70 -12 -28 -34 -55 -57 -70 -21 -14 -45 -43
-56 -67 -13 -30 -30 -48 -59 -63 -24 -12 -52 -38 -67 -62 -15 -23 -30 -46 -35
-52 -5 -6 -20 -26 -35 -43 -14 -18 -35 -33 -46 -33 -30 0 -88 -63 -88 -95 0
-19 -14 -40 -49 -74 -40 -38 -49 -54 -54 -91 -4 -28 -12 -49 -23 -55 -42 -24
-76 -66 -119 -145 -26 -47 -54 -94 -64 -105 -10 -11 -24 -31 -31 -44 -7 -14
-25 -35 -39 -47 -15 -13 -44 -49 -63 -81 -32 -51 -35 -64 -31 -105 5 -40 2
-48 -16 -57 -22 -12 -61 -79 -61 -105 0 -8 -9 -30 -19 -48 -26 -45 -101 -345
-100 -398 1 -14 -11 -63 -25 -110 -18 -57 -27 -108 -27 -155 0 -38 0 -86 -1
-105 -1 -57 19 -154 41 -198 12 -23 21 -48 21 -55 0 -8 57 -66 126 -128 129
-116 163 -162 164 -222 0 -29 -16 -48 -96 -112 -20 -16 -52 -39 -69 -50 -18
-11 -45 -35 -60 -52 -15 -18 -33 -33 -40 -33 -7 0 -23 -21 -36 -47 -12 -27
-33 -62 -45 -80 -13 -17 -24 -38 -24 -45 0 -8 -6 -22 -14 -33 -7 -11 -28 -63
-46 -115 -18 -52 -39 -102 -46 -110 -7 -9 -20 -42 -29 -75 -8 -33 -25 -73 -38
-90 -21 -28 -22 -40 -23 -197 0 -100 -4 -172 -11 -180 -6 -7 -13 -38 -17 -68
-3 -30 -10 -78 -15 -107 -5 -28 -6 -64 -2 -80 4 -15 4 -44 0 -63 -4 -19 -10
-91 -14 -160 -3 -69 -12 -159 -20 -200 -32 -177 -36 -202 -29 -235 4 -22 2
-41 -6 -50 -10 -12 -10 -28 0 -79 6 -35 9 -75 4 -88 -4 -12 -7 -74 -8 -137 -1
-98 2 -118 18 -138 22 -29 19 -62 -14 -150 -22 -58 -23 -64 -7 -80 14 -16 16
-44 15 -188 0 -94 -5 -194 -11 -223 -7 -39 -7 -70 3 -120 11 -59 10 -72 -3
-98 -10 -20 -12 -35 -6 -45 14 -23 10 -156 -7 -222 -13 -52 -14 -73 -3 -142
15 -105 8 -146 -34 -180 -18 -14 -38 -30 -45 -36 -17 -14 -15 -54 4 -91 11
-22 14 -43 9 -74 -4 -30 -1 -52 9 -73 9 -16 16 -44 16 -62 0 -40 61 -115 128
-157 59 -38 75 -40 138 -19 57 20 100 12 111 -20 3 -10 14 -25 25 -33 18 -15
18 -18 -18 -84 -34 -64 -35 -71 -25 -112 6 -23 11 -58 11 -76 1 -18 7 -44 15
-58 8 -14 14 -45 15 -71 0 -25 5 -50 11 -56 6 -6 11 -67 12 -150 2 -123 0
-144 -18 -177 -19 -35 -19 -38 -2 -67 9 -17 17 -35 17 -41 0 -5 6 -24 14 -41
8 -18 16 -62 19 -100 3 -37 11 -75 18 -83 10 -12 13 -43 12 -101 -1 -65 3 -97
18 -136 11 -27 22 -71 24 -96 10 -100 17 -139 41 -221 14 -47 32 -110 40 -140
9 -30 20 -68 26 -85 14 -43 37 -164 37 -203 1 -18 11 -52 23 -75 37 -72 38
-76 38 -120 0 -23 6 -51 14 -62 7 -11 16 -38 20 -60 4 -22 16 -57 27 -79 22
-45 24 -88 8 -135 -9 -24 -9 -35 0 -44 17 -17 14 -132 -4 -147 -25 -20 -18
-63 14 -94 20 -20 31 -41 33 -65 3 -35 4 -36 53 -41 60 -6 71 -12 114 -67 30
-39 37 -43 78 -43 37 0 50 -5 73 -30 15 -16 38 -30 49 -30 12 0 43 -11 69 -25
26 -14 56 -25 68 -25 28 0 74 -44 74 -70 0 -30 16 -57 66 -113 23 -26 69 -86
101 -133 32 -46 72 -104 88 -128 17 -24 65 -81 108 -128 43 -47 87 -100 98
-117 10 -17 26 -34 34 -37 8 -3 17 -14 20 -25 4 -10 15 -19 25 -19 23 0 82
-49 149 -125 29 -33 62 -69 73 -80 12 -11 39 -39 61 -62 22 -24 45 -43 50 -43
4 0 29 -17 55 -38 26 -21 56 -43 68 -48 27 -12 124 -120 124 -138 0 -23 59
-66 90 -66 37 0 96 -51 105 -89 7 -33 54 -81 145 -148 46 -34 73 -63 90 -97
18 -35 36 -55 61 -65 19 -9 49 -26 66 -39 18 -12 56 -33 85 -46 30 -13 76 -46
104 -73 52 -51 83 -67 146 -78 21 -3 72 -28 113 -55 47 -32 85 -50 104 -50 21
0 39 -10 63 -35 18 -20 50 -40 71 -46 25 -6 41 -18 47 -33 12 -32 49 -59 101
-75 24 -7 80 -30 124 -51 44 -21 103 -48 130 -60 28 -12 74 -33 103 -47 29
-14 62 -23 72 -20 10 3 33 -5 51 -17 61 -40 74 -46 102 -46 16 0 56 -9 90 -19
86 -27 151 -41 193 -41 21 0 49 -9 66 -21 23 -17 38 -20 73 -16 35 5 48 2 71
-16 25 -19 41 -22 114 -22 62 0 92 -4 110 -17 21 -13 44 -15 135 -12 157 6
183 5 245 -7 30 -6 85 -9 122 -5 l67 6 9 -32 c7 -27 13 -33 33 -31 13 1 48 -3
76 -9 45 -10 58 -9 92 7 52 23 101 84 101 126 0 17 10 47 22 66 l21 35 -36 35
c-23 21 -37 43 -37 59 0 42 -37 103 -68 110 -15 4 -38 12 -52 19 -58 30 -141
65 -154 65 -7 0 -31 13 -53 29 -37 27 -79 51 -181 105 -20 11 -43 26 -51 33
-18 18 -79 49 -115 57 -25 6 -111 59 -126 77 -3 3 -19 13 -36 22 -18 9 -44 37
-58 62 -15 25 -40 55 -56 66 -16 12 -34 35 -41 51 -10 25 -77 88 -93 88 -4 0
-20 10 -37 22 -27 20 -29 26 -24 63 6 34 2 46 -22 77 -15 20 -36 50 -45 67
-10 18 -25 31 -36 31 -44 0 -68 66 -36 101 27 30 9 69 -49 108 -46 31 -55 33
-88 24 -30 -8 -41 -6 -59 7 -33 25 -18 64 36 96 53 31 61 44 56 90 -4 30 -10
38 -39 50 -18 8 -37 12 -42 10 -4 -3 -24 -1 -45 5 l-36 10 2 66 c3 62 1 68
-21 79 -20 10 -30 10 -52 -2 -16 -8 -37 -14 -48 -14 -31 0 -61 39 -61 79 0 28
-8 44 -35 69 -31 31 -38 33 -74 27 -32 -5 -43 -3 -60 14 -12 12 -21 28 -21 36
0 9 -6 26 -14 38 -8 12 -17 46 -21 75 -8 62 -44 112 -80 112 -36 0 -43 50 -14
92 37 54 82 98 100 98 30 0 70 42 63 66 -7 28 -54 54 -98 54 -38 0 -40 4 -36
62 1 15 -4 36 -9 47 -15 28 -76 43 -126 31 -22 -5 -66 -10 -97 -10 -31 0 -60
-5 -63 -10 -3 -6 -40 -10 -81 -10 l-74 0 0 49 c0 44 4 52 41 86 33 30 48 36
77 34 21 -1 43 -1 50 0 16 1 15 39 -2 70 -7 13 -11 32 -8 43 14 56 -64 64
-155 16 -74 -39 -90 -34 -112 35 -14 47 -28 57 -82 57 -33 0 -55 25 -62 73 -8
49 -19 63 -71 85 -65 29 -72 43 -53 105 27 87 29 104 17 127 -6 11 -19 24 -28
28 -50 21 -114 72 -140 112 -23 35 -31 60 -35 115 -9 101 -11 109 -35 140 -33
41 -27 66 17 80 48 15 128 74 133 97 6 33 -9 82 -32 103 -18 16 -25 17 -58 6
-20 -7 -64 -11 -97 -9 l-60 3 -3 52 -3 51 78 7 c105 9 109 10 131 53 18 36 21
37 75 37 63 0 66 2 84 53 18 52 16 86 -5 105 -30 27 -61 20 -108 -23 -48 -44
-56 -46 -98 -25 -40 21 -75 19 -121 -10 -51 -31 -71 -31 -120 3 -31 22 -39 34
-36 53 5 36 37 93 71 127 25 25 38 31 73 30 55 -1 157 11 182 22 11 5 40 18
66 29 25 11 63 36 84 56 22 20 50 38 62 41 34 9 53 47 53 109 0 50 -3 57 -25
67 -38 17 -80 0 -78 -32 3 -54 -17 -97 -61 -134 -56 -45 -101 -49 -137 -10
-22 23 -29 25 -74 20 -145 -19 -151 -19 -168 -1 -21 21 -22 83 -1 113 9 13 13
31 9 43 -4 13 1 37 14 62 11 23 23 72 26 109 6 62 10 70 48 108 23 22 53 43
67 47 14 3 64 26 111 50 82 42 86 45 84 76 -4 72 -28 84 -89 42 -20 -14 -45
-25 -55 -25 -11 0 -43 -13 -72 -28 -30 -15 -61 -26 -69 -25 -15 3 -40 44 -54
86 -10 30 4 67 25 67 10 0 23 9 29 20 7 14 21 20 45 20 26 0 45 10 85 48 l52
47 -20 45 c-11 25 -23 53 -26 63 -5 14 -14 18 -47 15 -25 -2 -45 -9 -49 -18
-5 -8 -14 -28 -21 -44 -26 -56 -33 -65 -56 -71 -30 -7 -91 37 -99 72 -11 41 5
106 33 135 20 21 36 28 65 28 54 0 83 17 158 94 36 37 70 64 77 61 7 -2 22 12
33 33 11 20 26 45 32 54 14 19 -2 79 -30 111 -20 22 -122 25 -122 3 0 -8 5
-18 10 -21 6 -3 17 -20 25 -36 14 -27 14 -31 -2 -54 -10 -13 -25 -25 -33 -25
-9 0 -33 -9 -55 -20 -22 -11 -47 -20 -57 -20 -9 0 -22 -8 -27 -17 -5 -10 -25
-26 -45 -37 -33 -18 -37 -18 -61 -2 -14 9 -25 21 -25 27 0 6 -14 24 -31 40
-24 22 -30 34 -24 52 3 12 10 50 14 83 5 49 13 69 39 98 18 20 32 42 32 48 0
21 51 78 69 78 10 0 32 13 47 28 16 16 49 40 74 54 25 15 63 48 85 74 95 113
97 132 23 170 l-52 26 -77 -81 c-43 -45 -82 -81 -87 -81 -5 0 -26 -13 -47 -30
-30 -24 -48 -30 -84 -30 -25 0 -52 4 -58 8 -8 5 -14 46 -17 118 -2 60 -7 125
-11 144 -5 28 -2 42 18 71 23 34 24 38 9 53 -21 20 -10 41 39 74 77 52 82 69
36 120 -31 34 -71 29 -103 -13 -31 -40 -49 -43 -85 -12 -21 18 -28 34 -33 83
-6 57 -4 65 35 143 42 85 43 98 17 164 -13 35 -28 34 -66 -3 -39 -37 -73 -30
-83 18 -3 17 -19 52 -35 79 -45 75 -46 79 -19 135 31 65 31 74 -5 122 -17 22
-30 45 -30 51 0 7 -13 29 -30 50 -18 22 -30 50 -30 67 0 16 -9 46 -20 68 -12
23 -20 59 -20 88 0 35 -5 54 -19 66 -13 12 -20 35 -23 75 -2 32 -14 76 -26 99
-13 26 -22 61 -22 88 0 60 -27 153 -53 181 -17 19 -19 31 -14 83 8 91 -19 160
-88 226 l-43 40 14 69 c11 50 12 77 4 99 -14 41 -12 88 5 110 21 28 19 73 -4
86 -47 24 -25 100 28 100 36 0 51 17 51 58 l0 34 47 -2 c73 -4 83 -2 91 18 4
10 17 32 30 48 13 16 33 45 45 64 19 29 38 40 117 70 113 42 126 49 185 100
25 22 52 40 59 40 26 0 123 56 161 93 21 20 55 42 76 47 21 6 41 15 44 20 9
15 101 60 122 60 10 0 36 11 59 24 23 13 56 26 75 30 19 4 52 20 74 36 22 16
65 43 96 59 31 17 78 48 104 71 25 22 54 40 64 40 10 0 29 8 42 18 27 21 123
68 157 77 12 4 22 11 22 16 0 6 21 19 48 31 26 11 54 26 62 33 8 7 31 18 51
24 20 6 47 23 59 36 13 14 27 25 30 25 4 0 38 20 76 45 37 25 73 45 79 45 6 0
29 18 50 40 24 24 48 40 62 40 36 0 98 36 111 64 6 14 33 36 62 51 28 14 69
44 90 65 22 22 49 40 59 40 11 0 40 14 64 30 25 17 48 30 53 30 13 0 144 92
157 110 7 10 28 28 49 42 20 14 54 39 75 56 22 17 57 38 79 47 23 9 65 42 95
73 33 35 83 72 129 97 53 28 82 52 102 81 20 30 38 44 69 53 27 8 62 33 103
72 56 55 160 119 192 119 8 0 21 11 30 24 37 58 140 94 214 76 39 -9 53 -9 77
3 15 8 71 22 123 32 64 11 116 28 159 51 38 20 78 34 99 34 20 0 54 8 76 18
48 22 146 52 169 52 8 0 39 21 69 48 62 55 113 92 127 92 41 0 225 145 332
262 106 116 123 137 147 184 11 22 34 55 50 72 25 27 37 32 76 32 38 0 48 4
62 26 9 14 31 32 48 41 17 9 58 40 92 69 42 38 70 54 89 54 15 0 63 -18 107
-40 56 -28 93 -40 123 -40 23 0 68 -8 101 -19 95 -30 344 -16 420 25 61 32
116 41 133 20 29 -34 72 -17 171 67 39 34 50 38 85 34 28 -3 53 2 85 18 25 13
81 37 125 55 44 17 92 38 107 46 41 22 108 17 208 -16 50 -17 98 -30 105 -30
7 0 18 -7 25 -15 18 -21 62 -19 83 5 22 26 39 25 66 -4 13 -13 51 -38 87 -56
72 -35 94 -60 94 -107 0 -22 6 -36 19 -43 25 -13 44 -72 36 -110 -8 -36 10
-57 60 -71 35 -10 185 -145 185 -167 0 -6 17 -20 39 -31 41 -22 91 -74 91 -96
0 -20 40 -45 71 -45 14 0 48 -11 75 -25 27 -14 54 -25 61 -25 6 0 21 -16 33
-35 49 -79 110 -88 169 -23 35 37 42 40 72 34 18 -3 42 -14 54 -24 30 -27 100
-45 124 -32 28 15 63 12 89 -6 17 -11 34 -14 60 -10 20 4 107 11 192 16 85 5
170 15 188 21 20 6 60 8 100 4 37 -3 101 -1 142 5 66 10 230 21 315 21 17 0
67 -3 112 -7 53 -4 87 -3 95 4 9 7 107 9 298 5 462 -8 510 -7 616 7 83 11 127
11 240 1 77 -7 212 -16 300 -21 89 -4 167 -11 174 -15 10 -6 96 -22 231 -42
20 -3 56 2 82 11 50 17 247 16 270 -1 6 -5 38 -16 70 -23 44 -10 63 -11 82 -2
14 7 41 12 60 12 19 0 37 4 40 10 10 17 35 11 69 -15 56 -43 135 -29 159 27 8
18 41 62 74 98 59 63 110 91 188 102 12 2 27 18 37 40 14 30 24 37 57 43 21 3
47 16 58 27 22 25 73 48 107 48 21 0 25 -5 28 -37 3 -42 28 -55 56 -30 26 23
144 32 184 14 18 -8 48 -15 67 -16 54 -2 124 -38 144 -72 9 -17 17 -50 17 -74
0 -36 7 -52 48 -101 26 -32 55 -66 64 -76 10 -9 28 -39 42 -66 14 -27 47 -69
75 -93 29 -26 59 -65 71 -91 19 -44 23 -47 68 -54 55 -8 62 -15 62 -67 0 -34
7 -46 59 -95 145 -139 200 -185 255 -213 74 -37 86 -47 102 -84 7 -18 28 -38
51 -50 21 -11 58 -37 82 -57 24 -21 51 -38 60 -38 9 0 25 -6 36 -13 11 -7 70
-33 130 -56 183 -71 208 -82 252 -107 41 -24 48 -25 198 -20 109 2 160 8 173
17 45 35 184 183 192 204 7 18 17 25 37 25 38 0 135 -52 150 -81 9 -18 20 -23
55 -24 45 0 62 -14 153 -123 15 -18 53 -48 85 -66 32 -19 76 -52 98 -73 38
-37 157 -103 185 -103 7 0 24 -11 37 -25 12 -13 60 -43 105 -65 45 -22 95 -54
110 -70 16 -17 34 -30 40 -30 6 0 26 -13 45 -30 19 -16 40 -29 45 -30 44 -2
86 -24 106 -56 12 -20 37 -42 55 -50 18 -8 36 -19 40 -25 3 -6 32 -22 63 -36
84 -36 135 -63 146 -76 19 -22 70 -53 117 -71 25 -9 54 -28 62 -41 9 -14 35
-33 59 -44 24 -11 49 -31 57 -46 8 -14 36 -43 63 -62 28 -20 69 -55 92 -77 23
-23 62 -54 85 -71 24 -16 60 -47 81 -68 22 -21 68 -53 104 -72 36 -19 94 -57
129 -84 48 -38 72 -51 97 -51 19 0 66 -12 104 -26 39 -14 87 -25 108 -24 25 0
60 -10 99 -30 34 -16 67 -30 74 -30 7 0 42 -32 77 -71 62 -68 67 -71 100 -65
19 3 42 15 52 26 14 16 26 18 64 13 64 -8 75 -16 99 -66 22 -47 40 -57 102
-57 40 0 70 -27 70 -63 0 -24 -54 -87 -75 -87 -6 0 -20 -9 -31 -21 -10 -12
-35 -29 -54 -39 -49 -26 -120 -94 -120 -115 0 -20 -27 -44 -51 -45 -8 0 -37
-26 -64 -57 -68 -80 -77 -91 -137 -153 -29 -31 -72 -81 -96 -113 -27 -35 -51
-57 -63 -57 -10 0 -19 -5 -19 -11 0 -15 -111 -129 -126 -129 -19 0 -44 -40
-44 -70 0 -14 -7 -35 -15 -47 -9 -12 -17 -44 -19 -70 -4 -52 -23 -135 -50
-223 -10 -30 -22 -73 -28 -95 -6 -22 -17 -49 -23 -60 -34 -58 -67 -224 -69
-350 -1 -48 1 -53 56 -108 63 -65 74 -87 58 -117 -8 -14 -21 -20 -48 -21 -66
-2 -86 -12 -93 -47 -9 -42 -66 -95 -94 -87 -11 3 -33 8 -49 12 -17 3 -35 18
-45 34 -9 16 -28 34 -43 40 -21 8 -29 21 -34 48 -3 20 -16 54 -29 76 -12 22
-30 65 -41 95 -10 30 -25 63 -33 72 -8 10 -13 33 -13 50 3 64 -30 169 -65 205
-48 49 -56 44 -49 -34 4 -38 8 -106 11 -153 2 -62 8 -87 19 -96 9 -6 16 -16
16 -22 0 -6 11 -24 25 -40 19 -23 23 -36 18 -65 -4 -27 0 -43 16 -65 11 -17
21 -39 21 -50 0 -47 15 -83 52 -128 27 -33 38 -55 36 -73 -3 -26 -3 -26 -100
-26 -53 0 -100 3 -103 7 -4 4 -11 24 -16 45 -28 127 -35 151 -45 164 -6 8 -15
32 -21 54 -39 143 -57 192 -80 213 -32 29 -51 27 -92 -8 -41 -35 -38 -64 13
-114 18 -19 44 -62 59 -97 14 -35 32 -77 41 -94 9 -16 16 -38 16 -47 0 -10 11
-47 25 -84 26 -68 32 -137 15 -164 -7 -11 -32 -16 -93 -18 -79 -4 -86 -2 -101
20 -9 12 -19 40 -22 60 -4 24 -18 49 -40 70 -19 18 -34 43 -34 54 0 20 -20 41
-115 117 -19 16 -35 34 -35 40 0 19 -51 57 -76 57 -18 0 -28 -9 -39 -37 -23
-54 -16 -83 25 -111 43 -28 54 -38 108 -95 62 -67 57 -107 -18 -160 -38 -27
-71 -22 -102 15 -23 29 -29 31 -55 23 -24 -9 -28 -16 -31 -53 -2 -30 -9 -45
-24 -53 -23 -12 -66 -4 -90 18 -25 23 -69 19 -90 -7 -34 -43 -14 -119 33 -120
34 -1 51 -28 56 -92 5 -60 4 -64 -26 -92 -17 -17 -31 -37 -31 -47 0 -9 -7 -22
-15 -29 -9 -8 -15 -29 -15 -56 0 -23 -5 -46 -10 -49 -18 -11 -117 15 -136 37
-27 30 -85 64 -121 72 -25 6 -36 3 -53 -14 -44 -44 12 -126 96 -141 61 -11 84
-37 84 -93 0 -45 13 -66 42 -66 14 0 18 -8 18 -34 0 -18 -7 -39 -14 -46 -8 -6
-16 -33 -18 -58 -3 -42 -6 -47 -29 -50 -17 -2 -37 6 -58 23 -20 17 -50 29 -83
35 -29 4 -74 17 -100 29 -39 18 -56 20 -95 14 -45 -8 -48 -10 -62 -55 -22 -72
-12 -78 121 -78 124 0 169 -16 209 -72 13 -18 30 -39 37 -47 11 -11 13 -29 8
-69 -7 -63 -16 -81 -64 -141 l-35 -43 -56 6 c-106 12 -151 23 -174 43 -59 54
-126 65 -169 26 -30 -27 -17 -73 22 -73 9 0 21 -5 27 -11 7 -7 35 -21 63 -33
35 -14 57 -31 68 -51 10 -16 23 -34 30 -38 17 -11 15 -72 -3 -87 -11 -9 -39
-11 -106 -5 -86 6 -92 5 -115 -16 -13 -12 -24 -27 -24 -33 0 -6 -10 -17 -21
-25 -19 -11 -21 -19 -16 -72 7 -64 2 -89 -18 -89 -7 0 -22 -15 -32 -32 -14
-24 -32 -37 -66 -46 -51 -15 -80 -41 -71 -65 3 -8 23 -27 45 -41 21 -15 39
-32 39 -40 0 -7 3 -27 6 -43 5 -25 0 -36 -28 -63 -18 -17 -56 -42 -84 -55 -53
-24 -64 -38 -64 -83 0 -19 9 -32 29 -43 43 -25 45 -61 4 -93 -18 -15 -33 -36
-33 -48 0 -20 -4 -20 -76 -16 -72 5 -76 4 -92 -19 -11 -19 -13 -29 -5 -42 6
-9 14 -32 18 -50 4 -18 18 -57 32 -87 23 -51 24 -56 9 -79 -20 -31 -20 -49 0
-65 25 -22 14 -72 -19 -88 -16 -8 -35 -11 -43 -8 -8 3 -29 36 -46 73 -18 38
-41 75 -53 84 -11 9 -36 47 -55 85 -87 169 -203 214 -225 87 -9 -57 6 -83 49
-83 38 0 83 -38 92 -79 8 -35 121 -268 134 -276 18 -11 11 -44 -12 -56 -13 -6
-32 -20 -44 -31 -11 -10 -43 -27 -70 -37 -27 -10 -56 -22 -65 -25 -21 -9 -78
38 -95 79 -7 18 -20 37 -28 45 -9 7 -16 18 -16 25 0 6 -19 27 -42 46 -79 63
-142 109 -151 109 -5 0 -22 11 -39 25 -42 35 -124 36 -157 1 -34 -36 -26 -85
18 -111 18 -11 52 -36 75 -55 51 -44 98 -70 124 -70 11 0 27 -11 35 -24 9 -13
28 -36 42 -52 41 -44 34 -77 -26 -124 -87 -69 -115 -65 -141 23 -7 22 -19 41
-27 44 -9 3 -39 16 -68 29 -28 13 -55 24 -59 24 -4 0 -16 9 -28 20 -55 53
-104 89 -129 95 -15 4 -30 11 -33 16 -3 5 -22 9 -43 9 -28 0 -44 -7 -65 -29
-36 -37 -32 -68 14 -98 19 -13 50 -37 67 -53 18 -17 39 -30 47 -30 9 0 23 -11
32 -24 8 -14 31 -34 50 -45 30 -18 34 -25 34 -64 0 -47 -13 -67 -45 -67 -12 0
-30 -7 -41 -15 -29 -22 -60 -18 -78 9 -8 14 -46 39 -83 58 -38 18 -77 41 -88
51 -35 32 -79 54 -118 60 -32 5 -43 1 -70 -23 -28 -25 -33 -36 -37 -91 -4 -52
-9 -65 -31 -81 -26 -20 -26 -20 -69 2 -27 14 -51 19 -67 16 -13 -4 -44 0 -70
9 -61 21 -107 7 -122 -36 -11 -32 0 -69 20 -69 5 0 20 -11 32 -24 12 -13 48
-31 79 -40 94 -27 153 -95 96 -109 -13 -3 -50 -16 -83 -28 -48 -18 -82 -22
-173 -23 -100 -1 -115 -3 -128 -20 -8 -11 -14 -23 -14 -26 0 -3 -15 -11 -34
-18 -36 -13 -50 -39 -60 -107 -4 -30 -14 -48 -42 -71 -53 -45 -152 -92 -208
-98 -29 -4 -62 -16 -80 -29 -35 -27 -88 -47 -122 -47 -12 0 -35 -11 -51 -24
-15 -13 -46 -32 -68 -43 -22 -11 -53 -28 -70 -37 -16 -9 -37 -16 -45 -16 -8 0
-28 -13 -45 -29 -19 -19 -52 -36 -88 -45 -32 -8 -80 -31 -106 -51 -27 -19 -54
-35 -59 -35 -6 0 -28 -11 -48 -25 -20 -13 -52 -27 -73 -31 -20 -3 -46 -12 -58
-20 -12 -8 -34 -14 -48 -14 -34 0 -80 -24 -134 -71 -59 -53 -155 -99 -203 -99
-30 0 -46 -7 -68 -29 -27 -26 -28 -32 -19 -67 16 -63 30 -83 68 -96 47 -16
278 -23 416 -12 39 2 115 7 170 9 55 2 105 4 112 4 6 1 15 10 18 21 4 11 20
27 37 36 25 13 38 14 67 5 38 -11 107 -5 117 10 3 5 22 9 43 9 20 0 46 7 57
15 14 10 47 14 117 15 71 0 104 4 121 15 22 15 75 27 174 42 23 3 45 10 48 14
3 5 17 9 32 9 15 1 38 7 52 15 14 8 45 15 70 15 25 0 63 7 85 15 22 8 74 14
115 15 41 0 97 7 124 15 27 8 77 15 112 15 68 0 167 18 266 49 62 19 201 38
245 33 21 -2 172 53 268 98 22 10 59 23 81 29 23 6 47 18 54 26 8 9 30 15 59
15 25 1 57 7 71 15 14 8 48 14 76 15 30 0 68 8 95 21 47 23 124 46 199 58 25
4 67 17 94 29 27 12 55 22 63 22 7 0 16 7 19 15 4 8 14 15 23 15 10 0 26 7 37
15 10 8 33 15 51 15 52 0 136 21 169 41 17 10 42 19 55 19 13 0 35 9 49 20 14
11 28 20 32 20 4 0 33 12 64 26 42 19 65 24 90 19 26 -4 41 -1 63 16 35 26 68
22 177 -22 116 -46 266 -43 366 7 26 13 54 24 63 24 8 0 23 4 33 9 57 31 147
71 160 71 19 0 109 61 140 94 12 13 37 28 54 31 17 4 52 18 78 31 26 13 53 24
58 24 6 0 42 30 80 67 52 51 71 77 76 104 7 42 52 87 116 119 45 22 89 65 90
87 0 17 41 43 67 43 31 0 58 16 123 74 30 26 65 57 78 68 12 11 22 28 22 38 0
10 33 60 74 112 40 51 87 118 103 149 16 30 43 70 59 88 71 81 231 241 240
241 6 0 21 11 34 25 13 14 30 25 38 25 25 0 70 56 85 106 8 27 24 65 36 86 26
43 71 180 71 215 0 35 37 102 64 114 17 8 29 8 44 0 28 -15 72 -13 102 4 14 8
41 14 60 15 49 0 194 115 216 171 10 23 41 60 80 94 47 41 64 63 64 82 0 26
64 168 81 178 5 4 9 20 9 37 0 16 9 41 20 55 11 14 29 54 40 89 10 35 26 77
35 93 8 17 15 39 15 49 0 10 9 30 21 43 25 29 39 62 39 93 0 13 10 43 23 67
36 69 37 76 15 104 -21 27 -20 29 13 84 11 18 26 50 33 71 15 44 63 110 81
110 16 0 72 72 90 114 8 19 12 47 9 63 -5 23 2 37 34 74 22 25 45 63 51 86 6
22 19 51 30 64 10 13 21 46 25 73 6 34 16 56 36 75 33 31 42 58 46 131 3 57
15 136 33 205 5 22 17 72 26 110 9 39 21 75 25 80 10 12 27 103 40 210 4 39
13 84 18 100 30 86 36 204 40 735 2 300 0 623 -3 718 l-7 173 -30 6 c-16 3
-32 12 -35 20 -6 16 11 103 33 172 17 50 10 103 -17 143 -13 18 -18 41 -17 75
2 64 -11 210 -24 251 -5 18 -13 65 -18 105 -5 39 -18 128 -29 197 -11 69 -23
166 -27 215 -4 50 -13 102 -20 117 -8 15 -14 40 -14 56 0 16 -7 45 -14 64 -8
19 -13 44 -10 55 4 14 -7 39 -30 73 -20 28 -41 71 -47 93 -14 55 -50 118 -114
197 -29 36 -69 92 -90 125 -53 86 -78 110 -185 180 -73 48 -125 93 -223 198
-96 102 -148 149 -205 184 -96 59 -245 174 -286 222 -17 19 -57 64 -89 100
-32 35 -64 79 -72 97 -8 19 -27 40 -47 50 -42 21 -78 54 -78 70 0 20 -41 44
-76 44 -37 0 -51 14 -60 59 -6 26 -16 36 -60 57 -51 24 -54 28 -54 61 l0 36
132 -7 c73 -3 147 -12 165 -18 26 -9 43 -8 92 5 34 9 74 17 90 17 16 0 42 5
56 10 19 7 54 7 111 0 70 -9 89 -8 113 5 17 8 41 15 54 15 14 0 40 6 58 13 22
9 83 15 173 16 77 0 154 5 170 11 51 15 267 27 309 16 28 -8 49 -6 90 6 73 24
123 33 192 34 33 1 85 7 115 13 30 6 102 16 160 22 58 6 150 22 204 35 76 18
127 24 218 24 66 0 128 5 139 10 10 6 38 15 61 20 58 12 105 30 151 59 27 17
45 21 65 16 64 -15 85 -17 105 -8 47 22 136 43 180 43 36 0 57 7 89 30 23 17
54 30 70 30 15 0 51 11 80 25 35 17 69 25 105 25 42 0 70 8 126 36 75 39 138
60 221 75 27 4 54 13 60 19 5 5 24 10 42 10 35 0 231 93 297 141 32 23 51 29
92 29 37 0 75 10 126 31 70 30 187 60 309 78 30 5 74 14 98 20 29 8 53 9 77 2
30 -8 37 -7 45 9 17 31 95 60 163 60 63 0 129 15 162 37 11 7 37 13 59 13 23
0 66 13 103 30 34 17 79 30 98 30 87 0 129 18 218 95 48 41 92 75 99 75 27 -1
71 -52 80 -92 5 -23 17 -53 28 -68 11 -15 24 -59 30 -101 5 -41 15 -99 22
-129 23 -113 12 -348 -22 -460 -5 -19 -10 -49 -10 -67 0 -22 -6 -33 -19 -38
-14 -4 -20 -19 -26 -60 -3 -30 -17 -75 -30 -101 -25 -49 -25 -64 2 -64 12 0
14 -8 9 -43 -3 -23 -11 -88 -18 -144 -10 -80 -18 -106 -35 -125 -18 -19 -23
-36 -23 -80 0 -37 -5 -60 -15 -68 -8 -7 -15 -21 -15 -32 0 -11 -6 -29 -12 -41
-7 -12 -14 -47 -15 -77 -3 -80 -18 -182 -31 -207 -7 -12 -12 -35 -12 -52 0
-33 -15 -107 -32 -156 -17 -50 -28 -115 -32 -189 -3 -39 -10 -154 -16 -256 -7
-117 -16 -197 -26 -218 -17 -39 -19 -128 -3 -138 7 -4 9 -30 5 -78 -4 -39 -2
-85 3 -103 7 -23 5 -50 -6 -95 -17 -71 -12 -263 8 -314 6 -16 12 -101 14 -194
2 -91 7 -183 12 -205 5 -23 5 -57 0 -81 -8 -36 -6 -47 16 -85 20 -35 28 -63
31 -120 2 -40 9 -87 15 -103 7 -16 14 -79 16 -140 2 -61 7 -124 10 -141 4 -16
13 -64 21 -105 12 -58 20 -79 39 -93 17 -12 25 -28 25 -48 0 -29 0 -29 -63
-29 -35 0 -68 5 -74 11 -16 16 -73 -71 -73 -113 0 -18 4 -38 8 -43 15 -22 62
-45 104 -51 81 -13 158 -68 158 -115 0 -9 -11 -31 -25 -47 -43 -51 -47 -76
-25 -142 35 -104 27 -120 -61 -120 -36 0 -64 -22 -102 -80 -19 -27 -23 -75 -7
-85 5 -3 35 -10 67 -15 33 -6 61 -16 65 -25 5 -8 22 -22 38 -30 17 -9 36 -31
44 -50 8 -19 21 -35 29 -35 15 0 49 -34 66 -67 18 -34 -6 -78 -84 -156 l-67
-68 8 -42 c4 -23 9 -60 9 -82 1 -22 3 -46 4 -53 0 -7 26 -24 56 -38 31 -13 58
-31 61 -39 4 -9 -6 -34 -21 -56 -17 -26 -29 -60 -32 -95 -4 -39 -10 -55 -23
-59 -10 -3 -27 -29 -39 -58 -12 -29 -26 -60 -31 -69 -14 -24 -12 -50 5 -72 8
-10 17 -39 21 -65 4 -29 16 -54 30 -68 34 -31 31 -70 -8 -110 -31 -32 -32 -36
-31 -110 1 -55 -3 -85 -15 -105 -17 -29 -17 -25 23 -233 42 -220 48 -275 36
-301 -6 -14 -14 -53 -18 -87 -6 -59 -5 -62 24 -86 25 -21 29 -30 22 -49 -5
-12 -22 -30 -39 -40 -16 -9 -30 -20 -30 -24 0 -4 -13 -21 -30 -38 -38 -39 -41
-90 -7 -112 21 -14 22 -23 22 -124 l0 -108 -30 -16 c-43 -22 -46 -28 -41 -100
10 -132 14 -145 67 -194 27 -25 49 -50 49 -56 0 -5 -31 -44 -70 -86 -38 -41
-70 -81 -70 -87 0 -18 -48 -105 -71 -128 -10 -10 -19 -27 -19 -36 0 -26 30
-106 45 -123 22 -25 24 -216 3 -260 -9 -19 -23 -64 -32 -98 -16 -69 -28 -88
-56 -97 -23 -7 -27 -17 -40 -117 -16 -116 -15 -138 10 -186 17 -32 21 -51 16
-78 -4 -19 -2 -50 4 -69 9 -26 8 -39 -1 -57 -7 -13 -12 -37 -11 -54 2 -31 -36
-111 -63 -134 -10 -9 -13 -24 -9 -54 6 -40 4 -45 -26 -66 -27 -19 -31 -28 -27
-54 2 -17 7 -38 11 -47 8 -18 -37 -79 -58 -79 -43 0 -66 -101 -50 -223 6 -46
9 -50 51 -68 25 -10 55 -19 68 -19 12 0 39 -7 60 -15 22 -10 58 -15 88 -13 49
3 53 5 70 39 9 20 44 60 77 88 47 41 63 62 74 100 32 107 86 177 181 232 28
15 68 52 90 80 22 29 47 59 55 68 13 15 38 67 68 143 6 14 23 34 39 43 57 34
104 131 73 150 -15 10 -12 72 6 108 9 18 43 62 75 98 32 36 61 77 64 91 4 14
19 35 35 46 15 12 34 38 41 59 6 21 22 61 35 90 13 28 24 57 24 63 0 6 11 28
25 48 14 20 25 44 25 53 0 9 9 24 19 33 11 10 22 30 26 44 4 15 12 34 19 42 7
8 34 74 60 145 26 72 57 150 68 175 11 25 23 75 26 113 2 37 9 70 13 73 5 3 9
15 9 27 0 13 6 31 13 42 19 29 35 91 42 170 4 39 13 80 20 91 8 12 21 50 30
85 9 35 21 68 26 73 5 6 9 24 9 40 0 17 7 44 15 60 8 15 15 41 15 56 0 15 13
53 30 84 27 53 29 61 23 140 -6 82 3 126 40 204 9 20 7 31 -11 62 -17 30 -22
55 -22 109 l0 71 29 0 c39 0 61 9 61 26 0 9 -11 14 -30 14 -27 0 -30 3 -30 34
0 39 19 59 52 54 35 -5 38 51 4 87 -35 38 -33 60 13 105 39 38 61 99 61 166 0
13 7 41 15 61 8 19 15 48 15 64 0 15 5 31 10 34 6 3 10 24 10 46 0 22 8 54 17
72 23 45 32 113 20 159 -9 36 -7 43 22 83 17 24 35 65 40 92 13 65 20 83 48
117 13 15 33 49 44 75 11 25 29 62 40 82 10 20 19 51 19 68 0 23 10 42 35 68
20 20 40 54 45 77 6 23 19 66 29 96 10 30 22 70 25 88 3 19 14 46 25 60 40 58
81 149 81 180 0 18 6 45 14 60 7 15 16 59 18 98 4 52 11 80 27 102 13 19 21
45 21 70 0 31 8 49 35 82 19 22 37 58 41 78 4 20 34 100 67 177 33 77 60 152
59 168 0 15 5 45 13 66 7 21 11 49 8 64 -6 28 27 91 51 100 27 11 76 112 76
159 0 24 6 69 14 99 8 31 12 73 9 97 -5 35 -2 47 17 67 18 19 21 30 15 52 -4
15 -8 92 -9 170 -2 119 -5 145 -20 161 -25 29 -31 85 -12 123 21 43 20 66 -4
79 -26 14 -25 37 2 80 13 21 25 61 30 100 4 36 10 82 14 102 4 26 1 52 -10 79
-18 45 -14 113 9 159 9 18 11 51 5 125 -8 105 -14 129 -37 157 -10 11 -16 49
-19 120 -2 57 -5 110 -6 118 -2 8 1 52 5 97 7 66 5 87 -7 112 -10 19 -16 56
-16 101 0 59 -4 77 -24 103 -28 39 -49 103 -71 217 -9 47 -25 109 -36 139 -12
33 -19 76 -19 110 4 124 -21 395 -40 436 -31 69 -32 97 -10 178 18 64 19 83
10 118 -17 62 -20 150 -8 186 9 25 8 43 -7 90 -9 32 -25 94 -34 138 -10 44
-26 96 -36 115 -30 55 -44 101 -51 160 -4 34 -16 69 -32 93 -20 30 -25 48 -23
96 1 40 -3 62 -13 70 -8 7 -17 35 -21 64 -4 29 -16 63 -26 76 -11 13 -19 31
-19 41 0 18 -54 125 -76 150 -7 8 -17 34 -22 58 -6 23 -18 55 -28 70 -36 52
-53 103 -64 185 -13 93 -68 221 -160 368 -152 244 -285 358 -536 462 -76 32
-205 91 -285 132 -81 41 -157 75 -169 75 -12 0 -35 11 -52 25 -21 17 -41 25
-69 25 -22 0 -47 4 -57 9 -9 5 -32 15 -50 21 -18 7 -43 25 -55 40 -14 17 -38
30 -63 34 -21 4 -61 18 -89 31 -27 13 -77 31 -110 41 -33 10 -67 24 -76 31 -8
7 -23 13 -31 13 -9 0 -36 11 -59 25 -24 14 -60 25 -80 25 -19 0 -44 7 -55 15
-10 8 -34 15 -52 15 -18 0 -49 7 -69 15 -19 8 -45 15 -57 15 -12 0 -28 6 -34
12 -7 7 -45 16 -85 19 -40 4 -101 14 -137 23 -36 9 -85 21 -110 25 -25 5 -61
14 -80 21 -129 47 -167 60 -183 60 -26 0 -67 45 -67 75 0 17 16 41 50 75 42
42 57 50 88 51 60 1 232 53 232 70 0 4 35 15 78 24 42 9 91 21 107 27 17 5 46
14 65 18 19 5 60 17 90 29 30 11 73 24 95 30 22 5 65 19 95 32 30 12 73 23 96
25 52 3 134 30 159 54 24 22 99 50 137 50 25 0 58 22 58 39 0 3 15 15 33 25
17 11 49 34 70 53 20 18 43 33 50 33 22 0 76 30 89 49 22 30 54 41 120 41 66
0 88 10 88 41 0 26 14 31 117 45 58 7 100 18 112 28 9 9 34 16 53 16 26 0 43
7 59 25 13 14 40 34 60 45 19 10 41 26 48 34 14 17 71 45 156 76 28 10 95 24
150 30 76 9 109 18 136 36 19 13 50 24 67 24 18 0 49 7 69 15 19 8 44 15 55
15 20 0 47 10 146 56 29 13 61 24 70 24 10 0 33 13 51 29 20 18 58 36 99 47
37 10 83 28 102 40 20 12 50 25 68 28 19 5 43 22 61 45 22 28 66 56 163 106
73 37 144 76 158 85 14 9 55 29 93 45 37 15 81 41 97 57 16 15 35 28 41 28 9
0 84 53 99 70 3 3 22 16 43 29 22 14 40 33 44 49 10 41 33 72 54 72 10 0 38 9
61 21 55 27 53 25 141 85 74 51 141 77 226 89 24 3 56 14 70 24 14 10 46 29
71 41 25 13 49 28 55 35 5 6 36 20 69 31 56 18 96 51 96 80 0 7 21 20 48 30
26 10 67 35 91 56 24 21 49 38 56 38 6 0 20 9 29 19 10 11 37 29 59 39 23 11
57 34 74 51 18 17 40 31 48 31 22 0 66 28 92 58 18 22 33 26 95 31 73 6 73 6
76 37 4 39 44 64 105 64 27 0 52 7 65 17 12 10 33 27 47 38 15 11 39 32 53 46
35 34 77 55 129 64 32 5 51 16 75 44 18 21 47 46 64 56 18 10 39 33 48 51 9
20 31 41 54 53 21 10 56 37 78 59 45 43 127 102 143 102 21 0 71 53 79 83 6
25 20 38 59 59 28 16 63 44 77 63 15 19 40 42 56 50 15 8 37 30 49 48 22 36
80 79 142 108 19 9 45 28 56 43 12 14 26 26 32 26 5 0 56 35 112 78 56 42 131
98 167 124 36 27 89 69 117 95 29 27 68 57 86 68 19 11 40 32 47 47 11 24 81
88 96 88 3 0 39 32 78 70 40 39 80 70 90 70 9 0 21 6 25 14 9 15 66 46 86 46
7 0 28 11 47 25 19 14 41 25 50 25 9 0 34 16 56 35 40 36 92 65 116 65 7 0 44
30 81 68 134 133 134 133 92 172 -23 22 -25 30 -27 148 l-3 126 -31 8 c-18 4
-34 15 -37 23 -7 17 21 105 33 105 5 0 29 26 53 58 25 31 55 63 68 70 13 7 47
43 74 79 84 111 136 163 215 217 87 58 262 238 380 390 51 66 94 113 248 271
58 61 120 133 137 162 54 93 123 187 170 233 25 25 64 77 85 115 21 39 52 83
69 99 17 17 31 35 31 42 0 6 15 27 33 45 19 19 39 52 45 74 8 27 22 47 44 61
23 15 51 54 92 130 101 186 194 310 294 395 83 70 142 156 142 206 0 21 3 62
7 92 5 48 9 55 38 67 57 24 83 85 110 258 9 60 25 134 35 165 10 32 16 69 13
84 -3 16 1 37 10 50 15 23 20 94 18 238 -1 55 -5 71 -26 95 -14 16 -28 38 -31
49 -4 11 -18 32 -32 47 -26 29 -33 78 -13 102 6 7 15 45 21 84 5 39 24 106 41
149 32 78 34 101 29 248 -3 72 52 386 80 461 10 25 13 86 9 194 -1 19 8 51 19
70 16 27 24 67 33 170 8 88 16 138 25 145 16 12 21 111 32 580 4 187 13 363
19 390 20 89 38 472 37 785 -1 290 -12 482 -36 615 -13 79 -43 274 -63 415 -4
25 -19 115 -35 200 -16 85 -36 205 -45 265 -10 61 -28 142 -41 181 -12 39 -30
113 -40 165 -9 52 -18 99 -19 105 -2 6 -21 8 -51 5 -41 -5 -52 -11 -72 -41
-13 -19 -21 -42 -19 -52 5 -16 -17 -92 -32 -113 -10 -15 -48 -115 -55 -147 -4
-16 -12 -28 -20 -28 -7 0 -26 -10 -40 -21 -20 -16 -26 -27 -22 -43 4 -11 11
-57 17 -101 5 -44 17 -102 25 -128 17 -51 13 -99 -9 -126 -13 -15 -39 -108
-52 -181 -5 -29 -13 -38 -48 -54 -74 -35 -87 -55 -87 -134 0 -50 -4 -73 -15
-82 -10 -9 -15 -30 -14 -69 0 -31 -4 -76 -10 -101 -6 -25 -13 -58 -17 -75 -4
-16 -12 -36 -18 -44 -6 -8 -14 -44 -18 -80 -6 -70 -28 -167 -47 -214 -6 -16
-11 -42 -11 -59 0 -17 -5 -49 -11 -72 -26 -103 -41 -153 -54 -182 -9 -18 -14
-63 -14 -111 0 -82 0 -82 -39 -123 -22 -22 -66 -72 -98 -111 -57 -69 -57 -71
-44 -102 7 -18 15 -57 17 -88 4 -47 -1 -69 -26 -127 -17 -39 -31 -83 -31 -99
0 -31 -43 -113 -66 -126 -8 -4 -14 -19 -14 -33 0 -14 -11 -34 -26 -47 -30 -25
-54 -75 -54 -111 0 -15 -8 -30 -19 -36 -11 -5 -23 -19 -26 -30 -3 -11 -26 -33
-49 -50 -28 -19 -45 -39 -49 -57 -4 -15 -36 -64 -72 -108 -86 -104 -96 -125
-94 -188 2 -61 -14 -157 -33 -189 -7 -13 -18 -61 -25 -108 -15 -109 -23 -141
-38 -160 -8 -8 -17 -32 -20 -53 -5 -25 -20 -52 -42 -74 -26 -25 -33 -40 -29
-56 9 -36 -33 -139 -94 -232 -11 -16 -25 -40 -31 -52 -6 -12 -22 -24 -35 -27
-15 -4 -32 -22 -45 -48 -36 -71 -71 -120 -134 -187 -114 -121 -167 -171 -181
-171 -7 0 -17 -12 -20 -27 -4 -16 -19 -46 -34 -68 -15 -22 -35 -52 -44 -67
-13 -22 -24 -28 -54 -28 -41 0 -77 -23 -95 -60 -7 -14 -42 -45 -79 -70 -36
-25 -73 -57 -82 -72 -9 -15 -40 -38 -69 -53 -68 -34 -136 -75 -172 -102 -15
-13 -34 -23 -41 -23 -7 0 -26 -13 -41 -30 -44 -46 -77 -59 -122 -47 -32 9 -44
7 -72 -9 -19 -11 -35 -29 -37 -41 -2 -11 -23 -40 -48 -62 -24 -23 -44 -48 -44
-54 0 -15 -162 -167 -229 -214 -25 -18 -64 -38 -86 -44 -22 -6 -60 -27 -85
-48 -25 -20 -62 -47 -82 -59 -20 -13 -40 -34 -45 -48 -12 -36 -112 -149 -148
-167 -16 -8 -40 -25 -52 -38 -13 -13 -62 -66 -110 -116 -49 -51 -99 -106 -113
-123 -34 -41 -54 -61 -85 -85 -37 -27 -95 -89 -115 -123 -10 -15 -28 -37 -41
-49 -82 -74 -198 -196 -266 -281 -26 -31 -53 -61 -61 -66 -8 -5 -31 -23 -51
-41 -20 -18 -46 -35 -58 -39 -12 -4 -31 -26 -43 -50 -14 -30 -29 -46 -47 -51
-33 -8 -82 -49 -105 -87 -10 -15 -29 -34 -43 -40 -25 -11 -95 -98 -95 -119 0
-8 -106 -119 -239 -250 -7 -8 -54 -53 -102 -102 -49 -48 -98 -104 -109 -126
-11 -21 -49 -68 -84 -104 -35 -36 -73 -82 -86 -101 -12 -20 -25 -36 -28 -36
-4 0 -36 -27 -71 -61 -36 -33 -74 -68 -86 -77 -12 -9 -29 -30 -39 -47 -10 -16
-44 -47 -75 -67 -51 -34 -98 -81 -192 -192 -18 -21 -47 -48 -65 -60 -90 -61
-176 -131 -196 -159 -26 -38 -58 -66 -74 -67 -6 0 -22 -16 -35 -35 -13 -20
-47 -51 -74 -70 -28 -19 -79 -67 -115 -107 -88 -97 -106 -114 -169 -156 -29
-20 -61 -48 -70 -63 -21 -34 -63 -68 -88 -71 -27 -3 -132 12 -183 26 -113 33
-161 40 -252 39 -76 -1 -101 2 -113 14 -15 14 -12 51 5 63 4 3 10 18 14 33 5
20 17 33 44 44 64 26 142 77 148 96 3 10 31 30 62 44 32 15 77 46 100 70 28
27 53 43 69 43 17 0 43 20 91 71 37 40 84 82 104 95 20 13 55 50 77 82 49 73
104 122 137 122 14 0 27 7 31 18 8 22 38 47 88 73 22 12 54 34 70 49 17 15 44
34 60 41 24 12 31 21 33 51 3 31 13 46 58 86 29 27 74 75 99 108 53 68 85 97
138 125 24 13 44 33 53 54 7 18 18 36 24 40 5 3 10 21 10 38 0 25 14 47 61 99
33 38 68 68 78 68 21 0 41 19 41 38 0 8 19 32 43 54 79 73 97 93 97 107 0 7
18 40 40 72 29 42 40 69 40 95 0 29 7 43 37 70 21 19 54 39 74 44 28 8 39 18
48 43 24 65 37 82 70 93 22 7 48 31 83 77 27 37 53 67 58 67 5 0 18 16 30 36
31 49 63 59 117 39 50 -19 76 -14 91 20 8 17 20 25 36 25 27 0 56 24 56 46 0
17 55 74 72 74 9 0 70 60 224 220 26 27 34 44 34 72 0 20 4 39 9 43 5 3 12 19
16 35 11 50 35 89 73 120 22 18 44 49 55 77 11 27 22 57 27 68 4 11 18 48 31
83 16 43 39 79 72 112 32 33 47 56 47 75 0 15 14 56 30 92 17 35 30 69 30 74
0 5 17 37 38 71 21 35 42 70 46 78 4 8 13 26 21 40 8 14 15 39 15 56 0 53 18
89 56 109 41 22 78 67 125 150 18 33 50 85 70 116 112 166 246 461 424 929 7
19 34 89 60 155 26 66 60 154 75 195 16 41 63 152 105 245 43 94 111 253 152
355 42 102 92 226 113 275 21 50 61 146 89 215 29 69 63 146 76 172 14 27 36
76 49 110 13 35 39 95 58 133 19 39 47 101 62 138 15 37 56 129 93 205 36 75
75 160 88 187 12 28 40 82 61 120 22 39 57 111 78 160 21 50 84 180 140 290
56 111 110 221 120 245 9 25 41 88 70 140 199 356 272 490 302 558 101 220
313 604 388 701 64 83 77 107 91 169 24 105 34 137 58 187 13 28 36 91 51 140
16 50 36 108 46 130 10 22 21 59 24 83 4 24 11 51 16 60 22 41 78 300 78 359
-1 40 4 70 14 85 9 13 19 48 23 78 4 30 13 66 20 80 20 42 40 233 26 258 -14
26 2 175 24 228 7 17 16 50 20 72 4 23 11 45 16 48 6 3 4 15 -5 30 -9 13 -16
41 -16 63 0 22 -4 43 -10 46 -5 3 -10 37 -10 76 0 41 -8 92 -19 126 -14 42
-19 85 -19 154 0 53 -4 105 -10 115 -5 11 -10 92 -11 181 -1 175 -7 203 -53
243 -20 18 -29 38 -33 69 -3 24 -9 49 -14 55 -15 19 -25 118 -22 219 1 54 -2
97 -7 97 -19 0 -46 95 -45 158 2 61 0 66 -38 107 -29 31 -39 51 -39 75 0 40
-27 97 -51 111 -11 5 -19 16 -19 24 0 9 -24 42 -52 75 -29 32 -63 73 -76 89
-13 17 -30 31 -38 31 -8 0 -19 12 -24 26 -17 43 -132 164 -157 164 -44 0 -63
33 -63 110 0 38 -6 84 -14 102 -8 18 -17 45 -20 60 -4 15 -23 43 -44 63 -24
24 -42 54 -52 88 -12 39 -21 53 -37 55 -28 4 -51 41 -59 94 -3 24 -15 55 -25
70 -10 15 -19 31 -19 36 0 5 -6 15 -14 21 -7 6 -19 38 -25 71 -7 33 -22 72
-34 87 -31 38 -77 131 -77 154 0 13 -10 24 -30 31 -36 12 -50 35 -50 82 0 19
-4 37 -9 41 -6 3 -13 27 -16 53 -3 26 -15 65 -26 88 -10 23 -19 46 -19 51 0 6
-13 13 -30 17 -20 3 -30 12 -30 23 0 10 -7 29 -15 43 -8 14 -29 52 -46 85 -17
33 -42 75 -55 94 -13 19 -29 52 -35 75 -6 23 -18 55 -27 71 -8 17 -15 45 -13
62 1 26 -7 42 -39 77 -32 35 -44 57 -53 104 -7 33 -20 69 -30 80 -25 27 -57
92 -57 115 0 11 -11 32 -24 47 -14 17 -26 48 -30 77 -5 38 -14 57 -41 83 -20
19 -37 48 -41 67 -4 21 -28 57 -65 98 -32 36 -65 78 -74 95 -9 17 -34 39 -58
51 -42 21 -85 59 -246 219 -47 47 -108 106 -136 131 -27 25 -76 78 -108 118
-33 40 -65 75 -73 78 -8 3 -21 20 -29 37 -37 78 -90 135 -196 211 -46 33 -107
83 -135 110 -29 28 -84 77 -124 110 -39 33 -83 72 -98 86 -39 37 -165 119
-183 119 -8 0 -20 5 -26 11 -6 6 -57 13 -114 16 -63 3 -110 11 -119 18 -21 19
-111 65 -125 65 -6 0 -18 -6 -27 -12z"/>
<path d="M1540 30335 c0 -9 5 -15 11 -13 6 2 11 8 11 13 0 5 -5 11 -11 13 -6
2 -11 -4 -11 -13z"/>
<path d="M4488 9886 c-27 -20 -22 -38 10 -34 19 2 27 9 27 22 0 24 -15 29 -37
12z"/>
<path d="M16770 9640 c0 -5 5 -10 10 -10 6 0 10 5 10 10 0 6 -4 10 -10 10 -5
0 -10 -4 -10 -10z"/>
<path d="M5639 2653 c-21 -5 -29 -32 -18 -62 13 -35 43 -23 47 18 4 37 -5 49
-29 44z"/>
</g>
</svg>
