<?xml version="1.0" standalone="no"?>
<!DOCTYPE svg PUBLIC "-//W3C//DTD SVG 20010904//EN"
 "http://www.w3.org/TR/2001/REC-SVG-20010904/DTD/svg10.dtd">
<svg version="1.0" xmlns="http://www.w3.org/2000/svg"
 width="1536.000000pt" height="1146.000000pt" viewBox="0 0 1536.000000 1146.000000"
 preserveAspectRatio="xMidYMid meet">
<metadata>
Created by potrace 1.16, written by Peter Selinger 2001-2019
</metadata>
<g transform="translate(0.000000,1146.000000) scale(0.100000,-0.100000)"
fill="#000000" stroke="none">
<path d="M4285 11453 c-127 -8 -341 -37 -455 -60 -69 -14 -138 -28 -154 -31
l-29 -5 7 -71 c4 -39 12 -105 17 -146 5 -41 12 -311 15 -600 6 -497 -3 -982
-26 -1370 l-9 -145 47 -43 c55 -50 182 -114 268 -136 88 -23 252 -21 346 3
140 36 327 132 406 209 l39 37 22 415 c30 578 49 1008 61 1405 14 469 13 510
-6 529 -13 14 -49 16 -257 14 -133 -1 -264 -3 -292 -5z"/>
<path d="M4900 11263 c0 -338 -20 -864 -66 -1715 -28 -539 -35 -484 77 -603
109 -114 226 -182 354 -206 151 -28 333 61 450 221 l36 49 34 300 c99 874 199
1468 306 1827 23 74 39 137 37 140 -6 5 -495 89 -663 113 -113 17 -521 61
-556 61 -5 0 -9 -84 -9 -187z"/>
<path d="M3365 11266 c-226 -75 -400 -145 -590 -236 l-141 -67 34 -274 c45
-368 48 -658 9 -1029 -32 -299 -68 -555 -108 -759 -25 -125 -28 -156 -17 -163
40 -27 140 -72 221 -100 80 -27 106 -31 202 -32 127 -1 192 12 290 60 103 50
240 175 310 283 22 34 24 51 34 286 39 910 39 1634 0 1969 -13 114 -16 126
-37 126 -9 0 -102 -29 -207 -64z"/>
<path d="M6174 11225 c-43 -103 -129 -477 -183 -800 -52 -306 -133 -915 -166
-1250 l-17 -171 24 -59 c52 -130 161 -258 279 -328 202 -119 409 -90 688 98
162 108 146 81 176 305 91 688 230 1285 407 1744 27 71 47 134 45 140 -9 21
-502 198 -715 256 -136 37 -344 79 -469 96 l-53 7 -16 -38z"/>
<path d="M2485 10879 c-330 -189 -719 -492 -905 -704 -337 -386 -724 -978
-900 -1376 -116 -264 -212 -572 -225 -730 l-7 -74 46 -69 c25 -38 46 -75 46
-82 0 -7 -28 -71 -61 -141 -34 -70 -127 -270 -208 -444 l-148 -316 -6 -184
c-7 -181 -8 -189 -57 -369 -68 -251 -70 -273 -32 -385 17 -50 33 -108 36 -130
3 -22 11 -224 16 -449 11 -410 17 -470 45 -433 7 10 15 52 19 95 12 135 23
131 57 -22 28 -129 62 -228 141 -411 179 -415 409 -796 659 -1095 67 -80 190
-228 273 -329 271 -331 390 -458 1046 -1111 366 -365 696 -703 759 -778 129
-151 178 -190 147 -117 -36 84 -512 622 -1133 1282 -452 480 -648 692 -725
784 -151 182 -453 621 -623 904 -121 201 -264 488 -303 606 -74 224 -152 752
-152 1030 0 69 5 98 25 148 14 35 50 174 79 309 30 136 59 266 65 290 14 49
36 55 52 15 6 -16 17 -183 25 -371 15 -383 21 -431 59 -527 26 -65 27 -68 15
-166 -6 -54 -13 -187 -15 -294 -2 -108 -7 -200 -10 -205 -4 -6 -4 -24 0 -40 5
-21 13 -30 26 -30 22 0 27 -11 64 -135 84 -288 228 -570 431 -842 93 -126 144
-184 434 -503 915 -1004 1548 -1730 1797 -2057 172 -226 221 -309 455 -768
137 -270 147 -287 148 -246 0 78 -102 345 -201 524 -66 119 -257 438 -325 543
-57 89 -115 157 -577 673 -275 307 -1238 1417 -1423 1641 -199 240 -392 534
-474 720 -83 190 -120 433 -120 795 0 264 8 333 48 409 l27 51 -3 325 c-1 179
-5 355 -8 393 -4 46 -3 67 5 67 7 0 11 -26 11 -73 0 -39 5 -88 11 -107 6 -19
15 -150 19 -290 11 -340 12 -349 66 -409 23 -26 85 -119 138 -207 52 -87 134
-215 181 -284 48 -69 125 -183 173 -255 48 -71 116 -159 152 -196 55 -56 77
-71 147 -97 104 -40 423 -132 574 -166 195 -44 575 -60 729 -31 263 49 469 99
522 127 56 30 106 73 96 83 -3 3 -70 -13 -149 -35 -188 -53 -280 -63 -604 -64
l-270 -1 -209 57 c-177 49 -441 144 -537 194 -17 8 -32 28 -39 51 -7 21 -35
70 -63 108 -269 373 -327 458 -327 484 0 24 33 -6 100 -90 118 -148 395 -415
628 -607 129 -107 170 -114 442 -83 335 39 382 50 929 227 285 93 338 107 445
119 116 13 194 33 223 56 14 12 18 45 5 53 -11 6 -443 -68 -641 -110 -91 -20
-263 -60 -381 -90 -248 -63 -330 -74 -567 -74 l-171 0 -59 52 c-121 110 -551
519 -627 597 l-79 82 7 119 7 120 -58 122 c-57 122 -58 124 -58 214 0 138 13
153 255 295 120 70 180 117 328 257 110 103 132 119 142 107 16 -20 54 -19 96
1 48 23 50 31 11 50 l-35 17 -7 299 c-8 321 1 1091 15 1353 7 117 18 205 44
330 67 320 128 817 145 1169 7 142 6 229 -5 350 -18 210 -53 516 -62 539 -6
15 -17 12 -97 -34z m-1244 -2631 c42 -23 75 -67 104 -138 23 -58 32 -242 16
-322 -11 -50 -19 -63 -65 -105 -29 -26 -65 -55 -80 -63 -25 -13 -31 -12 -72 9
-94 50 -153 155 -180 316 -19 119 -15 242 9 279 37 56 187 70 268 24z m548
-1407 c12 -8 10 -17 -14 -51 -32 -46 -62 -70 -119 -94 -99 -41 -104 2 -10 91
52 51 71 63 97 63 18 0 38 -4 46 -9z m-337 -176 c59 23 67 9 35 -67 -14 -35
-29 -76 -34 -93 -14 -44 -54 -46 -84 -4 -27 38 -37 125 -19 158 11 21 13 22
37 6 23 -15 28 -15 65 0z"/>
<path d="M7459 10813 c-50 -111 -165 -464 -218 -673 -94 -362 -198 -943 -221
-1223 -10 -120 -9 -128 13 -190 41 -114 106 -215 192 -302 87 -87 157 -133
263 -173 90 -34 298 -43 422 -18 94 19 231 64 322 105 l63 28 29 99 c154 539
432 1380 569 1719 42 106 60 162 53 166 -6 4 -231 84 -501 179 -544 191 -678
240 -837 306 -60 24 -111 44 -114 44 -3 0 -19 -30 -35 -67z"/>
<path d="M9006 10322 c-9 -15 -109 -271 -148 -377 -191 -529 -486 -1462 -495
-1571 -7 -74 13 -146 70 -262 81 -161 244 -347 372 -422 129 -77 158 -85 291
-85 l121 0 86 43 c66 33 106 61 165 120 l79 77 67 275 c86 350 124 481 193
655 138 350 309 623 525 837 59 59 108 109 108 112 0 10 -432 238 -521 275
-202 84 -906 333 -913 323z"/>
<path d="M10395 9598 c-177 -169 -306 -351 -435 -613 -126 -257 -170 -389
-296 -890 -127 -507 -145 -601 -126 -672 18 -64 99 -224 163 -320 76 -114 208
-241 294 -284 64 -31 78 -34 180 -37 158 -5 202 13 315 127 52 52 98 110 117
147 18 34 91 205 162 380 144 356 234 556 324 719 195 354 371 544 596 641 34
15 61 30 61 33 0 4 -35 39 -79 78 -54 50 -86 88 -103 125 -25 52 -33 58 -199
164 -96 61 -223 140 -284 176 -168 99 -569 318 -582 318 -7 0 -55 -41 -108
-92z"/>
<path d="M4670 8954 c-125 -87 -288 -152 -436 -174 -176 -27 -380 22 -527 127
-27 19 -50 33 -52 31 -4 -4 5 -166 41 -718 30 -469 30 -506 -21 -950 -36 -308
-37 -330 -19 -488 6 -53 8 -55 81 -113 105 -84 237 -146 338 -160 140 -19 304
9 460 80 l64 29 -9 34 c-26 89 -11 352 75 1307 84 934 92 1042 78 1040 -5 0
-37 -21 -73 -45z"/>
<path d="M4806 8944 c-3 -9 -6 -34 -6 -57 0 -36 -40 -494 -145 -1645 -38 -410
-33 -578 18 -654 41 -61 76 -72 230 -76 203 -6 395 33 539 110 93 49 91 46 99
236 4 93 22 289 42 442 20 151 48 385 61 520 25 236 96 1022 96 1055 0 10 -26
-7 -74 -49 -159 -139 -309 -177 -481 -122 -102 32 -194 89 -291 180 -63 58
-83 72 -88 60z"/>
<path d="M3541 8818 c-120 -133 -257 -221 -398 -254 -50 -12 -98 -15 -183 -11
-129 6 -202 25 -343 90 -48 22 -90 37 -93 34 -12 -11 -23 -591 -23 -1185 l-1
-583 143 -69 c78 -37 183 -85 232 -106 l90 -39 165 -3 c159 -4 383 10 445 26
30 8 30 9 25 68 -11 127 -1 325 25 524 42 321 43 510 6 1084 -17 264 -32 480
-34 482 -1 1 -27 -25 -56 -58z"/>
<path d="M5781 8718 c-52 -620 -95 -1040 -147 -1448 -46 -360 -53 -500 -29
-606 21 -96 34 -122 79 -162 64 -56 266 -97 441 -90 110 5 158 23 206 75 46
49 100 178 118 283 7 36 34 146 61 245 27 99 74 293 105 432 31 138 112 477
180 753 69 276 125 508 125 516 0 8 -32 -9 -82 -43 -164 -112 -353 -183 -484
-183 -74 0 -194 35 -272 80 -73 42 -182 148 -232 225 -23 36 -46 65 -50 65 -3
0 -12 -64 -19 -142z"/>
<path d="M11718 8751 c-234 -100 -424 -319 -631 -728 -97 -192 -154 -323 -317
-725 -109 -268 -141 -325 -240 -429 -84 -86 -147 -122 -250 -141 -68 -13 -61
-2 -85 -142 -18 -105 -19 -244 -4 -333 18 -105 78 -204 254 -421 87 -108 189
-227 226 -263 83 -83 172 -129 261 -136 88 -7 236 10 283 33 106 49 214 213
421 639 223 461 296 606 389 780 202 376 287 538 360 696 65 140 103 213 219
421 l21 38 -55 47 c-30 27 -154 138 -274 248 -379 345 -491 445 -501 445 -5 0
-40 -13 -77 -29z"/>
<path d="M6842 8163 c-73 -296 -157 -646 -186 -778 -30 -132 -75 -314 -101
-405 -29 -105 -48 -194 -52 -245 l-6 -81 72 -66 c98 -91 249 -204 313 -233
144 -67 270 -61 563 24 115 34 213 65 217 69 3 4 12 52 18 106 19 165 107 492
217 816 33 96 183 476 312 789 28 68 50 125 49 126 -2 2 -37 -10 -78 -27 -41
-16 -127 -43 -190 -60 -103 -28 -131 -31 -260 -32 -125 -1 -155 2 -220 23
-214 66 -372 204 -488 429 -24 45 -44 82 -46 82 -1 0 -62 -242 -134 -537z"/>
<path d="M8302 8244 c-29 -55 -345 -857 -380 -964 -117 -359 -186 -644 -186
-768 l-1 -84 75 -46 c243 -148 576 -287 835 -348 150 -35 387 -44 498 -20 l76
17 6 52 c3 29 12 115 21 192 24 224 69 529 144 973 39 228 70 418 70 423 0 6
-26 -8 -57 -29 -157 -105 -321 -125 -501 -62 -212 75 -469 351 -560 602 -25
70 -31 79 -40 62z"/>
<path d="M12588 7862 c-79 -140 -93 -167 -173 -342 -33 -74 -162 -324 -285
-555 -123 -231 -272 -522 -331 -647 -133 -283 -278 -565 -352 -685 -102 -164
-177 -221 -328 -247 -45 -8 -85 -20 -89 -26 -20 -33 88 -388 170 -556 41 -85
60 -111 115 -162 78 -72 186 -130 381 -206 77 -29 200 -81 274 -114 231 -102
250 -103 335 -18 98 98 162 257 389 972 162 509 159 503 216 531 25 13 178 57
340 99 162 41 316 85 342 96 42 18 50 26 67 72 10 28 29 95 41 148 20 87 21
100 8 120 -8 13 -27 55 -42 95 -15 40 -45 95 -67 122 -22 28 -74 121 -115 207
-73 152 -84 169 -313 468 -279 366 -336 445 -386 546 -43 85 -114 200 -123
200 -4 0 -37 -53 -74 -118z"/>
<path d="M9427 7144 c-97 -599 -137 -893 -140 -1025 l-2 -84 80 -48 c121 -73
161 -82 360 -82 208 0 242 8 306 74 70 72 79 109 89 362 8 189 19 302 36 360
4 14 -7 19 -57 28 -234 41 -457 288 -616 680 -7 19 -19 -36 -56 -265z"/>
<path d="M2740 6721 c0 -17 67 -63 106 -71 20 -5 46 -5 57 -1 16 6 4 14 -63
42 -46 19 -88 36 -92 37 -4 2 -8 -1 -8 -7z"/>
<path d="M3594 6657 c-19 -17 -25 -29 -20 -42 5 -15 15 -17 62 -12 31 3 59 9
63 12 7 7 -54 65 -69 65 -5 0 -21 -11 -36 -23z"/>
<path d="M3345 6638 c-60 -5 -170 -7 -242 -5 -120 3 -133 2 -133 -14 0 -23 17
-35 75 -49 100 -24 115 -23 255 20 95 30 146 40 172 37 25 -3 41 0 49 9 13 16
-2 17 -176 2z"/>
<path d="M5533 6608 c-4 -7 -8 -67 -8 -132 0 -81 -4 -120 -12 -123 -15 -5 -33
81 -33 159 0 69 10 66 -105 23 -97 -37 -263 -74 -367 -82 l-87 -6 20 -38 c10
-21 19 -50 19 -65 0 -15 -39 -91 -96 -186 -165 -275 -253 -488 -374 -907 -44
-156 -79 -285 -77 -288 3 -2 30 -7 61 -10 34 -4 56 -11 56 -18 0 -7 -25 -78
-55 -158 -79 -208 -99 -299 -90 -412 6 -82 10 -93 38 -122 21 -22 41 -64 63
-131 54 -165 267 -618 332 -708 40 -55 91 -78 157 -71 63 6 125 31 125 50 0 8
-28 43 -63 79 -57 58 -72 84 -161 274 -127 269 -129 276 -122 348 5 46 2 63
-12 85 -10 14 -22 32 -27 39 -15 27 29 -5 79 -57 33 -35 59 -53 83 -57 38 -7
185 0 323 17 80 9 274 66 383 112 l48 20 -3 61 -3 61 -35 -1 c-19 0 -173 -32
-341 -72 -317 -74 -389 -85 -389 -56 0 9 66 156 146 327 80 172 155 333 165
359 10 26 39 145 64 265 24 120 75 319 111 443 l67 225 5 158 4 158 30 15 c16
9 32 13 35 10 3 -3 -1 -41 -11 -83 -70 -330 -107 -836 -66 -902 6 -10 23 9 61
67 30 45 56 82 59 82 3 0 16 -53 29 -117 30 -157 59 -276 83 -341 17 -45 26
-56 67 -76 26 -14 52 -31 59 -38 13 -16 28 -107 37 -228 3 -47 13 -143 21
-213 15 -124 17 -130 55 -180 81 -107 116 -297 85 -472 -45 -260 -56 -337 -70
-462 -9 -76 -21 -181 -27 -234 -13 -106 -9 -139 23 -171 l21 -21 -46 -371
c-26 -204 -56 -461 -67 -571 -31 -310 -58 -492 -86 -593 -15 -51 -24 -95 -22
-98 3 -3 33 -10 66 -16 71 -13 113 -1 131 38 30 66 72 399 136 1064 36 371 36
375 61 394 14 10 30 30 35 43 23 61 51 263 59 418 6 140 11 179 29 218 20 47
22 48 53 40 71 -18 198 7 198 38 0 7 -15 30 -34 53 -67 83 -136 254 -136 340
0 66 37 290 55 334 9 20 21 32 33 32 85 0 118 60 109 198 -3 48 -7 94 -9 102
-2 12 13 16 86 18 79 2 93 6 130 32 84 58 196 202 196 252 0 24 -4 23 -70 -17
-32 -19 -79 -45 -105 -56 -42 -19 -52 -19 -98 -8 -47 11 -147 54 -147 63 0 12
-132 491 -148 536 -11 31 -31 79 -46 108 -16 32 -29 77 -33 115 -5 57 -2 69
27 126 l32 64 -28 60 -27 61 18 94 c14 74 31 122 81 222 34 70 68 131 75 136
19 12 41 -24 99 -158 29 -68 103 -231 165 -363 62 -132 123 -271 135 -310 12
-38 38 -101 58 -140 30 -61 37 -86 48 -193 10 -100 18 -131 39 -168 l26 -44
-10 -283 c-6 -155 -13 -415 -16 -577 -6 -265 -11 -354 -31 -528 -6 -48 -3 -58
26 -105 37 -59 37 -71 1 -237 -11 -52 -34 -198 -51 -325 -35 -262 -69 -470
-110 -665 -16 -74 -45 -238 -65 -365 -20 -126 -39 -243 -43 -259 -11 -40 -55
-64 -767 -412 -330 -161 -601 -298 -603 -303 -7 -20 68 -160 88 -166 26 -8
100 14 300 90 91 34 203 75 250 90 47 15 110 40 140 55 149 75 476 270 584
348 67 49 142 103 168 121 l46 33 71 -18 c38 -10 73 -16 76 -12 12 11 36 161
80 489 25 185 58 401 74 480 17 79 52 252 80 384 27 132 54 283 61 335 13 108
25 147 51 160 14 8 23 3 45 -26 l28 -36 17 21 c29 36 59 128 77 235 13 79 16
160 15 369 -2 285 -1 289 46 250 11 -10 80 -137 153 -281 132 -261 134 -264
173 -278 22 -7 50 -25 62 -39 13 -14 50 -111 89 -232 46 -145 87 -249 134
-343 38 -76 90 -204 120 -294 49 -149 52 -161 40 -197 -11 -31 -11 -41 0 -54
14 -17 202 -125 218 -125 12 0 32 54 32 85 0 13 -44 148 -99 301 -54 154 -114
329 -134 389 -59 185 -141 495 -133 503 5 4 25 -13 47 -37 47 -53 55 -43 46
61 -7 85 -27 126 -145 298 -63 91 -126 206 -233 425 -81 165 -182 364 -224
443 -42 78 -71 142 -65 142 20 0 94 -42 130 -73 30 -27 35 -28 38 -13 7 32
-18 107 -113 346 -136 342 -133 334 -111 359 11 12 27 21 37 21 24 0 29 20 11
54 -13 27 -12 39 9 130 22 92 24 123 24 351 0 176 -4 268 -14 312 -21 97 -21
97 -121 67 -197 -58 -433 -114 -483 -114 -177 1 -316 71 -559 284 l-86 75 -30
-62 c-37 -80 -69 -117 -130 -150 -69 -37 -164 -49 -299 -36 -267 25 -377 77
-425 199 -24 62 -31 69 -45 48z"/>
<path d="M3731 6524 c-64 -43 -81 -69 -81 -122 0 -58 13 -79 58 -92 55 -15
102 -12 166 10 31 10 85 24 119 30 33 7 78 20 99 31 45 23 82 24 235 3 276
-37 324 -35 446 19 55 25 71 44 45 51 -95 26 -130 41 -166 72 l-42 36 -91 -36
c-132 -53 -237 -76 -349 -76 -112 0 -181 16 -302 69 l-87 39 -50 -34z"/>
<path d="M7831 6294 c162 -195 365 -403 436 -447 40 -26 41 -28 68 -138 35
-149 49 -221 95 -509 36 -228 42 -253 86 -355 40 -93 51 -136 75 -277 15 -91
36 -184 47 -205 15 -29 21 -68 25 -168 4 -84 13 -154 26 -198 11 -37 23 -116
27 -175 4 -63 15 -129 26 -162 17 -46 21 -92 25 -278 l6 -222 33 -21 c19 -11
44 -35 56 -52 22 -30 23 -44 29 -247 5 -214 5 -215 37 -288 34 -79 34 -78 11
-247 -11 -77 -10 -84 19 -175 35 -111 47 -189 63 -432 l12 -178 34 -20 c21
-12 33 -27 33 -41 0 -32 -54 -162 -226 -541 -203 -447 -261 -585 -289 -688
-12 -47 -30 -102 -38 -122 -15 -36 -15 -38 4 -49 48 -25 153 -59 168 -54 37
11 83 77 172 245 204 386 323 658 434 995 59 177 61 179 148 190 31 4 50 12
54 23 10 24 -35 280 -74 427 -59 224 -81 352 -107 630 -43 453 -43 461 -16
490 31 33 73 33 87 2 6 -13 14 -89 18 -168 l7 -145 67 -55 66 -55 1 -350 c1
-192 7 -443 13 -559 7 -115 16 -357 20 -538 4 -180 10 -329 13 -332 5 -5 132
28 196 51 31 11 44 23 49 42 8 34 -4 757 -17 987 -6 98 -19 258 -30 354 l-19
174 23 46 c13 25 27 64 30 86 4 22 -9 297 -28 610 -40 638 -56 953 -56 1098
l0 98 41 51 c32 40 39 57 34 77 -15 65 -163 343 -271 511 -241 372 -219 324
-275 600 -32 161 -49 267 -49 316 0 41 -3 74 -7 74 -5 0 -35 -7 -68 -14 -307
-71 -732 25 -1215 272 -80 41 -138 66 -129 56z m1453 -1927 c26 -19 36 -80 43
-273 8 -226 -3 -270 -47 -184 -40 79 -74 228 -74 330 -1 127 23 167 78 127z"/>
<path d="M10147 6072 c-26 -84 -80 -150 -152 -187 -58 -30 -61 -30 -249 -35
l-191 -5 122 -109 c120 -107 122 -109 133 -165 19 -99 59 -217 212 -631 205
-555 227 -622 512 -1591 72 -247 164 -515 173 -506 2 3 -3 71 -12 152 -14 138
-39 272 -86 459 -11 43 -18 80 -16 82 2 2 21 -60 42 -139 62 -234 94 -326 159
-457 l61 -125 3 115 3 115 45 -77 c24 -43 47 -78 51 -78 14 0 -16 136 -128
585 -67 264 -143 547 -171 628 -33 99 -48 157 -43 174 4 16 -3 44 -20 80 -14
30 -25 66 -25 79 0 14 -16 57 -36 96 -32 64 -34 74 -23 97 16 33 14 41 -20 99
-15 26 -34 67 -43 92 -9 25 -32 86 -51 135 -26 68 -36 111 -40 178 l-6 89 27
-17 c50 -32 74 -60 153 -179 98 -145 119 -186 262 -517 205 -472 343 -771 712
-1549 465 -981 455 -959 455 -985 0 -47 -66 -84 -155 -86 -22 0 -48 -4 -58 -8
-17 -6 -16 -8 5 -28 26 -23 60 -35 180 -64 46 -11 93 -26 105 -34 26 -17 24
-8 103 -475 62 -364 79 -440 106 -475 15 -20 15 -20 30 -1 11 15 14 56 14 174
l0 154 31 -26 c35 -30 51 -32 72 -11 47 47 46 154 -3 325 -27 95 -30 119 -30
252 0 81 4 149 9 152 11 7 36 -62 167 -474 112 -354 153 -460 177 -460 17 0
27 21 27 58 0 16 12 39 31 58 l31 32 -17 79 c-10 43 -78 289 -151 548 -74 259
-142 499 -152 535 l-18 66 28 139 c30 149 74 335 82 342 6 7 93 -43 241 -137
178 -114 158 -109 214 -57 27 25 66 54 87 65 61 31 198 70 322 91 63 10 115
21 117 23 2 2 -45 34 -105 71 -150 94 -189 124 -200 152 -5 14 -14 25 -20 25
-19 0 -158 -30 -331 -71 -203 -48 -233 -49 -286 -10 -73 53 -121 144 -149 282
-21 107 -14 236 20 377 15 57 26 105 26 106 0 2 -57 6 -127 9 -137 7 -166 17
-184 65 -16 40 -45 190 -65 332 l-17 126 -146 66 c-80 37 -211 92 -291 123
-379 149 -467 227 -580 510 -40 102 -118 362 -126 424 l-6 49 -62 11 c-89 16
-178 64 -257 138 -82 78 -387 450 -435 531 -18 31 -37 63 -41 70 -5 8 -15 -8
-26 -46z m1114 -2224 c150 -236 164 -264 260 -530 106 -294 329 -936 328 -946
0 -4 -11 18 -25 48 -39 85 -706 1623 -711 1640 -9 29 33 -32 148 -212z m-694
-210 c-3 -8 -6 -5 -6 6 -1 11 2 17 5 13 3 -3 4 -12 1 -19z m10 -40 c-3 -8 -6
-5 -6 6 -1 11 2 17 5 13 3 -3 4 -12 1 -19z m10 -40 c-3 -8 -6 -5 -6 6 -1 11 2
17 5 13 3 -3 4 -12 1 -19z"/>
<path d="M13706 6043 c-36 -81 -43 -84 -456 -192 -146 -38 -282 -76 -303 -84
-47 -20 -53 -34 -157 -364 -130 -414 -249 -770 -292 -876 -22 -54 -38 -101
-35 -104 3 -2 46 7 94 21 49 14 202 48 339 75 496 99 568 91 755 -86 48 -46
90 -83 94 -83 13 0 -2 106 -35 249 -17 74 -29 144 -26 157 3 12 22 31 42 43
25 15 34 26 30 39 -38 120 -62 827 -35 1028 5 43 9 110 7 149 l-3 70 -19 -42z"/>
<path d="M13180 4519 c-73 -10 -484 -94 -558 -114 -158 -41 -201 -62 -278
-135 -59 -56 -82 -71 -115 -76 -22 -4 -43 -14 -47 -22 -7 -18 32 -284 53 -367
9 -33 21 -63 28 -68 7 -4 188 -6 402 -4 425 5 498 13 760 77 104 26 344 97
353 105 1 1 -25 51 -58 111 -68 122 -77 148 -60 168 9 11 8 22 -5 47 -14 26
-15 33 -4 40 45 27 45 26 3 76 -59 69 -156 140 -216 158 -55 16 -166 18 -258
4z"/>
<path d="M13655 3818 c-137 -43 -359 -96 -470 -113 -55 -8 -215 -20 -355 -26
-161 -8 -258 -16 -262 -23 -4 -6 -19 -59 -33 -117 -29 -124 -34 -298 -10 -388
31 -116 114 -231 167 -231 12 0 96 18 187 40 194 46 427 90 479 90 65 0 108
18 147 62 49 54 115 195 159 339 38 126 90 360 84 382 -2 10 -22 7 -93 -15z"/>
<path d="M13784 3703 c-22 -100 -77 -300 -100 -363 -65 -181 -155 -313 -224
-327 -17 -3 -33 -9 -35 -13 -8 -13 261 -207 308 -224 23 -8 55 -17 70 -21 21
-4 27 -10 23 -21 -23 -59 -22 -60 51 -78 37 -10 110 -22 161 -27 111 -10 143
-26 321 -159 161 -119 238 -165 255 -151 11 9 19 3 39 -31 22 -38 45 -54 187
-133 89 -49 208 -120 265 -157 135 -87 157 -98 197 -98 62 0 64 12 12 76 -81
102 -126 144 -224 209 -113 75 -178 135 -297 270 -212 242 -351 388 -431 453
-146 117 -272 201 -377 252 -106 50 -168 105 -202 175 -50 104 108 38 294
-123 83 -71 143 -105 160 -89 2 3 9 25 15 49 l10 43 -99 90 c-204 187 -287
276 -326 353 -21 39 -40 72 -42 72 -3 0 -7 -12 -11 -27z"/>
<path d="M13465 2659 c-215 -33 -375 -96 -416 -163 l-18 -30 102 -105 c148
-154 244 -266 377 -441 65 -85 130 -168 146 -185 29 -30 29 -30 32 -7 4 28
-41 188 -67 241 -20 37 -92 120 -245 280 -97 101 -86 93 174 -119 233 -191
305 -242 334 -238 18 3 21 10 20 49 0 58 -49 139 -219 364 -66 88 -124 165
-128 171 -4 8 8 10 41 7 34 -3 63 2 107 20 32 14 61 30 63 36 2 6 -13 18 -32
28 -32 15 -36 21 -36 55 0 64 -31 69 -235 37z"/>
</g>
</svg>
