<?xml version="1.0" standalone="no"?>
<!DOCTYPE svg PUBLIC "-//W3C//DTD SVG 20010904//EN"
 "http://www.w3.org/TR/2001/REC-SVG-20010904/DTD/svg10.dtd">
<svg version="1.0" xmlns="http://www.w3.org/2000/svg"
 width="912.000000pt" height="1668.000000pt" viewBox="0 0 912.000000 1668.000000"
 preserveAspectRatio="xMidYMid meet">
<metadata>
Created by potrace 1.16, written by Peter Selinger 2001-2019
</metadata>
<g transform="translate(0.000000,1668.000000) scale(0.100000,-0.100000)"
fill="#000000" stroke="none">
<path d="M2092 16648 c-5 -7 -31 -60 -58 -118 -47 -105 -82 -215 -129 -408
-14 -57 -32 -117 -41 -133 -19 -38 -57 -206 -89 -394 -45 -267 -50 -273 -50
-57 0 182 -15 312 -56 477 -15 62 -59 156 -92 198 -27 34 -33 38 -70 35 -39
-3 -43 -6 -59 -48 -10 -25 -29 -74 -44 -110 -73 -181 -112 -303 -158 -490 -41
-165 -92 -551 -97 -720 0 -16 -7 -2 -19 35 -34 107 -114 199 -167 193 -26 -3
-29 -9 -50 -93 -56 -224 -90 -616 -78 -905 6 -170 33 -528 39 -539 3 -4 9 -69
16 -146 21 -269 44 -409 112 -680 11 -44 26 -111 34 -150 9 -38 35 -131 59
-205 42 -129 44 -143 54 -315 10 -178 38 -379 107 -775 44 -249 128 -585 223
-890 23 -74 56 -184 72 -245 17 -60 39 -141 49 -180 51 -186 150 -768 169
-993 6 -64 17 -162 26 -217 17 -117 19 -282 5 -444 -11 -120 -55 -387 -71
-429 -5 -13 -9 -33 -9 -46 0 -17 -18 -34 -78 -72 -139 -88 -752 -409 -945
-495 -117 -52 -219 -122 -294 -202 -54 -58 -65 -76 -87 -150 -23 -74 -34 -93
-95 -163 -39 -43 -87 -95 -107 -114 -81 -78 -109 -205 -66 -302 24 -55 52 -65
52 -18 0 41 30 56 115 58 39 1 90 5 115 8 48 6 60 2 214 -60 49 -20 146 -52
215 -72 69 -19 232 -71 361 -114 264 -87 373 -119 540 -155 200 -43 215 -48
215 -70 -1 -68 -19 -272 -31 -340 -8 -44 -23 -138 -34 -210 -11 -71 -29 -177
-39 -235 -11 -58 -34 -217 -51 -355 -27 -210 -35 -257 -56 -295 -87 -158 -241
-504 -299 -671 -112 -321 -175 -747 -130 -873 13 -38 13 -39 -67 -205 -150
-312 -275 -612 -297 -715 -27 -123 -28 -186 -3 -186 10 0 22 -4 28 -10 5 -5
37 -13 71 -16 74 -8 149 14 201 60 35 31 88 130 112 213 14 46 69 119 70 92 0
-9 -9 -51 -20 -95 -26 -101 -28 -287 -5 -504 18 -178 26 -214 65 -290 55 -108
65 -114 205 -113 61 1 136 18 206 47 14 6 20 -3 34 -46 22 -66 135 -329 182
-423 48 -96 97 -168 161 -237 51 -55 57 -58 101 -58 25 1 56 6 68 13 59 33 97
124 128 310 9 53 20 97 24 97 3 0 24 -42 45 -92 102 -242 259 -578 293 -627
66 -96 113 -151 129 -151 18 0 56 83 74 160 30 135 40 216 46 365 6 156 5 165
-29 335 -19 96 -38 189 -42 205 -4 17 34 -49 83 -145 92 -181 313 -561 412
-710 72 -108 145 -188 177 -196 55 -14 108 90 138 268 13 81 14 115 4 210 -6
62 -21 146 -34 186 l-23 72 33 -20 c74 -46 125 -14 170 105 21 57 27 93 31
200 7 160 7 161 36 141 32 -23 94 -20 130 5 18 13 44 51 64 93 27 56 34 83 34
132 0 34 3 81 6 106 l6 45 29 -14 c42 -21 82 -8 132 41 79 77 122 197 99 280
-10 34 -9 37 6 30 9 -4 42 -9 73 -11 51 -5 58 -3 73 18 30 43 66 176 66 244 0
60 11 88 25 65 8 -13 84 -13 125 1 49 17 60 56 60 204 0 69 2 125 4 125 2 0
17 -7 32 -15 16 -8 44 -15 62 -15 28 0 35 5 48 35 8 19 18 87 24 150 10 128
14 142 37 123 9 -7 39 -12 76 -11 73 3 83 11 128 113 33 72 34 80 33 192 -1
114 0 118 20 118 33 0 62 25 107 91 51 76 73 177 64 291 -4 51 -3 78 4 78 27
0 55 119 45 188 -3 23 -24 71 -45 106 -22 36 -39 69 -39 74 0 5 18 17 40 27
56 25 100 77 100 118 0 18 -13 62 -29 98 l-28 65 43 37 c65 57 69 133 10 205
-45 54 -49 69 -26 102 48 68 44 122 -17 217 -33 52 -34 56 -18 73 21 24 44 86
45 124 0 16 -12 43 -29 65 -52 66 -56 80 -30 107 14 15 23 40 26 71 4 48 4 48
-72 128 -76 80 -76 80 -66 116 16 54 14 131 -5 158 -9 13 -32 29 -50 37 -24
10 -34 21 -34 37 0 12 -12 47 -27 77 -15 30 -27 58 -27 62 -1 4 42 37 94 73
52 36 99 74 105 85 11 21 23 17 355 -122 139 -59 267 -108 515 -198 129 -46
380 -125 520 -163 463 -125 663 -173 799 -192 110 -16 334 -53 475 -81 112
-21 222 -19 254 6 45 35 88 124 94 191 6 60 6 61 48 79 62 27 111 74 146 143
34 67 35 113 3 148 -10 11 -15 20 -13 22 93 64 209 179 228 225 26 62 -8 161
-62 181 -18 7 -17 9 14 27 19 12 60 50 92 86 l58 66 2 114 c2 109 1 116 -28
175 -30 59 -30 63 -14 85 9 13 22 48 28 79 10 46 9 61 -4 92 -13 31 -21 38
-55 43 -22 4 -40 10 -40 15 0 5 7 51 16 101 17 97 14 189 -7 214 -6 8 -28 17
-48 20 l-36 6 0 172 c0 193 -2 201 -73 250 -53 36 -161 46 -244 22 -90 -26
-88 -29 -61 77 30 120 45 254 33 297 -12 42 -63 88 -109 97 -20 4 -63 7 -97 6
l-60 -1 7 57 c10 92 2 183 -24 258 -11 33 -42 53 -80 53 -27 0 -195 -54 -238
-76 -36 -18 -345 -137 -529 -204 -218 -78 -299 -109 -338 -129 -20 -10 -53
-22 -72 -26 -19 -4 -53 -16 -75 -26 -216 -100 -724 -272 -990 -334 -88 -20
-194 -46 -235 -57 -41 -12 -100 -26 -130 -33 -30 -7 -100 -25 -155 -40 -150
-42 -145 -41 -146 -14 0 13 -6 40 -13 59 -12 32 -11 36 11 53 33 27 29 59 -22
162 -25 50 -45 93 -45 96 0 4 16 10 35 13 21 4 56 25 86 51 27 25 54 45 59 45
5 0 25 16 45 37 43 44 45 74 10 143 -14 27 -34 73 -45 101 -23 58 -17 74 30
84 29 6 102 71 121 107 21 40 -15 198 -70 305 -11 23 -21 44 -21 47 0 2 16 10
35 16 19 6 56 32 81 57 43 42 46 47 41 85 -5 40 -100 237 -119 249 -6 4 8 25
30 47 50 50 82 110 82 154 0 18 -13 63 -29 99 l-28 66 29 24 c25 20 31 35 40
94 5 39 12 84 15 102 7 44 -12 95 -56 151 -20 26 -49 65 -64 87 l-27 40 47 21
c100 44 95 91 -30 278 l-82 123 40 35 40 36 -2 75 c-2 88 -13 113 -89 205 -51
62 -66 92 -45 92 16 0 51 66 51 94 0 15 -10 65 -22 113 -24 99 -61 160 -157
258 -62 64 -63 67 -51 96 26 62 -19 215 -84 288 -11 13 -54 45 -94 73 l-72 49
15 29 c21 41 19 89 -9 164 -30 83 -80 166 -128 213 l-37 36 50 55 c53 61 58
77 32 113 -10 13 -29 46 -42 72 -14 27 -43 67 -66 90 -23 23 -65 72 -94 109
-46 59 -50 69 -40 91 12 26 -3 120 -39 242 -17 58 -20 62 -97 113 -75 50 -80
55 -81 90 -2 66 -26 145 -75 247 -47 96 -104 165 -136 165 -8 0 -13 13 -13 38
0 41 -49 209 -74 257 -9 17 -16 35 -16 40 0 6 -19 32 -42 59 -40 47 -118 92
-191 110 -26 6 -27 9 -21 49 4 23 14 50 23 60 21 24 27 137 11 224 -12 73 -81
218 -125 266 -41 44 -58 36 -137 -65 -103 -131 -103 -131 -300 -432 -23 -35
-38 -51 -38 -40 0 11 28 105 61 209 33 105 72 231 86 280 13 50 42 151 63 225
60 208 67 244 80 405 10 127 9 159 -3 212 -15 61 -80 193 -95 193 -37 0 -347
-460 -454 -675 -22 -44 -58 -109 -79 -145 -21 -36 -47 -90 -57 -120 -11 -30
-33 -82 -49 -115 -16 -33 -40 -92 -53 -132 -24 -76 -55 -132 -46 -83 3 14 8
52 11 85 4 32 25 122 47 200 22 77 50 185 63 240 13 55 35 143 49 195 36 137
70 386 70 520 1 124 -15 220 -46 287 -22 48 -122 143 -150 143 -21 0 -98 -147
-146 -280 -32 -89 -185 -564 -221 -685 -60 -208 -167 -677 -177 -780 -11 -119
-21 -104 -28 47 -7 140 5 333 24 368 4 8 13 47 20 85 6 39 15 88 20 110 28
141 62 362 70 448 11 128 -3 317 -31 412 -30 100 -106 242 -156 292 -46 46
-55 50 -71 31z"/>
</g>
</svg>
