<?xml version="1.0" standalone="no"?>
<!DOCTYPE svg PUBLIC "-//W3C//DTD SVG 20010904//EN"
 "http://www.w3.org/TR/2001/REC-SVG-20010904/DTD/svg10.dtd">
<svg version="1.0" xmlns="http://www.w3.org/2000/svg"
 width="3792.000000pt" height="2688.000000pt" viewBox="0 0 3792.000000 2688.000000"
 preserveAspectRatio="xMidYMid meet">
<metadata>
Created by potrace 1.16, written by Peter Selinger 2001-2019
</metadata>
<g transform="translate(0.000000,2688.000000) scale(0.100000,-0.100000)"
fill="#000000" stroke="none">
<path d="M34815 26809 c-234 -21 -509 -101 -734 -213 -193 -95 -333 -186 -686
-447 l-110 -80 -9 28 c-12 37 -15 40 -26 23 -8 -13 -12 -11 -25 8 -9 12 -21
22 -27 22 -10 0 -8 -14 7 -55 5 -12 -6 -5 -26 18 -19 20 -41 37 -49 37 -9 0
-6 -6 8 -16 16 -11 22 -24 20 -45 l-2 -29 -31 30 c-18 17 -45 48 -61 70 -16
22 -37 40 -46 40 -10 0 -20 11 -24 25 -3 14 -10 25 -15 25 -15 0 -10 -23 11
-58 33 -54 23 -50 -50 23 -92 92 -90 64 3 -33 l72 -76 -65 55 c-136 115 -170
140 -191 144 -12 3 -27 9 -33 15 -5 5 -15 10 -20 10 -6 0 8 -19 29 -41 l40
-41 -34 17 c-35 17 -111 46 -111 41 0 -1 27 -20 60 -41 33 -21 58 -41 55 -43
-2 -2 -32 12 -67 31 -172 96 -219 116 -283 123 l-40 4 43 -26 c23 -14 42 -27
42 -29 0 -4 -129 55 -232 105 -46 23 -83 19 -44 -4 25 -15 59 -47 54 -51 -2
-3 -49 14 -103 37 -109 45 -353 118 -371 111 -19 -7 -3 -44 24 -54 14 -5 40
-22 57 -37 18 -15 40 -33 51 -40 18 -12 18 -13 -1 -8 -11 2 -58 16 -105 31
-166 52 -277 83 -311 87 -58 5 -40 -22 49 -78 46 -28 93 -61 105 -73 l22 -22
-25 5 c-45 10 -533 75 -616 82 -82 7 -184 -8 -184 -27 0 -11 10 -15 205 -86
83 -29 133 -51 113 -48 -192 29 -431 34 -478 10 -17 -9 -30 -22 -30 -29 0 -18
57 -54 99 -62 81 -17 25 -24 -181 -24 -203 -1 -368 -8 -550 -26 -48 -5 -68
-11 -68 -20 0 -8 3 -14 8 -14 4 0 75 -15 157 -34 83 -18 205 -44 272 -57 123
-23 143 -39 52 -39 -54 0 -495 -54 -623 -76 -121 -21 -156 -36 -156 -68 0 -20
5 -26 23 -27 12 0 81 -2 152 -3 196 -5 385 -18 385 -26 0 -4 -25 -10 -55 -14
-214 -25 -685 -154 -685 -187 0 -19 87 -39 173 -40 l92 -2 -70 -7 c-72 -7
-123 -27 -202 -82 -24 -16 -73 -40 -110 -54 -38 -13 -87 -31 -110 -40 -24 -9
-43 -21 -43 -27 0 -12 -31 -31 -152 -94 -62 -31 -67 -36 -57 -55 9 -16 8 -22
-2 -29 -8 -5 -14 -18 -14 -30 0 -17 -34 -45 -152 -124 -166 -112 -248 -176
-425 -333 -587 -517 -978 -983 -1535 -1830 -182 -277 -536 -892 -888 -1542
-420 -775 -569 -1031 -795 -1360 -155 -226 -223 -311 -316 -398 -49 -46 -145
-138 -214 -206 -140 -138 -211 -196 -420 -346 -80 -57 -147 -107 -150 -111 -6
-9 -104 -58 -165 -84 -35 -14 -38 -17 -22 -27 10 -5 27 -8 38 -5 10 3 17 2 14
-3 -3 -4 -60 -28 -127 -53 -114 -41 -173 -57 -271 -72 -39 -6 -42 -25 -5 -25
44 0 5 -13 -109 -37 -149 -31 -368 -43 -577 -33 -170 9 -283 31 -385 76 -72
32 -94 32 -61 0 27 -26 132 -81 215 -112 72 -27 36 -28 -106 -4 -273 46 -484
114 -643 207 -32 18 -61 31 -65 28 -7 -8 39 -47 97 -82 24 -14 41 -27 39 -29
-2 -2 -64 9 -138 25 -468 103 -797 140 -1309 148 -1171 19 -2204 -143 -3375
-528 -612 -201 -992 -344 -1305 -492 -378 -178 -802 -355 -995 -414 -442 -136
-685 -193 -820 -193 -65 0 -308 37 -400 61 -21 6 -150 65 -285 131 -705 346
-1263 579 -1815 759 -177 58 -457 142 -580 174 -77 20 -171 45 -210 55 -90 24
-431 94 -555 114 -504 82 -836 119 -1445 162 -305 22 -1436 31 -1750 14 -259
-13 -585 -44 -705 -66 -169 -31 -365 -84 -650 -176 -148 -48 -194 -68 -158
-68 9 0 94 15 190 34 274 54 568 92 958 122 267 21 1433 31 1770 15 1270 -59
2251 -259 3280 -670 218 -87 493 -211 486 -218 -3 -3 -67 7 -143 22 -403 78
-928 159 -1368 210 -786 92 -1622 108 -2480 49 -852 -58 -1904 -207 -2880
-408 -424 -88 -658 -151 -780 -212 -92 -46 -235 -143 -235 -158 0 -24 12 -24
83 0 390 134 1280 277 2077 334 482 34 774 43 1415 43 528 1 708 -3 900 -17
472 -34 1120 -100 1139 -117 4 -4 -131 -8 -300 -8 -447 -2 -1061 -29 -1504
-66 -96 -8 -212 -15 -257 -15 -46 0 -91 -4 -101 -9 -9 -5 -105 -19 -212 -31
-460 -50 -960 -132 -1510 -246 -465 -96 -1163 -256 -1400 -321 -195 -53 -592
-212 -730 -294 -144 -85 -153 -100 -29 -49 213 88 470 155 944 244 500 94
1464 229 1945 271 91 8 183 17 205 20 83 11 553 35 890 46 364 11 1223 0 1500
-21 131 -10 581 -58 600 -64 45 -15 -440 -56 -790 -66 -500 -15 -1190 -71
-1530 -125 -49 -8 -166 -25 -260 -39 -438 -65 -1022 -201 -1485 -347 -275 -87
-952 -342 -1228 -463 -115 -51 -483 -234 -582 -290 -36 -21 -168 -89 -295
-151 -126 -63 -224 -114 -216 -114 19 -1 376 166 586 275 367 189 667 319
1180 508 866 320 1625 497 2625 611 380 44 1125 99 1110 82 -6 -6 -210 -31
-380 -47 -381 -36 -968 -132 -1350 -221 -1157 -271 -2492 -818 -3034 -1244
-11 -8 -16 -18 -12 -22 8 -9 16 -5 301 156 324 182 721 372 1070 511 633 252
1105 406 1625 531 243 58 734 153 754 146 6 -2 -9 -8 -34 -12 -95 -16 -575
-149 -790 -219 -586 -191 -1332 -490 -1885 -756 -82 -40 -206 -99 -275 -132
-68 -32 -176 -87 -240 -122 -63 -35 -193 -105 -289 -156 -95 -51 -194 -109
-220 -129 -25 -19 -95 -66 -156 -105 -296 -187 -334 -213 -680 -472 -82 -62
-180 -137 -216 -167 -107 -87 -352 -293 -374 -313 -11 -11 -90 -83 -175 -160
-257 -234 -814 -811 -1105 -1145 -150 -171 -239 -268 -251 -273 -8 -3 -18 -16
-23 -28 -9 -21 -160 -198 -331 -389 -206 -229 -340 -395 -340 -423 0 -11 9
-16 27 -16 23 0 100 73 448 423 812 818 1335 1270 2033 1757 460 322 1085 677
1537 875 72 31 171 75 220 97 50 22 119 52 155 68 59 26 448 170 630 233 89
31 643 197 656 197 16 -1 -19 -17 -161 -75 -223 -90 -803 -381 -1067 -535
-134 -78 -286 -167 -338 -198 -169 -99 -957 -642 -1015 -700 -16 -16 -102 -87
-190 -157 -88 -71 -232 -192 -320 -269 -88 -78 -178 -157 -200 -176 -47 -41
-258 -245 -470 -455 -350 -347 -879 -984 -1231 -1481 -238 -338 -346 -489
-426 -600 -77 -107 -281 -380 -459 -616 -80 -106 -160 -220 -179 -253 -18 -33
-62 -104 -97 -159 -35 -54 -61 -101 -58 -104 12 -13 43 18 144 144 114 142
206 247 410 464 75 80 160 172 190 205 76 85 504 507 641 634 242 223 308 280
479 418 246 200 545 418 740 541 91 58 189 119 216 137 124 80 641 353 650
343 2 -2 -60 -60 -138 -128 -385 -339 -797 -778 -1149 -1225 -429 -546 -813
-1136 -1188 -1825 -248 -456 -368 -636 -569 -853 -46 -50 124 55 213 132 123
106 301 292 411 431 105 132 160 202 400 500 160 199 408 495 490 584 6 6 44
49 84 96 90 104 515 546 701 728 248 245 531 476 820 668 100 67 109 72 84 43
-11 -13 -75 -87 -141 -164 -262 -304 -376 -439 -553 -659 -102 -126 -217 -268
-255 -315 -39 -47 -165 -203 -280 -346 -115 -143 -235 -291 -266 -330 -32 -38
-115 -140 -185 -225 -160 -194 -332 -386 -423 -473 -76 -72 -506 -425 -635
-522 -139 -104 -110 -111 79 -20 241 116 585 339 795 515 67 56 354 307 425
371 117 105 345 309 381 339 64 55 426 373 564 495 392 348 1002 836 1344
1075 240 167 660 421 981 592 560 300 1044 521 1490 683 317 115 568 192 683
210 23 4 42 10 42 15 0 15 560 140 765 171 72 11 173 26 225 34 127 19 407 48
421 43 7 -2 -37 -19 -97 -37 -705 -216 -2072 -719 -2844 -1046 -187 -79 -671
-303 -689 -319 -9 -7 -61 -25 -116 -40 -56 -15 -107 -31 -115 -36 -33 -21 8
-21 142 -1 188 28 478 64 763 96 522 58 1927 238 2155 276 345 57 691 128
1070 221 354 86 744 214 1170 383 88 35 361 118 367 111 2 -2 -101 -43 -229
-91 -588 -222 -1042 -408 -1377 -566 -57 -27 -105 -49 -108 -49 -12 0 -448
-224 -639 -328 -122 -67 -290 -156 -373 -198 -83 -42 -151 -81 -151 -86 0 -21
36 -19 108 7 42 16 187 72 322 126 540 214 632 250 805 312 362 130 999 337
1037 337 13 0 88 23 168 50 137 47 258 84 720 214 268 75 611 166 630 166 8 0
-40 -31 -107 -69 -232 -132 -548 -353 -683 -477 -53 -50 -190 -214 -190 -228
0 -20 41 2 99 52 146 129 417 301 659 417 179 87 496 215 529 215 26 0 -410
-253 -588 -340 -67 -33 -130 -60 -140 -60 -25 0 -49 -10 -49 -21 0 -12 148 -1
220 16 30 8 105 21 165 30 125 19 146 24 268 72 49 19 91 33 93 30 2 -2 -42
-35 -98 -74 -329 -225 -574 -333 -759 -333 -38 0 -69 -4 -69 -10 0 -24 66 -44
145 -45 257 -1 491 73 789 249 42 25 76 43 76 41 0 -2 -25 -43 -55 -89 -68
-103 -99 -171 -91 -199 3 -11 -1 -32 -8 -46 -8 -14 -17 -41 -21 -58 -10 -51
15 -41 50 18 32 55 165 187 266 264 60 47 62 47 88 32 48 -28 144 -40 284 -35
112 5 156 12 292 47 88 23 218 60 289 82 70 22 130 38 133 36 8 -8 -129 -113
-182 -140 -27 -13 -133 -60 -235 -103 -141 -60 -178 -80 -157 -82 37 -5 187
25 267 53 36 13 78 26 94 30 17 3 60 24 96 46 36 21 70 39 74 39 19 0 -275
-366 -399 -498 -227 -241 -580 -519 -930 -734 -262 -161 -615 -336 -900 -446
-299 -116 -462 -162 -775 -222 -118 -23 -242 -52 -275 -65 -33 -13 -94 -28
-135 -34 -97 -13 -171 -39 -262 -92 -140 -81 -226 -170 -318 -329 -59 -102
-81 -124 -185 -180 -261 -141 -394 -280 -532 -557 l-65 -131 -9 -129 c-19
-287 -38 -404 -154 -940 -191 -877 -303 -1259 -463 -1573 -143 -281 -267 -470
-452 -689 -47 -55 -95 -120 -107 -143 -11 -24 -41 -83 -66 -133 -25 -49 -59
-132 -76 -182 -18 -51 -53 -128 -80 -170 -62 -102 -207 -433 -219 -503 -7 -36
-7 -70 0 -100 5 -25 10 -54 10 -66 0 -28 -65 -125 -102 -153 -40 -29 -128
-149 -179 -243 -31 -56 -56 -87 -94 -116 -76 -58 -270 -241 -285 -269 -8 -15
-39 -36 -76 -53 -89 -40 -231 -135 -264 -178 -65 -83 -118 -172 -153 -252 -32
-76 -42 -89 -90 -122 -30 -21 -111 -67 -181 -103 -127 -65 -158 -91 -158 -131
0 -29 18 -42 76 -53 27 -6 81 -17 119 -26 53 -13 90 -15 150 -10 44 4 97 7
118 6 241 -7 272 -6 309 14 91 49 221 150 341 263 121 114 169 147 152 105
-19 -49 -45 -172 -45 -214 0 -46 -1 -48 -38 -60 -112 -36 -267 -173 -303 -267
-37 -101 -36 -149 7 -299 5 -18 -1 -25 -43 -46 -67 -34 -127 -91 -168 -161
-66 -113 -41 -146 94 -126 93 14 218 44 290 71 l53 20 -6 -28 c-3 -15 -11 -71
-18 -123 -17 -145 8 -230 73 -252 6 -2 -32 -66 -85 -143 -65 -94 -96 -148 -96
-167 0 -75 132 -79 267 -9 212 110 426 286 534 438 8 11 24 25 36 31 12 7 38
40 59 74 21 35 52 86 69 113 17 28 62 102 100 165 114 190 262 396 405 560
466 536 555 671 713 1085 18 46 46 92 83 135 89 104 160 210 229 342 135 259
210 498 450 1428 229 887 244 933 403 1300 315 727 538 1054 933 1370 83 66
228 159 409 262 247 141 815 399 1215 553 547 210 931 339 1840 619 702 216
1135 363 1535 521 312 124 340 133 351 112 7 -12 23 -14 88 -10 53 4 80 2 85
-6 4 -6 33 -11 64 -12 31 0 51 -3 45 -6 -7 -2 -13 -12 -13 -20 0 -13 9 -14 48
-9 139 17 165 19 158 8 -13 -22 23 -26 186 -24 102 2 168 -1 172 -7 4 -6 44
-8 99 -6 50 2 81 2 67 -1 -61 -11 -70 -15 -70 -29 0 -19 22 -19 175 0 151 19
324 32 331 26 3 -3 -32 -13 -78 -22 -106 -21 -145 -36 -131 -50 9 -9 80 -2
160 18 16 3 21 0 20 -14 -2 -19 -1 -19 81 -7 52 8 57 -9 5 -22 -45 -11 -56
-34 -16 -34 15 0 73 7 127 15 114 17 216 20 216 5 0 -5 7 -10 15 -10 9 0 18
-7 21 -15 4 -8 18 -15 34 -15 16 0 30 -5 32 -11 3 -8 51 -12 148 -13 80 -1
163 -7 185 -14 47 -14 461 -56 725 -73 376 -24 784 7 1230 95 l115 22 78 -38
c151 -75 314 -205 543 -433 201 -200 316 -342 469 -580 178 -275 360 -765 450
-1205 77 -379 175 -1114 177 -1330 0 -63 7 -139 14 -168 8 -29 14 -63 14 -75
1 -44 42 -112 128 -211 125 -143 136 -162 156 -246 10 -41 34 -115 54 -165 36
-87 39 -91 109 -140 39 -27 120 -79 179 -115 273 -165 536 -372 770 -605 205
-205 285 -295 524 -590 310 -382 881 -1045 1140 -1323 63 -68 149 -162 191
-210 98 -112 114 -127 503 -467 6 -5 22 -44 35 -85 34 -109 97 -233 146 -288
35 -39 43 -56 47 -98 3 -35 15 -66 36 -98 24 -35 32 -58 32 -92 0 -55 18 -100
60 -147 54 -62 123 -76 605 -127 321 -34 400 -50 482 -98 73 -43 244 -98 393
-127 47 -9 94 -19 105 -21 11 -2 53 -30 94 -63 41 -33 100 -72 130 -88 31 -15
84 -53 117 -84 81 -75 100 -84 245 -115 123 -27 137 -27 263 -5 38 6 82 3 185
-16 152 -27 281 -25 281 4 0 21 -79 140 -128 192 -23 24 -44 57 -48 75 -17 82
-93 166 -229 255 l-70 46 115 9 115 8 165 -55 c231 -76 319 -92 515 -90 145 1
171 4 280 32 66 17 141 39 167 48 45 16 56 16 184 -2 215 -28 314 -22 314 21
0 38 -18 53 -195 171 -66 44 -258 142 -365 186 -148 61 -393 133 -596 176 -56
12 -157 37 -225 56 -68 20 -234 62 -369 95 -525 129 -667 178 -853 292 -153
94 -190 129 -281 267 -94 143 -169 239 -321 411 -56 63 -106 123 -111 133 -17
31 -627 649 -918 930 -155 150 -420 402 -589 561 -307 287 -309 290 -560 600
-561 692 -714 889 -817 1055 -50 81 -247 377 -298 449 -19 26 -81 144 -139
262 -161 327 -220 526 -289 964 -35 223 -39 279 -64 866 -6 135 -19 326 -30
425 -11 99 -29 317 -40 485 -21 322 -29 415 -61 730 -28 279 -126 1005 -149
1106 -11 49 -11 49 22 75 236 188 357 287 482 395 181 157 225 191 298 233
l57 32 -5 -53 c-2 -29 -9 -77 -14 -107 -15 -84 -13 -99 13 -103 26 -4 26 -19
-4 -122 -21 -69 -17 -95 14 -83 16 6 81 97 114 161 27 51 28 45 3 -82 -30
-162 -36 -245 -16 -261 9 -7 23 -11 31 -7 12 4 15 -4 15 -40 0 -32 5 -46 16
-51 14 -5 15 -16 10 -66 -11 -105 12 -168 50 -136 7 6 32 55 56 109 23 55 43
98 45 97 1 -2 -9 -61 -22 -132 -41 -220 -30 -311 32 -254 28 26 143 259 189
384 l29 80 5 -165 c3 -91 11 -176 16 -189 11 -25 11 -24 37 21 15 25 36 87 47
138 11 51 24 109 30 129 5 20 10 83 10 141 0 128 15 118 25 -17 5 -66 11 -93
20 -93 41 0 72 274 60 519 -7 159 3 198 23 89 12 -65 23 -85 41 -74 33 21 -17
352 -85 555 l-35 105 33 31 c18 17 73 69 121 115 49 47 85 77 82 67 -17 -43
39 -2 194 142 376 351 573 570 875 975 201 269 501 705 644 936 12 19 22 31
22 26 0 -14 -137 -251 -237 -411 -222 -351 -508 -733 -810 -1082 -155 -178
-167 -193 -158 -201 4 -4 61 49 127 118 181 189 373 425 595 732 58 81 113
150 122 153 21 7 106 123 184 251 34 56 71 105 82 110 31 14 200 274 338 519
55 97 219 439 267 557 13 32 25 56 27 55 4 -4 -122 -434 -151 -517 -13 -36
-42 -114 -65 -174 -40 -103 -45 -126 -22 -112 11 7 103 194 174 356 151 347
412 1097 562 1620 63 220 85 286 72 215 -4 -16 -22 -115 -42 -220 -65 -341
-187 -808 -285 -1084 -61 -174 -54 -209 14 -67 25 54 46 100 46 104 0 4 28 79
61 167 273 718 436 1228 634 1992 103 398 106 410 100 323 -13 -159 -16 -306
-7 -319 19 -28 29 0 31 89 3 167 63 613 106 780 l14 55 -7 -85 c-4 -47 -6
-153 -6 -236 0 -126 3 -156 17 -178 28 -42 34 -31 24 42 -12 86 -3 322 18 482
25 189 121 648 132 636 3 -2 -5 -67 -16 -143 -11 -76 -23 -169 -26 -208 l-5
-70 30 110 c16 61 39 171 50 245 80 527 253 1189 417 1595 95 235 196 427 348
660 268 412 682 791 1229 1125 94 57 465 204 481 190 8 -7 25 -6 53 4 22 8 57
12 78 10 22 -3 84 4 138 15 91 18 100 19 111 4 11 -14 16 -14 63 1 55 19 92
14 92 -11 0 -13 7 -14 38 -9 56 10 123 17 159 17 18 -1 64 11 104 25 61 22 75
24 95 14 12 -7 30 -10 39 -6 9 3 18 0 21 -9 8 -21 22 -19 119 14 48 17 87 26
90 20 4 -5 20 -9 37 -9 17 0 36 -7 43 -16 10 -15 17 -14 76 10 36 14 72 26 80
26 8 0 32 9 55 19 46 21 74 13 74 -19 0 -28 30 -26 92 6 42 21 55 24 73 14 17
-9 30 -8 65 6 32 13 45 14 48 6 6 -18 44 -15 93 7 30 14 78 22 149 26 126 7
199 19 275 45 43 15 61 17 74 8 13 -8 25 -7 48 6 18 9 38 13 46 11 7 -3 44 8
81 25 37 16 73 27 79 23 20 -13 50 -2 119 43 105 67 148 88 148 69 0 -23 49
-19 106 9 97 49 133 58 254 70 19 2 37 4 40 5 3 2 52 4 109 6 108 4 385 51
506 86 150 44 430 150 595 226 47 22 103 46 125 53 49 16 518 263 670 352 61
36 205 121 320 190 116 68 273 160 350 203 229 128 320 182 371 223 85 68 162
148 178 187 15 35 15 38 -11 83 -34 62 -169 316 -223 422 -24 47 -67 128 -95
180 -29 52 -78 145 -110 205 -108 207 -206 326 -470 569 -154 142 -258 225
-422 336 -372 254 -678 378 -1103 446 -123 20 -482 27 -635 13z m-6415 -2202
c0 -2 -10 -12 -22 -23 l-23 -19 19 23 c18 21 26 27 26 19z m-90 -80 c0 -2 -10
-12 -22 -23 l-23 -19 19 23 c18 21 26 27 26 19z m-150 -140 c0 -2 -17 -19 -37
-38 l-38 -34 34 38 c33 34 41 42 41 34z m-80 -81 c0 -2 -8 -10 -17 -17 -16
-13 -17 -12 -4 4 13 16 21 21 21 13z m-90 -89 c0 -1 -28 -29 -62 -62 l-63 -60
60 63 c55 58 65 67 65 59z m2340 -2140 c0 -2 -10 -12 -22 -23 l-23 -19 19 23
c18 21 26 27 26 19z m-70 -61 c0 -2 -8 -10 -17 -17 -16 -13 -17 -12 -4 4 13
16 21 21 21 13z m-60 -49 c0 -2 -10 -12 -22 -23 l-23 -19 19 23 c18 21 26 27
26 19z m-70 -60 c0 -2 -12 -14 -27 -28 l-28 -24 24 28 c23 25 31 32 31 24z
m-21722 -4104 c-10 -2 -26 -2 -35 0 -10 3 -2 5 17 5 19 0 27 -2 18 -5z m-2221
-329 c-3 -3 -12 -4 -19 -1 -8 3 -5 6 6 6 11 1 17 -2 13 -5z m-104 -11 c-7 -2
-19 -2 -25 0 -7 3 -2 5 12 5 14 0 19 -2 13 -5z m-95 -10 c-10 -2 -26 -2 -35 0
-10 3 -2 5 17 5 19 0 27 -2 18 -5z m-101 -9 c-3 -3 -12 -4 -19 -1 -8 3 -5 6 6
6 11 1 17 -2 13 -5z m-80 -10 c-3 -3 -12 -4 -19 -1 -8 3 -5 6 6 6 11 1 17 -2
13 -5z m19693 -4748 c0 -2 -8 -10 -17 -17 -16 -13 -17 -12 -4 4 13 16 21 21
21 13z m-50 -50 c0 -2 -8 -10 -17 -17 -16 -13 -17 -12 -4 4 13 16 21 21 21 13z
m-45 -44 c-6 -4 -44 -39 -86 -77 l-75 -70 77 78 c43 42 82 77 86 77 4 0 3 -4
-2 -8z m-12308 -538 c-12 -12 -297 -109 -349 -118 -27 -5 -22 -1 27 26 143 77
191 94 259 94 36 0 64 -1 63 -2z m-57 -120 c-181 -98 -330 -154 -409 -154 -64
0 -121 9 -121 19 0 3 21 19 48 35 43 27 56 30 142 31 87 1 108 6 240 52 80 28
150 52 155 52 6 0 -19 -15 -55 -35z m13166 -8546 l29 -33 -32 29 c-31 28 -38
36 -30 36 2 0 16 -15 33 -32z"/>
<path d="M33135 26090 c3 -5 8 -10 11 -10 2 0 4 5 4 10 0 6 -5 10 -11 10 -5 0
-7 -4 -4 -10z"/>
</g>
</svg>
