<?xml version="1.0" standalone="no"?>
<!DOCTYPE svg PUBLIC "-//W3C//DTD SVG 20010904//EN"
 "http://www.w3.org/TR/2001/REC-SVG-20010904/DTD/svg10.dtd">
<svg version="1.0" xmlns="http://www.w3.org/2000/svg"
 width="1536.000000pt" height="1156.000000pt" viewBox="0 0 1536.000000 1156.000000"
 preserveAspectRatio="xMidYMid meet">
<metadata>
Created by potrace 1.16, written by Peter Selinger 2001-2019
</metadata>
<g transform="translate(0.000000,1156.000000) scale(0.100000,-0.100000)"
fill="#000000" stroke="none">
<path d="M15274 11529 c-126 -80 -386 -383 -929 -1084 -115 -148 -254 -326
-310 -395 -147 -181 -293 -380 -635 -865 -335 -475 -373 -527 -438 -600 -252
-280 -956 -985 -1151 -1152 -150 -129 -302 -218 -654 -383 -139 -65 -299 -140
-357 -168 -204 -96 -511 -204 -756 -266 -447 -112 -956 -174 -1349 -163 l-200
6 -145 51 c-520 185 -575 200 -876 236 -253 31 -496 37 -584 15 -39 -10 -140
-15 -345 -17 -315 -3 -386 -11 -570 -64 -192 -55 -307 -81 -593 -131 -357 -62
-338 -57 -747 -194 -187 -63 -379 -121 -427 -131 -106 -20 -125 -15 -202 61
-97 96 -147 198 -234 480 -88 286 -173 462 -316 653 -134 179 -260 298 -381
360 -54 27 -532 206 -680 253 -95 31 -200 50 -380 69 -205 22 -308 54 -363
112 l-22 25 35 58 c86 143 121 321 95 480 -6 36 -17 65 -27 73 -28 21 -143 9
-255 -27 l-97 -32 25 -54 c90 -204 27 -432 -145 -523 -83 -45 -179 -67 -418
-97 -307 -39 -391 -60 -548 -137 -153 -76 -251 -162 -281 -246 -7 -20 -13 -71
-14 -113 0 -70 2 -78 24 -92 21 -14 25 -14 45 6 21 21 23 21 51 5 25 -14 30
-15 41 -2 16 20 49 14 63 -11 6 -11 12 -22 13 -24 1 -2 14 4 27 13 34 22 36
21 36 -14 0 -37 23 -40 46 -5 9 14 22 25 30 25 14 0 29 -41 26 -72 -1 -24 23
-23 48 2 29 29 36 25 52 -22 16 -50 35 -60 40 -21 2 22 8 28 27 28 25 0 34
-11 51 -59 l11 -30 19 32 c11 18 24 32 30 32 6 0 17 -18 26 -40 19 -48 44 -54
44 -11 0 66 44 45 55 -25 8 -56 29 -67 59 -30 24 31 53 27 58 -7 4 -32 35 -34
49 -3 20 43 49 28 49 -25 0 -25 5 -24 44 6 47 36 81 33 102 -7 9 -18 18 -35
21 -37 2 -3 17 10 33 27 16 18 33 32 38 32 17 0 80 -78 107 -131 35 -67 62
-178 71 -281 l6 -84 -48 -41 c-27 -22 -110 -82 -184 -133 -74 -51 -157 -111
-185 -135 -44 -37 -57 -43 -113 -48 -36 -3 -77 -14 -97 -26 -30 -17 -36 -18
-49 -6 -20 20 -23 19 -30 -9 -8 -32 -39 -42 -68 -22 -32 23 -36 21 -49 -24
-16 -54 -30 -64 -64 -48 -25 11 -29 10 -50 -16 -15 -18 -25 -24 -30 -17 -4 8
-17 5 -41 -10 -32 -20 -36 -20 -53 -5 -24 22 -28 21 -35 -16 -6 -29 -8 -31
-17 -15 -10 16 -13 15 -45 -13 -37 -32 -49 -36 -59 -20 -10 17 -21 11 -33 -15
-29 -64 6 -146 78 -183 38 -20 56 -23 115 -19 76 4 146 27 325 106 63 27 142
57 175 66 81 21 223 19 385 -5 74 -11 173 -25 219 -31 53 -7 118 -25 180 -49
113 -46 253 -83 409 -109 82 -13 119 -24 135 -39 24 -23 118 -72 137 -72 46 0
225 -168 413 -390 182 -214 314 -344 460 -453 64 -48 131 -106 147 -128 46
-64 85 -177 129 -379 66 -293 102 -391 159 -418 l34 -17 2 -88 2 -88 -60 -45
c-178 -134 -396 -221 -651 -259 -55 -8 -129 -15 -165 -15 -129 0 -230 -92
-284 -256 -24 -73 -34 -187 -25 -272 8 -76 35 -172 48 -172 17 0 51 49 91 130
43 87 93 150 118 150 12 0 13 -9 8 -43 -4 -23 -9 -79 -13 -124 -5 -71 -3 -83
11 -89 31 -12 81 41 130 135 25 49 58 104 72 121 48 56 117 78 127 40 7 -28
32 -25 75 10 62 49 198 106 382 160 222 64 277 84 372 132 91 47 167 116 202
187 l27 52 46 -33 c131 -92 221 -218 248 -345 l14 -67 -82 -86 c-237 -246
-274 -279 -343 -313 l-69 -32 -250 -6 c-228 -5 -255 -7 -304 -27 -66 -28 -124
-68 -176 -122 l-40 -42 35 6 c19 3 62 10 94 16 77 13 177 13 213 -1 15 -5 40
-21 54 -35 23 -22 34 -25 92 -22 104 3 110 -22 23 -99 -93 -82 -223 -129 -449
-162 -70 -10 -130 -21 -133 -24 -10 -10 48 -66 89 -86 100 -48 215 -35 446 50
74 27 138 48 143 47 5 -2 -4 -24 -20 -49 -21 -32 -53 -60 -113 -98 -84 -54
-159 -117 -159 -135 0 -16 153 2 216 25 83 31 173 93 289 198 55 51 132 112
172 137 71 45 73 47 103 126 17 44 38 91 46 104 31 47 310 244 504 356 116 67
139 95 210 259 70 164 74 169 120 169 55 0 172 17 350 50 252 47 248 47 295
10 22 -18 85 -63 140 -100 55 -38 128 -93 161 -124 34 -30 83 -64 110 -75 272
-107 641 -311 779 -431 88 -76 90 -67 -32 -165 -157 -126 -386 -275 -539 -351
-74 -36 -151 -79 -173 -94 -49 -36 -78 -96 -124 -260 -54 -193 -76 -242 -118
-262 -49 -23 -93 -76 -118 -143 -16 -41 -18 -61 -11 -75 16 -30 12 -99 -10
-170 -44 -140 -46 -210 -7 -210 22 0 91 67 154 152 49 64 107 98 171 98 48 0
47 4 30 -102 -10 -68 -9 -79 6 -103 l18 -27 50 48 c272 264 407 492 427 721 9
107 25 134 119 206 64 49 185 122 220 132 34 10 28 -23 -23 -124 -25 -49 -45
-91 -45 -95 0 -13 67 -5 105 13 53 25 83 59 140 161 60 107 103 170 234 345
109 146 158 218 201 297 l26 47 41 -53 c22 -29 94 -98 159 -153 66 -55 158
-143 207 -196 103 -112 183 -179 384 -318 231 -159 492 -357 559 -424 55 -54
63 -68 74 -120 46 -219 -104 -525 -330 -673 -92 -60 -197 -98 -341 -122 -214
-36 -280 -62 -318 -124 -12 -18 -21 -37 -21 -41 0 -4 29 -5 64 -2 41 4 67 2
75 -6 18 -18 13 -24 -30 -31 -92 -15 -164 -74 -212 -175 -24 -52 -27 -65 -16
-72 22 -13 52 -11 121 11 86 27 98 26 154 -17 69 -53 132 -56 257 -15 96 32
157 45 157 36 0 -4 -13 -34 -29 -68 -34 -71 -50 -133 -51 -194 0 -40 2 -43 23
-37 27 8 70 38 156 106 52 41 69 50 90 45 92 -21 85 -24 175 53 113 96 153
142 166 192 7 24 29 60 54 88 67 71 69 79 61 200 -8 127 -5 137 86 272 65 97
161 287 200 399 20 54 24 85 24 186 l0 121 -43 87 c-46 92 -82 132 -364 404
-178 172 -212 239 -283 556 -70 314 -133 471 -255 635 -79 106 -208 226 -274
255 -93 41 -105 88 -61 237 14 46 28 117 32 157 l6 72 92 93 c102 102 120 134
160 282 26 95 61 181 88 216 19 26 276 162 437 233 147 64 323 127 415 146
235 49 1049 491 1630 884 184 125 726 576 900 751 264 264 694 774 927 1100
108 151 501 821 927 1580 708 1259 661 1182 960 1583 212 285 304 420 371 545
37 67 39 77 23 77 -11 0 -41 -14 -69 -31z m-8067 -8039 c16 0 27 -10 37 -35 8
-19 28 -54 44 -77 58 -85 90 -168 64 -168 -18 0 -87 68 -141 139 -32 42 -66
82 -75 90 -33 28 -14 65 29 56 11 -3 30 -5 42 -5z"/>
</g>
</svg>
